<svg id="レイヤー_1" data-name="レイヤー 1" xmlns="http://www.w3.org/2000/svg" viewBox="0 0 1132 320"><defs><style>.cls-1{fill:#ee6b4c;}.cls-2{fill:#fff;}</style></defs><rect class="cls-1" width="320" height="320" rx="160"/><rect class="cls-1" x="406" width="320" height="320" rx="160"/><rect class="cls-1" x="812" width="320" height="320" rx="160"/><path class="cls-2" d="M204.94,387.16h.45c1.6,0,6.4-.4,9.65-.8a79.7,79.7,0,0,0,1.15-9.9v-.85l9.05.85a24.65,24.65,0,0,0-.8,4c-.4,2.3-.75,4.2-.95,5.35.85-.05,1.45-.1,2.15-.1,3.1,0,5.4.65,7.1,2,2.55,2,3.55,5.1,3.55,10.75,0,7.8-1.15,14.3-3.15,17.76a8,8,0,0,1-3.2,3,9.55,9.55,0,0,1-3.9.7,28.57,28.57,0,0,1-7.95-1.35,22.31,22.31,0,0,0,.15-2.9,23,23,0,0,0-.75-5.95,23.28,23.28,0,0,0,6.85,1.79c1,0,1.7-.65,2.25-2.25a44.18,44.18,0,0,0,1.35-11.1c0-2.15-.3-3.35-.95-4.05s-1.25-.85-3-.85a18.15,18.15,0,0,0-2,.1,99.14,99.14,0,0,1-3.55,12.45,107.33,107.33,0,0,1-5.3,12.91c-.4.85-.5,1.1-.8,1.8l-8.25-4.35c3.2-4.25,7.4-14.21,9.4-22.11a62.21,62.21,0,0,0-7.8,1.4Zm37.1-5.35a52,52,0,0,1,10.2,21.35l-8.2,3.9c-1.65-9.15-4.75-16.4-9.35-21.85Z" transform="translate(-140 -237)"/><path class="cls-2" d="M278.64,377.61c-1.05,1.95-1.8,3.7-7.6,18.65a10.32,10.32,0,0,1,6.2-2.2,6.54,6.54,0,0,1,6.65,4.8c.5,1.8.5,2.2.6,8.4,0,3.5.6,4.61,2.4,4.61,2,0,3.45-1.31,4.65-4.06a27.61,27.61,0,0,0,2-9.25,26.13,26.13,0,0,0,8,5c-1,5.2-2.3,8.61-4.5,11.56a13.56,13.56,0,0,1-11.15,5.35c-3.2,0-5.65-.85-7.3-2.6s-2.4-3.91-2.4-7.45c0-.46,0-1.41.05-3.56V406c0-2.45-.55-3.25-2.1-3.25-2.3,0-4.7,2.3-6.65,6.5a61.24,61.24,0,0,0-3.9,11.51L254.34,418c.9-1.75,1-2,4-10.71.4-1.25,2.15-6.25,5.2-15.05,4-11.65,5-14.7,5.35-16.7Z" transform="translate(-140 -237)"/><path class="cls-2" d="M332.49,389.26a85,85,0,0,1,13.25-.75c.35,0,1.4,0,2.45.05l.15,8.45a45.06,45.06,0,0,0-6.55-.35,67.11,67.11,0,0,0-14.05,1.25l-.5-7.1c-2.4.25-3,.3-4.55.4-.85,4.7-1.75,8.4-3.15,13.6-1.25,4.4-1.55,5.5-3.7,12-.8,2.4-.8,2.4-1.15,3.6l-9.2-3.35c3.3-6.4,6.55-16.36,8.4-25.61h-.8c-1.6,0-2.65-.05-4.8-.15h-.5a10.08,10.08,0,0,0-1.15.05l.15-8.15a52,52,0,0,0,7.6.5h.95a48.22,48.22,0,0,0,.85-7.5v-.75l9.35.7a15.81,15.81,0,0,0-.65,2.9c-.05.3-.35,1.75-.8,4.3a56.49,56.49,0,0,0,8.2-1.3ZM334.24,403c-1.9,2.25-2.7,3.91-2.7,5.45,0,2.3,2,3.41,6.25,3.41a37.92,37.92,0,0,0,11.8-1.95l.6,8.75-2.65.29a60.29,60.29,0,0,1-9.75.81q-14.7,0-14.7-9.46c0-2.89,1.15-5.7,3.9-9.7Z" transform="translate(-140 -237)"/><path class="cls-2" d="M378.64,377.61c-1.05,1.95-1.8,3.7-7.6,18.65a10.32,10.32,0,0,1,6.2-2.2,6.54,6.54,0,0,1,6.65,4.8c.5,1.8.5,2.2.6,8.4,0,3.5.6,4.61,2.4,4.61,2,0,3.45-1.31,4.65-4.06a27.61,27.61,0,0,0,2-9.25,26.13,26.13,0,0,0,8,5c-1,5.2-2.3,8.61-4.5,11.56a13.56,13.56,0,0,1-11.15,5.35c-3.2,0-5.65-.85-7.3-2.6s-2.4-3.91-2.4-7.45c0-.46,0-1.41.05-3.56V406c0-2.45-.55-3.25-2.1-3.25-2.3,0-4.7,2.3-6.65,6.5a61.24,61.24,0,0,0-3.9,11.51L354.34,418c.9-1.75,1-2,4-10.71.4-1.25,2.15-6.25,5.2-15.05,4-11.65,5-14.7,5.35-16.7Z" transform="translate(-140 -237)"/><path class="cls-2" d="M626.12,379.3a62.36,62.36,0,0,0-.55,9.05c0,11.2,1.6,19.65,3.7,19.65.55,0,1.1-.65,1.6-1.95a50.8,50.8,0,0,0,2.6-8.65,31.63,31.63,0,0,0,6.95,6.3,42.21,42.21,0,0,1-3.8,9.65c-1.85,3.3-4.55,5.1-7.6,5.1-2.8,0-5.2-1.45-7.15-4.3-2.6-3.7-4-8.7-4.6-16.65-.25-3.5-.45-7.7-.55-14.65a35.09,35.09,0,0,0-.2-3.55Zm23,1.8c6.51,7.85,10.16,17,11.56,29.1l-9,3.3c-.54-11.2-4-21.05-10.2-28.9Z" transform="translate(-140 -237)"/><path class="cls-2" d="M665,385.05a47.08,47.08,0,0,0,6.6-1.15c10.2-2.1,14-2.65,19.1-2.65,5.25,0,9.41,1.05,12.41,3.15a14.85,14.85,0,0,1,6.15,12.4c0,7.35-4.3,13.7-11.7,17.25-5.06,2.4-10,3.55-18.76,4.35a30.81,30.81,0,0,0-3.55-9,49.46,49.46,0,0,0,14.25-1.75c3.95-1.15,6.75-3,8.6-5.6a8.07,8.07,0,0,0,1.6-5,6.48,6.48,0,0,0-1.85-4.85c-1.6-1.65-3.9-2.4-7.4-2.4-5.3,0-11.35,1.1-19.25,3.55a28.46,28.46,0,0,0-4.3,1.6Z" transform="translate(-140 -237)"/><path class="cls-2" d="M715.47,380.7c.85.05,1.5.05,1.9.05,1.3,0,3.1-.1,8.55-.45,7.2-.45,12.05-.7,21.55-1.05l5.15-.2,2.1-.1c1.71-.05,2-.1,2.26-.1a4.1,4.1,0,0,0,1.14-.2l.46,9.05a7.6,7.6,0,0,0-1.4-.1,23.47,23.47,0,0,0-11.46,3.5c-5,3-8,7.25-8,11.35,0,2.9,1.35,4.85,4.2,6.2a26.47,26.47,0,0,0,9.56,1.8c.4,0,.75,0,1.5-.05l-1.15,9.5a12.79,12.79,0,0,0-1.85-.25c-5.71-.5-9.46-1.35-12.65-2.8-5.91-2.75-9-7.35-9-13.7a17.12,17.12,0,0,1,4.25-11.3,20.46,20.46,0,0,1,4.9-4.25l-2.35.25c-1.1.1-2.85.25-12.2,1a55.32,55.32,0,0,0-7,.95Zm35.46,11.4a32.23,32.23,0,0,1,4.85,7.25l-4.81,2.2a31.09,31.09,0,0,0-4.85-7.4Zm6.69-2.9a34.18,34.18,0,0,1,4.91,7.05l-4.65,2.15a35.36,35.36,0,0,0-4.76-7.2Z" transform="translate(-140 -237)"/><path class="cls-2" d="M795.53,397.5a26.12,26.12,0,0,0,8.25-1.6c2.9,3.75,4.15,7.1,4.15,11.2a12.44,12.44,0,0,1-5.1,9.9c-3.11,2.35-7.26,3.55-12.16,3.55-5.15,0-9.2-1.35-12-3.95-2.4-2.25-3.5-5.2-3.5-9.3,0-1.1,0-2.2.15-3.7a54.88,54.88,0,0,1-6.45-1,12.27,12.27,0,0,0-2.15-.3l.6-8c2.3.85,4.15,1.2,8.7,1.75,0-.5.3-2.2.7-5a67.13,67.13,0,0,1-6.9-1.15l-1.8-.35.55-7.75a41.73,41.73,0,0,0,9.05,1.7,44.06,44.06,0,0,0,.75-7.15v-.7l9.25.75c-.55,1.6-.75,2.7-1.45,7.3A48.65,48.65,0,0,0,797,382.45l-.3,8.3-3.6.3a74.44,74.44,0,0,1-8.2.35,21,21,0,0,1-.35,2.45c-.1.65-.15,1-.35,2.7h1.05a42.22,42.22,0,0,0,10.35-1.15Zm-.15,5.95c-.5.05-.56.05-1.6.2a66.43,66.43,0,0,1-7.86.5c-.5,0-.85,0-2.25,0,0,.65-.1,1.6-.1,2.4a5.38,5.38,0,0,0,1.55,4.3,7.84,7.84,0,0,0,5.4,1.65c5.45,0,8.7-2.4,8.7-6.4,0-2.55-1.25-5.25-3.69-7.95Z" transform="translate(-140 -237)"/><path class="cls-2" d="M1046.48,383.05c-.52,1.08-.85,2-1.74,4.33-3.24,8.5-7.52,15.65-12.5,20.77-4.47,4.61-9.87,8.37-17.34,12.13a28.47,28.47,0,0,0-5.93-8c7-2.77,11.52-5.5,16-9.73a44.1,44.1,0,0,0,11.19-17.67,29.76,29.76,0,0,0,1.31-4.84Z" transform="translate(-140 -237)"/><path class="cls-2" d="M1054.71,395.41a66,66,0,0,0,9.63.43h22.46a76.81,76.81,0,0,0,9.64-.43v9.07a92.41,92.41,0,0,0-9.68-.28h-22.37c-5.27,0-6.82.05-9.68.28Z" transform="translate(-140 -237)"/><path class="cls-2" d="M1112.56,416.8a65.4,65.4,0,0,0-8,.28v-8.55a48.75,48.75,0,0,0,8.18.37h18.8V390.53h-18.23c-4.33,0-6.11,0-8.09.23v-8.55a49.25,49.25,0,0,0,8.23.42H1135c2.54,0,3.85-.05,5.22-.14-.1,1.64-.15,2.44-.15,4.79v24.54a69.44,69.44,0,0,0,.29,7.75h-8.84V416.8Z" transform="translate(-140 -237)"/><path class="cls-2" d="M1184.42,420.84a75.45,75.45,0,0,0-13.49-13.35c-4.41,5.22-10,9.35-17.29,12.88a24.62,24.62,0,0,0-5.26-7.43,44.2,44.2,0,0,0,15.22-9.49,37.84,37.84,0,0,0,9.45-13.82l-12.22.19a57.11,57.11,0,0,0-7.47.47l-.24-8.36a35.63,35.63,0,0,0,4.94.32c.37,0,1.27,0,2.63,0l16.07-.24a8.54,8.54,0,0,0,3.76-.51l4.14,4.23a7.22,7.22,0,0,0-1.69,2.77c-2.5,5.87-4.28,9.16-6.91,12.69,5.68,4.09,7.61,5.73,14.94,12.73Z" transform="translate(-140 -237)"/><path class="cls-2" d="M1204.4,420.65a66.62,66.62,0,0,0,.28-7.19V386.11a44.77,44.77,0,0,0-.33-6.82h9.07a60.83,60.83,0,0,0-.23,6.87v6.43a100.06,100.06,0,0,1,21.38,9.78l-4.46,8a87.56,87.56,0,0,0-14.81-8.18,11.64,11.64,0,0,1-2.11-.94v12.22a68.41,68.41,0,0,0,.28,7.19Z" transform="translate(-140 -237)"/></svg>