<svg id="レイヤー_1" data-name="レイヤー 1" xmlns="http://www.w3.org/2000/svg" viewBox="0 0 1098.35 1274.53"><defs><style>.cls-1{fill:#ef6b4c;}.cls-2{fill:#fff;}.cls-3,.cls-5{fill:none;}.cls-3{stroke:#ef6b4c;stroke-linejoin:round;stroke-width:8px;}.cls-4{fill:#010101;}.cls-6{fill:#ee6b4c;}.cls-7{fill:#7e4cef;}</style></defs><path class="cls-1" d="M16,874.33C16,844.88,27,821,40.62,821H278.46c13.6,0,24.62,23.88,24.62,53.33v213.34c0,29.45-11,53.33-24.62,53.33H40.62C27,1141,16,1117.12,16,1087.67Z" transform="translate(-11.58 -817)"/><path class="cls-2" d="M60.52,998.92l6.58-8.11c3.36,3,7.81,5,11.62,5,4.26,0,6.26-1.65,6.26-4.29,0-2.83-2.65-3.76-6.78-5.54l-6.13-2.64c-5-2-9.74-6.33-9.74-13.46,0-8.24,7.22-14.84,17.42-14.84a22.07,22.07,0,0,1,15.62,6.46l-5.74,7.39c-3.17-2.44-6.13-3.76-9.88-3.76-3.55,0-5.68,1.45-5.68,4,0,2.77,3,3.82,7.23,5.54l6,2.44c5.94,2.44,9.49,6.53,9.49,13.46,0,8.18-6.71,15.37-18.33,15.37A26.51,26.51,0,0,1,60.52,998.92Z" transform="translate(-11.58 -817)"/><path class="cls-2" d="M114.09,965.74h-13V955.9h37.56v9.84h-13v39.32H114.09Z" transform="translate(-11.58 -817)"/><path class="cls-2" d="M146.24,955.9H176.7v9.84H157.79v9.1h16.07v9.9H157.79v10.42h19.62v9.9H146.24Z" transform="translate(-11.58 -817)"/><path class="cls-2" d="M186.9,955.9h16.91c10.52,0,19.23,3.9,19.23,16,0,11.68-8.77,16.82-19,16.82h-5.62v16.3H186.9Zm16.59,23.56c5.61,0,8.32-2.71,8.32-7.52s-3.09-6.67-8.65-6.67h-4.71v14.19Z" transform="translate(-11.58 -817)"/><path class="cls-2" d="M230.73,995.56h10.19V968.9h-8.84v-7.25A33.25,33.25,0,0,0,244,957.16h8.45v38.4h8.65v9.5H230.73Z" transform="translate(-11.58 -817)"/><path class="cls-3" d="M16,874.33C16,844.88,29.72,821,46.64,821H1072.36c16.92,0,30.64,23.88,30.64,53.33v213.34c0,29.45-13.72,53.33-30.64,53.33H46.64C29.72,1141,16,1117.12,16,1087.67Z" transform="translate(-11.58 -817)"/><path d="M404.25,879.89c-2.84,4.62-8.12,11.5-13.12,15.07l-6.94-5.5c4.11-2.58,7.94-6.76,9.16-9.07H365.9a66.21,66.21,0,0,0-7.06.44v-9.18a48.93,48.93,0,0,0,7.06.6h28.84a38.67,38.67,0,0,0,6.67-.55l5.34,4.89C406.08,877.42,404.8,879,404.25,879.89Zm-35.79,37.62-7.84-6.32a22,22,0,0,0,6.34-3.36c6.17-4.62,7.56-9.29,7.56-18.26a31.39,31.39,0,0,0-.45-5.5h9.78C383.85,897,384.13,908.88,368.46,917.51Z" transform="translate(-11.58 -817)"/><path d="M438.47,874.4c-.05,1.53-.11,3.07-.22,4.5h8.89a27.36,27.36,0,0,0,4.62-.44l5.72,2.75a24.44,24.44,0,0,0-.39,3c-.22,6.32-.94,21.34-3.28,27.11-1.22,3-3.55,4.73-7.78,4.73-3.44,0-6.78-.28-9.39-.5l-1.06-8.9a44.55,44.55,0,0,0,7.56.82,2.74,2.74,0,0,0,3.06-2c1.33-3,2.11-12.6,2.11-18.59H437.47c-2,13.91-7.05,22.66-17.33,30l-7.84-6.27a34.77,34.77,0,0,0,8.22-6.1c4.84-5,7.17-10.67,8.17-17.6h-6.28c-1.72,0-5.28,0-7.83.27v-8.69c2.55.28,5.72.44,7.83.44h6.95c.06-1.37.06-2.86.06-4.34a45.45,45.45,0,0,0-.45-5.33h9.89C438.7,870.55,438.53,873.08,438.47,874.4Z" transform="translate(-11.58 -817)"/><path d="M496.43,874v3.68h8.11a15.06,15.06,0,0,0,5.06-.66l5.84,3.52a47.41,47.41,0,0,0-1.23,5,50.89,50.89,0,0,1-5.05,15.07c-4.56,8.64-13.34,14.57-23.07,17l-7-8a48.1,48.1,0,0,0,9.06-2.53,26.81,26.81,0,0,0,11.23-8.41c2.66-3.69,3.94-8.09,4.72-13.09H478.48v7a40.55,40.55,0,0,0,.22,4.51h-9.28a52.08,52.08,0,0,0,.28-5.23v-9.46a37.43,37.43,0,0,0-.28-5,52.11,52.11,0,0,0,5.95.27H487V874a28.57,28.57,0,0,0-.5-5.61h10.4A39.42,39.42,0,0,0,496.43,874Z" transform="translate(-11.58 -817)"/><path d="M546.05,901c10-5.72,17.51-14.25,21.23-22l5.22,9.4c-4.44,7.81-12.33,15.46-21.61,20.85a60,60,0,0,1-19.9,7.25l-5.72-8.79A57.63,57.63,0,0,0,546.05,901Zm1.89-18-6.89,7a115.65,115.65,0,0,0-13.95-12.05l6.39-6.76A110.78,110.78,0,0,1,547.94,883Z" transform="translate(-11.58 -817)"/><path d="M592,876.92a37.57,37.57,0,0,0-.67-7.14h10.51a62.83,62.83,0,0,0-.56,7.14v7.54a185.24,185.24,0,0,1,22.95,8.3l-3.83,9.3a175,175,0,0,0-19.12-7.87v14.14c0,1.48.33,5.82.61,8.3H591.28a61,61,0,0,0,.67-8.3Z" transform="translate(-11.58 -817)"/><path d="M657.41,874.34a132,132,0,0,0,15-1.54l-.06,7.7c-5.17.66-12,1.15-17.89,1.37a41.56,41.56,0,0,1-2.17,3.91,27.35,27.35,0,0,1,5.5-.55c3.28,0,6,1.32,7.39,3.85,2.23-1.05,4.06-1.76,6-2.64,2.44-1.05,4.72-2.09,7.11-3.25l3.28,7.7c-1.95.55-5.45,1.82-7.56,2.64s-4.84,1.87-7.78,3.14c.06,3,.17,6.71.22,9.18h-8c.11-1.43.22-3.46.28-5.55-3.5,2-5,3.85-5,6.05s1.72,3.24,6.94,3.24a84.88,84.88,0,0,0,16.17-1.7l-.27,8.57a136.07,136.07,0,0,1-16.06,1c-9.12,0-15.68-2.36-15.68-9.67s6.62-11.77,12.79-15a4.13,4.13,0,0,0-3.06-1.16c-2.83,0-6.28,1.82-8.17,3.69a59.88,59.88,0,0,0-5.17,6.21L634,896.23c5.23-4.62,9.17-9.13,11.9-14.19-2.28,0-6.34-.11-9.29-.39V874a74.06,74.06,0,0,0,10,.65h2.17a34,34,0,0,0,.94-6l8.89.72A50.9,50.9,0,0,1,657.41,874.34Z" transform="translate(-11.58 -817)"/><path d="M730.76,906.18h-4.22l1.39.28c-1,2-1.89,3.74-2.67,5.11h13v6.49h-47.8v-6.49h12.51a26.62,26.62,0,0,0-2.17-4.78l2.45-.61h-5.67V891.33a56.6,56.6,0,0,1-5.67,3.19,29.61,29.61,0,0,0-4.84-5.77,37.68,37.68,0,0,0,8.34-4.9,40.39,40.39,0,0,0-5.11-4l4.33-4.4a33.83,33.83,0,0,1,5.67,3.85,34.28,34.28,0,0,0,3.28-4.17h-9.95v-6.38h13.89l1.34-.33,5.28,2.64a40.48,40.48,0,0,1-5.56,10.06h11.89a56.56,56.56,0,0,1-6.72-12l6.95-2.09a32.75,32.75,0,0,0,2.44,4.84,52.45,52.45,0,0,0,4.61-4.51l6.06,4.23c-2.33,1.87-4.83,3.74-7.11,5.22.61.72,1.22,1.38,1.89,2a48.7,48.7,0,0,0,5.44-5.12l5.89,4.07c-2,1.76-4.39,3.58-6.5,5.06a33.45,33.45,0,0,0,7.89,4.18,29.72,29.72,0,0,0-5.39,6.66,41.32,41.32,0,0,1-5.11-2.81Zm-26.79-20a45,45,0,0,1-4.72,3.9h30.34a40,40,0,0,1-5.05-4.23v1.87H704Zm1.39,10.17v3.52h17.06v-3.52Zm12.06,14.9a38.2,38.2,0,0,0,2.28-5.11H709a20.29,20.29,0,0,1,2.11,4.84l-2,.55h9.67Z" transform="translate(-11.58 -817)"/><path d="M787.22,900.52a23.82,23.82,0,0,0,9.72,9.4,30.45,30.45,0,0,0-5.17,6.54,25.55,25.55,0,0,1-7.78-8.79v4.06c0,3.14-.39,5-2.33,6.11s-4.22,1.21-7.28,1.21a25.83,25.83,0,0,0-1.84-6.82c1.23,0,2.78,0,3.28,0s.73-.16.73-.71V909c-2.95,2.2-6.17,4.5-9.06,6.37l-2.39-4.12.28,3c-6.78,1.38-14.12,2.81-19.79,3.91l-1.5-7.2c2.17-.28,4.84-.72,7.67-1.16v-13h-7v-6.71h7v-3h-4.5v-2.42L747,885a22.75,22.75,0,0,0-4.78-5.23,33.35,33.35,0,0,0,9.23-13h6.44c3.23,2.64,7.34,6.43,9.34,9.29l-3.72,4.45H764v6.6h-5.39v3H765v6.71h-6.39V906a57.36,57.36,0,0,0,1.61-8l5.67,1.32c-1,3-1.89,6.21-2.61,8.36l-4.67-1.21v2.25l6.17-1,.06.71c2.72-1.48,6.33-3.68,9.89-5.88l1.78,4.34V891.28h-10.9v-6.71H784.1v-1.71H769.49v-6H784.1v-1.93H768.21v-6.48h23.34v16.11h3.89v6.71H784v2.09a37.18,37.18,0,0,0,1.78,4.51,45.15,45.15,0,0,0,4.34-6l6.28,3.8c-2.34,2.42-4.67,4.89-6.56,6.54Zm-37.29-2.15a63.2,63.2,0,0,1,1.83,9.08l-5.28,1.43a54.34,54.34,0,0,0-1.55-9.24ZM761,880.55a49.83,49.83,0,0,0-5.28-6.32,51.54,51.54,0,0,1-4.45,6.32Zm9.61,22.5a26.72,26.72,0,0,0-5.17-7.1l5.23-3.35a26.49,26.49,0,0,1,5.55,6.76Z" transform="translate(-11.58 -817)"/><path class="cls-4" d="M440.13,1011.77a19.24,19.24,0,1,0-19.23-19.23A19.23,19.23,0,0,0,440.13,1011.77Z" transform="translate(-11.58 -817)"/><path class="cls-4" d="M482.52,1020.41a14.34,14.34,0,1,0-14.34-14.34A14.34,14.34,0,0,0,482.52,1020.41Z" transform="translate(-11.58 -817)"/><path class="cls-4" d="M482.69,1023.71a20.83,20.83,0,0,0-12.78,4,20,20,0,0,1,1.37,4l.13.61v31.24h13.52a16.54,16.54,0,0,0,16.55-16.54v-10.82C500.49,1031.62,494.55,1023.71,482.69,1023.71Z" transform="translate(-11.58 -817)"/><path class="cls-4" d="M397.73,991.73a14.34,14.34,0,1,0,14.34,14.34A14.34,14.34,0,0,0,397.73,991.73Z" transform="translate(-11.58 -817)"/><path class="cls-4" d="M378.78,1036.24v10.82a16.54,16.54,0,0,0,16.54,16.54h13.53v-31.24l.13-.61a20,20,0,0,1,1.37-4,20.85,20.85,0,0,0-12.78-4C385.7,1023.71,379.77,1031.62,378.78,1036.24Z" transform="translate(-11.58 -817)"/><path class="cls-4" d="M440.13,1016.19c-15.92,0-23.88,10.62-25.2,16.81v27.67a9,9,0,0,0,9,9h32.36a9,9,0,0,0,9-9V1033C464,1026.81,456.05,1016.19,440.13,1016.19Z" transform="translate(-11.58 -817)"/><circle class="cls-2" cx="472.15" cy="256.49" r="26.83"/><circle cx="472.97" cy="256.49" r="23.53"/><rect class="cls-5" x="442.68" y="227.37" width="60.89" height="53.15"/><path class="cls-2" d="M486.84,1085.46h-4.26v-10.29h-10.3v-4.26h10.3v-10.3h4.26v10.3h10.29v4.26H486.84Z" transform="translate(-11.58 -817)"/><rect class="cls-5" x="350.23" y="59.81" width="143.61" height="84.54"/><path class="cls-6" d="M590.54,999h13.67v24.25H600v-1.78h-27.9v-4H600v-5.61H574.4v-3.78H600V1003H573v-4h13.29V984.3h4.29Zm-13.12-1.78a38,38,0,0,0-5.18-9.77L575.8,986a37.2,37.2,0,0,1,5.4,9.55Zm27.39-10.19a93.34,93.34,0,0,1-5.9,10.4l-3.49-1.27a64.12,64.12,0,0,0,5.1-10.53Z" transform="translate(-11.58 -817)"/><path class="cls-6" d="M628.34,1022.22l-3.61-3.4c7.94-2.93,11.68-6.58,11.68-17.83v-1.7H625.2v6.37a36.75,36.75,0,0,0,.21,4.12h-4.72c0-.6.22-2.34.22-4.12v-6.37h-4.16a44.09,44.09,0,0,0-4.42.17v-4.63a26.06,26.06,0,0,0,4.42.34h4.16v-4.89a23.18,23.18,0,0,0-.26-3.39h4.8a23.67,23.67,0,0,0-.25,3.39v4.89h11.21v-4.93a27.79,27.79,0,0,0-.22-3.69H641a28.61,28.61,0,0,0-.25,3.69v4.93h4a27.76,27.76,0,0,0,4.25-.26v4.5c-.68-.08-2.17-.12-4.21-.12h-4v1.44C640.74,1011.69,638.27,1017.76,628.34,1022.22Z" transform="translate(-11.58 -817)"/><path class="cls-6" d="M673.87,996.27a52.86,52.86,0,0,0,11.8-10.1l3.57,3.39a71.53,71.53,0,0,1-11.43,9.3v17.63a32.22,32.22,0,0,0,.3,5h-5.26c.12-.94.25-3.27.25-5v-14.78a86.92,86.92,0,0,1-15.67,6.58l-2.08-4.2A70.41,70.41,0,0,0,673.87,996.27Z" transform="translate(-11.58 -817)"/><path class="cls-6" d="M708.48,991.47a31.21,31.21,0,0,0-.38-4.75h5.22c-.13,1.4-.3,3.27-.3,4.75v6.63a144.52,144.52,0,0,1,18,6.79l-1.92,4.63A111,111,0,0,0,713,1002.9V1016a50.21,50.21,0,0,0,.34,5.43h-5.22a44.83,44.83,0,0,0,.34-5.43Z" transform="translate(-11.58 -817)"/><path class="cls-6" d="M760,1021.54l-2.5-4a26.11,26.11,0,0,0,3.78-.6c5.43-1.23,10.27-5.22,10.27-12.06,0-6.15-3.74-11-10.27-11.85a85.36,85.36,0,0,1-2.55,11.94c-2.55,8.66-6.08,13.46-10.28,13.46s-8.07-4.67-8.07-11.76c0-9.52,8.33-17.67,19-17.67,10.2,0,16.65,7.13,16.65,16S770.27,1020.05,760,1021.54Zm-11.42-8.15c1.91,0,3.9-2.76,5.86-9.3a67.92,67.92,0,0,0,2.33-11c-7.64,1.23-12.1,7.86-12.1,13.12C744.62,1011.13,746.7,1013.39,748.53,1013.39Z" transform="translate(-11.58 -817)"/><path class="cls-6" d="M815.84,994.15c-.93,4.33-2.89,11.08-6.33,15.58a32.66,32.66,0,0,1-16.9,11.51l-3.65-4c8.32-2,13.12-5.65,16.6-10.11a29.29,29.29,0,0,0,5.31-13H790c-1.82,0-3.52.08-4.59.17v-4.76a38.15,38.15,0,0,0,4.59.34h20.6a10.53,10.53,0,0,0,2.71-.3l3.27,2.13A12.69,12.69,0,0,0,815.84,994.15Z" transform="translate(-11.58 -817)"/><path class="cls-6" d="M849.9,996.91c0,.81,0,1.87,0,3.1h5.65a20.32,20.32,0,0,0,3.1-.26v4.17c-.85,0-2.08-.09-3-.09H850c.13,5.22.25,11.64.3,15.8,0,2-1.49,3.27-3.61,3.27-1.87,0-4.55-.13-6.33-.26l-.26-3.86a41.31,41.31,0,0,0,5.06.42c.76,0,1.1-.46,1.1-1.31,0-2.42,0-6.42-.08-10.41a48.47,48.47,0,0,1-14.36,12l-2.93-3.36c6.2-2.88,12.45-8.11,15.38-12.27H833.89c-1.14,0-2.42,0-3.52.13v-4.21a22.53,22.53,0,0,0,3.44.26h12.27c0-1.23-.08-2.25-.13-3.1a28.2,28.2,0,0,0-.29-3.14h4.41A18.9,18.9,0,0,0,849.9,996.91Z" transform="translate(-11.58 -817)"/><path class="cls-6" d="M874.92,1001.24H898c2,0,3.69-.17,4.76-.25v5.26c-.94,0-2.89-.21-4.76-.21h-23.1c-2.34,0-4.89.08-6.33.21V1001C870,1001.07,872.62,1001.24,874.92,1001.24Z" transform="translate(-11.58 -817)"/><path class="cls-6" d="M928.09,992.41c-1.27,4-5.14,16.05-7.26,21.65,5.77-.5,12.95-1.31,17.49-1.91a57.24,57.24,0,0,0-4.84-8.28l4.12-1.78a124.32,124.32,0,0,1,9.34,17.45l-4.5,2c-.55-1.48-1.31-3.35-2.21-5.31-6.75.81-20.34,2.3-25.86,2.81-1.06.12-2.46.34-3.73.51l-.77-4.93c1.32,0,3,0,4.25-.09.51,0,1.1,0,1.74-.08,2.38-6.07,6.41-18.77,7.6-23.06a27.09,27.09,0,0,0,.93-4.42l5.31,1.11C929.24,989.27,928.73,990.54,928.09,992.41Z" transform="translate(-11.58 -817)"/><path class="cls-6" d="M967.84,989.56l-1,5.35c1.74-.17,3.27-.25,4.25-.25,4.12,0,7.22,1.65,7.22,7.6,0,5-.64,11.85-2.42,15.41-1.36,2.93-3.57,3.7-6.54,3.7a23.94,23.94,0,0,1-5.06-.6l-.68-4.41a22.15,22.15,0,0,0,5.19.85,3.33,3.33,0,0,0,3.48-2c1.27-2.63,1.91-8,1.91-12.44,0-3.66-1.66-4.29-4.33-4.29-.89,0-2.3.08-3.91.25-1.57,6.25-4.59,16-8.79,22.85l-4.37-1.74c4.24-5.74,7.3-14.91,8.83-20.68-2,.21-3.7.42-4.67.55s-3,.38-4.21.59l-.42-4.58c1.44.08,2.67,0,4.12,0s3.65-.21,6.07-.43a48,48,0,0,0,1-9.13l5,.51C968.22,987.52,968,988.63,967.84,989.56Zm22.85,16.82-4.21,2c-1.19-4.5-4.37-12.1-7.34-15.71l4-1.7C985.72,994.45,989.33,1002.39,990.69,1006.38Z" transform="translate(-11.58 -817)"/><path class="cls-6" d="M1004,1005.4a20.43,20.43,0,0,1,13.25-4.71c6.92,0,11.26,4.2,11.26,9.26,0,7.64-6.46,13.16-23.06,11.76l-1.28-4.38c13.13,1.66,19.75-1.86,19.75-7.47,0-3.14-2.93-5.39-7-5.39-5.22,0-9.72,2-12.52,5.39a8.56,8.56,0,0,0-1.45,2.25l-3.91-.93a159.77,159.77,0,0,0,2.17-17.46l4.5.6C1005.09,997,1004.37,1002.81,1004,1005.4Zm18.77-15.88-1,4.12c-4.16-.55-13.51-2.51-16.78-3.36l1.06-4A124.43,124.43,0,0,0,1022.75,989.52Z" transform="translate(-11.58 -817)"/><path class="cls-6" d="M605.78,1053a41.89,41.89,0,0,1-10.4,11.72l-3.52-2.84a26.08,26.08,0,0,0,8.66-8.79H577.25c-1.7,0-3.19.12-5,.25v-4.71a38.41,38.41,0,0,0,5,.38H601a21.81,21.81,0,0,0,3.52-.3l2.68,2.51C606.8,1051.69,606.12,1052.49,605.78,1053Zm-27.56,28.84-3.9-3.19a15.71,15.71,0,0,0,4.07-2.08c6.08-3.91,7.05-9.26,7.05-16.31a19,19,0,0,0-.25-3.39H590C590,1068,589.39,1076.1,578.22,1081.84Z" transform="translate(-11.58 -817)"/><path class="cls-6" d="M631.44,1049.82c0,1.44-.13,2.84-.21,4.16h9.17a19,19,0,0,0,2.93-.26l3,1.45c-.13.72-.25,1.65-.3,2.16-.12,4.29-.68,16.44-2.54,20.6-.9,2-2.34,2.89-4.93,2.89-2.29,0-4.76-.13-6.92-.3l-.51-4.46a48,48,0,0,0,6.16.51,2.25,2.25,0,0,0,2.42-1.44c1.44-3,2-12.57,2-17.16H630.8c-1.57,11.81-5.77,18.3-13.08,23.44l-3.91-3.18a23,23,0,0,0,4.89-3.57c4.12-3.86,6.71-9,7.77-16.69H620c-1.57,0-3.56,0-5.18.17v-4.42c1.62.13,3.53.26,5.18.26h6.84c.09-1.27.13-2.63.13-4.08a27.07,27.07,0,0,0-.3-3.65h5C631.57,1047.23,631.48,1048.8,631.44,1049.82Z" transform="translate(-11.58 -817)"/><path class="cls-6" d="M675.39,1049.14v3.65H684a9.46,9.46,0,0,0,3.19-.42l2.93,1.82a15.09,15.09,0,0,0-.72,2.89,39.64,39.64,0,0,1-4.08,12.44c-3.27,5.9-9.39,10.28-17,12.36l-3.48-4a26,26,0,0,0,5.09-1.4,21.8,21.8,0,0,0,10.71-8,29.66,29.66,0,0,0,3.9-11.72H661.89v7a19.29,19.29,0,0,0,.17,2.81h-4.63c.09-.9.17-2.13.17-3.06V1056a30.83,30.83,0,0,0-.17-3.44,39.74,39.74,0,0,0,4.12.21h9.26v-3.65a18.92,18.92,0,0,0-.3-3.53h5.14A30.64,30.64,0,0,0,675.39,1049.14Z" transform="translate(-11.58 -817)"/><path class="cls-6" d="M716.8,1070.75a40.37,40.37,0,0,0,14.74-16l2.59,4.63a43.35,43.35,0,0,1-14.91,15.37,46.7,46.7,0,0,1-16.26,6.33l-2.85-4.37A43.93,43.93,0,0,0,716.8,1070.75Zm-1.44-13.59L712,1060.6a92.11,92.11,0,0,0-10.61-9l3.1-3.31A89.14,89.14,0,0,1,715.36,1057.16Z" transform="translate(-11.58 -817)"/><path class="cls-6" d="M751,1051.47a31.21,31.21,0,0,0-.38-4.75h5.22c-.13,1.4-.3,3.27-.3,4.75v6.63a144.52,144.52,0,0,1,18,6.79l-1.92,4.63a111.45,111.45,0,0,0-16-6.62V1076a50.21,50.21,0,0,0,.34,5.43h-5.22A44.83,44.83,0,0,0,751,1076Z" transform="translate(-11.58 -817)"/><path class="cls-6" d="M798.43,1050.71a97.7,97.7,0,0,0,12.48-1.23v4a133,133,0,0,1-14,1.1,33.85,33.85,0,0,1-3.27,5.61,12.43,12.43,0,0,1,5.44-1.28c2.67,0,4.88,1.23,5.69,3.61,2.63-1.23,4.8-2.12,6.79-3.06,1.45-.63,2.68-1.18,4-1.86l1.74,3.9c-1.23.38-3.06,1.06-4.33,1.57-2.17.85-4.93,2-7.9,3.32,0,2.42.08,5.81.13,7.85h-4c.09-1.48.13-3.9.17-6-3.65,2-5.94,3.94-5.94,6.45,0,2.89,2.76,3.48,7,3.48a72.2,72.2,0,0,0,11.8-1.1l-.13,4.29a108.55,108.55,0,0,1-11.8.76c-6.33,0-11.26-1.49-11.26-6.75s5.1-8.54,10-11a3.42,3.42,0,0,0-3.48-2.13,10.79,10.79,0,0,0-7,3.06,44.4,44.4,0,0,0-3.87,4.55l-3.65-2.72a42.62,42.62,0,0,0,9.6-12.4h-1.24c-1.78,0-4.71-.09-7.09-.26v-4a54.92,54.92,0,0,0,7.31.47c.8,0,1.65,0,2.5,0a21.55,21.55,0,0,0,1-5.06l4.42.34C799.32,1047.31,799,1048.88,798.43,1050.71Z" transform="translate(-11.58 -817)"/><path class="cls-6" d="M861.83,1051.64a62.09,62.09,0,0,1-5.94,4.72,27.34,27.34,0,0,0,7.26,4.2,14,14,0,0,0-2.63,3.27,32.07,32.07,0,0,1-9.51-6.75v2.08H835.46v-1.74a34.94,34.94,0,0,1-9.93,6.92,14.14,14.14,0,0,0-2.34-2.84,30,30,0,0,0,7.9-5,30.86,30.86,0,0,0-5.05-4l2.12-2.16a26,26,0,0,1,5.26,3.9,27,27,0,0,0,3.83-5.09h-9.69v-3.27h11.6l.68-.17,2.54,1.31a28.19,28.19,0,0,1-5.35,8.75h12.74a38.75,38.75,0,0,1-6.54-10.32l3.36-1a28,28,0,0,0,2.67,4.8,43,43,0,0,0,4.93-4.54l3,2.12a70.67,70.67,0,0,1-6.07,4.84,28.76,28.76,0,0,0,2.51,2.68,38.62,38.62,0,0,0,5.3-4.76Zm-8.91,22.13c-.94,1.91-2,3.82-2.81,5.26h11.43v3.32H825.1V1079H836a24.39,24.39,0,0,0-2.21-5.09l2.33-.64h-4.75v-11.17h23.73v11.17h-4.07Zm-17.71-3.65h15.88v-4.76H835.21Zm2.38,3.18a20.26,20.26,0,0,1,2.42,5.27l-1.7.46h9.34l-1.32-.34a38.54,38.54,0,0,0,2.64-5.39Z" transform="translate(-11.58 -817)"/><path class="cls-6" d="M891.27,1074.66c-2.59,2-5.4,4-7.86,5.73l-1-1.78,0,.34c-5.3,1.15-10.87,2.33-15.11,3.18l-.81-3.61c1.87-.29,4.16-.72,6.67-1.19v-12H867v-3.44h6.2v-3.86H869.1v-1.87c-.42.38-.85.8-1.32,1.23a11.34,11.34,0,0,0-2.42-2.51,28.93,28.93,0,0,0,7.69-10.61h3.35a49.12,49.12,0,0,1,7.1,7.43l-2.55,3h.34v3.36h-4.67v3.86h5.73v3.44h-5.73v11.34l5.52-1.06.08,1.14c2.13-1.31,5-3.18,7.86-5.09Zm-21-7.39A38.56,38.56,0,0,1,872,1075l-2.81.72a36.39,36.39,0,0,0-1.44-7.73Zm10.57-12.57a44.35,44.35,0,0,0-5.6-6.71,41.5,41.5,0,0,1-4.8,6.71Zm-3.18,19.53a50.52,50.52,0,0,0,1.65-7.3l3,.77c-.73,2.46-1.49,5.3-2.13,7.21Zm20.08-5.18a19.4,19.4,0,0,0,8.16,8.58,17,17,0,0,0-2.55,3.23c-3.69-2.29-6.29-6-8-9.68v8.15c0,1.78-.25,2.76-1.4,3.36s-2.76.59-5.05.59a13.1,13.1,0,0,0-1-3.44c1.4,0,2.76,0,3.19,0s.59-.17.59-.63v-17.54h-9.13v-3.4H898.1v-3H885.58v-3.1H898.1v-3H884.73v-3.31h17v12.44h3.31v3.4h-9.73v1.06a33.25,33.25,0,0,0,2.13,5.73,36.76,36.76,0,0,0,4.46-5.6l3.1,1.95a67.15,67.15,0,0,1-5.27,5.56Zm-11.93-5.47a25.64,25.64,0,0,1,4.55,5.47l-2.85,1.92a24.42,24.42,0,0,0-4.33-5.7Z" transform="translate(-11.58 -817)"/><path class="cls-6" d="M925,1077a3.19,3.19,0,1,1,3.18,3.22A3.11,3.11,0,0,1,925,1077Zm.47-23.23-.13-5.61H931l-.13,5.61-1,15.62h-3.49Z" transform="translate(-11.58 -817)"/><path class="cls-1" d="M18.71,1348c0-29.46,11-53.33,24.62-53.33H281.17c13.6,0,24.62,23.87,24.62,53.33v213.33c0,29.46-11,53.34-24.62,53.34H43.33c-13.6,0-24.62-23.88-24.62-53.34Z" transform="translate(-11.58 -817)"/><path class="cls-3" d="M18.71,1348c0-29.46,13.72-53.33,30.64-53.33H1075.07c16.92,0,30.64,23.87,30.64,53.33v213.33c0,29.46-13.72,53.34-30.64,53.34H49.35c-16.92,0-30.64-23.88-30.64-53.34Z" transform="translate(-11.58 -817)"/><path d="M387.66,1459.56a7.29,7.29,0,0,1,1.89-2.3l.05-.07a.43.43,0,0,0,0,.07,5,5,0,0,1,2.84-1.31l43.51-5.77c3.92-.52,8.43,2.89,10.06,7.58l32.43,94a9.12,9.12,0,0,1,.3,5.37c-.13,4.49-3.51,8-6.82,8.4l-1.71.22-9.55,1.27-25.95,3.44c-4.49.59-8.87,1.83-12.72-1.45-4.27-3.62-6.14-9.62-8.74-17.53-9.75-29.67-16.58-50.66-26.75-80.1a15,15,0,0,1-1.14-5.2h0A12.25,12.25,0,0,1,387.66,1459.56ZM447,1553.62c.79,2.15,3,3.71,4.88,3.47s2.78-2.18,2-4.33-3-3.71-4.86-3.47S446.18,1551.47,447,1553.62Zm-24.31-9.5,43.82-5.81-26.55-76.9-43.82,5.8Z" transform="translate(-11.58 -817)"/><path d="M495.76,1450.31l3.3-4.31a70.27,70.27,0,0,1,14.5,29.37,81.51,81.51,0,0,1,.68,34.44l-4.65-1.4a74.34,74.34,0,0,0-.63-31.35A63.94,63.94,0,0,0,495.76,1450.31Z" transform="translate(-11.58 -817)"/><path d="M496.25,1481.73a60.27,60.27,0,0,1,.5,25.37l-4.66-1.41a53.09,53.09,0,0,0-.44-22.28,45.39,45.39,0,0,0-9.39-19l3.3-4.32A51.74,51.74,0,0,1,496.25,1481.73Z" transform="translate(-11.58 -817)"/><path d="M474.33,1489.76a27,27,0,0,0-5.58-11.25l3.3-4.32a33.06,33.06,0,0,1,6.87,13.89,38.46,38.46,0,0,1,.31,16.28l-4.65-1.4A31.32,31.32,0,0,0,474.33,1489.76Z" transform="translate(-11.58 -817)"/><rect class="cls-5" x="385.9" y="528.8" width="143.61" height="84.54"/><path d="M377.39,1355v18.7c0,1.37.11,3.68.22,5.11h-9.54c.05-1.1.27-3.46.27-5.17V1355c0-1-.06-3-.22-4.35h9.49C377.5,1352,377.39,1353,377.39,1355Zm25.09,1.1v12c0,11-2.54,16.55-6.66,21-3.64,3.85-9.33,6.65-13.28,7.92l-6.89-7.37c5.64-1.27,9.87-3.3,13.12-6.71,3.63-3.9,4.39-7.81,4.39-15.4v-11.38a43.6,43.6,0,0,0-.38-5.94h9.92C402.59,1351.79,402.48,1353.66,402.48,1356.08Z" transform="translate(-11.58 -817)"/><path d="M441.4,1355.8h8.72a20.18,20.18,0,0,0,5.37-.71l6.66,4.18a24.94,24.94,0,0,0-2.11,4.51,57.94,57.94,0,0,1-9.38,18c-5.25,6.54-11.81,11.6-22,15.83l-7.81-7c11.71-3.62,17.35-8.3,21.95-13.52a35.47,35.47,0,0,0,7.16-13.75h-13.5a67.44,67.44,0,0,1-13.66,13.14l-7.37-5.55a49.56,49.56,0,0,0,16.86-17.22,28.3,28.3,0,0,0,2.87-6.54l9.6,3.19C443.51,1352.12,442.21,1354.37,441.4,1355.8Z" transform="translate(-11.58 -817)"/><path d="M479.55,1354.43h29.38a44,44,0,0,0,5.31-.39v9.13c-1.74-.16-3.74-.27-5.31-.27H498.3v20.84h13.55a34.63,34.63,0,0,0,5.37-.49v9.62a46.16,46.16,0,0,0-5.37-.28H476.13a50.83,50.83,0,0,0-5.63.28v-9.62a33,33,0,0,0,5.63.49h13V1362.9h-9.54c-1.68,0-4.07.11-5.47.27V1354A41.87,41.87,0,0,0,479.55,1354.43Z" transform="translate(-11.58 -817)"/><path d="M565,1359.82a86,86,0,0,1-8.19,14.52,145.16,145.16,0,0,1,14.74,15.34l-7.53,6.65a109.27,109.27,0,0,0-13-15.06,72.87,72.87,0,0,1-19.89,15l-6.83-7.2c8.78-3.25,17.34-10,22.16-15.46,3.53-4.07,6.45-8.91,7.59-12.43H537.22c-2.44,0-5.42.33-6.94.44v-9.46a62.16,62.16,0,0,0,6.94.44h18.1a22.58,22.58,0,0,0,6.5-.82l5.37,4A30.09,30.09,0,0,0,565,1359.82Z" transform="translate(-11.58 -817)"/><path d="M591.47,1356.46a39.18,39.18,0,0,0-.65-7.14h10.24a65.36,65.36,0,0,0-.54,7.14V1364a177.16,177.16,0,0,1,22.38,8.3l-3.74,9.3a167.72,167.72,0,0,0-18.64-7.87v14.14c0,1.48.32,5.82.6,8.3h-10.3a62.59,62.59,0,0,0,.65-8.3Z" transform="translate(-11.58 -817)"/><path d="M654.39,1348.82l8.83-1a71.4,71.4,0,0,0,2.12,8.13,83.28,83.28,0,0,0,10.62-2.36l1,8.36a72.43,72.43,0,0,1-8.78,1.81,55,55,0,0,0,4.17,7.7,44.42,44.42,0,0,0,3.2,4.13l-4,5.94c-3.31-.61-10.3-1.38-15.23-1.82l.65-7c2.44.22,5.8.5,7.31.61-1.35-2.37-2.87-5.39-4.28-8.58a146.59,146.59,0,0,1-23.36-.22l-.11-8.53a115.11,115.11,0,0,0,20.49.88c-.27-.93-.54-1.76-.81-2.47C655.85,1353,655.15,1350.85,654.39,1348.82Zm-8.18,33.82c0,4.29,3.68,6,10.78,6a80.07,80.07,0,0,0,14.8-1.32l-.49,8.41a79.57,79.57,0,0,1-14.85,1.32c-11.54,0-18.75-4.67-18.75-12.86,0-3.52,1-6.82,3-10.84l8.24,1.93A12.71,12.71,0,0,0,646.21,1382.64Z" transform="translate(-11.58 -817)"/><path d="M697.42,1348.27l9.49.27c-.38,1.71-.82,4.51-1.25,7.81l2.06,2.81c-.7.93-2,2.91-2.93,4.34v.11C709,1360,714.93,1356,720,1356c6.29,0,9.06,3.85,9.06,8.58,0,5.78-1.69,13.09-1.69,18.87,0,1.21.65,1.92,1.69,1.92,1.68,0,4.06-1.32,6.34-3.57l1,9.4a15,15,0,0,1-10.36,3.85c-4.33,0-7.2-3.3-7.2-9.07s1.89-13.42,1.89-18.26c0-2.42-1.24-3.74-3.3-3.74-3.74,0-9.22,4.84-13.39,9.51-.05,1.16-.05,2.37-.05,3.47,0,4.18,0,9.56.37,14.84.06,1,.28,3.36.44,4.73h-9c.11-1.43.16-3.68.16-4.56.06-3.3.11-6.21.22-9.68-2.06,3.08-4.23,6.38-5.74,8.41l-5.1-7.31c3-3.85,8.13-10.45,11.38-15.18.06-1,.17-2,.22-3-2.82.33-6.67.83-9.49,1.21l-.81-8.47c1.74.06,3.09.06,5.37,0,1.46-.11,3.41-.33,5.47-.61.11-1.76.16-3.13.16-3.68A30,30,0,0,0,697.42,1348.27Z" transform="translate(-11.58 -817)"/><path d="M763.11,1354.76a6.82,6.82,0,0,1-.22.93c2.77-.44,5.53-1,8.3-1.65v8.31a77.88,77.88,0,0,1-10.08,1.76c-.55,2.36-1.09,4.73-1.63,6.93a181.84,181.84,0,0,1-8.67,25.62l-9.11-3.13c3.2-5.45,7.48-17.16,9.54-24.8.33-1.27.71-2.59,1-3.91-1,.06-1.9.06-2.77.06-2.76,0-4.88-.11-6.72-.22l-.22-8.31a56,56,0,0,0,7,.44c1.46,0,2.87,0,4.39-.11.1-.82.21-1.54.27-2.2a30.78,30.78,0,0,0,.16-6.15l10,.76C763.92,1350.8,763.38,1353.49,763.11,1354.76Zm6.61,29.36c0,2.32,1.68,3.75,6.45,3.75a68.81,68.81,0,0,0,11.6-1.16l-.32,8.47a89.2,89.2,0,0,1-11.33.77c-9.49,0-14.53-3.47-14.53-9.07a40.34,40.34,0,0,1,1-7.87l7.81.77A20.11,20.11,0,0,0,769.72,1384.12Zm7.48-19c3,0,6.29.16,9.59.49l-.16,8a78.64,78.64,0,0,0-9.43-.72,83.05,83.05,0,0,0-10.73.61v-7.76C769.61,1365.37,773.68,1365.1,777.2,1365.1Z" transform="translate(-11.58 -817)"/><path d="M843.65,1358.55s-.06,2.48-.06,3.41c-.43,22.28-.81,30.52-2.54,33.11a6.58,6.58,0,0,1-4.61,3.19,32.86,32.86,0,0,1-6.83.33,19.92,19.92,0,0,0-2.28-7.59,49,49,0,0,0,5.1.22,2,2,0,0,0,1.84-1c1-1.43,1.47-7.86,1.74-24.36H832.7c-.76,14.85-3.2,25.9-12.09,33.21a23,23,0,0,0-3.47-4.34c-8.23.82-16.69,1.59-23,2.14l-.87-6.59c3-.17,6.62-.39,10.63-.67v-2.36h-9.11v-5.55h9.11v-1.43H795v-17.49h8.89v-1.38H793.68v-5.66h10.19v-1.32c-2.93.16-5.86.27-8.62.33a24.19,24.19,0,0,0-1.68-5.61,161.06,161.06,0,0,0,23.47-2.64l3.3,5.88c-2.82.61-6,1-9.37,1.43v1.93h9.81v5.66H811v1.38h9.1v17.49H811v1.43h9.43v5.55c3.41-5.5,4.5-12.54,4.88-21.39H821v-7.32h4.45v-11.16H833c0,3.9,0,7.64-.05,11.16Zm-42.49,10.73h2.71v-1.65h-2.71Zm2.71,6.16v-1.65h-2.71v1.65Zm7.1-7.81v1.65h2.65v-1.65Zm2.65,6.16H811v1.65h2.65ZM811,1389.13l8.61-.66c.28-.39.55-.77.82-1.21H811Z" transform="translate(-11.58 -817)"/><path d="M898,1349.48v7.42H877v3.47h9.11v25.3H860.39v-25.3h8.68v-3.47H848.63v-7.42Zm-9.37,10h7.64v39.1h-7.64v-3.14H858v3.14h-7.65v-39.1H858v28.43h30.62ZM866.79,1370h2.93v-3.19h-2.93Zm0,9.24h2.93V1376h-2.93Zm12.63-12.43h-3V1370h3Zm0,9.19h-3v3.24h3Z" transform="translate(-11.58 -817)"/><path d="M926.3,1353.88a123.27,123.27,0,0,0,14.58-1.54l-.06,7.7c-5,.66-11.7,1.15-17.45,1.37a41.92,41.92,0,0,1-2.11,3.91,26,26,0,0,1,5.36-.55,7.81,7.81,0,0,1,7.21,3.85c2.17-1,4-1.76,5.86-2.64,2.38-1,4.6-2.09,6.93-3.25l3.2,7.7c-1.9.55-5.31,1.82-7.37,2.64s-4.72,1.87-7.59,3.14c.06,3,.16,6.71.22,9.18h-7.81c.11-1.43.22-3.46.27-5.55-3.41,2-4.87,3.85-4.87,6s1.68,3.25,6.77,3.25a80,80,0,0,0,15.77-1.71l-.27,8.58a129.38,129.38,0,0,1-15.66,1c-8.89,0-15.28-2.36-15.28-9.67s6.45-11.77,12.46-15a4,4,0,0,0-3-1.16c-2.76,0-6.12,1.82-8,3.69a60.28,60.28,0,0,0-5,6.21l-7-5.33c5.1-4.62,8.94-9.13,11.6-14.19-2.22,0-6.18-.11-9.05-.39v-7.7a70.31,70.31,0,0,0,9.75.66h2.12a35.9,35.9,0,0,0,.92-6l8.67.72C927.27,1350.08,926.89,1351.79,926.3,1353.88Z" transform="translate(-11.58 -817)"/><path d="M1006.35,1374.83c-.71,6.11-2.06,11-4.17,14.79a20.29,20.29,0,0,0,6,3.74,22.55,22.55,0,0,0-4.28,5.39,20.43,20.43,0,0,1-5.64-4,21.63,21.63,0,0,1-5.8,3.9,21.24,21.24,0,0,0-2.44-4.18v4.4h-6.4v-4.56c-4.06.88-8.07,1.7-11.54,2.42l-1.68-6.55c1.3-.16,2.76-.33,4.34-.6v-16.5h-2.44l.49,3.41-4.45,1.27v12.81c0,3.41-.49,5.39-2.33,6.6s-4.28,1.48-7.75,1.48a29.19,29.19,0,0,0-2-7.26c1.73.11,3.52.11,4.17.11s.87-.22.87-.93v-10.83l-4.34,1.15-1.62-7.64c1.73-.33,3.74-.77,6-1.32v-8.2h-4.93v-7.31h4.93v-10.06h7v10.06H972v7.31H968.3v6.49l3.36-.82V1367h35.88v6.1H990v19.36a14.52,14.52,0,0,0,4.06-3,38.94,38.94,0,0,1-3.35-7.48l5.47-1.37a22.46,22.46,0,0,0,1.52,3.3,28.63,28.63,0,0,0,1.24-3.8h-8.4v-5.88h10.57l1.19-.11Zm-2.33-9.18H976.21v-17.71H1004Zm-23.2,7.42v1.6h2.76v-1.6Zm0,8.42h2.76v-1.76h-2.76Zm2.76,6.76v-1.71h-2.76v2.15Zm12.9-35.31H983.37v1.49h13.11Zm0,6.16H983.37v1.54h13.11Z" transform="translate(-11.58 -817)"/><path d="M1029.71,1385.23V1392c0,2.92-.55,4.46-2.6,5.39s-4.34,1.1-7.27,1.1a23.43,23.43,0,0,0-2.06-4.73,31.65,31.65,0,0,1-2.82,3.52,40.51,40.51,0,0,0-5.58-3.79,22.14,22.14,0,0,0,5.42-7.86l6.51,1.75a37.08,37.08,0,0,1-2.71,5.12c1.35,0,2.65,0,3.14,0,.65,0,.87-.11.87-.72v-6.59h-8.68v-12.32h24.72v12.32Zm12.52-14h-32v-6h12.36v-1.76h-8.89v-15.4h25.42v15.4h-9.43v1.76h12.52Zm-21.63,9h10.95v-2.36H1020.6Zm.06-26.45h11.22v-1.48h-11.22Zm0,5.44h11.22v-1.48h-11.22ZM1062,1380a42.1,42.1,0,0,1-18.32,18.69,24.71,24.71,0,0,0-3.25-4.51l-4.72,2.48a56.44,56.44,0,0,0-5.31-8.08l5.8-2.86c1.25,1.54,2.76,3.46,4,5.22,5.85-3,11.17-7.7,14-13.69Zm-2-29.7a50.5,50.5,0,0,1-14.58,13.25,30.1,30.1,0,0,0-5.58-5.66c4.55-2.37,10-6.49,12.63-10.67Zm.55,15.45a55.8,55.8,0,0,1-14.91,13.42,30.67,30.67,0,0,0-5.58-5.66c4.66-2.42,10.3-6.66,13.11-10.89Z" transform="translate(-11.58 -817)"/><path class="cls-6" d="M568.93,1467.46v.47c0,7.22-.61,17.79-5.1,24.63a16.92,16.92,0,0,0-3.54-2c4.23-6.5,4.62-15.88,4.62-22.59v-12.32h32.15v11.85Zm0-8.24v4.63H593v-4.63Zm28.69,13v20.39h-3.93v-1.4H574.93v1.4h-3.8v-20.39h11v-4.54H586v4.54Zm-22.69,3.49v4.24h7.22v-4.24Zm0,12h7.22v-4.5h-7.22Zm11.11-12v4.24h7.65v-4.24Zm7.65,12v-4.5H586v4.5Z" transform="translate(-11.58 -817)"/><path class="cls-6" d="M611.93,1463.89a95.09,95.09,0,0,0,.3,9.56c.65,6.67,2.42,11.17,5.32,11.17,2.16,0,4.06-4.63,5.05-8.5l3.42,4c-2.73,7.26-5.4,9.77-8.56,9.77-4.36,0-8.38-4.08-9.55-15.24a113.5,113.5,0,0,1-.48-11.39,21.3,21.3,0,0,0-.34-4l5.27.09A33.52,33.52,0,0,0,611.93,1463.89Zm30.29,18-4.45,1.7c-.73-7.31-3.2-16.73-7.56-21.83l4.28-1.4C638.46,1465.3,641.66,1475,642.22,1481.9Z" transform="translate(-11.58 -817)"/><path class="cls-6" d="M664.13,1459.27c-.12.72-.3,1.57-.51,2.5a78.84,78.84,0,0,0,7.82-1.48v4.2a78,78,0,0,1-8.69,1.44c-.43,1.83-.91,3.78-1.38,5.57a126.83,126.83,0,0,1-6.83,19.53l-4.71-1.57c2.55-4.33,5.71-13.08,7.35-19,.34-1.31.69-2.71,1-4.12-1.25,0-2.42.09-3.5.09-2,0-3.58,0-5.14-.17l-.08-4.16a42.25,42.25,0,0,0,5.27.34c1.34,0,2.81,0,4.32-.17.21-1.28.43-2.38.52-3.19a17.16,17.16,0,0,0,.17-3.82l5.19.38C664.7,1456.67,664.31,1458.42,664.13,1459.27Zm5.19,23.44c0,1.91,1.17,3.65,6.7,3.65a49.59,49.59,0,0,0,8.64-.85l-.13,4.29a67.44,67.44,0,0,1-8.55.59c-7.05,0-10.85-2.25-10.85-6.45a24.43,24.43,0,0,1,.73-5.31l4,.38A15.62,15.62,0,0,0,669.32,1482.71Zm7.13-14.57c2.51,0,5.1.09,7.56.34l-.13,4.08a54.92,54.92,0,0,0-7.34-.56,73.32,73.32,0,0,0-8.17.47v-4C670.7,1468.31,673.69,1468.14,676.45,1468.14Z" transform="translate(-11.58 -817)"/><path class="cls-6" d="M698.41,1472.51a37.44,37.44,0,0,0-8.3-4.28l2.08-3a35.31,35.31,0,0,1,8.38,4Zm4.49,6.08c-2.25,4.41-5.1,9.47-7.65,13.46l-3.41-2.63A118.91,118.91,0,0,0,700,1476Zm-2.12-17.12a35.4,35.4,0,0,0-8-4.71l2.16-2.89a30.24,30.24,0,0,1,8.21,4.42Zm29.22,26v3.78H702v-3.78H714v-9.12h-8.9v-3.78H714v-8.12H703.51v-3.73h14.21a45.44,45.44,0,0,0-9.2-6.2l2.59-3a44.36,44.36,0,0,1,10.07,6.46l-2.33,2.76h10.2v3.73H718.11v8.12h9.38v3.78h-9.38v9.12Z" transform="translate(-11.58 -817)"/><path class="cls-6" d="M766.39,1464.4a45.56,45.56,0,0,1-10,16.4,40.58,40.58,0,0,0,17,7.89,21.65,21.65,0,0,0-2.9,3.91,42.64,42.64,0,0,1-17.46-8.75,50.12,50.12,0,0,1-17.15,8.84,20.64,20.64,0,0,0-2.55-3.87,45.24,45.24,0,0,0,16.64-7.9,47.87,47.87,0,0,1-9.73-16.52H734v-3.82h17.24v-7h4.1v7h17.51v3.82Zm-21.74,0a38.38,38.38,0,0,0,8.6,13.59,37.41,37.41,0,0,0,8.43-13.59Z" transform="translate(-11.58 -817)"/><path class="cls-6" d="M794.13,1460a101.2,101.2,0,0,0,12.71-1.23v4a137.91,137.91,0,0,1-14.22,1.1,34,34,0,0,1-3.33,5.61,12.87,12.87,0,0,1,5.54-1.28c2.72,0,5,1.24,5.79,3.61,2.67-1.23,4.88-2.12,6.91-3,1.47-.64,2.72-1.19,4.1-1.87l1.78,3.9c-1.26.39-3.11,1.06-4.41,1.57-2.21.85-5,2-8,3.32,0,2.42.09,5.81.13,7.85H797c.08-1.48.13-3.9.17-6-3.72,2-6,3.94-6,6.45,0,2.89,2.81,3.48,7.17,3.48a74.92,74.92,0,0,0,12-1.1l-.13,4.29a112.86,112.86,0,0,1-12,.76c-6.44,0-11.45-1.48-11.45-6.75s5.19-8.54,10.2-11a3.47,3.47,0,0,0-3.54-2.12,11.11,11.11,0,0,0-7.18,3,46.88,46.88,0,0,0-3.93,4.55l-3.72-2.72a42.66,42.66,0,0,0,9.77-12.4h-1.25c-1.82,0-4.8-.09-7.22-.26v-4a56.8,56.8,0,0,0,7.43.47c.82,0,1.69,0,2.55,0a20.66,20.66,0,0,0,1-5.06l4.49.34C795,1456.63,794.7,1458.2,794.13,1460Z" transform="translate(-11.58 -817)"/><path class="cls-6" d="M859.56,1490.86H842.49v1.74h-3.84v-19.32c-.56.51-1.13,1-1.69,1.4a19.61,19.61,0,0,0-2.16-2.42v15.2h-8.08v3.31h-3.28v-12.23a24.6,24.6,0,0,1-2,3.19,28.53,28.53,0,0,0-2.25-3.74c3.11-4.33,4.84-11,5.88-18.09h-4.54v-3.56h15.21v1.4h8.73a42.69,42.69,0,0,0,1.26-4.16l3.84.72c-.3,1.19-.69,2.33-1.08,3.44h10.85v7.39h-3.63v-4H847.2A36.17,36.17,0,0,1,844,1467h4.49a31.1,31.1,0,0,0,1.77-4.71l3.72.81c-.61,1.31-1.25,2.67-1.9,3.9h6.26v3.32h-7V1474h6.27v3h-6.27v3.82h6.27v3h-6.27v3.86h8.25Zm-28.17-18.81h-4.67v12h4.67Zm3.41-.77a27,27,0,0,0,8.26-10.19h-4v4h-3.41v-5.23h-6.74a88.21,88.21,0,0,1-1.78,8.71h7.65Zm12.79-1h-5.1V1474h5.1Zm0,6.62h-5.1v3.82h5.1Zm-5.1,10.66h5.1v-3.86h-5.1Z" transform="translate(-11.58 -817)"/><path class="cls-6" d="M878.5,1463.77H863.07v-3.15H878.5Zm-1.17,26.5h-9v1.78h-3.37v-14.27h12.4Zm0-20.81H865v-3.06h12.32ZM865,1472.05h12.32v3.1H865Zm12.19-13.93h-12V1455h12ZM868.3,1481v6.11h5.62V1481Zm9.12,7.51c1.9-2.08,2.76-5.69,3.19-9.13l3.24.81c-.43,3.74-1.29,7.73-3.5,10.15Zm4.49-28a47.39,47.39,0,0,1,4.67,1.74,34.78,34.78,0,0,0,.82-3.53h-6.92v-3.39H901.4s0,1.1,0,1.57c-.44,9.81-.83,13.59-2,14.86a3.52,3.52,0,0,1-2.72,1.4,33.61,33.61,0,0,1-4.84,0,8.34,8.34,0,0,0-1-3.61c1.77.17,3.37.17,4,.17a1.39,1.39,0,0,0,1.38-.46c.56-.72,1-3.44,1.3-10.58H891a28.37,28.37,0,0,1-1.21,5,41,41,0,0,1,4.53,2.51l-1.94,3.06a33.51,33.51,0,0,0-3.93-2.38,17.22,17.22,0,0,1-7.65,7.35,9.17,9.17,0,0,0-2.33-2.85,13.79,13.79,0,0,0,6.74-6.11,49.53,49.53,0,0,0-5.23-2.09Zm11,28.32c1,0,1.21-.55,1.34-4.67a9.14,9.14,0,0,0,3.33,1.49c-.39,5.26-1.39,6.62-4.24,6.62h-4.23c-3.51,0-4.33-1.1-4.33-4.63v-9.81h3.68v9.77c0,1.06.17,1.23,1.25,1.23ZM888,1472.09a30.73,30.73,0,0,1,7.65,5.39l-2.51,2.59a33.85,33.85,0,0,0-7.47-5.69Zm10.63,6.41a30.16,30.16,0,0,1,4.8,10.19l-3.54,1.45a31.27,31.27,0,0,0-4.54-10.36Z" transform="translate(-11.58 -817)"/><path class="cls-6" d="M919.38,1460.79c-.22,4.72-.52,14.53-.52,20.39,0,4.5,2.81,6,6.57,6,7.56,0,12.1-4.21,15.21-8.75l3.07,3.69a22,22,0,0,1-18.37,9.52c-6.57,0-11-2.76-11-9.81,0-6,.43-17,.43-21.07a23.58,23.58,0,0,0-.48-4.92l5.54,0A37.48,37.48,0,0,0,919.38,1460.79Z" transform="translate(-11.58 -817)"/><path class="cls-6" d="M955.21,1460.37c3.15-.3,10.84-1,18.8-1.66,4.62-.38,8.94-.63,11.92-.76v4.29a38.88,38.88,0,0,0-8.38.64,14.08,14.08,0,0,0-9.59,12.78c0,7.73,7.34,10.32,14.52,10.61l-1.6,4.5c-8.47-.38-17.33-4.84-17.33-14.22a17,17,0,0,1,7.34-13.8c-4.36.46-14.43,1.48-19.23,2.5l-.47-4.67C952.88,1460.54,954.39,1460.46,955.21,1460.37Z" transform="translate(-11.58 -817)"/><path class="cls-6" d="M599.35,1523.3s0,1.36,0,1.83c-.48,17.53-.87,23.56-2.25,25.39a3.86,3.86,0,0,1-3.07,1.83,30.5,30.5,0,0,1-5.31,0,10.31,10.31,0,0,0-1.13-3.74c2,.17,3.76.17,4.54.17a1.65,1.65,0,0,0,1.55-.68c1-1.19,1.39-6.58,1.73-21.19h-5.1c-.56,11.3-2.5,20.3-9.93,25.91a13.21,13.21,0,0,0-2.9-2.93c.26-.17.52-.39.78-.6-6.22.72-12.45,1.36-17.07,1.78l-.52-3.35c2.51-.17,5.62-.43,9-.72v-3.23H561.8v-2.89h7.86v-2.16h-7.73V1526h7.73v-2.21h-8.9v-2.93h8.9v-2.38c-2.63.21-5.27.34-7.69.42a11.58,11.58,0,0,0-1-2.84,137.88,137.88,0,0,0,18.54-2.08l1.9,3c-2.29.47-5.14.89-8.13,1.19v2.72h8.73v2.46h4.54c0-2.89,0-5.9,0-9.09h3.85c0,3.14,0,6.2-.09,9.09Zm-34.14,7.86h4.45v-2.59h-4.45Zm4.45,5v-2.59h-4.45v2.59Zm3.67,10.53c2.68-.26,5.45-.51,8.17-.81,3.55-4.8,4.63-11.21,5-18.94h-4.58v-3.18h-8.56V1526h8v12.78h-8v2.16h8.13v2.89h-8.13Zm4.63-15.54v-2.59h-4.63v2.59Zm-4.63,2.42v2.59H578v-2.59Z" transform="translate(-11.58 -817)"/><path class="cls-6" d="M642.7,1516.29V1520H625.5v4.16h8.34v19H613.31v-19h8.17V1520h-16.9v-3.66Zm-5.19,7.26h3.93v28.92h-3.93V1550H609.85v2.55h-3.93v-29h3.93v22.72h27.66ZM616.68,1532h5.06v-4.62h-5.06Zm0,7.82h5.06v-4.67h-5.06Zm13.66-12.44h-5.1V1532h5.1Zm0,7.77h-5.1v4.67h5.1Z" transform="translate(-11.58 -817)"/><path class="cls-6" d="M664.48,1520a101.38,101.38,0,0,0,12.71-1.23v4a138.13,138.13,0,0,1-14.22,1.1,34,34,0,0,1-3.33,5.61,12.86,12.86,0,0,1,5.53-1.28c2.72,0,5,1.24,5.79,3.61,2.68-1.23,4.89-2.12,6.92-3,1.47-.64,2.72-1.19,4.1-1.87l1.77,3.9c-1.25.39-3.11,1.06-4.4,1.57-2.21.85-5,2-8,3.32,0,2.42.08,5.81.13,7.85h-4.11c.09-1.48.13-3.9.18-6-3.72,2-6,3.94-6,6.45,0,2.89,2.8,3.48,7.17,3.48a74.7,74.7,0,0,0,12-1.1l-.13,4.29a112.49,112.49,0,0,1-12,.76c-6.44,0-11.45-1.48-11.45-6.75s5.18-8.54,10.2-11a3.49,3.49,0,0,0-3.55-2.12,11.09,11.09,0,0,0-7.17,3,45.54,45.54,0,0,0-3.93,4.55l-3.72-2.72a42.66,42.66,0,0,0,9.77-12.4h-1.26c-1.81,0-4.79-.09-7.21-.26v-4a56.8,56.8,0,0,0,7.43.47c.82,0,1.68,0,2.55,0a20.61,20.61,0,0,0,1-5.06l4.5.34C665.39,1516.63,665,1518.2,664.48,1520Z" transform="translate(-11.58 -817)"/><path class="cls-6" d="M728.92,1535.32a27.26,27.26,0,0,1-3.85,10.91,16.78,16.78,0,0,0,5.4,3.7,12.65,12.65,0,0,0-2.29,2.76,18.88,18.88,0,0,1-5.18-3.83,17.55,17.55,0,0,1-5.28,3.74,10.24,10.24,0,0,0-1.81-2.63v2.76h-3.33v-4c-3.63.68-7.26,1.32-10.2,1.87l-1-3.31c1-.13,2.21-.3,3.5-.51v-13.93h-2.2l.3,2.17-4.15,1.31v12c0,1.91-.39,3-1.51,3.61s-2.89.68-5.57.68a14.51,14.51,0,0,0-1.08-3.61,35.67,35.67,0,0,0,3.8,0c.56,0,.78-.17.78-.72V1537.4c-1.65.51-3.2,1-4.63,1.4l-.95-3.78c1.56-.42,3.5-.93,5.58-1.53v-8h-4.89v-3.65h4.89v-8.24h3.58v8.24h3.72v3.65h-3.72v7l3.42-1v-1.78h27.78v3.14H715.91v17a14.5,14.5,0,0,0,4.92-3.65,27,27,0,0,1-3.41-7.05l2.9-.72a20.22,20.22,0,0,0,2.46,5A21.72,21.72,0,0,0,725,1538h-8.25v-3h9.42l.65-.09Zm-1.86-7.6H706.14v-12.83h20.92Zm-18.84,5.09v2.55h4.36v-2.55Zm0,7.77h4.36V1538h-4.36Zm4.36,5.06v-2.34h-4.36v3Zm10.63-28.07H709.86V1520h13.35Zm0,5H709.86v2.5h13.35Z" transform="translate(-11.58 -817)"/><path class="cls-6" d="M744.65,1518c2.33,0,12.1-.21,14.87-.38a14.85,14.85,0,0,0,2.72-.43l2.42,3.06a23.11,23.11,0,0,0-2.12,1.32c-2.89,2.25-7.65,6-11.28,8.87a16.87,16.87,0,0,1,5.27-.85c7.35,0,12.36,4.12,12.36,10,0,8.24-7.82,12.87-22.9,11.68l-1.17-4.33c12,1.44,19.49-1.4,19.49-7.39,0-3.74-3.37-6.41-8.68-6.41-7.13,0-11.37,4-16.47,8.79l-3.24-3.32c6.05-4.58,17.16-13.63,20.7-17.19-2.51.08-9.68.42-11.8.55-1,0-2.37.17-3.28.3l-.09-4.42A30.73,30.73,0,0,0,744.65,1518Z" transform="translate(-11.58 -817)"/><path class="cls-6" d="M798.46,1529.54a40.54,40.54,0,0,0-11.59,2.13c-1.29.38-2.72.93-3.84,1.35l-1.34-4.84a36.53,36.53,0,0,0,4.28-.68,57.3,57.3,0,0,1,13-2c6.44,0,11.11,3.57,11.11,9.89,0,9.13-8.47,14.53-20.05,16.18l-2.46-4.12c10.58-1.27,17.8-5,17.8-12.23C805.37,1532,802.73,1529.54,798.46,1529.54Zm8.08-12.06-.7,4.12c-4.88-.3-13.87-1.14-18.79-2l.65-4.08A124.4,124.4,0,0,0,806.54,1517.48Z" transform="translate(-11.58 -817)"/><path class="cls-6" d="M836.49,1546.32a3.24,3.24,0,1,1,3.24,3.22A3.14,3.14,0,0,1,836.49,1546.32Zm.47-23.23-.13-5.61h5.79l-.13,5.61-1,15.62H838Z" transform="translate(-11.58 -817)"/><path class="cls-7" d="M564.91,1735.19l-55.19-49C491.57,1670,503,1640,527.26,1640H637.63c24.29,0,35.7,30,17.55,46.14l-55.19,49A26.4,26.4,0,0,1,564.91,1735.19Z" transform="translate(-11.58 -817)"/><path class="cls-7" d="M565.4,1262.19l-55.18-49C492.07,1197,503.47,1167,527.76,1167H638.13c24.28,0,35.69,30,17.54,46.14l-55.19,49A26.4,26.4,0,0,1,565.4,1262.19Z" transform="translate(-11.58 -817)"/><path class="cls-1" d="M15.58,1820.51c0-29.46,11-53.34,24.62-53.34H278c13.6,0,24.62,23.88,24.62,53.34v213.33c0,29.45-11,53.33-24.62,53.33H40.2c-13.6,0-24.62-23.88-24.62-53.33Z" transform="translate(-11.58 -817)"/><path class="cls-2" d="M60.1,1955.1l6.58-8.12c3.36,3,7.81,5,11.62,5,4.26,0,6.26-1.65,6.26-4.29,0-2.84-2.64-3.76-6.78-5.55l-6.13-2.63c-5-2-9.74-6.34-9.74-13.46,0-8.25,7.23-14.85,17.42-14.85A22.08,22.08,0,0,1,95,1917.69l-5.74,7.39c-3.16-2.45-6.13-3.77-9.88-3.77-3.55,0-5.68,1.46-5.68,4,0,2.77,3,3.83,7.23,5.54l6,2.44c5.93,2.44,9.48,6.53,9.48,13.46,0,8.18-6.71,15.38-18.33,15.38A26.56,26.56,0,0,1,60.1,1955.1Z" transform="translate(-11.58 -817)"/><path class="cls-2" d="M113.67,1921.91h-13v-9.83h37.56v9.83h-13v39.32H113.67Z" transform="translate(-11.58 -817)"/><path class="cls-2" d="M145.82,1912.08h30.46v9.83H157.37v9.1h16.07v9.9H157.37v10.42H177v9.9H145.82Z" transform="translate(-11.58 -817)"/><path class="cls-2" d="M186.48,1912.08h16.91c10.52,0,19.24,3.89,19.24,16,0,11.68-8.78,16.83-19,16.83H198v16.29H186.48Zm16.59,23.55c5.61,0,8.33-2.7,8.33-7.52s-3.1-6.66-8.65-6.66H198v14.18Z" transform="translate(-11.58 -817)"/><path class="cls-2" d="M226.82,1955.29l5.3-7.39c2.9,2.78,6.26,4.76,10,4.76,4.45,0,7.36-1.85,7.36-5.28,0-4-2.2-6.4-12.27-6.4v-8.32c8.2,0,10.78-2.5,10.78-6.07,0-3.23-1.93-5-5.48-5-3.23,0-5.68,1.52-8.59,4.16l-5.81-7.2c4.46-3.76,9.23-6.13,14.91-6.13,9.94,0,16.46,4.81,16.46,13.26,0,4.82-2.64,8.38-7.68,10.56v.33c5.29,1.58,9.23,5.47,9.23,11.61,0,9-8.2,14-17.75,14C235.67,1962.16,230.31,1959.45,226.82,1955.29Z" transform="translate(-11.58 -817)"/><path class="cls-3" d="M15.58,1820.51c0-29.46,13.72-53.34,30.64-53.34H1071.94c16.92,0,30.64,23.88,30.64,53.34v213.33c0,29.45-13.72,53.33-30.64,53.33H46.22c-16.92,0-30.64-23.88-30.64-53.33Z" transform="translate(-11.58 -817)"/><rect class="cls-5" x="382.77" y="1001.35" width="143.61" height="84.54"/><path d="M381.27,1837.92H390v6.66h-3.85l1.81.44c-.88,1.92-1.59,3.68-2.25,5.17h3.41v6.65h-7.81v3.3h7.26v6.65h-7.26v9.41H373.9v-9.41h-7.7v-6.65h7.7v-3.3h-8.14v-6.65h3.52a30.45,30.45,0,0,0-1.54-5.17l1.76-.44h-5.06v-6.66h9.46v-2.8h-7.48v-6.55h7.48v-4.23h7.37v4.23H388v6.55h-6.71Zm-1.71,11.83c.55-1.49,1.16-3.47,1.6-5.17h-7a23.67,23.67,0,0,1,1.54,5.17l-1.6.44h7.1Zm36.19-2.92a59.29,59.29,0,0,1-5.33,17.87,25.33,25.33,0,0,0,7.14,5.5,28.86,28.86,0,0,0-5.17,6.27,29.35,29.35,0,0,1-6.1-5.22,31.06,31.06,0,0,1-5.22,5.22,22.8,22.8,0,0,0-3.3-3.79v3.63h-7.21v-50h23.87v10.28c0,3.25-.66,5.17-3.08,6.22s-5.44,1.1-9.4,1.1a26.82,26.82,0,0,0-2.15-6.82c2.26.11,5.39.11,6.16.11s1.1-.17,1.1-.77v-3.19h-9.29v12.15h12l1.27-.27Zm-18,22.66a31.92,31.92,0,0,0,4-4.51,55.46,55.46,0,0,1-4-9Zm5.06-17.82a35.15,35.15,0,0,0,2.75,6.27,37.88,37.88,0,0,0,2-6.27Z" transform="translate(-11.58 -817)"/><path d="M470.14,1825.55v50.76h-6.6V1854.2l-1.42.82a30.88,30.88,0,0,0-1.05-4v23.43H454.8v-19.91l-1.48.82a37.74,37.74,0,0,0-1-4.56c-.11,9.24-.88,18.48-4.4,25.79a27.57,27.57,0,0,0-5.83-4c2.8-5.83,3.63-12.87,3.85-20.18a26.46,26.46,0,0,1-1.43,4.12l-3.08-2.8v21.34h-5.56v-2.31h-10v3.08H420.6v-39.16h5v-4.4h-5.66v-6.16H442v6.16h-5.78v4.4h5.23V1851a48.41,48.41,0,0,0,1.65-10.23l2.91.83v-16h6.33v16.78l1.59-.94c.28.61.61,1.27.88,1.93v-16.72h6.27v15l1.16-.66c.44.83.88,1.71,1.31,2.59v-18Zm-39.87,22.38c0,2.86-.38,6.65-2.47,9.18a10,10,0,0,0-1.92-1.7v3.19h10v-4h-1.1c-2.64,0-3.35-.88-3.35-4.4v-7.15h-1.16Zm-4.39-4.84v10.72a12.13,12.13,0,0,0,1.09-5.93v-4.79Zm10,23.7v-2.69h-10v2.69Zm-5.61-30.08h1.16v-4.4h-1.16Zm5.61,6.38h-1v7c0,.77.06.83.39.83h.6Z" transform="translate(-11.58 -817)"/><path d="M499.46,1831.65a124.94,124.94,0,0,0,14.8-1.54l-.06,7.7c-5.11.66-11.88,1.16-17.71,1.38a41.48,41.48,0,0,1-2.14,3.9,26.73,26.73,0,0,1,5.44-.55c3.25,0,5.89,1.32,7.32,3.85,2.2-1,4-1.76,5.94-2.64,2.42-1,4.67-2.09,7-3.24l3.25,7.7c-1.93.55-5.39,1.81-7.48,2.63s-4.78,1.87-7.7,3.14c.06,3,.17,6.71.22,9.18h-7.92c.11-1.43.22-3.46.28-5.55-3.47,2-5,3.85-5,6.05s1.7,3.24,6.87,3.24a83.23,83.23,0,0,0,16-1.7l-.28,8.58a135.33,135.33,0,0,1-15.89,1c-9,0-15.51-2.37-15.51-9.68s6.54-11.77,12.65-15a4.05,4.05,0,0,0-3-1.15c-2.8,0-6.21,1.81-8.08,3.68a60,60,0,0,0-5.12,6.21l-7.09-5.33c5.17-4.62,9.07-9.13,11.77-14.19-2.26,0-6.27-.11-9.18-.38v-7.7a72.15,72.15,0,0,0,9.89.66h2.15a35.2,35.2,0,0,0,.93-6l8.8.72A50.32,50.32,0,0,1,499.46,1831.65Z" transform="translate(-11.58 -817)"/><path d="M573.44,1852.77a32.33,32.33,0,0,1-9.52,12.32,89.59,89.59,0,0,0,17.16,2.86,35.27,35.27,0,0,0-4.9,7.53,68.18,68.18,0,0,1-20.62-5.33,73.76,73.76,0,0,1-21,5.5,26.71,26.71,0,0,0-4.68-7.15,79.88,79.88,0,0,0,17.54-3.14,37.2,37.2,0,0,1-7.31-7.15l2.58-1h-2.75v-7.31h26.68l1.37-.28,4.29,2.53v-5.39H538.73v5.61h-7.47v-12.48h7.42a38.8,38.8,0,0,0-2-4.73l4.45-1.21c-2.58.11-5.16.16-7.64.22a24.9,24.9,0,0,0-1.76-6.77c14.74-.38,31.13-1.65,41.63-3.63l5.33,6.49c-6.1,1.1-13.08,2-20.29,2.59a23.43,23.43,0,0,1,2.09,6.21l-3.41.83h8.09a57.22,57.22,0,0,0,2.69-7.59l8.58,1.87c-1.1,2-2.25,4-3.3,5.72h6.93v12.48h-7.42ZM555,1833.08c-3.68.28-7.37.5-11,.66a23.76,23.76,0,0,1,2.42,5.45l-2.31.66h8.8a35.39,35.39,0,0,0-1.76-5.89Zm-6.27,24.09a28.32,28.32,0,0,0,6.77,4.67,24.08,24.08,0,0,0,5.72-4.67Z" transform="translate(-11.58 -817)"/><path d="M597.86,1832.92c-1.16,5.06-3.14,16.33-2,21.88.72-1.32,1.65-3.63,2.48-5.22l4.07,2.64a121.13,121.13,0,0,0-3.85,14.08,14.8,14.8,0,0,0-.39,2.8c0,.61.06,1.65.11,2.53l-7.48.72a59.6,59.6,0,0,1-3.29-18,149.23,149.23,0,0,1,1.65-22,44.27,44.27,0,0,0,.38-5.33l9.84.93A51.84,51.84,0,0,0,597.86,1832.92Zm28.26-1.93c0,1.1,0,3.58,0,6.33,3-.22,5.72-.5,7.81-.83l-.06,8.64c-2.09.16-4.78.33-7.75.49v2.53c0,13.14-1.54,20.57-12.1,27.61l-7.7-6a22.14,22.14,0,0,0,7-5c3.25-4,4.51-8.14,4.51-16.66V1846c-1.92.06-3.85.06-5.72.06-2.25,0-5.33-.17-8.25-.28v-8.41a56.52,56.52,0,0,0,8,.55c1.87,0,3.85-.06,5.83-.11,0-2.75-.11-5.28-.22-6.77a30.12,30.12,0,0,0-.66-4.07h9.63A37.21,37.21,0,0,0,626.12,1831Z" transform="translate(-11.58 -817)"/><path d="M690.64,1831.93c-1,12.21-3.41,21.83-7.37,29.36a29.36,29.36,0,0,0,9.24,8.25,30.37,30.37,0,0,0-5.5,6.6,35.68,35.68,0,0,1-8.63-7.59,37.25,37.25,0,0,1-8.91,7.7,33.62,33.62,0,0,0-4.13-5.5v5.67h-7.7v-8.14c-6,1-12.26,2-17.21,2.8l-1.48-8c1.48-.17,3.13-.33,4.89-.55V1834.4h-3.52V1827h28.27v3.85H684l1.38-.22Zm-39.21,2.47v4.07h6.21v-4.07Zm0,15.51h6.21v-4.34h-6.21Zm6.21,10.89V1857h-6.21v4.62Zm7.7,8.3a28.6,28.6,0,0,0,8.31-7.81c-3.19-6-5.39-13-7.1-21l7.65-1.49a66.31,66.31,0,0,0,4.07,13.8,67.75,67.75,0,0,0,3.68-13.91h-15v-4.29h-1.6Z" transform="translate(-11.58 -817)"/><path d="M711.65,1835.78c2.86-3.47,7.15-6.88,12.87-6.88,7.87,0,14.19,7.59,14.19,20,0,15.73-9.46,23.48-24.58,26.29l-5.06-7.76c12.37-1.92,20.57-5.5,20.57-18.53,0-8.36-2.81-12.21-6.71-12.21-6.27,0-11.61,9.63-11.61,16.88a47.32,47.32,0,0,0,.33,5.28l-8.19.55a65,65,0,0,1-.71-9.4,133,133,0,0,1,1.42-17.54,59.78,59.78,0,0,0,.44-6.33l9.08.39A80.51,80.51,0,0,0,711.65,1835.78Z" transform="translate(-11.58 -817)"/><path class="cls-6" d="M577.74,1946.08h7.94v3.36h-4.22l1.95.47c-.77,1.78-1.59,3.65-2.31,5h4v3.4h-7.4v4h6.81v3.35h-6.81v8.2h-4v-8.2h-7.13v-3.35h7.13v-4h-7.54v-3.4h4a18.12,18.12,0,0,0-1.73-5l1.86-.47h-4.85v-3.36h8.31v-3.69h-6.68v-3.31h6.68v-4h4v4H584v3.31h-6.26Zm.09,8.46a50.26,50.26,0,0,0,1.9-5.1h-7.85a19.19,19.19,0,0,1,1.77,5.1l-1.5.38h7.22ZM606,1952a40,40,0,0,1-5.13,13.84,21.82,21.82,0,0,0,6.76,5,15.84,15.84,0,0,0-2.81,3.14,24.32,24.32,0,0,1-6.27-5A25.14,25.14,0,0,1,593,1974a12.64,12.64,0,0,0-2.32-2.3V1974h-3.81v-37.11H605v8c0,1.82-.41,2.84-2,3.39s-3.81.56-7.22.56a11.68,11.68,0,0,0-1.27-3.4c2.59.08,5,.08,5.68,0s.86-.17.86-.64v-4.5H590.72v10.87h12l.68-.17ZM590.72,1971a22.34,22.34,0,0,0,5.41-5.09,42.67,42.67,0,0,1-5.41-11.47Zm3.55-16.56a35,35,0,0,0,4,8.15,32.82,32.82,0,0,0,3.22-8.15Z" transform="translate(-11.58 -817)"/><path class="cls-6" d="M623.19,1944.81h4.4v28.33h-3.13V1971h-9.72v2.76h-3v-28.92H616V1940h-5v-3.14h17.16V1940h-5Zm-.37,12.32c-1.86,0-2.4-.47-2.4-2.68V1948h-1.77v3.52c0,2.42-.46,5.65-2.73,7.86a8.59,8.59,0,0,0-1.18-1v2.89h9.72v-4.16Zm-8.08-9.09v9.6a9.1,9.1,0,0,0,1.86-6.12V1948Zm9.72,19.83v-3.7h-9.72v3.7Zm-5.81-23.06h1.77V1940h-1.77Zm5.81,3.23H622.6v6.37c0,.55,0,.59.45.59h1.41Zm8.08-.26c-.32,3.74-.91,8.37-2.54,11.26l-2.27-1.79c1.41-2.33,2-6.49,2.31-10.06Zm18.39-11.89V1974h-3.54v-17l-1.68.85a43.85,43.85,0,0,0-2.31-7.22V1973h-3.46v-15.89l-2,.9a36.82,36.82,0,0,0-1.86-7.9v2.67c0,7.9-.55,15.5-4.81,21.4a14.53,14.53,0,0,0-3.09-2.08c4-5.3,4.49-12.1,4.49-19.32V1936h3.41v12.48l1.91-.85a46.87,46.87,0,0,1,1.9,5.69v-16.64h3.46v11.25l1.49-.68a42.8,42.8,0,0,1,2.5,5.9v-17.24Z" transform="translate(-11.58 -817)"/><path class="cls-6" d="M665.6,1941.33c-.77,3.44-2.23,12.27-2.23,16.82a25.2,25.2,0,0,0,.37,4.54c.63-1.74,1.63-3.87,2.36-5.44l2.27,1.66a99.19,99.19,0,0,0-3.27,9.72,10.11,10.11,0,0,0-.23,2c0,.42.09,1.06.14,1.57l-4,.3a46.86,46.86,0,0,1-1.77-13.51c0-6.28,1.46-14.39,2-17.79.14-1.06.32-2.42.37-3.53l5,.43C666.23,1938.82,665.78,1940.56,665.6,1941.33Zm22.93-1c0,1.06-.09,2.89-.14,4.84a72.46,72.46,0,0,0,7.54-1v4.12c-2.36.34-4.9.64-7.54.81.05,4.25.37,8.07.5,11.34a30,30,0,0,1,9,5.48l-2.45,3.56a43.59,43.59,0,0,0-6.32-4.71v.21c0,3.91-2,7.26-8.31,7.26-6.13,0-9.71-2.37-9.71-6.45,0-3.91,3.58-6.8,9.67-6.8a25.81,25.81,0,0,1,3.68.26c-.19-3-.37-6.63-.46-9.94-1.27,0-2.54.09-3.81.09-2.64,0-5.13-.13-7.77-.3l0-4c2.59.25,5.13.38,7.85.38,1.28,0,2.5,0,3.77-.08v-5a18.83,18.83,0,0,0-.27-2.71h5.13A26,26,0,0,0,688.53,1940.31Zm-8.36,28c3.36,0,4.41-1.61,4.41-4.29v-1.14a15.65,15.65,0,0,0-4.22-.6c-3.05,0-5.18,1.24-5.18,3.06C675.18,1967.32,677.27,1968.29,680.17,1968.29Z" transform="translate(-11.58 -817)"/><path class="cls-6" d="M715,1949.57c-3.81,1.65-7.9,3.31-11.17,4.67l-1.73-3.31c3.09-.9,7.72-2.55,12.26-4.21Zm28,20v3.52H702.1v-3.52H714a31.47,31.47,0,0,0-2.77-7.39l3.91-1a26.65,26.65,0,0,1,3.08,7.65l-2.59.72h13.72l-2.86-.64a49.48,49.48,0,0,0,3.72-7.77H705.78v-3.44H720.4V1954h4.14v3.74h15v3.44h-8.67l3.86.81a83.08,83.08,0,0,1-4.27,7.6Zm-26.57-29.47H703.1v-3.36h17.21v15c0,1.74-.32,2.76-1.59,3.35s-3.27.6-6,.6a10.94,10.94,0,0,0-1.13-3.44c1.82.09,3.54.09,4.09,0s.72-.12.72-.59Zm-8.58,0a26.26,26.26,0,0,1,4.72,5l-3,2a26.5,26.5,0,0,0-4.59-5.27Zm27.43,8.79c-3.82,1.7-7.86,3.48-11.13,4.8l-1.9-3.27c3.08-1,7.81-2.72,12.35-4.38Zm-8.22-8.83H723v-3.36h17.67v14.91c0,1.78-.32,2.8-1.59,3.39s-3.32.6-6.13.6a12.28,12.28,0,0,0-1.09-3.44c1.9.09,3.68.09,4.22,0s.73-.12.73-.59V1940.1h-9.22a28.41,28.41,0,0,1,4.86,4.67l-3,2.12a29,29,0,0,0-5-5.14Z" transform="translate(-11.58 -817)"/><path class="cls-6" d="M782.66,1968.63c0,2.55-.73,3.78-2.55,4.42s-5,.81-9.71.81a16,16,0,0,0-1.82-4.16c3.54.17,7.17.12,8.26.08s1.37-.34,1.37-1.23v-7.43H757.59a23.14,23.14,0,0,1-7.76,12.91,15.71,15.71,0,0,0-3.23-2.89c7.09-5.69,7.77-14,7.77-20.68v-13.34h28.29Zm-4.45-11.33V1951H758.68a52.44,52.44,0,0,1-.41,6.29ZM758.68,1941v6.28h19.53V1941Z" transform="translate(-11.58 -817)"/><path class="cls-6" d="M818,1956.19a44.45,44.45,0,0,0,16.44,12,19.77,19.77,0,0,0-3.13,3.52,48.83,48.83,0,0,1-15.81-12.87v15.12H811v-14.86a48.54,48.54,0,0,1-15.66,12.74,25.47,25.47,0,0,0-3.14-3.44,44.55,44.55,0,0,0,16.53-12.19H795.87v-3.86H811v-6.58H793.64v-4H811V1935h4.45v6.8h17.71v4H815.48v6.58H831v3.86Z" transform="translate(-11.58 -817)"/><path class="cls-6" d="M847.68,1941.67c-.78,3.48-2.23,11.46-2.23,16a39.57,39.57,0,0,0,.27,4.54c.78-1.74,1.68-3.82,2.41-5.39l2.27,1.7a101.19,101.19,0,0,0-3.22,9.89,7.49,7.49,0,0,0-.23,2c0,.42,0,1.06.09,1.57l-4.13.25a50.55,50.55,0,0,1-1.68-13.72c0-6.32,1.45-13.54,1.95-16.94a30.27,30.27,0,0,0,.41-3.52l5,.42A28.16,28.16,0,0,0,847.68,1941.67Zm10.85,21.27c0,1.91,1.59,3.49,7.08,3.49a51.79,51.79,0,0,0,11.31-1.15l.09,4.54a66.47,66.47,0,0,1-11.49.85c-7.72,0-11.26-2.5-11.26-6.62a20.5,20.5,0,0,1,.77-5.23l4.09.34A13.87,13.87,0,0,0,858.53,1962.94Zm17.07-21.44v4.33a123.23,123.23,0,0,1-19,0l-.05-4.33A90,90,0,0,0,875.6,1941.5Z" transform="translate(-11.58 -817)"/><path class="cls-6" d="M603.53,1999.25v33.63h-4.59v-3.35H573.51v3.52h-4.36v-33.8Zm-4.59,26.24v-22.25H573.51v22.25Z" transform="translate(-11.58 -817)"/><path class="cls-6" d="M618.19,2010.76c0,6.62-.59,16.52-4.36,23a18.8,18.8,0,0,0-3.54-2.25c3.45-6,3.77-14.65,3.77-20.76v-11.55h16.76V1995h4.4v4.21H652v3.65H618.19Zm18.89,18.72h15.17v3.44h-34.1v-3.44H633v-5.35h-11.9v-3.44H633v-16.3h4.13v11.55c3.32-2.42,5.18-6.2,5.95-10.87l3.82.38a28,28,0,0,1-1.37,5,87.19,87.19,0,0,1,6.91,5.73l-2.59,2.68a68.86,68.86,0,0,0-5.81-5.22,17.48,17.48,0,0,1-4.54,5,16.46,16.46,0,0,0-2.37-2v4h12.49v3.44H637.08Zm-8.22-24.12a24.88,24.88,0,0,1-1.27,5.23,49,49,0,0,1,5.18,4.88l-2.41,2.63a54.84,54.84,0,0,0-4.17-4.29,16.63,16.63,0,0,1-4.55,5.31,21.83,21.83,0,0,0-3.13-2.29c3.77-2.51,5.72-6.58,6.45-11.76Z" transform="translate(-11.58 -817)"/><path class="cls-6" d="M666.05,2001.67c-.77,3.48-2.22,11.46-2.22,16a39.57,39.57,0,0,0,.27,4.54c.77-1.74,1.68-3.82,2.41-5.39l2.27,1.7c-1.18,3.22-2.77,7.77-3.23,9.89a8.45,8.45,0,0,0-.23,2c0,.42,0,1.06.1,1.57l-4.14.25a51,51,0,0,1-1.68-13.72c0-6.32,1.46-13.54,2-16.94a28.26,28.26,0,0,0,.4-3.52l5,.42A30.32,30.32,0,0,0,666.05,2001.67Zm10.85,21.27c0,1.91,1.59,3.49,7.09,3.49a51.7,51.7,0,0,0,11.3-1.15l.1,4.54a66.47,66.47,0,0,1-11.49.85c-7.72,0-11.26-2.5-11.26-6.62a20.06,20.06,0,0,1,.77-5.23l4.08.34A14.27,14.27,0,0,0,676.9,2022.94ZM694,2001.5v4.33a123.36,123.36,0,0,1-19,0l0-4.33A90,90,0,0,0,694,2001.5Z" transform="translate(-11.58 -817)"/><path class="cls-6" d="M715.63,2016.36l-4.67,1.4v11.85c0,2-.41,3-1.64,3.65s-3,.72-5.9.72a12.12,12.12,0,0,0-1.13-3.65c1.81.05,3.49.05,4,0s.82-.12.82-.72v-10.74c-1.77.51-3.45,1-5,1.44l-.95-3.82c1.63-.38,3.67-.94,5.9-1.53v-8.07h-5.27v-3.65h5.27V1995H711v8.2h4.54v3.65H711v7l4.13-1.15Zm27.3,2.51c-2,1.61-4.41,3.39-6.45,4.71a14.29,14.29,0,0,0,7.45,7.09,13.34,13.34,0,0,0-2.64,3.23c-6.72-3.23-9.67-9.81-11.12-18.73h-3v13.38c2.13-.38,4.4-.81,6.67-1.23l.37,3.22c-4.77.94-9.72,1.92-13.63,2.64l-.9-3.44,3.72-.55v-14h-2.32c-.45,6.33-1.81,13.55-5.58,18.69a14.8,14.8,0,0,0-3.22-2.25c4.67-6.5,5.08-15.8,5.08-22.51V1997h24.7v3.43H721.31v8.75c0,.85,0,1.74,0,2.68h21.61v3.35H733.8a34.1,34.1,0,0,0,1.41,5.57,54.65,54.65,0,0,0,4.9-4.34Zm-19.62-11.21v-3.36h17.57v3.36Z" transform="translate(-11.58 -817)"/><path class="cls-6" d="M759,2007.36c2-3.87,6.36-8.41,11.86-8.41,6.17,0,10.76,5.69,10.76,14.82,0,11.85-7.9,17.28-19.48,19.28l-2.73-3.86c9.95-1.45,17.39-4.89,17.39-15.42,0-6.62-2.4-11-6.72-11-5.54,0-10.58,7.64-11,13.24a18.67,18.67,0,0,0,.19,4.89l-4.45.3a49.63,49.63,0,0,1-.5-6.88,105.08,105.08,0,0,1,1.31-13.68,34.85,34.85,0,0,0,.37-4l5,.21A77,77,0,0,0,759,2007.36Z" transform="translate(-11.58 -817)"/><path class="cls-6" d="M802.91,2024.9c2,2.93,5.72,4.29,10.71,4.46s15.12,0,20.8-.3a17.21,17.21,0,0,0-1.41,4c-5.13.22-14.26.3-19.43.09-5.77-.21-9.68-1.62-12.54-4.89-2.13,1.75-4.31,3.44-6.67,5.27l-2.18-4.08a69.31,69.31,0,0,0,6.58-4.37v-10H793v-3.65h9.95Zm-2.09-19.83a33.17,33.17,0,0,0-7.59-6.71l3.14-2.38c2.81,1.82,6.22,4.46,7.76,6.5Zm19.84-8.11c.91,12.52,4.09,22.59,13.26,27a17.71,17.71,0,0,0-3.31,3c-6-3.32-9.49-8.79-11.54-15.67-2.31,6.88-6,12.1-11.35,15.67a26.45,26.45,0,0,0-3.32-3c6.45-3.73,10.13-10.19,11.81-18.6l1.54.22c-.27-1.58-.45-3.23-.63-4.89H809V1997Z" transform="translate(-11.58 -817)"/><path class="cls-6" d="M862.25,1999.54c0,.51,0,1.32-.09,2.26a108.37,108.37,0,0,0,12-1.19v3.9c-3.37.39-7.59.77-12,.94v5.26c4.49-.17,8.49-.55,12.44-1.06l0,3.95c-4.17.47-7.94.77-12.3.94.09,2,.22,4,.32,5.9a37.31,37.31,0,0,1,13,6.5l-2.64,3.77a35.5,35.5,0,0,0-10.17-6.2c0,.9.09,1.62.09,2.21,0,3.23-2.49,6.16-8.44,6.16-6.81,0-10.49-2.38-10.49-6.62,0-4.08,4-6.84,10.8-6.84,1.19,0,2.28.08,3.37.17-.05-1.66-.14-3.4-.19-5H855.4c-2.91,0-7.95-.21-11.08-.55l-.05-4a96.42,96.42,0,0,0,11.22.76h2.31v-5.22h-1.86c-3,0-8.45-.43-11.4-.77l0-3.86a87.69,87.69,0,0,0,11.4.93h2v-2.59a13.13,13.13,0,0,0-.23-2.67h4.86C862.39,1997.42,862.3,1998.36,862.25,1999.54Zm-8.44,29.56c2.54,0,4.49-.72,4.49-3.44,0-.59,0-1.44,0-2.38a22.45,22.45,0,0,0-4.14-.38c-3.86,0-5.94,1.4-5.94,3.1S849.9,2029.1,853.81,2029.1Z" transform="translate(-11.58 -817)"/><path class="cls-6" d="M894.13,1996.62l5.26.17c-.22,1.1-.59,3.35-.95,6.15l.14,0,1.5,1.78c-.55.77-1.41,2-2.14,3.06,0,.6-.09,1.19-.18,1.83,3.59-3,9.17-6.84,13.67-6.84s6.67,2.46,6.67,6c0,4.29-1.63,11.12-1.63,15.5a2,2,0,0,0,2.09,2.29c2,0,4.22-1.19,6.45-3.31l.68,4.63a12.35,12.35,0,0,1-8.45,3.39c-3.18,0-5.31-2-5.31-5.81,0-4.67,1.68-11.34,1.68-15.33,0-2.34-1.27-3.36-3.45-3.36-3.54,0-8.77,4-12.72,8-.09,1.52-.13,3-.13,4.33,0,3.69,0,6.71.22,10.57.05.77.14,2,.23,2.89h-4.9c.09-.89.13-2.12.13-2.8,0-4,0-6.42.18-11.13-2.13,2.93-4.81,6.58-6.72,9l-2.81-3.7c2.49-3,7.44-9.09,9.9-12.53l.27-3.69c-2.14.25-5.9.72-8.63,1.06l-.45-4.33a32.66,32.66,0,0,0,3.4,0c1.41-.09,3.77-.34,6-.64.14-1.83.23-3.23.23-3.7A22.17,22.17,0,0,0,894.13,1996.62Z" transform="translate(-11.58 -817)"/><path class="cls-6" d="M953.07,1999.54c-.05.51-.05,1.32-.1,2.26a108.13,108.13,0,0,0,11.95-1.19v3.9c-3.36.39-7.59.77-12,.94v5.26c4.49-.17,8.49-.55,12.44-1.06l0,3.95c-4.18.47-8,.77-12.31.94.09,2,.23,4,.32,5.9a37.22,37.22,0,0,1,13,6.5l-2.63,3.77a35.56,35.56,0,0,0-10.18-6.2c.05.9.1,1.62.1,2.21,0,3.23-2.5,6.16-8.45,6.16-6.81,0-10.49-2.38-10.49-6.62,0-4.08,4-6.84,10.81-6.84,1.18,0,2.27.08,3.36.17,0-1.66-.14-3.4-.18-5h-2.5c-2.91,0-8-.21-11.08-.55l0-4a96.42,96.42,0,0,0,11.22.76h2.32v-5.22h-1.87c-3,0-8.44-.43-11.39-.77l-.05-3.86a87.69,87.69,0,0,0,11.4.93h1.95v-2.59a12.46,12.46,0,0,0-.23-2.67h4.86C953.2,1997.42,953.11,1998.36,953.07,1999.54Zm-8.45,29.56c2.54,0,4.5-.72,4.5-3.44,0-.59,0-1.44,0-2.38a22.42,22.42,0,0,0-4.13-.38c-3.86,0-6,1.4-6,3.1S940.71,2029.1,944.62,2029.1Z" transform="translate(-11.58 -817)"/><path class="cls-6" d="M1001,1999.84c-.05.51-.05,1.28-.05,2.13h13.63l-.09,4c-2.68-.13-7-.21-13.58-.21,0,2.29,0,4.75,0,6.66a9.9,9.9,0,0,1,1.59,5.65c0,5.65-3.22,12.32-14,15.25l-3.86-3.57c5.36-1.11,9.53-3,11.71-6.24a7.62,7.62,0,0,1-3.18.63,7.35,7.35,0,0,1-7.62-7.39c0-4.45,3.86-7.64,8.44-7.64a9.32,9.32,0,0,1,2.54.3c0-1.11,0-2.38,0-3.61-6.9.08-14.35.34-20,.68l-.14-4.08c5.13-.08,13.58-.3,20.07-.38,0-.94,0-1.66-.09-2.17-.13-1.36-.27-2.67-.36-3.1h5.22A24.3,24.3,0,0,0,1001,1999.84Zm-7,20.6c2.36,0,4.13-1.74,3.54-5.73a3.78,3.78,0,0,0-3.54-2,4,4,0,0,0-4.14,4A3.88,3.88,0,0,0,994,2020.44Z" transform="translate(-11.58 -817)"/><path class="cls-6" d="M1036.93,2027.7a3.41,3.41,0,1,1,3.41,3.23A3.23,3.23,0,0,1,1036.93,2027.7Zm.5-23.23-.14-5.6h6.09l-.14,5.6-1,15.63h-3.73Z" transform="translate(-11.58 -817)"/><rect class="cls-6" x="249.42" y="4" width="45" height="320"/><path class="cls-1" d="M18.93,1347.31c0-29.46,11-53.33,24.62-53.33H281.4c13.59,0,24.61,23.87,24.61,53.33v213.33c0,29.46-11,53.34-24.61,53.34H43.55c-13.59,0-24.62-23.88-24.62-53.34Z" transform="translate(-11.58 -817)"/><path class="cls-2" d="M63.45,1471.9l6.58-8.12c3.36,3,7.81,5,11.62,5,4.26,0,6.26-1.65,6.26-4.29,0-2.84-2.64-3.76-6.77-5.54L75,1456.33c-5-2-9.74-6.34-9.74-13.46,0-8.25,7.23-14.85,17.43-14.85a22.1,22.1,0,0,1,15.62,6.47l-5.75,7.39c-3.16-2.44-6.13-3.76-9.87-3.76-3.55,0-5.68,1.45-5.68,4,0,2.77,3,3.83,7.22,5.54l6,2.45c5.94,2.44,9.49,6.53,9.49,13.46,0,8.18-6.72,15.37-18.34,15.37A26.56,26.56,0,0,1,63.45,1471.9Z" transform="translate(-11.58 -817)"/><path class="cls-2" d="M117,1438.71h-13v-9.83h37.57v9.83h-13V1478H117Z" transform="translate(-11.58 -817)"/><path class="cls-2" d="M149.17,1428.88h30.46v9.83H160.72v9.11h16.07v9.89H160.72v10.43h19.62v9.9H149.17Z" transform="translate(-11.58 -817)"/><path class="cls-2" d="M189.83,1428.88h16.91c10.52,0,19.24,3.89,19.24,16,0,11.68-8.78,16.83-19,16.83h-5.61V1478H189.83Zm16.59,23.55c5.62,0,8.33-2.7,8.33-7.52s-3.1-6.66-8.65-6.66h-4.71v14.18Z" transform="translate(-11.58 -817)"/><path class="cls-2" d="M231.34,1471.3c11.61-11.08,20.07-19.26,20.07-26,0-4.55-2.39-6.93-6.26-6.93-3.29,0-5.81,2.38-8.13,4.75l-6.26-6.33c4.71-5.08,9.1-7.59,15.94-7.59,9.29,0,15.75,6.07,15.75,15.44,0,8-7.3,16.49-14.53,24.15a66.62,66.62,0,0,1,7.88-.66h8.84v9.9h-33.3Z" transform="translate(-11.58 -817)"/><path class="cls-3" d="M18.93,1347.31c0-29.46,13.72-53.33,30.64-53.33H1075.29c16.93,0,30.64,23.87,30.64,53.33v213.33c0,29.46-13.71,53.34-30.64,53.34H49.57c-16.92,0-30.64-23.88-30.64-53.34Z" transform="translate(-11.58 -817)"/><rect class="cls-5" x="353.17" y="532.79" width="143.61" height="84.54"/><rect class="cls-6" x="252.35" y="476.98" width="45" height="320"/><path class="cls-1" d="M18.85,1820.86c0-29.45,11-53.33,24.62-53.33H281.31c13.6,0,24.62,23.88,24.62,53.33v213.33c0,29.46-11,53.34-24.62,53.34H43.47c-13.6,0-24.62-23.88-24.62-53.34Z" transform="translate(-11.58 -817)"/><path class="cls-2" d="M63.37,1945.45l6.58-8.12c3.36,3,7.81,5,11.62,5,4.26,0,6.26-1.65,6.26-4.29,0-2.84-2.65-3.76-6.78-5.54l-6.13-2.64c-5-2.05-9.75-6.34-9.75-13.46,0-8.25,7.23-14.85,17.43-14.85A22.1,22.1,0,0,1,98.22,1908l-5.74,7.39c-3.17-2.44-6.14-3.76-9.88-3.76-3.55,0-5.68,1.45-5.68,4,0,2.77,3,3.83,7.23,5.55l6,2.44c5.94,2.44,9.49,6.53,9.49,13.46,0,8.18-6.71,15.37-18.33,15.37A26.56,26.56,0,0,1,63.37,1945.45Z" transform="translate(-11.58 -817)"/><path class="cls-2" d="M116.94,1912.26H104v-9.83h37.56v9.83h-13v39.33H116.94Z" transform="translate(-11.58 -817)"/><path class="cls-2" d="M149.08,1902.43h30.47v9.83H160.64v9.11h16.07v9.89H160.64v10.43h19.62v9.9H149.08Z" transform="translate(-11.58 -817)"/><path class="cls-2" d="M189.75,1902.43h16.91c10.52,0,19.23,3.89,19.23,16,0,11.68-8.77,16.83-19,16.83H201.3v16.3H189.75ZM206.34,1926c5.61,0,8.32-2.71,8.32-7.53s-3.1-6.66-8.65-6.66H201.3V1926Z" transform="translate(-11.58 -817)"/><path class="cls-2" d="M230.09,1945.65l5.29-7.39c2.91,2.77,6.26,4.75,10,4.75,4.45,0,7.35-1.85,7.35-5.28,0-4-2.19-6.4-12.26-6.4V1923c8.2,0,10.78-2.51,10.78-6.07,0-3.24-1.94-5-5.49-5-3.22,0-5.68,1.52-8.58,4.16l-5.81-7.19c4.45-3.76,9.23-6.14,14.91-6.14,9.94,0,16.46,4.82,16.46,13.26,0,4.82-2.65,8.38-7.68,10.56v.33c5.29,1.58,9.23,5.48,9.23,11.61,0,9-8.2,14-17.75,14C238.93,1952.51,233.58,1949.8,230.09,1945.65Z" transform="translate(-11.58 -817)"/><path class="cls-3" d="M18.85,1820.86c0-29.45,13.72-53.33,30.64-53.33H1075.21c16.92,0,30.64,23.88,30.64,53.33v213.33c0,29.46-13.72,53.34-30.64,53.34H49.49c-16.92,0-30.64-23.88-30.64-53.34Z" transform="translate(-11.58 -817)"/><rect class="cls-5" x="353.08" y="1006.34" width="143.61" height="84.54"/><rect class="cls-6" x="252.42" y="950" width="45" height="320"/><path d="M371.52,1956.86a2.57,2.57,0,0,0-3.74,2.29v73.07c45.35,28.92,90.7-23.31,136.05-4.87a36.06,36.06,0,0,1,5.63,2.92,2.57,2.57,0,0,0,3.76-2.29v-73c-45-28.68-90,22.49-135,5.3A42.26,42.26,0,0,1,371.52,1956.86Zm5.35,57.91v-32.86c6.53,1.59,11.61-3.13,12.27-9.65,12.59,2,25.18-.43,37.76-4a46.51,46.51,0,0,0-14.29,32.93c0,12.71,5.76,22.82,14.29,26.15-12.58,3.59-25.17,6-37.76,4C388.48,2024.53,383.4,2018.57,376.87,2014.77ZM455,1980.13v6c-3.33.93-6.65,2-10,3-.35.67-.71,1.33-1.07,2v4c3.68-1.16,7.37-2.31,11.05-3.34v6c-3.68,1-7.37,2.18-11.05,3.34v8.23l-6.86,2.18v-8.23c-3.68,1.17-7.36,2.31-11.05,3.34v-6h0c3.69-1,7.37-2.18,11.05-3.34v-4c-.36-.44-.71-.89-1.07-1.34-3.33,1-6.65,2.07-10,3v-6c2-.57,4.06-1.17,6.09-1.79q-2.52-3.17-5.06-6.37l.78-.23c1.67-.48,3.36-1,5-1.51l.77-.23q3.42,4.26,6.86,8.5,3.42-6.43,6.86-12.84l.78-.24c1.67-.52,3.36-1,5-1.51l.77-.22q-2.54,4.65-5.06,9.37Q451.94,1981,455,1980.13Zm13.41,5.88c0-12.71-5.76-22.82-14.29-26.14,12.58-3.59,25.17-6,37.75-4,.67,6.81,5.75,12.77,12.28,16.56v32.86c-6.52-1.59-11.61,3.14-12.28,9.67-12.58-2-25.17.43-37.75,4A46.54,46.54,0,0,0,468.39,1986Z" transform="translate(-11.58 -817)"/><path d="M403.33,1998.44a4.15,4.15,0,0,0-3.91,4.07,3.67,3.67,0,0,0,3.91,3.74,4.35,4.35,0,0,0,3.9-4.27A3.53,3.53,0,0,0,403.33,1998.44Z" transform="translate(-11.58 -817)"/><path d="M477.68,1980.93a4.36,4.36,0,0,0-3.91,4.28,3.53,3.53,0,0,0,3.91,3.54,4.16,4.16,0,0,0,3.9-4.07A3.68,3.68,0,0,0,477.68,1980.93Z" transform="translate(-11.58 -817)"/></svg>