<svg id="レイヤー_1" data-name="レイヤー 1" xmlns="http://www.w3.org/2000/svg" viewBox="0 0 1098.35 1274.53"><defs><style>.cls-1{fill:#ef6b4c;}.cls-2{fill:#fff;}.cls-3,.cls-5{fill:none;}.cls-3{stroke:#ef6b4c;stroke-linejoin:round;stroke-width:8px;}.cls-4{fill:#010101;}.cls-6{fill:#ee6b4c;}.cls-7{fill:#7e4cef;}</style></defs><path class="cls-1" d="M16,874.33C16,844.88,27,821,40.62,821H278.46c13.6,0,24.62,23.88,24.62,53.33v213.34c0,29.45-11,53.33-24.62,53.33H40.62C27,1141,16,1117.12,16,1087.67Z" transform="translate(-11.58 -817)"/><path class="cls-2" d="M60.52,998.92l6.58-8.11c3.36,3,7.81,5,11.62,5,4.26,0,6.26-1.65,6.26-4.29,0-2.83-2.65-3.76-6.78-5.54l-6.13-2.64c-5-2-9.74-6.33-9.74-13.46,0-8.24,7.22-14.84,17.42-14.84a22.07,22.07,0,0,1,15.62,6.46l-5.74,7.39c-3.17-2.44-6.13-3.76-9.88-3.76-3.55,0-5.68,1.45-5.68,4,0,2.77,3,3.82,7.23,5.54l6,2.44c5.94,2.44,9.49,6.53,9.49,13.46,0,8.18-6.71,15.37-18.33,15.37A26.51,26.51,0,0,1,60.52,998.92Z" transform="translate(-11.58 -817)"/><path class="cls-2" d="M114.09,965.74h-13V955.9h37.56v9.84h-13v39.32H114.09Z" transform="translate(-11.58 -817)"/><path class="cls-2" d="M146.24,955.9H176.7v9.84H157.79v9.1h16.07v9.9H157.79v10.42h19.62v9.9H146.24Z" transform="translate(-11.58 -817)"/><path class="cls-2" d="M186.9,955.9h16.91c10.52,0,19.23,3.9,19.23,16,0,11.68-8.77,16.82-19,16.82h-5.62v16.3H186.9Zm16.59,23.56c5.61,0,8.32-2.71,8.32-7.52s-3.09-6.67-8.65-6.67h-4.71v14.19Z" transform="translate(-11.58 -817)"/><path class="cls-2" d="M230.73,995.56h10.19V968.9h-8.84v-7.25A33.25,33.25,0,0,0,244,957.16h8.45v38.4h8.65v9.5H230.73Z" transform="translate(-11.58 -817)"/><path class="cls-3" d="M16,874.33C16,844.88,29.72,821,46.64,821H1072.36c16.92,0,30.64,23.88,30.64,53.33v213.34c0,29.45-13.72,53.33-30.64,53.33H46.64C29.72,1141,16,1117.12,16,1087.67Z" transform="translate(-11.58 -817)"/><path d="M404.25,879.89c-2.84,4.62-8.12,11.5-13.12,15.07l-6.94-5.5c4.11-2.58,7.94-6.76,9.16-9.07H365.9a66.21,66.21,0,0,0-7.06.44v-9.18a48.93,48.93,0,0,0,7.06.6h28.84a38.67,38.67,0,0,0,6.67-.55l5.34,4.89C406.08,877.42,404.8,879,404.25,879.89Zm-35.79,37.62-7.84-6.32a22,22,0,0,0,6.34-3.36c6.17-4.62,7.56-9.29,7.56-18.26a31.39,31.39,0,0,0-.45-5.5h9.78C383.85,897,384.13,908.88,368.46,917.51Z" transform="translate(-11.58 -817)"/><path d="M438.47,874.4c-.05,1.53-.11,3.07-.22,4.5h8.89a27.36,27.36,0,0,0,4.62-.44l5.72,2.75a24.44,24.44,0,0,0-.39,3c-.22,6.32-.94,21.34-3.28,27.11-1.22,3-3.55,4.73-7.78,4.73-3.44,0-6.78-.28-9.39-.5l-1.06-8.9a44.55,44.55,0,0,0,7.56.82,2.74,2.74,0,0,0,3.06-2c1.33-3,2.11-12.6,2.11-18.59H437.47c-2,13.91-7.05,22.66-17.33,30l-7.84-6.27a34.77,34.77,0,0,0,8.22-6.1c4.84-5,7.17-10.67,8.17-17.6h-6.28c-1.72,0-5.28,0-7.83.27v-8.69c2.55.28,5.72.44,7.83.44h6.95c.06-1.37.06-2.86.06-4.34a45.45,45.45,0,0,0-.45-5.33h9.89C438.7,870.55,438.53,873.08,438.47,874.4Z" transform="translate(-11.58 -817)"/><path d="M496.43,874v3.68h8.11a15.06,15.06,0,0,0,5.06-.66l5.84,3.52a47.41,47.41,0,0,0-1.23,5,50.89,50.89,0,0,1-5.05,15.07c-4.56,8.64-13.34,14.57-23.07,17l-7-8a48.1,48.1,0,0,0,9.06-2.53,26.81,26.81,0,0,0,11.23-8.41c2.66-3.69,3.94-8.09,4.72-13.09H478.48v7a40.55,40.55,0,0,0,.22,4.51h-9.28a52.08,52.08,0,0,0,.28-5.23v-9.46a37.43,37.43,0,0,0-.28-5,52.11,52.11,0,0,0,5.95.27H487V874a28.57,28.57,0,0,0-.5-5.61h10.4A39.42,39.42,0,0,0,496.43,874Z" transform="translate(-11.58 -817)"/><path d="M546.05,901c10-5.72,17.51-14.25,21.23-22l5.22,9.4c-4.44,7.81-12.33,15.46-21.61,20.85a60,60,0,0,1-19.9,7.25l-5.72-8.79A57.63,57.63,0,0,0,546.05,901Zm1.89-18-6.89,7a115.65,115.65,0,0,0-13.95-12.05l6.39-6.76A110.78,110.78,0,0,1,547.94,883Z" transform="translate(-11.58 -817)"/><path d="M592,876.92a37.57,37.57,0,0,0-.67-7.14h10.51a62.83,62.83,0,0,0-.56,7.14v7.54a185.24,185.24,0,0,1,22.95,8.3l-3.83,9.3a175,175,0,0,0-19.12-7.87v14.14c0,1.48.33,5.82.61,8.3H591.28a61,61,0,0,0,.67-8.3Z" transform="translate(-11.58 -817)"/><path d="M657.41,874.34a132,132,0,0,0,15-1.54l-.06,7.7c-5.17.66-12,1.15-17.89,1.37a41.56,41.56,0,0,1-2.17,3.91,27.35,27.35,0,0,1,5.5-.55c3.28,0,6,1.32,7.39,3.85,2.23-1.05,4.06-1.76,6-2.64,2.44-1.05,4.72-2.09,7.11-3.25l3.28,7.7c-1.95.55-5.45,1.82-7.56,2.64s-4.84,1.87-7.78,3.14c.06,3,.17,6.71.22,9.18h-8c.11-1.43.22-3.46.28-5.55-3.5,2-5,3.85-5,6.05s1.72,3.24,6.94,3.24a84.88,84.88,0,0,0,16.17-1.7l-.27,8.57a136.07,136.07,0,0,1-16.06,1c-9.12,0-15.68-2.36-15.68-9.67s6.62-11.77,12.79-15a4.13,4.13,0,0,0-3.06-1.16c-2.83,0-6.28,1.82-8.17,3.69a59.88,59.88,0,0,0-5.17,6.21L634,896.23c5.23-4.62,9.17-9.13,11.9-14.19-2.28,0-6.34-.11-9.29-.39V874a74.06,74.06,0,0,0,10,.65h2.17a34,34,0,0,0,.94-6l8.89.72A50.9,50.9,0,0,1,657.41,874.34Z" transform="translate(-11.58 -817)"/><path d="M730.76,906.18h-4.22l1.39.28c-1,2-1.89,3.74-2.67,5.11h13v6.49h-47.8v-6.49h12.51a26.62,26.62,0,0,0-2.17-4.78l2.45-.61h-5.67V891.33a56.6,56.6,0,0,1-5.67,3.19,29.61,29.61,0,0,0-4.84-5.77,37.68,37.68,0,0,0,8.34-4.9,40.39,40.39,0,0,0-5.11-4l4.33-4.4a33.83,33.83,0,0,1,5.67,3.85,34.28,34.28,0,0,0,3.28-4.17h-9.95v-6.38h13.89l1.34-.33,5.28,2.64a40.48,40.48,0,0,1-5.56,10.06h11.89a56.56,56.56,0,0,1-6.72-12l6.95-2.09a32.75,32.75,0,0,0,2.44,4.84,52.45,52.45,0,0,0,4.61-4.51l6.06,4.23c-2.33,1.87-4.83,3.74-7.11,5.22.61.72,1.22,1.38,1.89,2a48.7,48.7,0,0,0,5.44-5.12l5.89,4.07c-2,1.76-4.39,3.58-6.5,5.06a33.45,33.45,0,0,0,7.89,4.18,29.72,29.72,0,0,0-5.39,6.66,41.32,41.32,0,0,1-5.11-2.81Zm-26.79-20a45,45,0,0,1-4.72,3.9h30.34a40,40,0,0,1-5.05-4.23v1.87H704Zm1.39,10.17v3.52h17.06v-3.52Zm12.06,14.9a38.2,38.2,0,0,0,2.28-5.11H709a20.29,20.29,0,0,1,2.11,4.84l-2,.55h9.67Z" transform="translate(-11.58 -817)"/><path d="M787.22,900.52a23.82,23.82,0,0,0,9.72,9.4,30.45,30.45,0,0,0-5.17,6.54,25.55,25.55,0,0,1-7.78-8.79v4.06c0,3.14-.39,5-2.33,6.11s-4.22,1.21-7.28,1.21a25.83,25.83,0,0,0-1.84-6.82c1.23,0,2.78,0,3.28,0s.73-.16.73-.71V909c-2.95,2.2-6.17,4.5-9.06,6.37l-2.39-4.12.28,3c-6.78,1.38-14.12,2.81-19.79,3.91l-1.5-7.2c2.17-.28,4.84-.72,7.67-1.16v-13h-7v-6.71h7v-3h-4.5v-2.42L747,885a22.75,22.75,0,0,0-4.78-5.23,33.35,33.35,0,0,0,9.23-13h6.44c3.23,2.64,7.34,6.43,9.34,9.29l-3.72,4.45H764v6.6h-5.39v3H765v6.71h-6.39V906a57.36,57.36,0,0,0,1.61-8l5.67,1.32c-1,3-1.89,6.21-2.61,8.36l-4.67-1.21v2.25l6.17-1,.06.71c2.72-1.48,6.33-3.68,9.89-5.88l1.78,4.34V891.28h-10.9v-6.71H784.1v-1.71H769.49v-6H784.1v-1.93H768.21v-6.48h23.34v16.11h3.89v6.71H784v2.09a37.18,37.18,0,0,0,1.78,4.51,45.15,45.15,0,0,0,4.34-6l6.28,3.8c-2.34,2.42-4.67,4.89-6.56,6.54Zm-37.29-2.15a63.2,63.2,0,0,1,1.83,9.08l-5.28,1.43a54.34,54.34,0,0,0-1.55-9.24ZM761,880.55a49.83,49.83,0,0,0-5.28-6.32,51.54,51.54,0,0,1-4.45,6.32Zm9.61,22.5a26.72,26.72,0,0,0-5.17-7.1l5.23-3.35a26.49,26.49,0,0,1,5.55,6.76Z" transform="translate(-11.58 -817)"/><path class="cls-4" d="M440.13,1011.77a19.24,19.24,0,1,0-19.23-19.23A19.23,19.23,0,0,0,440.13,1011.77Z" transform="translate(-11.58 -817)"/><path class="cls-4" d="M482.52,1020.41a14.34,14.34,0,1,0-14.34-14.34A14.34,14.34,0,0,0,482.52,1020.41Z" transform="translate(-11.58 -817)"/><path class="cls-4" d="M482.69,1023.71a20.83,20.83,0,0,0-12.78,4,20,20,0,0,1,1.37,4l.13.61v31.24h13.52a16.54,16.54,0,0,0,16.55-16.54v-10.82C500.49,1031.62,494.55,1023.71,482.69,1023.71Z" transform="translate(-11.58 -817)"/><path class="cls-4" d="M397.73,991.73a14.34,14.34,0,1,0,14.34,14.34A14.34,14.34,0,0,0,397.73,991.73Z" transform="translate(-11.58 -817)"/><path class="cls-4" d="M378.78,1036.24v10.82a16.54,16.54,0,0,0,16.54,16.54h13.53v-31.24l.13-.61a20,20,0,0,1,1.37-4,20.85,20.85,0,0,0-12.78-4C385.7,1023.71,379.77,1031.62,378.78,1036.24Z" transform="translate(-11.58 -817)"/><path class="cls-4" d="M440.13,1016.19c-15.92,0-23.88,10.62-25.2,16.81v27.67a9,9,0,0,0,9,9h32.36a9,9,0,0,0,9-9V1033C464,1026.81,456.05,1016.19,440.13,1016.19Z" transform="translate(-11.58 -817)"/><circle class="cls-2" cx="472.15" cy="256.49" r="26.83"/><circle cx="472.97" cy="256.49" r="23.53"/><rect class="cls-5" x="442.68" y="227.37" width="60.89" height="53.15"/><path class="cls-2" d="M486.84,1085.46h-4.26v-10.29h-10.3v-4.26h10.3v-10.3h4.26v10.3h10.29v4.26H486.84Z" transform="translate(-11.58 -817)"/><rect class="cls-5" x="350.23" y="59.81" width="143.61" height="84.54"/><path class="cls-6" d="M605.78,993a41.89,41.89,0,0,1-10.4,11.72l-3.52-2.84a26.08,26.08,0,0,0,8.66-8.79H577.25c-1.7,0-3.19.12-5,.25v-4.71a38.41,38.41,0,0,0,5,.38H601a21.81,21.81,0,0,0,3.52-.3l2.68,2.51C606.8,991.69,606.12,992.49,605.78,993Zm-27.56,28.84-3.9-3.19a15.71,15.71,0,0,0,4.07-2.08c6.08-3.91,7.05-9.26,7.05-16.31a19,19,0,0,0-.25-3.39H590C590,1008,589.39,1016.1,578.22,1021.84Z" transform="translate(-11.58 -817)"/><path class="cls-6" d="M646.47,984.25a4.89,4.89,0,1,1,0,9.77,5.07,5.07,0,0,1-1.15-.13c0,.26-.12.56-.17.81-1,4.33-2.93,11-6.37,15.59a33,33,0,0,1-16.85,11.5l-3.66-4c8.28-2,13.08-5.69,16.61-10.1a30.86,30.86,0,0,0,5.31-13h-20.9c-1.78,0-3.48.08-4.58.17v-4.76c1.19.13,3.18.3,4.58.3h20.6a13.45,13.45,0,0,0,1.82-.09,5.52,5.52,0,0,1-.12-1.14A4.88,4.88,0,0,1,646.47,984.25Zm0,7.52a2.69,2.69,0,0,0,2.68-2.63,2.73,2.73,0,0,0-2.68-2.68,2.68,2.68,0,0,0-2.63,2.68A2.65,2.65,0,0,0,646.47,991.77Z" transform="translate(-11.58 -817)"/><path class="cls-6" d="M665.71,990.88v14.22c0,1.11.09,2.6.17,3.44H661c0-.72.17-2.2.17-3.44V990.88a26.73,26.73,0,0,0-.17-3.14h4.88C665.8,988.63,665.71,989.69,665.71,990.88Zm19.71.42v7.56c0,9.73-1.53,13.34-4.68,16.9-2.76,3.23-7,5.18-10.14,6.2l-3.53-3.69c4-1,7.56-2.63,10.19-5.52,3-3.4,3.53-6.71,3.53-14.14V991.3a32,32,0,0,0-.26-3.9h5.06C685.5,988.5,685.42,989.77,685.42,991.3Z" transform="translate(-11.58 -817)"/><path class="cls-6" d="M713.49,990.71A97.7,97.7,0,0,0,726,989.48v3.95a133,133,0,0,1-14,1.1,33.85,33.85,0,0,1-3.27,5.61,12.43,12.43,0,0,1,5.44-1.28c2.67,0,4.88,1.23,5.69,3.61,2.63-1.23,4.8-2.12,6.79-3.06,1.45-.63,2.68-1.18,4-1.86l1.74,3.9c-1.23.38-3.06,1.06-4.33,1.57-2.17.85-4.93,2-7.9,3.32,0,2.42.08,5.81.13,7.85h-4c.09-1.48.13-3.9.17-6-3.65,2-5.94,3.94-5.94,6.45,0,2.89,2.76,3.48,7.05,3.48a72.2,72.2,0,0,0,11.8-1.1l-.13,4.29a108.55,108.55,0,0,1-11.8.76c-6.33,0-11.25-1.49-11.25-6.75s5.09-8.54,10-11a3.41,3.41,0,0,0-3.48-2.13,10.79,10.79,0,0,0-7.05,3.06,44.4,44.4,0,0,0-3.87,4.55l-3.65-2.72a42.62,42.62,0,0,0,9.6-12.4h-1.23c-1.79,0-4.72-.09-7.1-.26v-4a54.92,54.92,0,0,0,7.31.47c.8,0,1.65,0,2.5,0a21.55,21.55,0,0,0,1-5.06l4.42.34C714.38,987.31,714,988.88,713.49,990.71Z" transform="translate(-11.58 -817)"/><path class="cls-6" d="M773.24,991.22l-2.33,1,2.5,1.53a15.07,15.07,0,0,0-1.19,2.59,44.82,44.82,0,0,1-6.49,12.78c1.82,1.32,3.48,2.59,4.8,3.65l-3.15,3.78c-1.23-1.1-2.8-2.42-4.58-3.82A40.14,40.14,0,0,1,747,1023.2l-3.82-3.36a36.5,36.5,0,0,0,16-9.77c-2.93-2.16-6-4.24-8.41-5.77l2.93-3c2.55,1.49,5.52,3.4,8.37,5.35a33.85,33.85,0,0,0,5.26-10.74H754A48.41,48.41,0,0,1,742.79,1007l-3.6-2.76a38.9,38.9,0,0,0,13.54-14.53,16.49,16.49,0,0,0,1.66-3.78l4.84,1.49c-.85,1.27-1.74,2.93-2.21,3.78l-.47.85h10.24a9.61,9.61,0,0,0,3.14-.43l.17.09a43.18,43.18,0,0,0-3-5.18l2.72-1.15A59.67,59.67,0,0,1,773.24,991.22Zm4.89-1.83-2.76,1.19a43.73,43.73,0,0,0-3.49-5.82l2.72-1.14A50.31,50.31,0,0,1,778.13,989.39Z" transform="translate(-11.58 -817)"/><path class="cls-6" d="M802.8,989.14v3.65h8.58a9.46,9.46,0,0,0,3.19-.42l2.93,1.82a15.88,15.88,0,0,0-.73,2.89,39.35,39.35,0,0,1-4.07,12.44c-3.27,5.9-9.39,10.28-17,12.36l-3.48-4a26,26,0,0,0,5.09-1.4,21.73,21.73,0,0,0,10.7-8,29.52,29.52,0,0,0,3.91-11.72H789.3v7a19.29,19.29,0,0,0,.17,2.81h-4.63c.09-.9.17-2.13.17-3.06V996a30.83,30.83,0,0,0-.17-3.44,39.74,39.74,0,0,0,4.12.21h9.26v-3.65a19.81,19.81,0,0,0-.3-3.53h5.14A30.64,30.64,0,0,0,802.8,989.14Z" transform="translate(-11.58 -817)"/><path class="cls-6" d="M844.21,1010.75a40.37,40.37,0,0,0,14.74-16l2.59,4.63a43.35,43.35,0,0,1-14.91,15.37,46.7,46.7,0,0,1-16.26,6.33l-2.85-4.37A44.05,44.05,0,0,0,844.21,1010.75Zm-1.44-13.59-3.36,3.44a92.11,92.11,0,0,0-10.61-9l3.1-3.31A89.14,89.14,0,0,1,842.77,997.16Z" transform="translate(-11.58 -817)"/><path class="cls-6" d="M874.41,990.45h23.06c1,0,2.5,0,3.9,0-.08,1.15-.08,2.47-.08,3.65v20.85c0,1.49.08,5.14.08,5.48h-4.62c0-.21,0-1.19.08-2.38h-22c0,1.15,0,2.17,0,2.38h-4.63c0-.38.12-3.78.12-5.48V994.06c0-1.1,0-2.59-.08-3.69C872,990.45,873.35,990.45,874.41,990.45Zm.38,23.32h22V994.7h-22Z" transform="translate(-11.58 -817)"/><path class="cls-6" d="M917.39,1001.24h23.1c2,0,3.69-.17,4.76-.25v5.26c-.94,0-2.89-.21-4.76-.21h-23.1c-2.34,0-4.89.08-6.33.21V1001C912.46,1001.07,915.09,1001.24,917.39,1001.24Z" transform="translate(-11.58 -817)"/><path class="cls-6" d="M962,992.07a30.94,30.94,0,0,0-.38-4.76h5.22c-.13,1.4-.34,3.23-.34,4.76v6.62a138.41,138.41,0,0,1,18,6.8l-1.87,4.58a119.93,119.93,0,0,0-16.1-6.58c0,5.86,0,11.72,0,13.12s.13,3.91.3,5.44h-5.18a45.52,45.52,0,0,0,.34-5.44Zm19.62,3.27-3,1.31a39.4,39.4,0,0,0-3.74-6.49l2.85-1.23A51.82,51.82,0,0,1,981.6,995.34Zm5.48-2.38-2.93,1.44a42.26,42.26,0,0,0-3.91-6.37l2.85-1.31A64.35,64.35,0,0,1,987.08,993Z" transform="translate(-11.58 -817)"/><path class="cls-6" d="M1006.45,991.47c-.22,4.72-.51,14.53-.51,20.39,0,4.5,2.76,6,6.45,6,7.43,0,11.89-4.21,14.95-8.75l3,3.69a21.54,21.54,0,0,1-18,9.52c-6.46,0-10.79-2.76-10.79-9.81,0-6,.43-17,.43-21.07a24.32,24.32,0,0,0-.47-4.92l5.43,0A39,39,0,0,0,1006.45,991.47Z" transform="translate(-11.58 -817)"/><path class="cls-6" d="M1041.65,991.05c3.1-.3,10.66-1,18.48-1.66,4.54-.38,8.79-.63,11.72-.76v4.29a38.17,38.17,0,0,0-8.24.63c-5.65,1.7-9.43,7.73-9.43,12.79,0,7.72,7.22,10.32,14.27,10.61l-1.57,4.5c-8.32-.38-17-4.84-17-14.22a17.1,17.1,0,0,1,7.22-13.8c-4.29.46-14.18,1.48-18.9,2.5l-.46-4.67C1039.36,991.22,1040.85,991.13,1041.65,991.05Z" transform="translate(-11.58 -817)"/><path class="cls-6" d="M605.78,1053a41.89,41.89,0,0,1-10.4,11.72l-3.52-2.84a26.08,26.08,0,0,0,8.66-8.79H577.25c-1.7,0-3.19.12-5,.25v-4.71a38.41,38.41,0,0,0,5,.38H601a21.81,21.81,0,0,0,3.52-.3l2.68,2.51C606.8,1051.69,606.12,1052.49,605.78,1053Zm-27.56,28.84-3.9-3.19a15.71,15.71,0,0,0,4.07-2.08c6.08-3.91,7.05-9.26,7.05-16.31a19,19,0,0,0-.25-3.39H590C590,1068,589.39,1076.1,578.22,1081.84Z" transform="translate(-11.58 -817)"/><path class="cls-6" d="M631.44,1049.82c0,1.44-.13,2.84-.21,4.16h9.17a19,19,0,0,0,2.93-.26l3,1.45c-.13.72-.25,1.65-.3,2.16-.12,4.29-.68,16.44-2.54,20.6-.9,2-2.34,2.89-4.93,2.89-2.29,0-4.76-.13-6.92-.3l-.51-4.46a48,48,0,0,0,6.16.51,2.25,2.25,0,0,0,2.42-1.44c1.44-3,2-12.57,2-17.16H630.8c-1.57,11.81-5.77,18.3-13.08,23.44l-3.91-3.18a23,23,0,0,0,4.89-3.57c4.12-3.86,6.71-9,7.77-16.69H620c-1.57,0-3.56,0-5.18.17v-4.42c1.62.13,3.53.26,5.18.26h6.84c.09-1.27.13-2.63.13-4.08a27.07,27.07,0,0,0-.3-3.65h5C631.57,1047.23,631.48,1048.8,631.44,1049.82Z" transform="translate(-11.58 -817)"/><path class="cls-6" d="M675.39,1049.14v3.65H684a9.46,9.46,0,0,0,3.19-.42l2.93,1.82a15.09,15.09,0,0,0-.72,2.89,39.64,39.64,0,0,1-4.08,12.44c-3.27,5.9-9.39,10.28-17,12.36l-3.48-4a26,26,0,0,0,5.09-1.4,21.8,21.8,0,0,0,10.71-8,29.66,29.66,0,0,0,3.9-11.72H661.89v7a19.29,19.29,0,0,0,.17,2.81h-4.63c.09-.9.17-2.13.17-3.06V1056a30.83,30.83,0,0,0-.17-3.44,39.74,39.74,0,0,0,4.12.21h9.26v-3.65a18.92,18.92,0,0,0-.3-3.53h5.14A30.64,30.64,0,0,0,675.39,1049.14Z" transform="translate(-11.58 -817)"/><path class="cls-6" d="M716.8,1070.75a40.37,40.37,0,0,0,14.74-16l2.59,4.63a43.35,43.35,0,0,1-14.91,15.37,46.7,46.7,0,0,1-16.26,6.33l-2.85-4.37A43.93,43.93,0,0,0,716.8,1070.75Zm-1.44-13.59L712,1060.6a92.11,92.11,0,0,0-10.61-9l3.1-3.31A89.14,89.14,0,0,1,715.36,1057.16Z" transform="translate(-11.58 -817)"/><path class="cls-6" d="M751,1051.47a31.21,31.21,0,0,0-.38-4.75h5.22c-.13,1.4-.3,3.27-.3,4.75v6.63a144.52,144.52,0,0,1,18,6.79l-1.92,4.63a111.45,111.45,0,0,0-16-6.62V1076a50.21,50.21,0,0,0,.34,5.43h-5.22A44.83,44.83,0,0,0,751,1076Z" transform="translate(-11.58 -817)"/><path class="cls-6" d="M798.43,1050.71a97.7,97.7,0,0,0,12.48-1.23v4a133,133,0,0,1-14,1.1,33.85,33.85,0,0,1-3.27,5.61,12.43,12.43,0,0,1,5.44-1.28c2.67,0,4.88,1.23,5.69,3.61,2.63-1.23,4.8-2.12,6.79-3.06,1.45-.63,2.68-1.18,4-1.86l1.74,3.9c-1.23.38-3.06,1.06-4.33,1.57-2.17.85-4.93,2-7.9,3.32,0,2.42.08,5.81.13,7.85h-4c.09-1.48.13-3.9.17-6-3.65,2-5.94,3.94-5.94,6.45,0,2.89,2.76,3.48,7,3.48a72.2,72.2,0,0,0,11.8-1.1l-.13,4.29a108.55,108.55,0,0,1-11.8.76c-6.33,0-11.26-1.49-11.26-6.75s5.1-8.54,10-11a3.42,3.42,0,0,0-3.48-2.13,10.79,10.79,0,0,0-7,3.06,44.4,44.4,0,0,0-3.87,4.55l-3.65-2.72a42.62,42.62,0,0,0,9.6-12.4h-1.24c-1.78,0-4.71-.09-7.09-.26v-4a54.92,54.92,0,0,0,7.31.47c.8,0,1.65,0,2.5,0a21.55,21.55,0,0,0,1-5.06l4.42.34C799.32,1047.31,799,1048.88,798.43,1050.71Z" transform="translate(-11.58 -817)"/><path class="cls-6" d="M861.83,1051.64a62.09,62.09,0,0,1-5.94,4.72,27.34,27.34,0,0,0,7.26,4.2,14,14,0,0,0-2.63,3.27,32.07,32.07,0,0,1-9.51-6.75v2.08H835.46v-1.74a34.94,34.94,0,0,1-9.93,6.92,14.14,14.14,0,0,0-2.34-2.84,30,30,0,0,0,7.9-5,30.86,30.86,0,0,0-5.05-4l2.12-2.16a26,26,0,0,1,5.26,3.9,27,27,0,0,0,3.83-5.09h-9.69v-3.27h11.6l.68-.17,2.54,1.31a28.19,28.19,0,0,1-5.35,8.75h12.74a38.75,38.75,0,0,1-6.54-10.32l3.36-1a28,28,0,0,0,2.67,4.8,43,43,0,0,0,4.93-4.54l3,2.12a70.67,70.67,0,0,1-6.07,4.84,28.76,28.76,0,0,0,2.51,2.68,38.62,38.62,0,0,0,5.3-4.76Zm-8.91,22.13c-.94,1.91-2,3.82-2.81,5.26h11.43v3.32H825.1V1079H836a24.39,24.39,0,0,0-2.21-5.09l2.33-.64h-4.75v-11.17h23.73v11.17h-4.07Zm-17.71-3.65h15.88v-4.76H835.21Zm2.38,3.18a20.26,20.26,0,0,1,2.42,5.27l-1.7.46h9.34l-1.32-.34a38.54,38.54,0,0,0,2.64-5.39Z" transform="translate(-11.58 -817)"/><path class="cls-6" d="M891.27,1074.66c-2.59,2-5.4,4-7.86,5.73l-1-1.78,0,.34c-5.3,1.15-10.87,2.33-15.11,3.18l-.81-3.61c1.87-.29,4.16-.72,6.67-1.19v-12H867v-3.44h6.2v-3.86H869.1v-1.87c-.42.38-.85.8-1.32,1.23a11.34,11.34,0,0,0-2.42-2.51,28.93,28.93,0,0,0,7.69-10.61h3.35a49.12,49.12,0,0,1,7.1,7.43l-2.55,3h.34v3.36h-4.67v3.86h5.73v3.44h-5.73v11.34l5.52-1.06.08,1.14c2.13-1.31,5-3.18,7.86-5.09Zm-21-7.39A38.56,38.56,0,0,1,872,1075l-2.81.72a36.39,36.39,0,0,0-1.44-7.73Zm10.57-12.57a44.35,44.35,0,0,0-5.6-6.71,41.5,41.5,0,0,1-4.8,6.71Zm-3.18,19.53a50.52,50.52,0,0,0,1.65-7.3l3,.77c-.73,2.46-1.49,5.3-2.13,7.21Zm20.08-5.18a19.4,19.4,0,0,0,8.16,8.58,17,17,0,0,0-2.55,3.23c-3.69-2.29-6.29-6-8-9.68v8.15c0,1.78-.25,2.76-1.4,3.36s-2.76.59-5.05.59a13.1,13.1,0,0,0-1-3.44c1.4,0,2.76,0,3.19,0s.59-.17.59-.63v-17.54h-9.13v-3.4H898.1v-3H885.58v-3.1H898.1v-3H884.73v-3.31h17v12.44h3.31v3.4h-9.73v1.06a33.25,33.25,0,0,0,2.13,5.73,36.76,36.76,0,0,0,4.46-5.6l3.1,1.95a67.15,67.15,0,0,1-5.27,5.56Zm-11.93-5.47a25.64,25.64,0,0,1,4.55,5.47l-2.85,1.92a24.42,24.42,0,0,0-4.33-5.7Z" transform="translate(-11.58 -817)"/><path class="cls-6" d="M925,1077a3.19,3.19,0,1,1,3.18,3.22A3.11,3.11,0,0,1,925,1077Zm.47-23.23-.13-5.61H931l-.13,5.61-1,15.62h-3.49Z" transform="translate(-11.58 -817)"/><path class="cls-1" d="M18.71,1348c0-29.46,11-53.33,24.62-53.33H281.17c13.6,0,24.62,23.87,24.62,53.33v213.33c0,29.46-11,53.34-24.62,53.34H43.33c-13.6,0-24.62-23.88-24.62-53.34Z" transform="translate(-11.58 -817)"/><path class="cls-3" d="M18.71,1348c0-29.46,13.72-53.33,30.64-53.33H1075.07c16.92,0,30.64,23.87,30.64,53.33v213.33c0,29.46-13.72,53.34-30.64,53.34H49.35c-16.92,0-30.64-23.88-30.64-53.34Z" transform="translate(-11.58 -817)"/><path d="M387.66,1459.56a7.29,7.29,0,0,1,1.89-2.3l.05-.07a.43.43,0,0,0,0,.07,5,5,0,0,1,2.84-1.31l43.51-5.77c3.92-.52,8.43,2.89,10.06,7.58l32.43,94a9.12,9.12,0,0,1,.3,5.37c-.13,4.49-3.51,8-6.82,8.4l-1.71.22-9.55,1.27-25.95,3.44c-4.49.59-8.87,1.83-12.72-1.45-4.27-3.62-6.14-9.62-8.74-17.53-9.75-29.67-16.58-50.66-26.75-80.1a15,15,0,0,1-1.14-5.2h0A12.25,12.25,0,0,1,387.66,1459.56ZM447,1553.62c.79,2.15,3,3.71,4.88,3.47s2.78-2.18,2-4.33-3-3.71-4.86-3.47S446.18,1551.47,447,1553.62Zm-24.31-9.5,43.82-5.81-26.55-76.9-43.82,5.8Z" transform="translate(-11.58 -817)"/><path d="M495.76,1450.31l3.3-4.31a70.27,70.27,0,0,1,14.5,29.37,81.51,81.51,0,0,1,.68,34.44l-4.65-1.4a74.34,74.34,0,0,0-.63-31.35A63.94,63.94,0,0,0,495.76,1450.31Z" transform="translate(-11.58 -817)"/><path d="M496.25,1481.73a60.27,60.27,0,0,1,.5,25.37l-4.66-1.41a53.09,53.09,0,0,0-.44-22.28,45.39,45.39,0,0,0-9.39-19l3.3-4.32A51.74,51.74,0,0,1,496.25,1481.73Z" transform="translate(-11.58 -817)"/><path d="M474.33,1489.76a27,27,0,0,0-5.58-11.25l3.3-4.32a33.06,33.06,0,0,1,6.87,13.89,38.46,38.46,0,0,1,.31,16.28l-4.65-1.4A31.32,31.32,0,0,0,474.33,1489.76Z" transform="translate(-11.58 -817)"/><rect class="cls-5" x="385.9" y="528.8" width="143.61" height="84.54"/><path d="M410.7,1369.43c-2.77,4.62-7.91,11.5-12.79,15.07l-6.78-5.5c4-2.58,7.75-6.76,8.95-9.07H373.3a62.92,62.92,0,0,0-6.88.44v-9.19a46.44,46.44,0,0,0,6.88.61h28.13a36.77,36.77,0,0,0,6.5-.55l5.21,4.89C412.49,1367,411.24,1368.55,410.7,1369.43Zm-34.91,37.62-7.64-6.33a20.93,20.93,0,0,0,6.18-3.35c6-4.62,7.37-9.29,7.37-18.26a32.33,32.33,0,0,0-.43-5.5h9.54C390.81,1386.54,391.08,1398.42,375.79,1407.05Z" transform="translate(-11.58 -817)"/><path d="M461.26,1355.74a6.82,6.82,0,0,1,.17,13.64c-.27.82-.49,1.65-.65,2.31-1.3,5.17-3.53,13.53-8.19,19.91a44.51,44.51,0,0,1-22.06,15.45l-7.15-8c10.89-2.48,17-7.32,21.3-12.71a31,31,0,0,0,6-14.19H426.79c-2.65,0-5.63.17-7,.28v-9.41c1.68.22,5.26.5,7,.5H450.7a28,28,0,0,0,3.9-.28,2.65,2.65,0,0,1-.06-.71A6.81,6.81,0,0,1,461.26,1355.74Zm0,9.73a2.91,2.91,0,1,0-2.87-2.91A2.91,2.91,0,0,0,461.26,1365.47Z" transform="translate(-11.58 -817)"/><path d="M488.09,1365v18.7c0,1.37.11,3.68.22,5.11h-9.54c.05-1.1.27-3.46.27-5.17V1365a41.19,41.19,0,0,0-.22-4.35h9.49C488.2,1362,488.09,1363,488.09,1365Zm25.1,1.1v12c0,11-2.55,16.55-6.67,21-3.63,3.85-9.32,6.65-13.28,7.92l-6.88-7.37c5.63-1.27,9.86-3.3,13.11-6.71,3.63-3.9,4.39-7.81,4.39-15.4v-11.38a43.6,43.6,0,0,0-.38-5.94h9.92C513.29,1361.79,513.19,1363.66,513.19,1366.08Z" transform="translate(-11.58 -817)"/><path d="M547.87,1364.92c-.32,1.49-.65,3-1,4.46,1.46-.11,2.71-.17,3.68-.17,6.23,0,10.35,3,10.35,11.22,0,6.44-.7,15.45-3,20.29-1.85,4-5,5.34-9.43,5.34a32.4,32.4,0,0,1-6.61-.77l-1.41-8.75a34.68,34.68,0,0,0,6.61,1.16,3.66,3.66,0,0,0,3.68-2.09c1.36-2.75,2-9.18,2-14.3,0-4-1.63-4.51-5-4.51-.65,0-1.51.06-2.6.17-2.17,8.58-6.23,21.88-10.84,29.42l-8.56-3.47c5.15-7,8.67-17.48,10.68-25-1.41.22-2.61.39-3.37.5-1.73.27-4.87.71-6.66,1l-.76-9c2.11.16,4.17,0,6.34,0,1.57-.06,3.8-.22,6.23-.39a56.23,56.23,0,0,0,1-11.49l9.76,1.05C548.63,1361.29,548.2,1363.38,547.87,1364.92ZM577,1385.33l-8.4,3.9c-1.3-6.38-4.93-16.44-8.84-21.5l7.92-3.36C571,1369.32,575.46,1380,577,1385.33Z" transform="translate(-11.58 -817)"/><path d="M594.81,1381.53a27,27,0,0,1,15-4.45c10.19,0,15.72,6.43,15.72,13.2,0,10.17-7.43,18.47-31.28,16.38l-2.54-8.74c15.82,2.37,24.55-1.1,24.55-7.81,0-3.13-2.93-5.44-7.26-5.44-5.53,0-10.84,2.09-14,6a13.77,13.77,0,0,0-2.22,3.41l-7.54-1.87a201.48,201.48,0,0,0,2.71-23.37l8.84,1.21A85.52,85.52,0,0,0,594.81,1381.53Zm22.81-18.81-2,8.2c-5.69-.77-17.94-3.41-22.22-4.51l2.06-8C600.93,1360.14,612.91,1362.17,617.62,1362.72Z" transform="translate(-11.58 -817)"/><path d="M643,1383.29c-2.11-1.92-6.72-4.45-10.24-5.94l4.06-6a43.38,43.38,0,0,1,10.57,5.34Zm8.35,7.48c-2.87,5.77-6.13,11.71-9.43,17.21l-6.67-5.39a157.27,157.27,0,0,0,10.3-17.15Zm-4.66-22.22c-2.06-2-6.56-4.62-10-6.16l4.28-5.88c3.42,1.27,8.08,3.57,10.35,5.55Zm37.83,30.63v7.59H649.65v-7.59h13.5v-8.13h-9.59v-7.59h9.59V1376H651.66v-7.59H665.8a66.57,66.57,0,0,0-9.43-5.94l5.21-6.21c4.33,2,10.19,5.33,13.06,8l-3.36,4.13h12.14V1376h-12v7.48h10v7.59h-10v8.13Z" transform="translate(-11.58 -817)"/><path d="M730.46,1372.51a59.8,59.8,0,0,1-11.16,19.36,51.56,51.56,0,0,0,20,8.74,38.88,38.88,0,0,0-5.69,8,53,53,0,0,1-21-10.39,62.28,62.28,0,0,1-20.71,10.56,46.78,46.78,0,0,0-5-7.81c7.75-2,14.31-4.84,19.67-8.8-4.5-5.44-8-12-10.84-19.69h-7.64v-7.81h20.81v-8.35H717v8.35H738.1v7.81Zm-25.91,0a46,46,0,0,0,8.51,13.75,44.51,44.51,0,0,0,8.08-13.75Z" transform="translate(-11.58 -817)"/><path class="cls-6" d="M576.71,1458.33c-.05,1-.09,2.38-.18,3.91a55,55,0,0,0,8.52-1.62l.08,4.17c-2.5.55-5.7,1.06-8.68,1.4-.05,1.7-.09,3.39-.09,4.92v1.49a34.34,34.34,0,0,1,9-1.36c6.44,0,11.28,3.4,11.28,8.83,0,5.06-3,8.58-9.34,10.07a34,34,0,0,1-5.49.63l-1.55-4.33a22.66,22.66,0,0,0,5.18-.29c3.63-.68,6.79-2.55,6.79-6.12,0-3.27-3-5.09-6.92-5.09a29.72,29.72,0,0,0-8.85,1.4c0,3.52.17,7.09.17,8.79,0,4.5-1.69,5.81-4.24,5.81-3.76,0-9.5-3.39-9.5-7.47,0-3.61,4.45-7.39,9.55-9.55v-2.64c0-1.48,0-3.1,0-4.71-1.08.08-2,.13-2.85.13-2.64,0-4.28-.09-5.71-.22l-.12-4.07a43.8,43.8,0,0,0,5.74.34c.91,0,1.9,0,3-.13,0-1.91,0-3.44,0-4.2a27.12,27.12,0,0,0-.26-3.36h4.75C576.92,1455.87,576.79,1457.31,576.71,1458.33Zm-5.54,28.07c.87,0,1.47-.55,1.47-2s-.08-3.82-.13-6.58c-3.15,1.52-5.4,3.69-5.4,5.39S569.71,1486.4,571.17,1486.4Zm29-20.55-2.12,3.4c-2.07-1.87-7.26-4.89-10-6.29l1.9-3.23A76.93,76.93,0,0,1,600.17,1465.85Z" transform="translate(-11.58 -817)"/><path class="cls-6" d="M618.93,1480.41a57.51,57.51,0,0,0-4.54-5.18v17.37h-3.93v-15.46a37.38,37.38,0,0,1-5.53,4.55A18.08,18.08,0,0,0,603,1478a34.13,34.13,0,0,0,12.19-13H604.54v-3.57h5.92v-7.81h3.93v7.81h2.81l.69-.13,2.25,1.45a41,41,0,0,1-4.84,8.79c1.9,1.61,5.23,4.71,6.14,5.6ZM639.8,1489c.87,0,1-.93,1.12-5.9a11.5,11.5,0,0,0,3.37,1.49c-.34,6-1.2,7.68-4.1,7.68h-3.37c-3.37,0-4.11-1.14-4.11-4.71v-14.4h-3.45c-.48,9.13-1.86,15.72-9.34,19.54a10.89,10.89,0,0,0-2.55-3.1c6.62-3.19,7.61-8.62,8-16.44h-4v-16.85h20.48v16.85H636.6v14.36c0,1.31.13,1.48.91,1.48Zm-14.69-19.4h12.75v-9.73H625.11Z" transform="translate(-11.58 -817)"/><path class="cls-6" d="M655.15,1463.89a92.22,92.22,0,0,0,.3,9.56c.65,6.67,2.42,11.17,5.31,11.17,2.16,0,4.07-4.63,5.06-8.5l3.41,4c-2.72,7.26-5.4,9.77-8.55,9.77-4.37,0-8.39-4.08-9.55-15.24a113.5,113.5,0,0,1-.48-11.39,21.3,21.3,0,0,0-.34-4l5.27.09A33.52,33.52,0,0,0,655.15,1463.89Zm30.29,18-4.45,1.7c-.74-7.31-3.2-16.73-7.56-21.83l4.27-1.4C681.68,1465.3,684.88,1475,685.44,1481.9Z" transform="translate(-11.58 -817)"/><path class="cls-6" d="M700.61,1461.26c.74,1.36,1.51,2.89,2.34,4.5,5.18-2.25,10.76-4.41,15.25-4.41,6.26,0,10.11,3.65,10.11,8.4,0,5.36-3.63,9.09-10.28,9.09a20.4,20.4,0,0,1-6.57-1.19l.13-4.24a15.16,15.16,0,0,0,6,1.44c4.1,0,6.22-2.21,6.22-5.27,0-2.37-2-4.41-5.79-4.41-3.59,0-8.64,1.91-13.48,4.08.52,1.06,1,2.12,1.47,3.14,2.2,5,5.18,13.37,6.65,18.13l-4.71,1.19a122.94,122.94,0,0,0-5.83-17.5l-1.43-3.18c-3.24,1.57-6.13,3.06-8,3.91l-2.07-4.29a30.45,30.45,0,0,0,3.89-1.28c1.42-.55,2.94-1.19,4.58-1.91-.78-1.57-1.51-3-2.2-4.2a39.36,39.36,0,0,0-2.29-3.31l4.4-1.75C699.36,1458.93,700.18,1460.5,700.61,1461.26Zm5-4.59,3.16-2.2c1.47,1.14,4.71,3.86,6.26,5.43l-3.15,2.38A65.1,65.1,0,0,0,705.62,1456.67Z" transform="translate(-11.58 -817)"/><path class="cls-6" d="M742.4,1481.52c0,3,3,5.09,9.68,5.09A58.3,58.3,0,0,0,767,1485l0,4.67a65.41,65.41,0,0,1-14.83,1.48c-9.29,0-14.3-3-14.3-8.62a25.46,25.46,0,0,1,.86-6l4.45.42A16.23,16.23,0,0,0,742.4,1481.52Zm9.86-21.57c4.19,0,8.81-.26,12-.6v4.42c-3,.25-7.95.51-12,.51-4.41,0-8.13-.17-11.59-.47v-4.37A112.35,112.35,0,0,0,752.26,1460Zm16.68.72-2.86,1.23a42.41,42.41,0,0,0-3.45-5.9l2.81-1.15A62.3,62.3,0,0,1,768.94,1460.67Zm5-1.83-2.81,1.23a44.47,44.47,0,0,0-3.54-5.86l2.76-1.14A63.6,63.6,0,0,1,774,1458.84Z" transform="translate(-11.58 -817)"/><path class="cls-6" d="M782.34,1469a40.82,40.82,0,0,1-3.63,2.72,17.23,17.23,0,0,0-2.29-2.93,28.29,28.29,0,0,0,9.5-8.87l3.29,1.06a32.83,32.83,0,0,1-3.11,4.24v13.29h-3.76ZM813,1480.46a56.79,56.79,0,0,1-8,4.58,31.65,31.65,0,0,0,11.58,4.33,12.54,12.54,0,0,0-2.38,3.23c-8.21-1.83-14.64-5.9-18.49-12q-2.4,1.34-5.19,2.55v4.8c2.9-.43,6-.89,9-1.4l.18,3.1-17.46,2.72-.56-3.19c1.47-.21,3.15-.42,5-.68v-4a79,79,0,0,1-7.91,2.25,14.12,14.12,0,0,0-2.2-2.88c7.73-1.66,15.29-4.29,19.23-7.52l3.54,1.66c-.26.21-.48.42-.74.59a18.13,18.13,0,0,0,3.89,4.59,61.53,61.53,0,0,0,7.7-4.8Zm2.3-21.07H777.84v-3.05h16.6v-2.76h4v2.76h16.86Zm-17.42,14.36a27.18,27.18,0,0,1-7,4.88,18.61,18.61,0,0,0-2.68-1.87,23.16,23.16,0,0,0,6.61-4Zm17.37-1.19h-7.17a40.12,40.12,0,0,1,6.91,3.9l-2.59,1.87a45.22,45.22,0,0,0-6.91-4.2l2.42-1.57h-4.15v5.86h-3.89v-5.86H788.6v-2.64h11.24v-1.78h-7.91v-7.05H812v7.05h-8.25v1.78h11.49Zm-19.53-6.71h12.4v-2.47h-12.4Z" transform="translate(-11.58 -817)"/><path class="cls-6" d="M843.88,1482.24c2.94,4.08,8.16,6.11,16,6.75a14.31,14.31,0,0,0-2.42,3.65c-9.12-1.1-14.56-4.12-17.8-10.19-2.21,5.1-6.92,8.37-17.9,10.11a11.7,11.7,0,0,0-2-3.53c9.12-1.23,13.36-3.39,15.43-6.79H820.41v-3.44h16.16a33.52,33.52,0,0,0,.61-3.4H820.71v-3.52h16.86V1469H824.52v-3.4h13.05v-2.84H822.44v-3.53h8.17a19.44,19.44,0,0,0-2.81-4.25l3.5-1.4a16.27,16.27,0,0,1,3.5,5.14l-1.16.51h11.84l-1.43-.42a31.59,31.59,0,0,0,3.37-5.27l4.24,1.19a36.55,36.55,0,0,1-3.46,4.5H857v3.53H841.72v2.84h13.52v3.4H841.72v2.93h17v3.52H841.41c-.17,1.19-.34,2.34-.56,3.4h18.32v3.44Z" transform="translate(-11.58 -817)"/><path class="cls-6" d="M879.62,1461.56a43,43,0,0,0,6.35-1.44l.13,3.9a57.72,57.72,0,0,1-7.73,1.53,75.55,75.55,0,0,1-9.38,18l-4.15-2.08a63.76,63.76,0,0,0,9.08-15.5c-1.09,0-2.12.08-3.16.08-1.64,0-3.46,0-5.19-.12l-.3-4c1.69.17,3.76.25,5.49.25,1.43,0,2.94,0,4.45-.17a33.6,33.6,0,0,0,1.25-7.26l4.76.47C880.87,1456.8,880.27,1459.18,879.62,1461.56Zm11.75,11.89c0,1.4.18,3.86.31,6.28a28.33,28.33,0,0,1,8.94,5.35l-2.29,3.61a34.21,34.21,0,0,0-6.48-4.75v1.19c0,3.61-2.21,6.54-7.91,6.54-5,0-9.07-2.13-9.07-6.54,0-4,3.67-6.8,9-6.8a25.24,25.24,0,0,1,3.67.3c-.13-3.35-.35-7.35-.43-10.15h4.23C891.29,1470.26,891.33,1471.75,891.37,1473.45Zm-8,14.35c3.28,0,4.36-1.78,4.36-4.07,0-.39,0-.9,0-1.45a15.25,15.25,0,0,0-4-.55c-2.85,0-4.8,1.27-4.8,3S880.44,1487.8,883.38,1487.8Zm6-23.65,2.21-3.27a76.9,76.9,0,0,1,10.37,5.69l-2.46,3.52A55.66,55.66,0,0,0,889.38,1464.15Z" transform="translate(-11.58 -817)"/><path class="cls-6" d="M922.71,1468.69c3.54-2.12,7.08-3.82,9.29-5a24.45,24.45,0,0,0,3.5-2.25l2.16,3.91c-1.12.68-2.33,1.27-3.72,2a115.55,115.55,0,0,0-11.45,6.12c-3.8,2.46-6.22,5.09-6.22,8.19,0,3.36,3.24,5.31,9.68,5.31a69.2,69.2,0,0,0,14-1.48l0,4.8a84.1,84.1,0,0,1-13.74,1.06c-8.34,0-14.48-2.38-14.48-9.18,0-4.5,2.94-8,7.35-11.08-2-3.57-4.19-8.32-6.18-12.87l4.28-1.78A94.11,94.11,0,0,0,922.71,1468.69Zm19-6.92L939,1463a51.78,51.78,0,0,0-3.46-5.94l2.81-1.15A58.29,58.29,0,0,1,941.76,1461.77Zm5-1.87-2.81,1.23a40.59,40.59,0,0,0-3.55-5.86l2.81-1.14A55.22,55.22,0,0,1,946.78,1459.9Z" transform="translate(-11.58 -817)"/><path class="cls-6" d="M597.88,1547.76c0,2.34-.56,3.52-2.16,4.16s-4.28.72-8.08.72a15.64,15.64,0,0,0-1.38-4c2.8.13,5.74.13,6.56.09s1.08-.26,1.08-1v-23.15H582.5a33.8,33.8,0,0,1-.7,5.23A127.34,127.34,0,0,1,593.26,1541L590,1543.6a102.57,102.57,0,0,0-9.42-10,22.74,22.74,0,0,1-10,10.66,14.51,14.51,0,0,0-2.86-3c9-4.67,10.46-11.29,10.68-16.73H567.11v28.12h-4v-31.94h15.3v-7.13h4.15v7.13h15.34Z" transform="translate(-11.58 -817)"/><path class="cls-6" d="M625.58,1527.25a43.94,43.94,0,0,0,18.15,12.48,20.46,20.46,0,0,0-2.5,3.61,56.56,56.56,0,0,1-5.53-2.88v12h-4.07v-1.19H615.69v1.32H611.8v-11.72c-1.73,1-3.59,2-5.4,2.85a16.44,16.44,0,0,0-2.29-3.32c7.17-3,14.13-8.49,17.41-13.16Zm-16-1.74h-3.93v-8.24h15.86v-3.65h4.1v3.65h16.08v8.24H637.6v-4.67H609.55Zm10.5-1.87a38.3,38.3,0,0,1-11,9.51,20.61,20.61,0,0,0-2.81-3.14,29,29,0,0,0,10-7.64Zm12.28,14.69a43.49,43.49,0,0,1-8.6-7.39,39.18,39.18,0,0,1-8.08,7.39Zm-.7,9.47v-6H615.69v6Zm-1.94-25.48c3.76,2.21,8.64,5.52,11,7.9l-3,2.68a62.22,62.22,0,0,0-10.89-8.28Z" transform="translate(-11.58 -817)"/><path class="cls-6" d="M664.48,1520a101.38,101.38,0,0,0,12.71-1.23v4a138.13,138.13,0,0,1-14.22,1.1,34,34,0,0,1-3.33,5.61,12.86,12.86,0,0,1,5.53-1.28c2.72,0,5,1.24,5.79,3.61,2.68-1.23,4.89-2.12,6.92-3,1.47-.64,2.72-1.19,4.1-1.87l1.77,3.9c-1.25.39-3.11,1.06-4.4,1.57-2.21.85-5,2-8,3.32,0,2.42.08,5.81.13,7.85h-4.11c.09-1.48.13-3.9.18-6-3.72,2-6,3.94-6,6.45,0,2.89,2.8,3.48,7.17,3.48a74.7,74.7,0,0,0,12-1.1l-.13,4.29a112.49,112.49,0,0,1-12,.76c-6.44,0-11.45-1.48-11.45-6.75s5.18-8.54,10.2-11a3.49,3.49,0,0,0-3.55-2.12,11.09,11.09,0,0,0-7.17,3,45.54,45.54,0,0,0-3.93,4.55l-3.72-2.72a42.66,42.66,0,0,0,9.77-12.4h-1.26c-1.81,0-4.79-.09-7.21-.26v-4a56.8,56.8,0,0,0,7.43.47c.82,0,1.68,0,2.55,0a20.61,20.61,0,0,0,1-5.06l4.5.34C665.39,1516.63,665,1518.2,664.48,1520Z" transform="translate(-11.58 -817)"/><path class="cls-6" d="M697.93,1532.68a33.29,33.29,0,0,0-7.82-4.5l2.2-3a37.45,37.45,0,0,1,8,4.12Zm3.94,5.74c-2.08,4.46-4.72,9.51-7,13.59l-3.46-2.51a126.69,126.69,0,0,0,7.44-13.59Zm-1.73-17a33.62,33.62,0,0,0-7.65-4.71l2.2-2.84a31.66,31.66,0,0,1,7.78,4.37Zm18.45,14.91c2,6,5.92,10.62,11.71,12.87a14.33,14.33,0,0,0-2.81,3.44c-6-2.72-9.94-7.77-12.36-14.53-1.34,5.57-4.58,10.7-12,14.53a17.32,17.32,0,0,0-3.24-2.81c7.3-3.65,10.29-8.36,11.5-13.5H702v-3.7h10c.13-1.52.17-3,.17-4.58v-4.16h-7.91v-3.7h7.91v-6.58h4v6.58H726.5v12.44h3.41v3.7Zm-2.47-8.24c0,1.53,0,3-.12,4.54h6.56v-8.74h-6.44Z" transform="translate(-11.58 -817)"/><path class="cls-6" d="M760.29,1520c-.17.76-.34,1.52-.56,2.29a13.68,13.68,0,0,1,11.54,14c0,8.71-6.35,13.84-15.47,15.16l-2.59-3.82c9.24-.81,13.7-5.52,13.7-11.51a9.9,9.9,0,0,0-8.17-10.11c-1.56,5.23-3.63,10.45-6.1,14.06a23.62,23.62,0,0,0,2.51,2.8l-3.41,2.72c-.65-.72-1.26-1.4-1.82-2.12-2.76,3.18-5.31,5-8.51,5-3.41,0-6.4-2.8-6.4-8a18,18,0,0,1,6.53-13.25c-.43-1.23-.82-2.51-1.21-3.7a25.76,25.76,0,0,0-1.6-4.11l4.49-1.36c.26,1.23.61,2.63.91,3.86.26.94.56,2,.91,3a23.19,23.19,0,0,1,10.59-2.85c.21-.89.39-1.74.51-2.59a17.16,17.16,0,0,0,.31-3.61l4.71.43C760.86,1517.27,760.51,1519,760.29,1520Zm-18.45,24.12c1.9,0,3.89-1.75,5.66-4a7.83,7.83,0,0,0-.47-.76,48,48,0,0,1-4.07-8.33,13.88,13.88,0,0,0-4,9.09C739,1542.49,740.07,1544.07,741.84,1544.07Zm8.17-7.69a51.91,51.91,0,0,0,4.58-10.66,18.84,18.84,0,0,0-8.3,2.68,47.6,47.6,0,0,0,3.33,7.34Z" transform="translate(-11.58 -817)"/><path class="cls-6" d="M782.34,1520.37c3.15-.3,10.84-1,18.79-1.66,4.63-.38,9-.63,11.93-.76v4.29a38.78,38.78,0,0,0-8.38.64,14.09,14.09,0,0,0-9.6,12.78c0,7.73,7.35,10.32,14.52,10.61l-1.59,4.5c-8.47-.38-17.33-4.84-17.33-14.22a17,17,0,0,1,7.34-13.8c-4.36.46-14.43,1.48-19.23,2.5l-.47-4.67C780,1520.54,781.52,1520.46,782.34,1520.37Z" transform="translate(-11.58 -817)"/><path class="cls-6" d="M858.66,1523.3s0,1.36,0,1.83c-.47,17.53-.86,23.56-2.24,25.39a3.88,3.88,0,0,1-3.07,1.83,30.62,30.62,0,0,1-5.32,0,10.28,10.28,0,0,0-1.12-3.74c2,.17,3.76.17,4.54.17a1.65,1.65,0,0,0,1.55-.68c.95-1.19,1.38-6.58,1.73-21.19h-5.1c-.56,11.3-2.51,20.3-9.94,25.91a13,13,0,0,0-2.89-2.93,8.43,8.43,0,0,0,.77-.6c-6.22.72-12.44,1.36-17.06,1.78l-.52-3.35c2.5-.17,5.61-.43,9-.72v-3.23H821.1v-2.89H829v-2.16h-7.74V1526H829v-2.21h-8.9v-2.93H829v-2.38c-2.64.21-5.27.34-7.69.42a12,12,0,0,0-.95-2.84,137.72,137.72,0,0,0,18.53-2.08l1.91,3c-2.29.47-5.15.89-8.13,1.19v2.72h8.73v2.46h4.54c0-2.89,0-5.9,0-9.09h3.85c0,3.14,0,6.2-.09,9.09Zm-34.14,7.86H829v-2.59h-4.45Zm4.45,5v-2.59h-4.45v2.59Zm3.67,10.53c2.68-.26,5.45-.51,8.17-.81,3.54-4.8,4.62-11.21,5-18.94H841.2v-3.18h-8.56V1526h8v12.78h-8v2.16h8.13v2.89h-8.13Zm4.63-15.54v-2.59h-4.63v2.59Zm-4.63,2.42v2.59h4.63v-2.59Z" transform="translate(-11.58 -817)"/><path class="cls-6" d="M902,1516.29V1520H884.8v4.16h8.34v19H872.62v-19h8.17V1520h-16.9v-3.66Zm-5.18,7.26h3.93v28.92h-3.93V1550H869.16v2.55h-3.93v-29h3.93v22.72h27.66ZM876,1532h5v-4.62h-5Zm0,7.82h5v-4.67h-5Zm13.65-12.44h-5.1V1532h5.1Zm0,7.77h-5.1v4.67h5.1Z" transform="translate(-11.58 -817)"/><path class="cls-6" d="M923.79,1520a101.22,101.22,0,0,0,12.7-1.23v4a137.71,137.71,0,0,1-14.21,1.1,34.75,34.75,0,0,1-3.33,5.61,12.79,12.79,0,0,1,5.53-1.28c2.72,0,5,1.24,5.79,3.61,2.68-1.23,4.88-2.12,6.91-3,1.47-.64,2.73-1.19,4.11-1.87l1.77,3.9c-1.25.39-3.11,1.06-4.41,1.57-2.2.85-5,2-8,3.32,0,2.42.08,5.81.12,7.85h-4.1c.09-1.48.13-3.9.17-6-3.71,2-6,3.94-6,6.45,0,2.89,2.81,3.48,7.18,3.48a74.7,74.7,0,0,0,12-1.1l-.13,4.29a112.49,112.49,0,0,1-12,.76c-6.44,0-11.46-1.48-11.46-6.75s5.19-8.54,10.2-11a3.47,3.47,0,0,0-3.54-2.12,11.07,11.07,0,0,0-7.17,3,45.52,45.52,0,0,0-3.94,4.55l-3.71-2.72A42.77,42.77,0,0,0,918,1524H916.7c-1.81,0-4.8-.09-7.22-.26v-4a56.84,56.84,0,0,0,7.44.47c.82,0,1.68,0,2.55,0a21.09,21.09,0,0,0,1-5.06l4.49.34C924.7,1516.63,924.35,1518.2,923.79,1520Z" transform="translate(-11.58 -817)"/><path class="cls-6" d="M957.71,1532.51a37.57,37.57,0,0,0-8.29-4.28l2.07-3a35.39,35.39,0,0,1,8.39,4Zm4.5,6.08c-2.25,4.41-5.1,9.47-7.65,13.46l-3.41-2.63a120.4,120.4,0,0,0,8.12-13.47Zm-2.12-17.12a35.4,35.4,0,0,0-8-4.71l2.16-2.89a30.24,30.24,0,0,1,8.21,4.42Zm29.21,26v3.78h-28v-3.78h11.93v-9.12h-8.9v-3.78h8.9v-8.12H962.81v-3.73H977a45.72,45.72,0,0,0-9.2-6.2l2.59-3a44.36,44.36,0,0,1,10.07,6.46l-2.34,2.76h10.2v3.73H977.42v8.12h9.38v3.78h-9.38v9.12Z" transform="translate(-11.58 -817)"/><path class="cls-6" d="M1025.69,1524.4a45.41,45.41,0,0,1-10,16.4,40.6,40.6,0,0,0,17,7.89,21.59,21.59,0,0,0-2.89,3.91,42.64,42.64,0,0,1-17.46-8.75,50.08,50.08,0,0,1-17.16,8.84,20.16,20.16,0,0,0-2.55-3.87,45.09,45.09,0,0,0,16.64-7.9,48,48,0,0,1-9.72-16.52h-6.27v-3.82h17.25v-7h4.1v7h17.5v3.82Zm-21.73,0a38.38,38.38,0,0,0,8.6,13.59,37.39,37.39,0,0,0,8.42-13.59Z" transform="translate(-11.58 -817)"/><path class="cls-6" d="M1049.12,1546.4a3.29,3.29,0,0,1,3.29-3.48,3.33,3.33,0,0,1,3.37,3.48,3.29,3.29,0,0,1-3.37,3.4A3.25,3.25,0,0,1,1049.12,1546.4Zm1-24.12-.13-5h5l-.18,5-.69,17h-3.33Z" transform="translate(-11.58 -817)"/><path class="cls-7" d="M564.91,1735.19l-55.19-49C491.57,1670,503,1640,527.26,1640H637.63c24.29,0,35.7,30,17.55,46.14l-55.19,49A26.4,26.4,0,0,1,564.91,1735.19Z" transform="translate(-11.58 -817)"/><path class="cls-7" d="M565.4,1262.19l-55.18-49C492.07,1197,503.47,1167,527.76,1167H638.13c24.28,0,35.69,30,17.54,46.14l-55.19,49A26.4,26.4,0,0,1,565.4,1262.19Z" transform="translate(-11.58 -817)"/><path class="cls-1" d="M15.58,1820.51c0-29.46,11-53.34,24.62-53.34H278c13.6,0,24.62,23.88,24.62,53.34v213.33c0,29.45-11,53.33-24.62,53.33H40.2c-13.6,0-24.62-23.88-24.62-53.33Z" transform="translate(-11.58 -817)"/><path class="cls-2" d="M60.1,1955.1l6.58-8.12c3.36,3,7.81,5,11.62,5,4.26,0,6.26-1.65,6.26-4.29,0-2.84-2.64-3.76-6.78-5.55l-6.13-2.63c-5-2-9.74-6.34-9.74-13.46,0-8.25,7.23-14.85,17.42-14.85A22.08,22.08,0,0,1,95,1917.69l-5.74,7.39c-3.16-2.45-6.13-3.77-9.88-3.77-3.55,0-5.68,1.46-5.68,4,0,2.77,3,3.83,7.23,5.54l6,2.44c5.93,2.44,9.48,6.53,9.48,13.46,0,8.18-6.71,15.38-18.33,15.38A26.56,26.56,0,0,1,60.1,1955.1Z" transform="translate(-11.58 -817)"/><path class="cls-2" d="M113.67,1921.91h-13v-9.83h37.56v9.83h-13v39.32H113.67Z" transform="translate(-11.58 -817)"/><path class="cls-2" d="M145.82,1912.08h30.46v9.83H157.37v9.1h16.07v9.9H157.37v10.42H177v9.9H145.82Z" transform="translate(-11.58 -817)"/><path class="cls-2" d="M186.48,1912.08h16.91c10.52,0,19.24,3.89,19.24,16,0,11.68-8.78,16.83-19,16.83H198v16.29H186.48Zm16.59,23.55c5.61,0,8.33-2.7,8.33-7.52s-3.1-6.66-8.65-6.66H198v14.18Z" transform="translate(-11.58 -817)"/><path class="cls-2" d="M226.82,1955.29l5.3-7.39c2.9,2.78,6.26,4.76,10,4.76,4.45,0,7.36-1.85,7.36-5.28,0-4-2.2-6.4-12.27-6.4v-8.32c8.2,0,10.78-2.5,10.78-6.07,0-3.23-1.93-5-5.48-5-3.23,0-5.68,1.52-8.59,4.16l-5.81-7.2c4.46-3.76,9.23-6.13,14.91-6.13,9.94,0,16.46,4.81,16.46,13.26,0,4.82-2.64,8.38-7.68,10.56v.33c5.29,1.58,9.23,5.47,9.23,11.61,0,9-8.2,14-17.75,14C235.67,1962.16,230.31,1959.45,226.82,1955.29Z" transform="translate(-11.58 -817)"/><path class="cls-3" d="M15.58,1820.51c0-29.46,13.72-53.34,30.64-53.34H1071.94c16.92,0,30.64,23.88,30.64,53.34v213.33c0,29.45-13.72,53.33-30.64,53.33H46.22c-16.92,0-30.64-23.88-30.64-53.33Z" transform="translate(-11.58 -817)"/><rect class="cls-5" x="382.77" y="1001.35" width="143.61" height="84.54"/><path d="M464.14,1927H415.36l-2.48,2.35-34.28,32.54-2.48,2.36v70.41c0,12,10.25,21.7,22.86,21.7h65.16c12.61,0,22.86-9.73,22.86-21.7v-86C487,1936.73,476.75,1927,464.14,1927Zm14.4,107.66c0,7.55-6.45,13.67-14.4,13.67H399c-8,0-14.4-6.12-14.4-13.67v-67.08h22.29c6.62,0,12-5.1,12-11.39V1935h45.28c7.95,0,14.4,6.11,14.4,13.66v86Z" transform="translate(-11.58 -817)"/><path d="M424.17,1984.9a.66.66,0,0,0-.61,0,.55.55,0,0,0-.29.5v28.67a.54.54,0,0,0,.29.49.69.69,0,0,0,.61,0l25.29-14.35a.55.55,0,0,0,.29-.48.54.54,0,0,0-.29-.48Z" transform="translate(-11.58 -817)"/><path d="M415.58,1836.33s-.05,2.47-.05,3.41c-.44,22.27-.83,30.52-2.59,33.1a6.65,6.65,0,0,1-4.67,3.19,32.47,32.47,0,0,1-6.93.33,19.68,19.68,0,0,0-2.31-7.59,50.29,50.29,0,0,0,5.17.22,2,2,0,0,0,1.87-1c1.05-1.43,1.48-7.86,1.76-24.36h-3.35c-.77,14.85-3.25,25.9-12.27,33.22a23.09,23.09,0,0,0-3.52-4.35c-8.36.83-16.94,1.6-23.37,2.15l-.88-6.6c3-.17,6.71-.39,10.78-.66V1865H366v-5.55h9.24v-1.43h-9v-17.49h9v-1.37H364.88v-5.67h10.34v-1.32c-3,.17-5.94.28-8.74.33a23.35,23.35,0,0,0-1.71-5.61,165.64,165.64,0,0,0,23.81-2.64l3.36,5.89c-2.86.6-6.11,1-9.52,1.43v1.92h10v5.67h-10v1.37h9.24v17.49h-9.24v1.43H392V1865c3.47-5.5,4.57-12.53,4.95-21.39H392.6v-7.31h4.51v-11.17h7.64c0,3.91,0,7.65-.05,11.17Zm-43.11,10.72h2.75v-1.65h-2.75Zm2.75,6.16v-1.65h-2.75v1.65Zm7.2-7.81v1.65h2.7v-1.65Zm2.7,6.16h-2.7v1.65h2.7Zm-2.7,15.34,8.75-.66c.27-.38.55-.77.82-1.21h-9.57Z" transform="translate(-11.58 -817)"/><path d="M470.69,1827.25v7.43H449.47v3.46h9.24v25.3H432.58v-25.3h8.8v-3.46H420.65v-7.43Zm-9.51,10h7.75v39.1h-7.75v-3.13H430.11v3.13h-7.75v-39.1h7.75v28.43h31.07Zm-22.11,10.51h3v-3.19h-3Zm0,9.23h3v-3.24h-3Zm12.82-12.42h-3v3.19h3Zm0,9.18h-3V1857h3Z" transform="translate(-11.58 -817)"/><path d="M499.46,1831.65a124.94,124.94,0,0,0,14.8-1.54l-.06,7.7c-5.11.66-11.88,1.16-17.71,1.38a41.48,41.48,0,0,1-2.14,3.9,26.73,26.73,0,0,1,5.44-.55c3.25,0,5.89,1.32,7.32,3.85,2.2-1,4-1.76,5.94-2.64,2.42-1,4.67-2.09,7-3.24l3.25,7.7c-1.93.55-5.39,1.81-7.48,2.63s-4.78,1.87-7.7,3.14c.06,3,.17,6.71.22,9.18h-7.92c.11-1.43.22-3.46.28-5.55-3.47,2-5,3.85-5,6.05s1.7,3.24,6.87,3.24a83.23,83.23,0,0,0,16-1.7l-.28,8.58a135.33,135.33,0,0,1-15.89,1c-9,0-15.51-2.37-15.51-9.68s6.54-11.77,12.65-15a4.05,4.05,0,0,0-3-1.15c-2.8,0-6.21,1.81-8.08,3.68a60,60,0,0,0-5.12,6.21l-7.09-5.33c5.17-4.62,9.07-9.13,11.77-14.19-2.26,0-6.27-.11-9.18-.38v-7.7a72.15,72.15,0,0,0,9.89.66h2.15a35.2,35.2,0,0,0,.93-6l8.8.72A50.32,50.32,0,0,1,499.46,1831.65Z" transform="translate(-11.58 -817)"/><path d="M573.44,1852.77a32.33,32.33,0,0,1-9.52,12.32,89.59,89.59,0,0,0,17.16,2.86,35.27,35.27,0,0,0-4.9,7.53,68.18,68.18,0,0,1-20.62-5.33,73.76,73.76,0,0,1-21,5.5,26.71,26.71,0,0,0-4.68-7.15,79.88,79.88,0,0,0,17.54-3.14,37.2,37.2,0,0,1-7.31-7.15l2.58-1h-2.75v-7.31h26.68l1.37-.28,4.29,2.53v-5.39H538.73v5.61h-7.47v-12.48h7.42a38.8,38.8,0,0,0-2-4.73l4.45-1.21c-2.58.11-5.16.16-7.64.22a24.9,24.9,0,0,0-1.76-6.77c14.74-.38,31.13-1.65,41.63-3.63l5.33,6.49c-6.1,1.1-13.08,2-20.29,2.59a23.43,23.43,0,0,1,2.09,6.21l-3.41.83h8.09a57.22,57.22,0,0,0,2.69-7.59l8.58,1.87c-1.1,2-2.25,4-3.3,5.72h6.93v12.48h-7.42ZM555,1833.08c-3.68.28-7.37.5-11,.66a23.76,23.76,0,0,1,2.42,5.45l-2.31.66h8.8a35.39,35.39,0,0,0-1.76-5.89Zm-6.27,24.09a28.32,28.32,0,0,0,6.77,4.67,24.08,24.08,0,0,0,5.72-4.67Z" transform="translate(-11.58 -817)"/><path d="M597.86,1832.92c-1.16,5.06-3.14,16.33-2,21.88.72-1.32,1.65-3.63,2.48-5.22l4.07,2.64a121.13,121.13,0,0,0-3.85,14.08,14.8,14.8,0,0,0-.39,2.8c0,.61.06,1.65.11,2.53l-7.48.72a59.6,59.6,0,0,1-3.29-18,149.23,149.23,0,0,1,1.65-22,44.27,44.27,0,0,0,.38-5.33l9.84.93A51.84,51.84,0,0,0,597.86,1832.92Zm28.26-1.93c0,1.1,0,3.58,0,6.33,3-.22,5.72-.5,7.81-.83l-.06,8.64c-2.09.16-4.78.33-7.75.49v2.53c0,13.14-1.54,20.57-12.1,27.61l-7.7-6a22.14,22.14,0,0,0,7-5c3.25-4,4.51-8.14,4.51-16.66V1846c-1.92.06-3.85.06-5.72.06-2.25,0-5.33-.17-8.25-.28v-8.41a56.52,56.52,0,0,0,8,.55c1.87,0,3.85-.06,5.83-.11,0-2.75-.11-5.28-.22-6.77a30.12,30.12,0,0,0-.66-4.07h9.63A37.21,37.21,0,0,0,626.12,1831Z" transform="translate(-11.58 -817)"/><path d="M690.64,1831.93c-1,12.21-3.41,21.83-7.37,29.36a29.36,29.36,0,0,0,9.24,8.25,30.37,30.37,0,0,0-5.5,6.6,35.68,35.68,0,0,1-8.63-7.59,37.25,37.25,0,0,1-8.91,7.7,33.62,33.62,0,0,0-4.13-5.5v5.67h-7.7v-8.14c-6,1-12.26,2-17.21,2.8l-1.48-8c1.48-.17,3.13-.33,4.89-.55V1834.4h-3.52V1827h28.27v3.85H684l1.38-.22Zm-39.21,2.47v4.07h6.21v-4.07Zm0,15.51h6.21v-4.34h-6.21Zm6.21,10.89V1857h-6.21v4.62Zm7.7,8.3a28.6,28.6,0,0,0,8.31-7.81c-3.19-6-5.39-13-7.1-21l7.65-1.49a66.31,66.31,0,0,0,4.07,13.8,67.75,67.75,0,0,0,3.68-13.91h-15v-4.29h-1.6Z" transform="translate(-11.58 -817)"/><path d="M711.65,1835.78c2.86-3.47,7.15-6.88,12.87-6.88,7.87,0,14.19,7.59,14.19,20,0,15.73-9.46,23.48-24.58,26.29l-5.06-7.76c12.37-1.92,20.57-5.5,20.57-18.53,0-8.36-2.81-12.21-6.71-12.21-6.27,0-11.61,9.63-11.61,16.88a47.32,47.32,0,0,0,.33,5.28l-8.19.55a65,65,0,0,1-.71-9.4,133,133,0,0,1,1.42-17.54,59.78,59.78,0,0,0,.44-6.33l9.08.39A80.51,80.51,0,0,0,711.65,1835.78Z" transform="translate(-11.58 -817)"/><path class="cls-6" d="M599.26,1944.26a57.27,57.27,0,0,1-7.45,12.1,117.06,117.06,0,0,1,13,12.44l-4,3.32a96.1,96.1,0,0,0-12-12.4A59.62,59.62,0,0,1,571.29,1972l-3.68-3.61a51,51,0,0,0,18.66-12.45c3.09-3.22,6.13-7.89,7.22-11.21H576.83c-1.77,0-4.22.22-5,.26v-4.8c.91.13,3.54.3,5,.3h16.85a14.46,14.46,0,0,0,4-.43l3,2A14.8,14.8,0,0,0,599.26,1944.26Z" transform="translate(-11.58 -817)"/><path class="cls-6" d="M631.59,1941c-.18.29-.32.55-.5.85H642a11.18,11.18,0,0,0,3.41-.47l3.68,2.12a21.25,21.25,0,0,0-1.23,2.63,47.23,47.23,0,0,1-6.95,12.83c1.91,1.27,3.68,2.55,5.09,3.61l-3.36,3.74c-1.27-1.11-3-2.42-4.86-3.83A43.43,43.43,0,0,1,621,1972.92l-4.13-3.39a39.19,39.19,0,0,0,17.17-9.77c-3.14-2.12-6.41-4.21-9-5.78l3.13-3c2.73,1.49,5.91,3.4,8.95,5.35a33.84,33.84,0,0,0,5.67-10.7H628.37a50,50,0,0,1-12,11.12l-3.86-2.8a40.06,40.06,0,0,0,14.53-14.48,19.28,19.28,0,0,0,1.72-3.82l5.18,1.53C633,1938.44,632.09,1940.1,631.59,1941Z" transform="translate(-11.58 -817)"/><path class="cls-6" d="M665.55,1952h24.7c2.18,0,4-.17,5.09-.26V1957c-1,0-3.09-.22-5.09-.22h-24.7c-2.5,0-5.22.09-6.76.22v-5.27C660.28,1951.78,663.1,1952,665.55,1952Z" transform="translate(-11.58 -817)"/><path class="cls-6" d="M719.5,1940.27c-.28,1.31-.69,3.35-1.09,5.35,1.86-.17,3.49-.26,4.54-.26,4.4,0,7.72,1.66,7.72,7.6,0,5-.69,11.85-2.59,15.42-1.46,2.93-3.82,3.69-7,3.69a27.23,27.23,0,0,1-5.4-.59l-.73-4.42a25.22,25.22,0,0,0,5.54.85c1.64,0,2.91-.38,3.73-2,1.36-2.63,2-8,2-12.44,0-3.65-1.77-4.29-4.63-4.29-1,0-2.45.09-4.18.26-1.68,6.24-4.9,16-9.4,22.84l-4.67-1.74c4.54-5.73,7.81-14.9,9.44-20.68-2.09.21-4,.43-5,.55s-3.22.39-4.49.6l-.45-4.59c1.54.09,2.86,0,4.4,0s3.91-.21,6.49-.42a44.59,44.59,0,0,0,1.05-9.13l5.31.51C719.9,1938.23,719.68,1939.33,719.5,1940.27Zm24.43,16.81-4.5,2c-1.27-4.5-4.68-12.11-7.86-15.71l4.23-1.7C738.61,1945.15,742.47,1953.09,743.93,1957.08Z" transform="translate(-11.58 -817)"/><path class="cls-6" d="M758.13,1956.11a22.83,22.83,0,0,1,14.17-4.72c7.41,0,12,4.21,12,9.26,0,7.64-6.91,13.16-24.66,11.76l-1.36-4.37c14,1.66,21.11-1.87,21.11-7.47,0-3.15-3.13-5.4-7.49-5.4-5.59,0-10.4,2-13.4,5.4a8.3,8.3,0,0,0-1.54,2.25l-4.18-.94a149.34,149.34,0,0,0,2.32-17.45l4.81.59C759.32,1947.7,758.54,1953.52,758.13,1956.11Zm20.08-15.89-1.05,4.12c-4.45-.55-14.44-2.5-17.94-3.35l1.14-4A142.51,142.51,0,0,0,778.21,1940.22Z" transform="translate(-11.58 -817)"/><path class="cls-6" d="M811.94,1938.82c-.18.81-.36,1.79-.54,2.81a89.35,89.35,0,0,0,15.71-1.83l0,4a147,147,0,0,1-16.25,1.57c-.14,1.44-.28,3-.41,4.59a31,31,0,0,1,7.26-.94c.46,0,.91,0,1.32,0a20.11,20.11,0,0,0,.55-2.76l4.45,1c-.28.56-.64,1.62-1,2.38,5.5,1.53,8.95,5.39,8.95,10.19,0,6.08-4,11.6-14.85,13.17l-2.45-3.53c8.44-.89,12.89-4.92,12.89-9.81,0-3-2-5.6-5.76-6.71a33.54,33.54,0,0,1-9.86,13.38c.32,1.19.73,2.29,1.09,3.36l-4.13,1.14c-.23-.63-.45-1.31-.68-2.08a16.45,16.45,0,0,1-7.4,2c-3.14,0-5.72-1.78-5.72-5.69,0-5.48,5-11.13,11.3-13.89.09-2,.28-4,.46-5.77h-2.23c-2.13,0-5.67-.21-7.63-.3l-.13-4a67.17,67.17,0,0,0,7.9.55h2.5c.09-1.06.22-2,.31-2.84a21.47,21.47,0,0,0,.14-2.25l4.68.13A17,17,0,0,0,811.94,1938.82Zm-10.08,27.9a11,11,0,0,0,5.5-1.87,51.73,51.73,0,0,1-1-9.59c-4,2.29-6.9,6-6.9,9.08A2.1,2.1,0,0,0,801.86,1966.72Zm9.17-4.67a27.58,27.58,0,0,0,6.86-9.68h-.32a22.47,22.47,0,0,0-7.22,1.19v1A42,42,0,0,0,811,1962.05Z" transform="translate(-11.58 -817)"/><path class="cls-6" d="M855.21,1942.94a45.6,45.6,0,0,0,6.68-1.44l.14,3.91a65.32,65.32,0,0,1-8.13,1.52,74.34,74.34,0,0,1-9.86,18l-4.36-2.08a62.54,62.54,0,0,0,9.54-15.5c-1.14,0-2.22.09-3.31.09-1.73,0-3.64,0-5.45-.13l-.32-3.95c1.77.17,4,.25,5.77.25,1.49,0,3.08,0,4.67-.17a32.56,32.56,0,0,0,1.32-7.26l5,.47C856.53,1938.19,855.9,1940.56,855.21,1942.94Zm12.36,11.89c0,1.4.18,3.87.31,6.29a29.78,29.78,0,0,1,9.4,5.35l-2.4,3.61a35.34,35.34,0,0,0-6.81-4.76v1.19c0,3.61-2.32,6.54-8.31,6.54-5.27,0-9.54-2.12-9.54-6.54,0-4,3.86-6.79,9.49-6.79a27.88,27.88,0,0,1,3.86.29c-.14-3.35-.36-7.34-.45-10.15h4.45C867.47,1951.65,867.52,1953.13,867.57,1954.83Zm-8.4,14.36c3.45,0,4.58-1.79,4.58-4.08,0-.38,0-.89,0-1.44a16.88,16.88,0,0,0-4.23-.56c-3,0-5,1.28-5,3S856.08,1969.19,859.17,1969.19Zm6.31-23.66,2.31-3.27a82.07,82.07,0,0,1,10.9,5.69l-2.59,3.53A58.49,58.49,0,0,0,865.48,1945.53Z" transform="translate(-11.58 -817)"/><path class="cls-6" d="M901.26,1940.65c-.14.72-.32,1.57-.55,2.51,2.77-.39,5.59-.85,8.22-1.49v4.2a85.75,85.75,0,0,1-9.13,1.45c-.45,1.82-.95,3.78-1.45,5.56a123,123,0,0,1-7.17,19.53l-4.95-1.57c2.67-4.33,6-13.08,7.72-19,.36-1.32.72-2.72,1.09-4.12-1.32,0-2.55.08-3.68.08-2.09,0-3.77,0-5.41-.17l-.09-4.16a44.8,44.8,0,0,0,5.54.34c1.41,0,3,0,4.54-.17.23-1.27.46-2.38.55-3.18a16.69,16.69,0,0,0,.18-3.82l5.45.38C901.85,1938.06,901.44,1939.8,901.26,1940.65Zm5.45,23.44c0,1.91,1.22,3.65,7,3.65a54.81,54.81,0,0,0,9.09-.85l-.14,4.29a74.25,74.25,0,0,1-9,.6c-7.4,0-11.4-2.25-11.4-6.46a23.4,23.4,0,0,1,.77-5.31l4.23.39A14.29,14.29,0,0,0,906.71,1964.09Zm7.49-14.57c2.63,0,5.36.09,7.94.34l-.13,4.08a60.92,60.92,0,0,0-7.72-.55,80.89,80.89,0,0,0-8.58.47v-3.95C908.16,1949.69,911.29,1949.52,914.2,1949.52Z" transform="translate(-11.58 -817)"/><path class="cls-6" d="M932.49,1955.51c2.32-2.16,6-6.79,8.72-9.85s5.5-3.44,8.63-.51c2.86,2.68,6.4,7,9.22,9.77s7.08,7.09,11.26,10.57l-3.68,4c-3.36-3-7.4-7.18-10.4-10.45-2.9-3.1-6.31-7.17-8.44-9.42-1.77-1.83-2.64-1.53-4.09.12-2,2.34-5.49,6.84-7.67,9.35-1,1.27-2,2.63-2.77,3.61l-4.27-4.12A27.87,27.87,0,0,0,932.49,1955.51Z" transform="translate(-11.58 -817)"/><path class="cls-6" d="M601.76,2011.05v4.55h5v3.65h-5v10.11c0,2.12-.5,3.27-2,4s-4.08.63-7.49.63a15,15,0,0,0-1.31-4c2.54.09,5,.09,5.72,0s1-.17,1-.77v-10h-15.8V2017l-4.36,1.27v15.67h-3.91v-14.52l-7.17,2-1.09-3.78c2.27-.51,5.13-1.24,8.26-2.09V2007h-3.68a34.45,34.45,0,0,1-1.86,5.82,31.69,31.69,0,0,0-3-1.79c1.54-3.44,2.41-8.79,2.82-13.84l3.63.59c-.23,1.83-.46,3.7-.82,5.48h3V1995h3.91v8.28h4.22V2007h-4.22v7.52l4.77-1.32.36,2.38h15v-4.55H580.92v-3.65h11.17v-4.63h-8.5v-3.56h8.5V1995h4.17v4.25H605v3.56h-8.77v4.63h10.81v3.65ZM587,2019.93a31.06,31.06,0,0,1,5.59,6.54l-3.37,2a30.82,30.82,0,0,0-5.4-6.76Z" transform="translate(-11.58 -817)"/><path class="cls-6" d="M631.72,2015.13s0,1.1,0,1.61c-.5,10.37-.95,14.31-2.18,15.63a4,4,0,0,1-3.09,1.36,36,36,0,0,1-5.49.08,7.81,7.81,0,0,0-1.18-3.48c2.09.21,4.08.21,4.86.21s1.18,0,1.49-.46c.78-.77,1.23-3.78,1.59-11.43h-6.35c-1.05,6-3.14,11.64-7.91,15.38a10.06,10.06,0,0,0-2.9-2.76c6.08-4.59,7.08-12.83,7.49-20.22h-4.72V1997h18.12v14.09h-9.27c-.09,1.36-.18,2.72-.36,4.08Zm-14.57-7.56h10.17v-7.13H617.15Zm22.39,16h-4.09V2000.1h4.09Zm11-27.69V2029c0,2.47-.64,3.61-2.23,4.34s-4.41.72-8.54.67a17.06,17.06,0,0,0-1.5-4c3.09.13,6,.09,6.86.09s1.18-.3,1.18-1.07v-33.12Z" transform="translate(-11.58 -817)"/><path class="cls-6" d="M673.59,2002.94a45.18,45.18,0,0,0,6.67-1.44l.14,3.91a65.32,65.32,0,0,1-8.13,1.52,74,74,0,0,1-9.85,18l-4.36-2.08a63.14,63.14,0,0,0,9.54-15.5c-1.14,0-2.23.09-3.32.09-1.73,0-3.63,0-5.45-.13l-.32-3.95c1.77.17,4,.25,5.77.25,1.5,0,3.09,0,4.68-.17a32.52,32.52,0,0,0,1.31-7.26l5,.47C674.91,1998.19,674.27,2000.56,673.59,2002.94Zm12.35,11.89c0,1.4.18,3.87.32,6.29a30,30,0,0,1,9.4,5.35l-2.41,3.61a35,35,0,0,0-6.81-4.76v1.19c0,3.61-2.32,6.54-8.31,6.54-5.27,0-9.54-2.12-9.54-6.54,0-4,3.86-6.79,9.49-6.79a27.91,27.91,0,0,1,3.87.29c-.14-3.35-.37-7.34-.46-10.15h4.45C685.85,2011.65,685.9,2013.13,685.94,2014.83Zm-8.4,14.36c3.45,0,4.59-1.79,4.59-4.08,0-.38,0-.89,0-1.44a16.8,16.8,0,0,0-4.22-.56c-3,0-5,1.28-5,3S674.45,2029.19,677.54,2029.19Zm6.31-23.66,2.32-3.27a82.07,82.07,0,0,1,10.9,5.69l-2.59,3.53A58.58,58.58,0,0,0,683.85,2005.53Z" transform="translate(-11.58 -817)"/><path class="cls-6" d="M742.38,2004.68s0,1.36,0,1.83c-.5,17.54-.91,23.57-2.37,25.39a4,4,0,0,1-3.22,1.83,33.67,33.67,0,0,1-5.58,0A10,10,0,0,0,730,2030c2.09.17,4,.17,4.77.17a1.78,1.78,0,0,0,1.64-.68c1-1.19,1.45-6.59,1.81-21.19h-5.35c-.59,11.29-2.64,20.29-10.45,25.9a13.68,13.68,0,0,0-3-2.93,10,10,0,0,0,.82-.6c-6.54.73-13.08,1.36-17.94,1.79l-.55-3.36c2.64-.17,5.91-.42,9.5-.72v-3.23h-8.27v-2.88h8.27v-2.17h-8.13v-12.78h8.13v-2.21h-9.36v-2.93h9.36v-2.38c-2.77.21-5.55.34-8.09.43a11,11,0,0,0-1-2.85,150.08,150.08,0,0,0,19.48-2.08l2,3c-2.4.47-5.4.9-8.54,1.19v2.72h9.18v2.46H729c0-2.88,0-5.9,0-9.08h4c0,3.14,0,6.2-.09,9.08Zm-35.87,7.86h4.68V2010h-4.68Zm4.68,5V2015h-4.68v2.59Zm3.85,10.53c2.82-.25,5.73-.51,8.59-.8,3.72-4.8,4.86-11.22,5.22-18.94H724v-3.19h-9v2.21h8.45v12.78H715v2.17h8.54v2.88H715Zm4.86-15.54V2010H715v2.59ZM715,2015v2.59h4.86V2015Z" transform="translate(-11.58 -817)"/><path class="cls-6" d="M787.92,1997.68v3.65H769.85v4.16h8.77v19H757v-19h8.59v-4.16H747.87v-3.65Zm-5.45,7.26h4.14v28.92h-4.14v-2.47H753.41v2.55h-4.13v-29h4.13v22.72h29.06Zm-21.88,8.45h5.31v-4.63h-5.31Zm0,7.81h5.31v-4.67h-5.31Zm14.35-12.44h-5.36v4.63h5.36Zm0,7.77h-5.36v4.67h5.36Z" transform="translate(-11.58 -817)"/><path class="cls-6" d="M809.81,2000.48c-.27,1.32-.68,3.35-1.09,5.35,1.86-.17,3.54-.25,4.58-.25,4.36,0,7.72,1.65,7.72,7.6,0,5-.68,11.84-2.58,15.41-1.5,2.93-3.86,3.74-7,3.74a26.72,26.72,0,0,1-5.4-.64l-.77-4.41a25.37,25.37,0,0,0,5.58.84,3.71,3.71,0,0,0,3.73-2c1.36-2.68,2-8.07,2-12.49,0-3.65-1.77-4.29-4.63-4.29-1,0-2.45.09-4.13.26-1.68,6.24-4.9,16.05-9.4,22.85l-4.68-1.75c4.54-5.73,7.81-14.9,9.4-20.68-2,.22-3.9.43-5,.56s-3.27.38-4.49.59l-.46-4.59c1.5.09,2.86.05,4.41,0s3.9-.21,6.45-.42a44.78,44.78,0,0,0,1.09-9.13l5.31.51C810.26,1998.44,810,1999.54,809.81,2000.48ZM829.7,2002l-2.91,1.14a71.77,71.77,0,0,1,7.49,14.36l-4.49,2c-1.27-4.54-4.72-12-7.9-15.54l4.22-1.74c0,.08.14.17.18.25a37.94,37.94,0,0,0-3.22-5.18l2.95-1.14A61.26,61.26,0,0,1,829.7,2002Zm5.26-1.87-3,1.23a41.77,41.77,0,0,0-3.77-5.86l3-1.15A64.33,64.33,0,0,1,835,2000.1Z" transform="translate(-11.58 -817)"/><path class="cls-6" d="M846.63,2008.85v.46c0,7.22-.63,17.8-5.36,24.63a18.75,18.75,0,0,0-3.72-2c4.45-6.49,4.86-15.88,4.86-22.59V1997h33.78v11.85Zm0-8.24v4.63H872v-4.63Zm30.15,13v20.38h-4.13v-1.4H852.94v1.4h-4v-20.38h11.58V2009h4.08v4.55ZM852.94,2017v4.25h7.59V2017Zm0,12h7.59v-4.51h-7.59Zm11.67-12v4.25h8V2017Zm8,12v-4.51h-8V2029Z" transform="translate(-11.58 -817)"/><path class="cls-6" d="M902.35,1996.91l4.86-.51a36.67,36.67,0,0,0,.95,4.8,52.66,52.66,0,0,0,9.17-1.91l.59,3.87a67.76,67.76,0,0,1-8.72,1.65c.32.89.59,1.74.91,2.51s.59,1.48.91,2.29a54.41,54.41,0,0,0,8.9-1.78l.73,4a77.8,77.8,0,0,1-7.86,1.4,38.48,38.48,0,0,0,2.82,4.63,10.91,10.91,0,0,0,1.86,2L915.2,2023c-2.55-.56-7.09-1-10.27-1.32l.37-3.23,6.31.6a42.87,42.87,0,0,1-3.09-5.35,156.7,156.7,0,0,1-19.89,0l-.22-4a114.36,114.36,0,0,0,18.43.25c-.27-.64-.54-1.27-.77-1.87-.41-1.1-.73-2.08-1-3a115.47,115.47,0,0,1-15.49-.34l-.27-3.86a99.3,99.3,0,0,0,14.62.55c0-.13-.09-.26-.14-.38C903.35,1999.76,902.89,1998.31,902.35,1996.91Zm-8.36,27c0,3.36,3.27,4.93,9.9,4.93a57,57,0,0,0,11.08-.94l-.23,4.29a76.05,76.05,0,0,1-10.8.77c-9,0-14.26-2.51-14.35-8.24a12.22,12.22,0,0,1,1.9-6.37l4.45.8A7.87,7.87,0,0,0,894,2023.92Z" transform="translate(-11.58 -817)"/><path class="cls-6" d="M953.07,1999.54c-.05.51-.05,1.32-.1,2.26a108.13,108.13,0,0,0,11.95-1.19v3.9c-3.36.39-7.59.77-12,.94v5.26c4.49-.17,8.49-.55,12.44-1.06l0,3.95c-4.18.47-8,.77-12.31.94.09,2,.23,4,.32,5.9a37.22,37.22,0,0,1,13,6.5l-2.63,3.77a35.56,35.56,0,0,0-10.18-6.2c.05.9.1,1.62.1,2.21,0,3.23-2.5,6.16-8.45,6.16-6.81,0-10.49-2.38-10.49-6.62,0-4.08,4-6.84,10.81-6.84,1.18,0,2.27.08,3.36.17,0-1.66-.14-3.4-.18-5h-2.5c-2.91,0-8-.21-11.08-.55l0-4a96.42,96.42,0,0,0,11.22.76h2.32v-5.22h-1.87c-3,0-8.44-.43-11.39-.77l-.05-3.86a87.69,87.69,0,0,0,11.4.93h1.95v-2.59a12.46,12.46,0,0,0-.23-2.67h4.86C953.2,1997.42,953.11,1998.36,953.07,1999.54Zm-8.45,29.56c2.54,0,4.5-.72,4.5-3.44,0-.59,0-1.44,0-2.38a22.42,22.42,0,0,0-4.13-.38c-3.86,0-6,1.4-6,3.1S940.71,2029.1,944.62,2029.1Z" transform="translate(-11.58 -817)"/><path class="cls-6" d="M1001,1999.84c-.05.51-.05,1.28-.05,2.13h13.63l-.09,4c-2.68-.13-7-.21-13.58-.21,0,2.29,0,4.75,0,6.66a9.9,9.9,0,0,1,1.59,5.65c0,5.65-3.22,12.32-14,15.25l-3.86-3.57c5.36-1.11,9.53-3,11.71-6.24a7.62,7.62,0,0,1-3.18.63,7.35,7.35,0,0,1-7.62-7.39c0-4.45,3.86-7.64,8.44-7.64a9.32,9.32,0,0,1,2.54.3c0-1.11,0-2.38,0-3.61-6.9.08-14.35.34-20,.68l-.14-4.08c5.13-.08,13.58-.3,20.07-.38,0-.94,0-1.66-.09-2.17-.13-1.36-.27-2.67-.36-3.1h5.22A24.3,24.3,0,0,0,1001,1999.84Zm-7,20.6c2.36,0,4.13-1.74,3.54-5.73a3.78,3.78,0,0,0-3.54-2,4,4,0,0,0-4.14,4A3.88,3.88,0,0,0,994,2020.44Z" transform="translate(-11.58 -817)"/><path class="cls-6" d="M1033.3,2027.79a3.37,3.37,0,0,1,3.45-3.49,3.42,3.42,0,0,1,3.54,3.49,3.37,3.37,0,0,1-3.54,3.39A3.32,3.32,0,0,1,1033.3,2027.79Zm1-24.13-.13-5.05h5.27l-.18,5.05-.73,17H1035Z" transform="translate(-11.58 -817)"/><rect class="cls-6" x="249.42" y="4" width="45" height="320"/><path class="cls-1" d="M18.93,1347.31c0-29.46,11-53.33,24.62-53.33H281.4c13.59,0,24.61,23.87,24.61,53.33v213.33c0,29.46-11,53.34-24.61,53.34H43.55c-13.59,0-24.62-23.88-24.62-53.34Z" transform="translate(-11.58 -817)"/><path class="cls-2" d="M63.45,1471.9l6.58-8.12c3.36,3,7.81,5,11.62,5,4.26,0,6.26-1.65,6.26-4.29,0-2.84-2.64-3.76-6.77-5.54L75,1456.33c-5-2-9.74-6.34-9.74-13.46,0-8.25,7.23-14.85,17.43-14.85a22.1,22.1,0,0,1,15.62,6.47l-5.75,7.39c-3.16-2.44-6.13-3.76-9.87-3.76-3.55,0-5.68,1.45-5.68,4,0,2.77,3,3.83,7.22,5.54l6,2.45c5.94,2.44,9.49,6.53,9.49,13.46,0,8.18-6.72,15.37-18.34,15.37A26.56,26.56,0,0,1,63.45,1471.9Z" transform="translate(-11.58 -817)"/><path class="cls-2" d="M117,1438.71h-13v-9.83h37.57v9.83h-13V1478H117Z" transform="translate(-11.58 -817)"/><path class="cls-2" d="M149.17,1428.88h30.46v9.83H160.72v9.11h16.07v9.89H160.72v10.43h19.62v9.9H149.17Z" transform="translate(-11.58 -817)"/><path class="cls-2" d="M189.83,1428.88h16.91c10.52,0,19.24,3.89,19.24,16,0,11.68-8.78,16.83-19,16.83h-5.61V1478H189.83Zm16.59,23.55c5.62,0,8.33-2.7,8.33-7.52s-3.1-6.66-8.65-6.66h-4.71v14.18Z" transform="translate(-11.58 -817)"/><path class="cls-2" d="M231.34,1471.3c11.61-11.08,20.07-19.26,20.07-26,0-4.55-2.39-6.93-6.26-6.93-3.29,0-5.81,2.38-8.13,4.75l-6.26-6.33c4.71-5.08,9.1-7.59,15.94-7.59,9.29,0,15.75,6.07,15.75,15.44,0,8-7.3,16.49-14.53,24.15a66.62,66.62,0,0,1,7.88-.66h8.84v9.9h-33.3Z" transform="translate(-11.58 -817)"/><path class="cls-3" d="M18.93,1347.31c0-29.46,13.72-53.33,30.64-53.33H1075.29c16.93,0,30.64,23.87,30.64,53.33v213.33c0,29.46-13.71,53.34-30.64,53.34H49.57c-16.92,0-30.64-23.88-30.64-53.34Z" transform="translate(-11.58 -817)"/><rect class="cls-5" x="353.17" y="532.79" width="143.61" height="84.54"/><rect class="cls-6" x="252.35" y="476.98" width="45" height="320"/><path class="cls-1" d="M18.85,1820.86c0-29.45,11-53.33,24.62-53.33H281.31c13.6,0,24.62,23.88,24.62,53.33v213.33c0,29.46-11,53.34-24.62,53.34H43.47c-13.6,0-24.62-23.88-24.62-53.34Z" transform="translate(-11.58 -817)"/><path class="cls-2" d="M63.37,1945.45l6.58-8.12c3.36,3,7.81,5,11.62,5,4.26,0,6.26-1.65,6.26-4.29,0-2.84-2.65-3.76-6.78-5.54l-6.13-2.64c-5-2.05-9.75-6.34-9.75-13.46,0-8.25,7.23-14.85,17.43-14.85A22.1,22.1,0,0,1,98.22,1908l-5.74,7.39c-3.17-2.44-6.14-3.76-9.88-3.76-3.55,0-5.68,1.45-5.68,4,0,2.77,3,3.83,7.23,5.55l6,2.44c5.94,2.44,9.49,6.53,9.49,13.46,0,8.18-6.71,15.37-18.33,15.37A26.56,26.56,0,0,1,63.37,1945.45Z" transform="translate(-11.58 -817)"/><path class="cls-2" d="M116.94,1912.26H104v-9.83h37.56v9.83h-13v39.33H116.94Z" transform="translate(-11.58 -817)"/><path class="cls-2" d="M149.08,1902.43h30.47v9.83H160.64v9.11h16.07v9.89H160.64v10.43h19.62v9.9H149.08Z" transform="translate(-11.58 -817)"/><path class="cls-2" d="M189.75,1902.43h16.91c10.52,0,19.23,3.89,19.23,16,0,11.68-8.77,16.83-19,16.83H201.3v16.3H189.75ZM206.34,1926c5.61,0,8.32-2.71,8.32-7.53s-3.1-6.66-8.65-6.66H201.3V1926Z" transform="translate(-11.58 -817)"/><path class="cls-2" d="M230.09,1945.65l5.29-7.39c2.91,2.77,6.26,4.75,10,4.75,4.45,0,7.35-1.85,7.35-5.28,0-4-2.19-6.4-12.26-6.4V1923c8.2,0,10.78-2.51,10.78-6.07,0-3.24-1.94-5-5.49-5-3.22,0-5.68,1.52-8.58,4.16l-5.81-7.19c4.45-3.76,9.23-6.14,14.91-6.14,9.94,0,16.46,4.82,16.46,13.26,0,4.82-2.65,8.38-7.68,10.56v.33c5.29,1.58,9.23,5.48,9.23,11.61,0,9-8.2,14-17.75,14C238.93,1952.51,233.58,1949.8,230.09,1945.65Z" transform="translate(-11.58 -817)"/><path class="cls-3" d="M18.85,1820.86c0-29.45,13.72-53.33,30.64-53.33H1075.21c16.92,0,30.64,23.88,30.64,53.33v213.33c0,29.46-13.72,53.34-30.64,53.34H49.49c-16.92,0-30.64-23.88-30.64-53.34Z" transform="translate(-11.58 -817)"/><rect class="cls-5" x="353.08" y="1006.34" width="143.61" height="84.54"/><rect class="cls-6" x="252.42" y="950" width="45" height="320"/></svg>