<svg id="レイヤー_1" data-name="レイヤー 1" xmlns="http://www.w3.org/2000/svg" viewBox="0 0 1310.81 716.99"><defs><style>.cls-1{fill:#ee6b4c;}.cls-2{fill:#7e4cef;}.cls-3,.cls-4{fill:none;}.cls-4{stroke:#000;stroke-miterlimit:10;stroke-width:7px;}</style></defs><path d="M55,44.32a38,38,0,0,1-.62,4h2.52a32.65,32.65,0,0,0,3.81-.17l2.75,3.92c-.17.9-.23,1.4-.4,2.69C61.75,65,60.18,70.53,57,76.19A46.3,46.3,0,0,1,47.3,87.67,25.16,25.16,0,0,0,41.47,81a32.35,32.35,0,0,0,9.69-10.92,44.65,44.65,0,0,0-3.75-4.25,36.45,36.45,0,0,1-2.86,3.92,45.54,45.54,0,0,0-3.19-6.55V80.61a61.69,61.69,0,0,0,.28,6.55H33.13a61.61,61.61,0,0,0,.34-6.49V66.84c0-2.19,0-3.42.05-5A34,34,0,0,1,31,65.21a45,45,0,0,0-2.64-10.08c4.26-5,7.4-12.37,8.8-20.94L44.33,37v-.56a34.75,34.75,0,0,0,5.43.28h7.17a33.89,33.89,0,0,0,5.49-.28v8.06a21.37,21.37,0,0,0-3.7-.17Zm-13.61,16a33.73,33.73,0,0,0,6-16,28.66,28.66,0,0,0-3,.17V39.84a3.86,3.86,0,0,0-.22.73c-.17.84-.79,2.8-1.24,4.15A18,18,0,0,1,42.09,47c-.28.72-.39,1-.73,2Zm10.92-4.59c-.45,1.23-.56,1.62-1.23,3.13a44,44,0,0,1,3.3,3.36,34.53,34.53,0,0,0,1.24-6.49Zm11,17.75a25,25,0,0,0,.23-3.81V42.92c0-1.45-.06-2.29-.17-3.8h7.78a33.62,33.62,0,0,0-.16,3.8V69.64a35.57,35.57,0,0,0,.16,3.86Zm17.53,6c0,3.14-.56,4.82-2,5.88a6.81,6.81,0,0,1-3.76,1.18c-1.45.17-4,.28-5.88.28-.72,0-1.79,0-3.19-.06a26.34,26.34,0,0,0-2-8c2,.17,5.2.28,6.88.28,1.85,0,2.24-.22,2.24-1.51V40.68a33.77,33.77,0,0,0-.28-5.2h8.29a33.22,33.22,0,0,0-.28,5.2Z" transform="translate(-28.31 -33.01)"/><path d="M92.21,50.37c1.57.11,2.18.17,3.36.17a196.24,196.24,0,0,0,21.06-1.29,21.93,21.93,0,0,0,5.2-.89l5,6.49a30.88,30.88,0,0,0-4.64,3.81c-2.24,2-7.62,6.66-8.85,7.62a5.84,5.84,0,0,1,2.24-.4,5.45,5.45,0,0,1,4.7,2.19c1,1.4,1.12,2,1.4,6.05.23,2.8,1,3.64,3.14,3.64a31.27,31.27,0,0,0,11.59-2.3l1,9.74a50.94,50.94,0,0,0-5.26.56,49.81,49.81,0,0,1-8.51.73c-5,0-7.79-1.06-9.41-3.58-.9-1.4-1.12-2.52-1.29-5.77-.11-2.18-.28-3-.73-3.58a2.46,2.46,0,0,0-1.9-.73c-2.3,0-4.71,1.62-9.13,6a101.75,101.75,0,0,0-7.34,8L86.61,78.6c3.53-2.3,9.74-7.56,19.26-16.36,2.52-2.35,3.25-3,5.16-4.7-3.08.5-6.11.84-13.61,1.51-2,.17-3.14.34-4.71.56Zm7.28-15.12c6.16,1.79,14.45,2.69,24.42,2.69l-1.4,8.74c-12.6-.51-17.92-1.07-25.65-2.86Z" transform="translate(-28.31 -33.01)"/><path d="M157.06,37.38c-2.19,5.26-4.37,19-4.31,27.22l4.31,1.45c-1.74,5.49-2.35,10-2.35,17.08,0,.34,0,1.07.16,2.3l-9.46.39c0-.45-.06-.73-.06-1.06,0-.17,0-.68-.11-1.24L145,81.4a109.83,109.83,0,0,1-1.23-17c0-7.9.5-12.83,2.24-22.63a34.62,34.62,0,0,0,.67-4.87v-.28Zm25.14-.17a10.36,10.36,0,0,0-.95-1.62l4.31-1.23A42.66,42.66,0,0,1,189.37,43L185,44.6a38.16,38.16,0,0,0-2.3-6.49,77,77,0,0,0-.28,8.57,45.94,45.94,0,0,0,9.07-1.8l.34,9a9.26,9.26,0,0,0-2.07.34c-1.85.39-4.54.78-7.06,1.06.06,3.64.17,6.5.5,11.93a46.9,46.9,0,0,1,9,5.1l1.06.67-3.52,9.46A30.09,30.09,0,0,0,183,77.14v.45c0,4.76-4.87,8-12,8-8.23,0-13.1-3.92-13.1-10.42a9.87,9.87,0,0,1,4.25-8.23,14.86,14.86,0,0,1,8.63-2.29,15.93,15.93,0,0,1,3.25.28L174,63.36l-.11-2.91c-.06-2.29-.06-2.63-.11-4.65-1.24.06-2,.06-3.25.06-2.52,0-2.52,0-9.91-.34a9.42,9.42,0,0,0-1-.05,3.61,3.61,0,0,0-.67.05l.11-9a50.77,50.77,0,0,0,10.64.89c1.12,0,2.13,0,3.87-.11v-7.5a12.93,12.93,0,0,0-.28-2.58Zm-8,35.9a10.08,10.08,0,0,0-3.47-.62c-2.52,0-4.09,1-4.09,2.58s1.46,2.41,3.7,2.41c2.69,0,3.92-1,3.92-3.25ZM191.78,43A49,49,0,0,0,188,34.3L192.11,33a34.46,34.46,0,0,1,3.81,8.46Z" transform="translate(-28.31 -33.01)"/><path d="M224.15,72.66V84H212.83V72.66Z" transform="translate(-28.31 -33.01)"/><path d="M241.11,72.66V84H229.8V72.66Z" transform="translate(-28.31 -33.01)"/><path d="M258.08,72.66V84H246.77V72.66Z" transform="translate(-28.31 -33.01)"/><path d="M115.63,140.18a43.07,43.07,0,0,0,5.1-.21c-.21,2.29-.21,2.29-.31,10.3-.21,15.39-.94,23.09-2.45,25.69-1.3,2.29-3.22,2.86-9.31,2.86-.36,0-.93,0-1.61,0a23.48,23.48,0,0,0-.88-5.78,38,38,0,0,1-4.16,6.82,26.71,26.71,0,0,0-2.76-3.23c-10.5,1-12,1.15-22.31,1.82-.93,0-1.92.16-3.43.31l-1.14-7.28a40.58,40.58,0,0,0,4.31.11c2.14,0,3.59,0,6.92-.11v-2h-5c-1.82,0-3.38,0-5,.15v-5.82a42.43,42.43,0,0,0,5.1.21H83.6v-1.56H79.44c-2.55,0-3.69,0-5.3.1a41.44,41.44,0,0,0,.2-4.94v-6.86a41.28,41.28,0,0,0-.2-4.84c1.56.1,2.91.16,5.3.16H83.6v-1.51H77.83a44.29,44.29,0,0,0-5,.21v-6.14a43.74,43.74,0,0,0,5,.21H83.6v-1.51c-3.9.16-6.71.21-8.37.26a26.07,26.07,0,0,0-2.4-5.46c11.5-.1,20.49-.88,23.61-2.13l3.9,5.87a7,7,0,0,1-.72.11l-.78.05a13.76,13.76,0,0,0-1.62.21c-1.71.21-2.34.26-6.86.67v1.93h5a37.34,37.34,0,0,0,5-.21V140a17.45,17.45,0,0,0,2.76.16h.68v-4.89a21.37,21.37,0,0,0-.32-4.73h8.27c-.26,1.46-.26,1.46-.36,9.62Zm-34.79,10.3v1.76H83.6v-1.76Zm0,5.72v1.87H83.6V156.2Zm18.62,12.63c2.55-4.78,3.64-10.45,4.16-21.27a31.85,31.85,0,0,0-3.28.16v-3a15.61,15.61,0,0,0-3.27-.15H90.36v1.51h5.1a37.43,37.43,0,0,0,4.16-.11,30.64,30.64,0,0,0-.16,4.53V158c0,1.93.05,3.28.1,4.53-1.3-.05-1.87-.05-4.52-.05H90.36V164h4.06c2.65,0,3.64-.05,5-.16Zm-9.1-16.59h2.76v-1.76H90.36Zm0,5.83h2.76V156.2H90.36Zm0,13.16c3.74-.16,3.74-.16,7.9-.47.32-.52.42-.63.73-1.15a15.91,15.91,0,0,0-2.49-.15H90.36Zm20.8-23.67c-.42,10.51-1.66,17.48-4.21,23.61a15.31,15.31,0,0,0,2.29.21c2.13,0,2.54-.62,3.06-4.57s.73-7.13,1.1-19.25Z" transform="translate(-28.31 -33.01)"/><path d="M132,138.78c-2.5,0-4.94.1-7.28.31v-7.8c2.34.21,4.47.31,7.18.31h33.59c2.55,0,4.84-.1,7.28-.31v7.8c-2.29-.21-4.73-.31-7.23-.31h-13v3h5a27.92,27.92,0,0,0,4.21-.21,29.26,29.26,0,0,0-.2,4.06v18.77a25.14,25.14,0,0,0,.15,4c-.57-.06-.57-.06-2.44-.16H138.15c-1.93.1-1.93.1-2.5.16a26.06,26.06,0,0,0,.16-4V145.59a28.84,28.84,0,0,0-.21-4.06,27.92,27.92,0,0,0,4.21.21h5v-3ZM171.43,142c-.21,2.08-.31,4.47-.31,6.34v23.2c0,2.6.1,4.89.36,7.69h-8.16v-2H133.94v2h-8.06a70.32,70.32,0,0,0,.36-7.54V148.14c0-1.93-.1-4-.31-6.14h8a25.36,25.36,0,0,0-.21,4.26v23.87h29.85V146.06a28.9,28.9,0,0,0-.21-4.06Zm-29.07,6.5v3.12h3V148.5Zm0,9.57v3.59h3v-3.59Zm12.69-6.45V148.5h-3.12v3.12Zm0,10v-3.59h-3.12v3.59Z" transform="translate(-28.31 -33.01)"/><path d="M186.4,162.07c-2.49,0-4.16.05-5.92.16a45,45,0,0,0,.26-5.51v-12a44.23,44.23,0,0,0-.26-5.82c1.19.1,2.23.16,4,.21a34,34,0,0,0-4.06-6.19l7.6-2.5a39.29,39.29,0,0,1,4.62,6.92l-5,1.77h10.19a35.09,35.09,0,0,0-3.59-7.59l7.8-1.72a42.13,42.13,0,0,1,3.8,7.54l-6.66,1.77h8.48a50.32,50.32,0,0,0,4.84-8.89l8.16,2.49a66,66,0,0,1-4.21,6.4,36,36,0,0,0,4.47-.21,39.35,39.35,0,0,0-.26,5.82v12a42.09,42.09,0,0,0,.26,5.56c-1.71-.11-3.59-.16-6-.16H204.34v2.19h14.1a44.43,44.43,0,0,0,6.13-.26v7.8a60.29,60.29,0,0,0-7.07-.31H204.34v2.08a33.89,33.89,0,0,0,.32,5.66h-8.53a34,34,0,0,0,.31-5.66v-2.08H183.65a59.41,59.41,0,0,0-7,.31V164a48.3,48.3,0,0,0,6.19.26h13.57v-2.19Zm10-16.53h-7.85v2.18h7.85Zm0,8h-7.85v2.24h7.85Zm16.33-5.77v-2.18h-8.43v2.18Zm0,8v-2.24h-8.43v2.24Z" transform="translate(-28.31 -33.01)"/><path d="M249.38,139.71c-2.81,0-5.2.11-6.87.26v-4.21a63.42,63.42,0,0,1-3.27,8.06v29.33a53.16,53.16,0,0,0,.2,6h-8a58.13,58.13,0,0,0,.31-5.93V159.63c0-.31,0-2,.05-5.1-.57.89-1.61,2.34-2.29,3.23a56.24,56.24,0,0,0-2.44-9.52A32.63,32.63,0,0,0,234,136.38a32.89,32.89,0,0,0,1.82-7l6.76,2.7a1.88,1.88,0,0,1,.58.1c1,.11,3.79.21,6.24.21h20.54a59.23,59.23,0,0,0,7.17-.31V140c-1.56-.15-4-.26-6.86-.26H267v5h4a46,46,0,0,0,4.94-.26,39.74,39.74,0,0,0-.26,5.3v21.89A72.28,72.28,0,0,0,276,179H268.1v-2.28H248.8V179h-7.64c.16-1.82.26-4.05.26-5.92V149.8c0-2,0-3.59-.21-5.3a32.42,32.42,0,0,0,4.84.26H250v-5Zm-.94,12.12v17.73H251V151.83Zm11.23-7.07v-5h-2.44v5Zm0,24.8V151.83h-2.44v17.73Zm8.79,0V151.83h-2.55v17.73Z" transform="translate(-28.31 -33.01)"/><path d="M283.54,135.6c2.24.52,5.36.73,10.76.73h1.46a18.82,18.82,0,0,0,1.61-5.77l9.52.73a14.45,14.45,0,0,0-1.09,2.44c-.68,1.51-1,2.34-1,2.45.52-.06.52-.06,3.17-.21a75.85,75.85,0,0,0,13.15-1.67l.32,8.27-4.68.47c-3.7.36-10.2.73-15.5.88a27.44,27.44,0,0,1-2.5,3.85,15.37,15.37,0,0,1,6.61-1.56c4.31,0,6.91,1.67,7.95,5,.89-.32.89-.32,3.64-1.25.16,0,1.56-.52,3.23-1a21.87,21.87,0,0,0,4.16-1.56l3.17,8.21a86.4,86.4,0,0,0-13.26,3.54c0,1.4,0,1.46,0,3.75a31.52,31.52,0,0,0,.21,4.47l-8.48.26a41.56,41.56,0,0,0,.26-5.52l-.46.21a11.75,11.75,0,0,0-3.64,2.19,3.57,3.57,0,0,0-1.36,2.65c0,2,1.93,2.76,7,2.76a49.35,49.35,0,0,0,16.64-2.6l.57,9.36a33.81,33.81,0,0,0-4.62.46,102.71,102.71,0,0,1-12.54.78c-5.87,0-9.56-.72-12.37-2.39a8.36,8.36,0,0,1-4.11-7.38,9.69,9.69,0,0,1,2.55-6.56,22.86,22.86,0,0,1,7.49-5.56c1.24-.62,1.76-.83,3.84-1.77a2.15,2.15,0,0,0-2.08-1.3c-2.65,0-6.24,1.82-9.88,5a33.41,33.41,0,0,0-5,5.26l-6.6-6.55a36.18,36.18,0,0,0,5.51-5.41c1.14-1.41,3.22-4.42,4-5.67s.78-1.3,1-1.67h-1.66c-2.24,0-2.24,0-4.47,0-.73-.05-1.1-.05-1.82-.05h-.78Z" transform="translate(-28.31 -33.01)"/><path class="cls-1" d="M356.55,162.8a5.5,5.5,0,0,0,1.45,3.33,8.13,8.13,0,0,0,6,2.24c4.06,0,6.61-2,6.61-5.2a4.52,4.52,0,0,0-2.81-4.48,15.19,15.19,0,0,0-4.84-.67c-2,0-4.36.1-6.39.31v-9a45.18,45.18,0,0,0,5.51.32c4.94,0,7.38-1.67,7.38-5,0-2.8-2-4.42-5.4-4.42-3.7,0-5.57,1.46-6.35,4.79l-11.23-1.61a15,15,0,0,1,3.48-6.61c3.18-3.43,8-5.2,14.3-5.2,5.67,0,10.35,1.56,13.32,4.42a10.1,10.1,0,0,1,2.91,7.39c0,5.51-3,8.94-9,10.34,3.18.47,4.89,1.2,6.71,2.76a10.23,10.23,0,0,1,3.43,7.7,11.53,11.53,0,0,1-2.08,6.91,13,13,0,0,1-4.88,3.9,28.06,28.06,0,0,1-10.82,2c-4.68,0-9.36-1.09-12.12-2.91a14.06,14.06,0,0,1-5.35-6.71,20.32,20.32,0,0,1-.89-2.75Z" transform="translate(-28.31 -33.01)"/><path class="cls-1" d="M391.39,172.11a16.36,16.36,0,0,1-3.8-5.77,34.56,34.56,0,0,1-2-11.91c0-5.46,1.3-11.13,3.28-14.41,3.17-5.3,8.58-8.21,15.13-8.21a17.67,17.67,0,0,1,12.64,4.83,16.51,16.51,0,0,1,3.79,5.78,34.37,34.37,0,0,1,2,12c0,5.46-1.3,11.18-3.27,14.45C416,174,410.58,177,404,177A17.26,17.26,0,0,1,391.39,172.11Zm4.83-18.1c0,9.31,2.66,14.1,7.8,14.1s7.7-4.69,7.7-13.94c0-8.89-2.7-13.57-7.75-13.57C399.08,140.6,396.22,145.54,396.22,154Z" transform="translate(-28.31 -33.01)"/><path class="cls-1" d="M431.58,172.11a16.47,16.47,0,0,1-3.79-5.77,34.33,34.33,0,0,1-2-11.91c0-5.46,1.3-11.13,3.28-14.41,3.17-5.3,8.58-8.21,15.13-8.21a17.67,17.67,0,0,1,12.63,4.83,16.4,16.4,0,0,1,3.8,5.78,34.6,34.6,0,0,1,2,12c0,5.46-1.3,11.18-3.28,14.45-3.12,5.2-8.58,8.12-15.18,8.12A17.27,17.27,0,0,1,431.58,172.11Zm4.84-18.1c0,9.31,2.65,14.1,7.8,14.1s7.7-4.69,7.7-13.94c0-8.89-2.71-13.57-7.75-13.57S436.42,145.54,436.42,154Z" transform="translate(-28.31 -33.01)"/><path class="cls-1" d="M471.78,172.11a16.36,16.36,0,0,1-3.8-5.77,34.56,34.56,0,0,1-2-11.91c0-5.46,1.3-11.13,3.28-14.41,3.17-5.3,8.58-8.21,15.13-8.21A17.67,17.67,0,0,1,497,136.64a16.4,16.4,0,0,1,3.8,5.78,34.6,34.6,0,0,1,2,12c0,5.46-1.3,11.18-3.27,14.45C496.43,174,491,177,484.36,177A17.26,17.26,0,0,1,471.78,172.11Zm4.84-18.1c0,9.31,2.65,14.1,7.8,14.1s7.69-4.69,7.69-13.94c0-8.89-2.7-13.57-7.75-13.57C479.48,140.6,476.62,145.54,476.62,154Z" transform="translate(-28.31 -33.01)"/><path d="M529.45,172.16a46.31,46.31,0,0,0,.26,6.55H521a50.94,50.94,0,0,0,.37-6.81V137.32a51.93,51.93,0,0,0-.21-5.36c1.92.16,3.43.21,6.81.21H559.5a59.89,59.89,0,0,0,6.56-.21,48.84,48.84,0,0,0-.26,6.56v33.59c0,3-1.25,5-3.59,5.67a22.2,22.2,0,0,1-5.83.52c-1.4,0-3.53-.05-6-.11A25.58,25.58,0,0,0,548,170.5c3.43.31,5.77.47,7.33.47,2,0,2.45-.21,2.45-1.15V160.2H529.45Zm10-32.45h-10v13.11h10Zm18.36,13.11V139.71H547.28v13.11Z" transform="translate(-28.31 -33.01)"/><path d="M576.92,160.72a66.59,66.59,0,0,1,12.69,11.65l-6.6,6.71a67.17,67.17,0,0,0-12.28-12.38Z" transform="translate(-28.31 -33.01)"/><path d="M86.67,254.17a31.49,31.49,0,0,1-7.59,16.22,26.46,26.46,0,0,0-6.61-6.76,19.44,19.44,0,0,0,4.94-8.11c1.56-4.63,2.08-10.72,2.08-24.91a72,72,0,0,0-.31-8.06,62.5,62.5,0,0,0,6.81.26h23.45a50.34,50.34,0,0,0,6.56-.26,44.16,44.16,0,0,0-.26,6.39v33.18c0,3.38-.68,5.2-2.29,6.29s-3.43,1.36-7.65,1.36c-1.56,0-3.43-.06-5.92-.16a30.32,30.32,0,0,0-2.19-8.11,63.09,63.09,0,0,0,8.11.67c1.46,0,1.77-.2,1.77-1.14v-6.86Zm20.9-7.13v-5H87.71c-.11,2.13-.16,3.06-.31,5Zm0-12.17v-4.52H87.76v4.52Z" transform="translate(-28.31 -33.01)"/><path d="M140,224.11c-2,5.93-3.59,15.65-3.95,25.11l4,1.36a51.38,51.38,0,0,0-2,14.56,14.25,14.25,0,0,0,.16,2.55l-9,.41a20.1,20.1,0,0,0-.26-2.75,111,111,0,0,1-1.35-16.44,112.71,112.71,0,0,1,2-20,44.73,44.73,0,0,0,.78-5.56Zm14.35,22.72c-2.39,3.07-3.48,5.31-3.48,7.18,0,2.39,2.34,3.69,6.76,3.69a38.72,38.72,0,0,0,12.94-2.13l.52,9.2c-1.35.16-1.35.16-4.42.63a64.45,64.45,0,0,1-9,.67c-4.84,0-8.06-.67-10.77-2.18a9.63,9.63,0,0,1-4.78-8.27,16.2,16.2,0,0,1,2.5-8.11c.72-1.2,1-1.72,2.44-3.75Zm-10.19-18.77a43.38,43.38,0,0,0,9.25.78c6.92,0,12-.42,15.5-1.3l.37,8.89c-.47,0-1,0-3.85.37-3.59.36-7.39.57-11,.57a86.28,86.28,0,0,1-8.94-.42c-.42,0-.78,0-1.51-.1Z" transform="translate(-28.31 -33.01)"/><path class="cls-2" d="M195.14,223.38a34.1,34.1,0,0,0,6.24.36H208a53.6,53.6,0,0,0,6.45-.2,80.72,80.72,0,0,0-.36,8.37v27.25a60.6,60.6,0,0,0,.41,7.85H203.15a60.1,60.1,0,0,0,.41-7.85V232.64h-2.08a55,55,0,0,0-6.34.36Z" transform="translate(-28.31 -33.01)"/><path class="cls-2" d="M235.39,263.11a16.36,16.36,0,0,1-3.8-5.77,34.56,34.56,0,0,1-2-11.91c0-5.46,1.3-11.13,3.28-14.41,3.17-5.3,8.58-8.21,15.13-8.21a17.67,17.67,0,0,1,12.64,4.83,16.51,16.51,0,0,1,3.79,5.78,34.37,34.37,0,0,1,2,12c0,5.46-1.3,11.18-3.27,14.45C260,265,254.58,268,248,268A17.26,17.26,0,0,1,235.39,263.11Zm4.83-18.1c0,9.31,2.66,14.1,7.8,14.1s7.7-4.69,7.7-13.94c0-8.89-2.7-13.57-7.75-13.57C243.08,231.6,240.22,236.54,240.22,245Z" transform="translate(-28.31 -33.01)"/><path d="M314.48,236.8a35.07,35.07,0,0,0,6,8.52,42,42,0,0,0,11.7,9,33.79,33.79,0,0,0-4.21,8,48.69,48.69,0,0,1-8.11-6.4v4.68c-1.67-.15-3.23-.26-5.2-.26h-3.75v2.76a55.88,55.88,0,0,0,.37,7h-8.95a69.09,69.09,0,0,0,.37-7v-2.76H299.3c-1.93,0-3.59.11-5.15.26v-4.78a45.93,45.93,0,0,1-7.91,6.6,29.43,29.43,0,0,0-4.11-7.74,43.4,43.4,0,0,0,11.13-9.57,38.09,38.09,0,0,0,5.57-8.32H290.4a52.31,52.31,0,0,0-6.65.36v-8.22a51.67,51.67,0,0,0,6.65.37h12.28v-3.17a23.54,23.54,0,0,0-.37-4.89h8.89a24.07,24.07,0,0,0-.31,4.89v3.17h12.79a50.65,50.65,0,0,0,6.76-.37v8.22a54,54,0,0,0-6.76-.36Zm-11.8,11.59c0-1.61.05-2.7.2-4.47a46.69,46.69,0,0,1-6.34,9.31h6.14Zm12.58,4.84h2a53.1,53.1,0,0,1-6.61-9.36c.21,3,.26,3.53.26,4.42v4.94Z" transform="translate(-28.31 -33.01)"/><path d="M352,223.8a62,62,0,0,0-.26,7v10.35a67.67,67.67,0,0,0,.26,7.44H341.88a53.57,53.57,0,0,0,.32-7.59v-10.3a51.77,51.77,0,0,0-.32-6.86Zm24.18,0c-.21,2.91-.26,3.69-.26,7v6.08c0,7.12-.41,12.12-1.19,15.13-1.56,5.67-5.1,9.94-10.82,13.21a43.44,43.44,0,0,1-10.82,4.27,23.7,23.7,0,0,0-5.3-8.9c5-.93,7.64-1.76,10.3-3.17,4.57-2.44,6.91-5.51,7.74-10.09a86.33,86.33,0,0,0,.58-11v-5.41a50,50,0,0,0-.32-7.12Z" transform="translate(-28.31 -33.01)"/><path d="M413.9,223.17a8,8,0,0,0-.62,1.3c-.1.16-.21.47-.36.78-.21.52-.37.89-.47,1.09-.68,1.51-.68,1.51-1,2.24l13-.16a8.67,8.67,0,0,0,3.85-.57l4.31,4.27a12.68,12.68,0,0,0-1.5,3.69c-2.66,8.63-6.19,15.39-10.77,20.59-4.73,5.41-10.61,9.52-19.13,13.42a24.14,24.14,0,0,0-6.24-7.91c7.38-2.7,12.79-6,17.36-10.61A36.55,36.55,0,0,0,421,236.54l-13.83.15a48.93,48.93,0,0,1-11.81,13.06A25.75,25.75,0,0,0,388,243.5a40.9,40.9,0,0,0,13.83-15.86,19.88,19.88,0,0,0,2.24-6.24Z" transform="translate(-28.31 -33.01)"/><path d="M467.46,255.52h10.09a50.21,50.21,0,0,0,8.58-.42v9.15a84.16,84.16,0,0,0-8.42-.31H448.38a78.47,78.47,0,0,0-8.37.26v-9.1a60.83,60.83,0,0,0,8.53.42H458V235.81h-5.72a77.46,77.46,0,0,0-8.43.26v-9a55.13,55.13,0,0,0,8.59.42H473.6a58.82,58.82,0,0,0,8.58-.42v9a78.52,78.52,0,0,0-8.42-.26h-6.3Z" transform="translate(-28.31 -33.01)"/><path d="M531.53,268.67a83.46,83.46,0,0,0-14.93-14.76c-4.88,5.77-11.07,10.34-19.13,14.24a27.2,27.2,0,0,0-5.83-8.21,49,49,0,0,0,16.85-10.51,41.69,41.69,0,0,0,10.45-15.29l-13.52.21a63,63,0,0,0-8.26.52l-.26-9.25a38.42,38.42,0,0,0,5.46.36c.41,0,1.4,0,2.91,0l17.78-.26c2.45,0,2.76,0,4.16-.57l4.58,4.68a8.23,8.23,0,0,0-1.87,3.06c-2.76,6.5-4.74,10.14-7.65,14,6.29,4.53,8.43,6.35,16.54,14.1Z" transform="translate(-28.31 -33.01)"/><path d="M553.63,268.47a76.6,76.6,0,0,0,.31-8V230.24a49.58,49.58,0,0,0-.36-7.54h10a66.87,66.87,0,0,0-.26,7.6v7.12A110,110,0,0,1,587,248.24l-4.94,8.84a95.56,95.56,0,0,0-16.38-9,12.8,12.8,0,0,1-2.34-1v13.52a78.94,78.94,0,0,0,.31,8Z" transform="translate(-28.31 -33.01)"/><path d="M610.36,224.11c-2,5.93-3.59,15.65-4,25.11l4,1.36a51.38,51.38,0,0,0-2,14.56,14.25,14.25,0,0,0,.16,2.55l-8.95.41a20.1,20.1,0,0,0-.26-2.75A111,111,0,0,1,598,248.91a112.71,112.71,0,0,1,2-20,44.73,44.73,0,0,0,.78-5.56Zm14.35,22.72c-2.39,3.07-3.48,5.31-3.48,7.18,0,2.39,2.34,3.69,6.76,3.69a38.78,38.78,0,0,0,13-2.13l.52,9.2c-1.36.16-1.36.16-4.42.63a64.71,64.71,0,0,1-9,.67c-4.84,0-8.06-.67-10.76-2.18a9.62,9.62,0,0,1-4.79-8.27,16.3,16.3,0,0,1,2.5-8.11c.73-1.2,1-1.72,2.44-3.75Zm-10.19-18.77a43.42,43.42,0,0,0,9.26.78c6.91,0,12-.42,15.49-1.3l.37,8.89c-.47,0-1,0-3.85.37-3.59.36-7.39.57-11,.57a86.34,86.34,0,0,1-9-.42c-.41,0-.78,0-1.51-.1Z" transform="translate(-28.31 -33.01)"/><path d="M657,231.75a54,54,0,0,1-6.08,6.92,29.44,29.44,0,0,0-4.74-6.24,25.31,25.31,0,0,0,8.12-11.75l7.85,1.19c-.05.16-.47,1.15-1.3,2.91h5a27,27,0,0,0,4.73-.26v5.15a25.37,25.37,0,0,0,4.16-8.94l7.86,1.09-1.15,2.91h8.27a36.69,36.69,0,0,0,5.25-.26V232a50.52,50.52,0,0,0-5.25-.26h-2.44a32.06,32.06,0,0,1,2.34,5.05l-7.7,1.66a33.94,33.94,0,0,0-2.34-6.66h-1.46a31.71,31.71,0,0,1-2.54,3.85c2,2.13,5.3,4.06,9.72,5.83a54.83,54.83,0,0,0,10.92,3.06,29.44,29.44,0,0,0-3.12,7.8,66.25,66.25,0,0,1-10.45-3.84v2.44c-1.82-.1-2.86-.15-4.32-.15h-14.4a37.14,37.14,0,0,0-4.42.15v-2.39a50.47,50.47,0,0,1-10.14,4A32.59,32.59,0,0,0,646,245c7.49-1.45,13.94-4.26,18.46-8.11l-4.94,1a40.42,40.42,0,0,0-1.87-6.14Zm4.11,38.17h-8c.16-1.66.26-3.69.26-5.82v-6.5a44.22,44.22,0,0,0-.2-5.05c1.3.11,2.44.16,4.73.16H684.2a33.24,33.24,0,0,0,4.78-.21c-.1,1.15-.15,2.5-.15,5.15v6.5a43.43,43.43,0,0,0,.26,5.82H681v-2.13h-20Zm0-8.53h20V258.9h-20Zm4.06-29.64a25.61,25.61,0,0,1,1.4,3.23h5a25.64,25.64,0,0,0-3.12-2.66l.42-.52c-1-.05-1.51-.05-2.13-.05Zm10.71,13.11a34.06,34.06,0,0,1-5.1-3.8,42.27,42.27,0,0,1-4.94,3.8Z" transform="translate(-28.31 -33.01)"/><path d="M704.74,235.81c1.46.1,2,.15,3.12.15a183.4,183.4,0,0,0,19.55-1.19,20.52,20.52,0,0,0,4.84-.83l4.68,6a28.71,28.71,0,0,0-4.32,3.53c-2.08,1.88-7.07,6.19-8.21,7.08a5.32,5.32,0,0,1,2.08-.37,5.05,5.05,0,0,1,4.36,2c.89,1.3,1,1.87,1.3,5.62.21,2.6.89,3.38,2.92,3.38a29.12,29.12,0,0,0,10.76-2.13l.89,9a46.19,46.19,0,0,0-4.89.52,46.36,46.36,0,0,1-7.91.68c-4.63,0-7.23-1-8.73-3.33-.84-1.3-1-2.34-1.2-5.35-.1-2-.26-2.81-.68-3.33a2.27,2.27,0,0,0-1.76-.68c-2.14,0-4.37,1.51-8.48,5.62a95,95,0,0,0-6.81,7.43L699.54,262c3.27-2.13,9.05-7,17.89-15.19,2.34-2.18,3-2.81,4.78-4.37-2.86.47-5.67.78-12.63,1.41-1.88.15-2.92.31-4.37.52Zm6.76-14c5.72,1.66,13.42,2.49,22.67,2.49l-1.3,8.12c-11.7-.47-16.64-1-23.82-2.66Z" transform="translate(-28.31 -33.01)"/><path d="M758.46,224.11a58.13,58.13,0,0,0,7.48.36c4.63,0,10.4-.21,15.66-.62a10.51,10.51,0,0,0,3.95-.73l4.26,6.29c-1.35.78-1.35.78-8.37,6.81-2.76,2.34-3.69,3.12-7.18,5.67a24.84,24.84,0,0,1,7.13-.93c4.89,0,8.37,1.14,11.13,3.53a11.58,11.58,0,0,1,3.79,9c0,5.25-2.44,9.41-7.17,12.22A28.27,28.27,0,0,1,775.36,269c-8.79,0-14.15-3.49-14.15-9.26,0-4.84,4.32-8.32,10.35-8.32a11.95,11.95,0,0,1,11.7,8.11c2.81-1.25,4.11-3,4.11-5.67,0-3.64-3.54-5.87-9.31-5.87a29.9,29.9,0,0,0-16,4.78,39.07,39.07,0,0,0-5,3.9l-4.84-7.9C757,246.52,768,238,774.42,231.6c-2.76.31-4.84.41-12.17.78-1.4.05-2.39.15-3.43.26ZM771.35,258a1.8,1.8,0,0,0-2,1.72c0,1.4,1.67,2.29,4.48,2.29a7.68,7.68,0,0,0,1.71-.16C774.84,259.37,773.38,258,771.35,258Z" transform="translate(-28.31 -33.01)"/><path d="M825.12,221.92a90.42,90.42,0,0,0,3,15.4c2.34-.84,3.85-1.36,6-1.93,4.94-1.45,4.94-1.45,6.82-2a10.06,10.06,0,0,0,2.13-.78l3,9.26a116.49,116.49,0,0,0-18.61,4.84c-6.66,2.34-10.09,5.09-10.09,8.16s3.12,4.58,10.35,4.58a75.88,75.88,0,0,0,15.23-1.67,21.48,21.48,0,0,0,2.76-.78l.67,9.88c-1.3.06-1.87.11-4.52.42a116.78,116.78,0,0,1-13.1.88c-7.49,0-12.74-1.09-16.18-3.27a11.58,11.58,0,0,1-4.78-9.78,13.92,13.92,0,0,1,5.35-10.71,33.4,33.4,0,0,1,6.51-3.95c-1.25-4.53-1.51-5.78-3.07-13.68a26.36,26.36,0,0,0-.83-3.43Z" transform="translate(-28.31 -33.01)"/><path d="M85.68,366.33A45.09,45.09,0,0,1,79.91,357a40.5,40.5,0,0,1-1.61-30c1.56-4.57,3.32-7.64,7.38-13.1l7.12,5c-3.27,4.47-4.57,6.81-5.77,10.35a34.56,34.56,0,0,0-1.71,11.13,31.83,31.83,0,0,0,1.61,10.5c1.14,3.54,2.49,5.88,5.82,10.51Z" transform="translate(-28.31 -33.01)"/><path class="cls-1" d="M106.74,344.8a5.44,5.44,0,0,0,1.46,3.33,8.1,8.1,0,0,0,6,2.24c4,0,6.6-2,6.6-5.2a4.52,4.52,0,0,0-2.81-4.48,15.13,15.13,0,0,0-4.83-.67c-2,0-4.37.1-6.4.31v-8.95a45.18,45.18,0,0,0,5.51.32c4.94,0,7.39-1.67,7.39-5,0-2.8-2-4.42-5.41-4.42-3.69,0-5.57,1.46-6.35,4.79l-11.23-1.61a14.9,14.9,0,0,1,3.49-6.61c3.17-3.43,8-5.2,14.3-5.2,5.66,0,10.34,1.56,13.31,4.42a10.1,10.1,0,0,1,2.91,7.39c0,5.51-3,8.94-8.94,10.34,3.17.47,4.88,1.2,6.7,2.76a10.24,10.24,0,0,1,3.44,7.7,11.6,11.6,0,0,1-2.08,6.91,13.07,13.07,0,0,1-4.89,3.9,28.06,28.06,0,0,1-10.82,2c-4.68,0-9.36-1.09-12.11-2.91a14,14,0,0,1-5.36-6.71,20.08,20.08,0,0,1-.89-2.76Z" transform="translate(-28.31 -33.01)"/><path class="cls-1" d="M141.58,354.11a16.36,16.36,0,0,1-3.8-5.77,34.61,34.61,0,0,1-2-11.91c0-5.46,1.3-11.13,3.28-14.41,3.17-5.3,8.58-8.21,15.13-8.21a17.67,17.67,0,0,1,12.64,4.83,16.4,16.4,0,0,1,3.8,5.78,34.6,34.6,0,0,1,2,12c0,5.46-1.3,11.18-3.27,14.45-3.12,5.2-8.58,8.12-15.19,8.12A17.26,17.26,0,0,1,141.58,354.11Zm4.84-18.1c0,9.31,2.65,14.1,7.8,14.1s7.69-4.69,7.69-13.94c0-8.89-2.7-13.57-7.75-13.57C149.28,322.6,146.42,327.54,146.42,336Z" transform="translate(-28.31 -33.01)"/><path class="cls-1" d="M181.77,354.11a16.47,16.47,0,0,1-3.79-5.77,34.61,34.61,0,0,1-2-11.91c0-5.46,1.3-11.13,3.28-14.41,3.17-5.3,8.58-8.21,15.13-8.21A17.71,17.71,0,0,1,207,318.64a16.51,16.51,0,0,1,3.79,5.78,34.6,34.6,0,0,1,2,12c0,5.46-1.3,11.18-3.28,14.45C206.42,356,201,359,194.36,359A17.29,17.29,0,0,1,181.77,354.11Zm4.84-18.1c0,9.31,2.65,14.1,7.8,14.1s7.7-4.69,7.7-13.94c0-8.89-2.71-13.57-7.75-13.57S186.61,327.54,186.61,336Z" transform="translate(-28.31 -33.01)"/><path class="cls-1" d="M222,354.11a16.36,16.36,0,0,1-3.8-5.77,34.6,34.6,0,0,1-2-11.91c0-5.46,1.3-11.13,3.27-14.41,3.17-5.3,8.58-8.21,15.14-8.21a17.67,17.67,0,0,1,12.63,4.83,16.4,16.4,0,0,1,3.8,5.78,34.6,34.6,0,0,1,2,12c0,5.46-1.3,11.18-3.28,14.45-3.12,5.2-8.58,8.12-15.18,8.12A17.27,17.27,0,0,1,222,354.11Zm4.84-18.1c0,9.31,2.65,14.1,7.8,14.1s7.69-4.69,7.69-13.94c0-8.89-2.7-13.57-7.74-13.57S226.81,327.54,226.81,336Z" transform="translate(-28.31 -33.01)"/><path d="M279.64,354.16a46.31,46.31,0,0,0,.26,6.55h-8.69a50.94,50.94,0,0,0,.37-6.81V319.32a49.23,49.23,0,0,0-.21-5.36c1.92.16,3.43.21,6.81.21H309.7a59.79,59.79,0,0,0,6.55-.21,48.84,48.84,0,0,0-.26,6.56v33.59c0,3-1.25,5-3.59,5.67a22.11,22.11,0,0,1-5.82.52c-1.41,0-3.54-.05-6-.11a25.61,25.61,0,0,0-2.4-7.69c3.44.31,5.78.46,7.34.46,2,0,2.44-.2,2.44-1.14V342.2H279.64Zm10-32.45h-10v13.11h10ZM308,334.82V321.71h-10.5v13.11Z" transform="translate(-28.31 -33.01)"/><path d="M375.63,347.09l-6.24,6.29-10.61-10.55L348,353.64l-6.24-6.24,10.76-10.82-10.71-10.71,6.24-6.24,10.71,10.66,10.51-10.5,6.24,6.24L365,336.53Z" transform="translate(-28.31 -33.01)"/><path d="M392.17,354.11a16.36,16.36,0,0,1-3.8-5.77,34.61,34.61,0,0,1-2-11.91c0-5.46,1.3-11.13,3.28-14.41,3.17-5.3,8.58-8.21,15.13-8.21a17.69,17.69,0,0,1,12.64,4.83,16.51,16.51,0,0,1,3.79,5.78,34.37,34.37,0,0,1,2,12c0,5.46-1.3,11.18-3.27,14.45-3.12,5.2-8.58,8.12-15.19,8.12A17.25,17.25,0,0,1,392.17,354.11ZM397,336c0,9.31,2.65,14.1,7.8,14.1s7.7-4.69,7.7-13.94c0-8.89-2.71-13.57-7.75-13.57C399.86,322.6,397,327.54,397,336Z" transform="translate(-28.31 -33.01)"/><path d="M438,347.5V358h-10.5V347.5Z" transform="translate(-28.31 -33.01)"/><path d="M476.77,339a10.31,10.31,0,0,1,2.29,7.12,11.18,11.18,0,0,1-3.43,8.32c-3.17,3-8.48,4.63-15,4.63s-12-1.71-15.08-4.78a11.14,11.14,0,0,1-3.17-8.17,10.31,10.31,0,0,1,4-8.53,11.84,11.84,0,0,1,5.46-2.39c-2.6-.83-3.79-1.45-5-2.86a9.58,9.58,0,0,1-2.5-6.65,10.8,10.8,0,0,1,2.13-6.82c2.76-3.38,7.91-5.3,14.25-5.3,10.09,0,16.49,4.58,16.49,11.8,0,4.94-2.4,8.12-7.34,9.83C473.13,335.8,475.06,336.84,476.77,339Zm-23.66,6.24c0,3.38,2.86,5.41,7.59,5.41s7.59-2,7.59-5.51-2.8-5.52-7.48-5.52S453.11,341.79,453.11,345.27Zm1.51-18.88c0,2.86,2.39,4.68,6.19,4.68s6-1.77,6-4.68-2.34-4.57-6.09-4.57S454.62,323.58,454.62,326.39Z" transform="translate(-28.31 -33.01)"/><path d="M495.07,329.36c0,.26-.05.78-.15,1.66a13.56,13.56,0,0,1,8.42-2.5c4.63,0,8.43,1.46,11.18,4.27a14.08,14.08,0,0,1,3.9,10.4c0,10-6.55,15.91-17.57,15.91-6.56,0-11.7-2.23-14.72-6.39a16.5,16.5,0,0,1-2.6-5.83L494,345.27c.89,3.43,3.07,5,6.81,5,4.37,0,7.28-2.75,7.28-6.91s-2.8-6.87-7.17-6.87c-3.28,0-5.41,1.3-6.55,3.85l-9.68-.93c.21-1.57.37-2.81.52-4.27L486.6,319c.1-1.1.15-2.34.21-4.32,2.18.1,2.7.1,5.2.1h15.54a64.32,64.32,0,0,0,8.58-.36v9.1a84.08,84.08,0,0,0-8.47-.36H495.59Z" transform="translate(-28.31 -33.01)"/><path d="M529.34,313.86c4,5.46,5.77,8.58,7.33,13.1a40.5,40.5,0,0,1-1.61,30,46.8,46.8,0,0,1-5.72,9.36l-7.12-5c3.38-4.63,4.68-7,5.87-10.51a33,33,0,0,0,1.56-10.5,34.34,34.34,0,0,0-1.71-11.13c-1.2-3.54-2.5-5.88-5.77-10.35Z" transform="translate(-28.31 -33.01)"/><path d="M587.17,347.09l-6.24,6.29-10.61-10.55L559.5,353.64l-6.24-6.24L564,336.58l-10.72-10.71,6.24-6.24,10.72,10.66,10.5-10.5L587,326l-10.45,10.5Z" transform="translate(-28.31 -33.01)"/><path d="M603.7,354.11a16.47,16.47,0,0,1-3.79-5.77,34.37,34.37,0,0,1-2-11.91c0-5.46,1.3-11.13,3.27-14.41,3.18-5.3,8.58-8.21,15.14-8.21a17.67,17.67,0,0,1,12.63,4.83,16.4,16.4,0,0,1,3.8,5.78,34.6,34.6,0,0,1,2,12c0,5.46-1.3,11.18-3.28,14.45-3.12,5.2-8.58,8.12-15.18,8.12A17.27,17.27,0,0,1,603.7,354.11Zm4.84-18.1c0,9.31,2.65,14.1,7.8,14.1s7.69-4.69,7.69-13.94c0-8.89-2.7-13.57-7.74-13.57C611.4,322.6,608.54,327.54,608.54,336Z" transform="translate(-28.31 -33.01)"/><path d="M649.57,347.5V358H639.06V347.5Z" transform="translate(-28.31 -33.01)"/><path d="M689.29,323.17a40.47,40.47,0,0,0-7.12,10.45c-4.16,8-6,14.2-7.33,24.39h-12a73.05,73.05,0,0,1,6.24-20.23,80.5,80.5,0,0,1,8.52-13.94H662.77a62.18,62.18,0,0,0-7.85.37v-9.83a72.53,72.53,0,0,0,8.43.36h17.57c4.79,0,6.24-.05,8.37-.2Z" transform="translate(-28.31 -33.01)"/><path d="M706.61,329.36c0,.26-.05.78-.16,1.66a13.59,13.59,0,0,1,8.43-2.5c4.63,0,8.42,1.46,11.18,4.27a14.08,14.08,0,0,1,3.9,10.4c0,10-6.55,15.91-17.58,15.91-6.55,0-11.7-2.23-14.72-6.39a16.68,16.68,0,0,1-2.6-5.83l10.46-1.61c.88,3.43,3.06,5,6.81,5,4.37,0,7.28-2.75,7.28-6.91s-2.81-6.87-7.18-6.87c-3.27,0-5.4,1.3-6.55,3.85l-9.67-.93c.21-1.57.36-2.81.52-4.27l1.4-16.22c.11-1.1.16-2.34.21-4.32,2.18.1,2.7.1,5.2.1h15.55a64.32,64.32,0,0,0,8.58-.36v9.1a84.42,84.42,0,0,0-8.48-.36H707.13Z" transform="translate(-28.31 -33.01)"/><path d="M775.51,347.09l-6.24,6.29-10.61-10.55-10.82,10.81-6.24-6.24,10.77-10.82-10.71-10.71,6.24-6.24,10.71,10.66,10.5-10.5,6.24,6.24-10.45,10.5Z" transform="translate(-28.31 -33.01)"/><path class="cls-2" d="M792,314.38a34.16,34.16,0,0,0,6.24.36h6.61a53.69,53.69,0,0,0,6.45-.2,77.83,77.83,0,0,0-.37,8.37v27.25a58.76,58.76,0,0,0,.42,7.85H800a60,60,0,0,0,.42-7.85V323.64h-2.08A55.06,55.06,0,0,0,792,324Z" transform="translate(-28.31 -33.01)"/><path class="cls-2" d="M832.24,354.11a16.36,16.36,0,0,1-3.8-5.77,34.6,34.6,0,0,1-2-11.91c0-5.46,1.29-11.13,3.27-14.41,3.17-5.3,8.58-8.21,15.13-8.21a17.67,17.67,0,0,1,12.64,4.83,16.4,16.4,0,0,1,3.8,5.78,34.6,34.6,0,0,1,2,12c0,5.46-1.3,11.18-3.27,14.45-3.12,5.2-8.58,8.12-15.19,8.12A17.26,17.26,0,0,1,832.24,354.11Zm4.84-18.1c0,9.31,2.65,14.1,7.8,14.1s7.69-4.69,7.69-13.94c0-8.89-2.7-13.57-7.75-13.57C839.94,322.6,837.08,327.54,837.08,336Z" transform="translate(-28.31 -33.01)"/><path d="M911.33,327.8a35.07,35.07,0,0,0,6,8.52,42,42,0,0,0,11.7,9,33.79,33.79,0,0,0-4.21,8,48.69,48.69,0,0,1-8.11-6.4v4.68c-1.67-.15-3.23-.26-5.2-.26h-3.75v2.76a55.88,55.88,0,0,0,.37,7h-9a69.09,69.09,0,0,0,.37-7v-2.76h-3.38c-1.93,0-3.59.11-5.15.26v-4.78a45.56,45.56,0,0,1-7.91,6.6,29.73,29.73,0,0,0-4.1-7.74,43.73,43.73,0,0,0,11.13-9.57,38.42,38.42,0,0,0,5.56-8.32h-8.43a52.42,52.42,0,0,0-6.65.36v-8.22a51.78,51.78,0,0,0,6.65.37h12.28v-3.17a23.54,23.54,0,0,0-.37-4.89h8.9a23.22,23.22,0,0,0-.32,4.89v3.17h12.8a50.85,50.85,0,0,0,6.76-.37v8.22a54.23,54.23,0,0,0-6.76-.36Zm-11.8,11.59a43.82,43.82,0,0,1,.21-4.47,47.18,47.18,0,0,1-6.35,9.31h6.14Zm12.58,4.84h2a53.1,53.1,0,0,1-6.61-9.36c.21,3,.26,3.53.26,4.42v4.94Z" transform="translate(-28.31 -33.01)"/><path d="M977.79,330.86v8.69H945.18v-8.69Zm0,13.73v8.74H945.18v-8.74Z" transform="translate(-28.31 -33.01)"/><path class="cls-1" d="M987.51,314.38a34.1,34.1,0,0,0,6.24.36h6.61a53.5,53.5,0,0,0,6.44-.2,80.72,80.72,0,0,0-.36,8.37v27.25a58.76,58.76,0,0,0,.42,7.85H995.52a60.1,60.1,0,0,0,.41-7.85V323.64h-2.08a55,55,0,0,0-6.34.36Z" transform="translate(-28.31 -33.01)"/><path class="cls-1" d="M1033.69,346.46a5.76,5.76,0,0,0,1.24,2.24,6.38,6.38,0,0,0,4.89,1.92,7.43,7.43,0,0,0,6.66-3.63c1-1.67,1.45-3.54,1.77-7.08-2.81,2.65-5.78,3.75-10.35,3.75-9.36,0-15.45-5.67-15.45-14.41,0-9.2,7.08-15.49,17.37-15.49,6.61,0,11.86,2.7,15,7.69,2.13,3.38,3.28,8.32,3.28,14a33.72,33.72,0,0,1-3,14.56,15.49,15.49,0,0,1-8.84,7.91,23.75,23.75,0,0,1-7,1.09q-7.41,0-12-4.06c-1.77-1.61-2.65-3-4-6.19Zm13.52-17.73c0-3.9-3-6.6-7.34-6.6s-7.28,2.7-7.28,6.65,2.81,6.66,7.08,6.66C1044.14,335.44,1047.21,332.74,1047.21,328.73Z" transform="translate(-28.31 -33.01)"/><path class="cls-1" d="M1073.62,358a8.45,8.45,0,0,1-2.6,6.5,9.85,9.85,0,0,1-5.2,2.55l-2.29-4a7.65,7.65,0,0,0,4.11-1.56c.94-.83,1.3-1.61,1.46-3.53h-6V347.5h10.5Z" transform="translate(-28.31 -33.01)"/><path class="cls-1" d="M1083.66,314.38a34.1,34.1,0,0,0,6.24.36h6.6a53.69,53.69,0,0,0,6.45-.2,80.72,80.72,0,0,0-.36,8.37v27.25A60.6,60.6,0,0,0,1103,358h-11.33a60.1,60.1,0,0,0,.41-7.85V323.64H1090a54.89,54.89,0,0,0-6.34.36Z" transform="translate(-28.31 -33.01)"/><path class="cls-1" d="M1126.66,358c-4.68,0-5.88.05-7.8.21a26.23,26.23,0,0,1,1.09-6.14,26.76,26.76,0,0,1,7.49-11.65,72.24,72.24,0,0,1,9.26-6.91c4.47-3,5.56-4.37,5.56-6.76s-2.23-4.16-5.56-4.16c-2.5,0-4.27.83-5.41,2.6a9.19,9.19,0,0,0-1.3,4.36l-10.92-1.14c.78-4.52,1.71-6.81,3.79-9.26,3-3.48,7.7-5.35,13.78-5.35,7,0,12.38,2.34,15,6.55a11.15,11.15,0,0,1,1.72,6.08,12.06,12.06,0,0,1-4.79,9.68c-1.71,1.5-2.23,1.87-7.54,5.56-4.52,3.12-6.45,4.94-7.64,7.23h12.12a65.73,65.73,0,0,0,8.32-.37v9.83c-3-.26-5.2-.36-8.9-.36Z" transform="translate(-28.31 -33.01)"/><path class="cls-1" d="M1170.86,329.36c0,.26,0,.78-.16,1.66a13.59,13.59,0,0,1,8.43-2.5c4.63,0,8.42,1.46,11.18,4.27a14.08,14.08,0,0,1,3.9,10.4c0,10-6.55,15.91-17.58,15.91-6.55,0-11.7-2.23-14.71-6.39a16.5,16.5,0,0,1-2.6-5.83l10.45-1.61c.88,3.43,3.07,5,6.81,5,4.37,0,7.28-2.75,7.28-6.91s-2.81-6.87-7.18-6.87c-3.27,0-5.4,1.3-6.55,3.85l-9.67-.93c.21-1.57.36-2.81.52-4.27l1.4-16.22c.11-1.1.16-2.34.21-4.32,2.19.1,2.71.1,5.2.1h15.55a64.32,64.32,0,0,0,8.58-.36v9.1a84.42,84.42,0,0,0-8.48-.36h-12.06Z" transform="translate(-28.31 -33.01)"/><path d="M1226.08,354.16a46.31,46.31,0,0,0,.26,6.55h-8.68a51.13,51.13,0,0,0,.36-6.81V319.32a49.23,49.23,0,0,0-.21-5.36c1.93.16,3.44.21,6.82.21h31.51a59.67,59.67,0,0,0,6.55-.21,48.84,48.84,0,0,0-.26,6.56v33.59c0,3-1.25,5-3.59,5.67a22.11,22.11,0,0,1-5.82.52c-1.4,0-3.54-.05-6-.11a25.87,25.87,0,0,0-2.39-7.69c3.43.31,5.77.46,7.33.46,2,0,2.44-.2,2.44-1.14V342.2h-28.34Zm10-32.45h-10v13.11h10Zm18.35,13.11V321.71h-10.5v13.11Z" transform="translate(-28.31 -33.01)"/><path d="M115.63,595.18a43.07,43.07,0,0,0,5.1-.21c-.21,2.29-.21,2.29-.31,10.3-.21,15.39-.94,23.09-2.45,25.69-1.3,2.29-3.22,2.86-9.31,2.86-.36,0-.93,0-1.61-.05a23.48,23.48,0,0,0-.88-5.78,38,38,0,0,1-4.16,6.82,26.71,26.71,0,0,0-2.76-3.23c-10.5,1-12,1.15-22.31,1.82-.93.05-1.92.16-3.43.31l-1.14-7.28a40.58,40.58,0,0,0,4.31.11c2.14,0,3.59,0,6.92-.11v-2h-5c-1.82,0-3.38,0-5,.15v-5.82a42.43,42.43,0,0,0,5.1.21H83.6v-1.56H79.44c-2.55,0-3.69,0-5.3.1a41.44,41.44,0,0,0,.2-4.94v-6.86a41.28,41.28,0,0,0-.2-4.84c1.56.1,2.91.16,5.3.16H83.6v-1.51H77.83a44.29,44.29,0,0,0-5,.21v-6.14a43.74,43.74,0,0,0,5,.21H83.6v-1.51c-3.9.16-6.71.21-8.37.26a26.07,26.07,0,0,0-2.4-5.46c11.5-.1,20.49-.88,23.61-2.13l3.9,5.87a7,7,0,0,1-.72.11l-.78,0a13.76,13.76,0,0,0-1.62.21c-1.71.21-2.34.26-6.86.67v1.93h5a37.34,37.34,0,0,0,5-.21V595a17.45,17.45,0,0,0,2.76.16h.68v-4.89a21.37,21.37,0,0,0-.32-4.73h8.27c-.26,1.46-.26,1.46-.36,9.62Zm-34.79,10.3v1.76H83.6v-1.76Zm0,5.72v1.87H83.6V611.2Zm18.62,12.63c2.55-4.78,3.64-10.45,4.16-21.27a31.85,31.85,0,0,0-3.28.16v-3a15.61,15.61,0,0,0-3.27-.15H90.36v1.51h5.1a37.43,37.43,0,0,0,4.16-.11,30.64,30.64,0,0,0-.16,4.53V613c0,1.93.05,3.28.1,4.53-1.3,0-1.87,0-4.52,0H90.36V619h4.06c2.65,0,3.64,0,5-.16Zm-9.1-16.59h2.76v-1.76H90.36Zm0,5.83h2.76V611.2H90.36Zm0,13.16c3.74-.16,3.74-.16,7.9-.47.32-.52.42-.63.73-1.15a15.91,15.91,0,0,0-2.49-.15H90.36Zm20.8-23.67c-.42,10.51-1.66,17.48-4.21,23.61a15.31,15.31,0,0,0,2.29.21c2.13,0,2.54-.62,3.06-4.58.52-3.79.73-7.12,1.1-19.24Z" transform="translate(-28.31 -33.01)"/><path d="M132,593.78c-2.5,0-4.94.1-7.28.31v-7.8c2.34.21,4.47.31,7.18.31h33.59c2.55,0,4.84-.1,7.28-.31v7.8c-2.29-.21-4.73-.31-7.23-.31h-13v3h5a27.92,27.92,0,0,0,4.21-.21,29.26,29.26,0,0,0-.2,4.06v18.77a25.14,25.14,0,0,0,.15,4c-.57-.06-.57-.06-2.44-.16H138.15c-1.93.1-1.93.1-2.5.16a26.06,26.06,0,0,0,.16-4V600.59a28.84,28.84,0,0,0-.21-4.06,27.92,27.92,0,0,0,4.21.21h5v-3ZM171.43,597c-.21,2.08-.31,4.47-.31,6.34v23.2c0,2.6.1,4.89.36,7.69h-8.16v-2H133.94v2h-8.06a70.32,70.32,0,0,0,.36-7.54V603.14c0-1.93-.1-4-.31-6.14h8a25.36,25.36,0,0,0-.21,4.26v23.87h29.85V601.06a28.9,28.9,0,0,0-.21-4.06Zm-29.07,6.5v3.12h3V603.5Zm0,9.57v3.59h3v-3.59Zm12.69-6.45V603.5h-3.12v3.12Zm0,10v-3.59h-3.12v3.59Z" transform="translate(-28.31 -33.01)"/><path d="M188.22,587.64a34.22,34.22,0,0,0,6.24.36h6.61a53.69,53.69,0,0,0,6.45-.2,80.51,80.51,0,0,0-.37,8.37v27.25a60.48,60.48,0,0,0,.42,7.85H196.23a60,60,0,0,0,.42-7.85V596.9h-2.08a55.06,55.06,0,0,0-6.35.36Z" transform="translate(-28.31 -33.01)"/><path d="M260.09,600.8a35.07,35.07,0,0,0,6,8.52,42,42,0,0,0,11.7,9,33.79,33.79,0,0,0-4.21,8,48.79,48.79,0,0,1-8.12-6.4v4.68c-1.66-.15-3.22-.26-5.2-.26H256.5v2.76a56,56,0,0,0,.36,7h-8.94a69.27,69.27,0,0,0,.36-7v-2.76H244.9c-1.92,0-3.58.11-5.14.26v-4.78a45.93,45.93,0,0,1-7.91,6.6,29.43,29.43,0,0,0-4.11-7.74,43.4,43.4,0,0,0,11.13-9.57,38.44,38.44,0,0,0,5.57-8.32H236a52.31,52.31,0,0,0-6.65.36v-8.22a51.67,51.67,0,0,0,6.65.37h12.27v-3.17a23.67,23.67,0,0,0-.36-4.89h8.89a24.07,24.07,0,0,0-.31,4.89v3.17h12.79a50.65,50.65,0,0,0,6.76-.37v8.22a54.12,54.12,0,0,0-6.76-.36Zm-11.81,11.59c0-1.61.06-2.7.21-4.47a46.69,46.69,0,0,1-6.34,9.31h6.13Zm12.59,4.84h2a53.58,53.58,0,0,1-6.6-9.36c.21,3,.26,3.53.26,4.42v4.94Z" transform="translate(-28.31 -33.01)"/><path d="M319,601.32a27.73,27.73,0,0,0-1.09,2.6,13.14,13.14,0,0,1,5.26,2.91,12.54,12.54,0,0,1,4.26,9.78c0,6.29-3.49,11.33-9.78,14.14-2.81,1.25-5.67,1.92-10.5,2.39a28.08,28.08,0,0,0-2.91-6.86c-3.59,3.38-8.12,5.41-12.07,5.41-6.13,0-10-4.11-10-10.61a17,17,0,0,1,5.2-12.07,20.29,20.29,0,0,1,7.22-4.73c0-1.77,0-2.29.06-4.52-2.24-.06-2.24-.06-6.09-.11-.78,0-1.61,0-2.55,0-.72,0-.93,0-1.66,0l-.1-8.21a48.23,48.23,0,0,0,9.67.78h.31l.73-.06c.05-.67.05-.67.15-2.23a15,15,0,0,0,.06-1.67,12.54,12.54,0,0,0-.11-2.18l9,.36a30,30,0,0,0-.84,5.46c8.43-.46,15.29-1.4,19.5-2.6l.37,8.43a22.16,22.16,0,0,0-2.24.21c-5,.72-12.89,1.35-18.09,1.56-.06.52-.06.52-.11,1.4,0,.31,0,.47-.05,1.56a27.87,27.87,0,0,1,5-.47,18.64,18.64,0,0,1,2.45.11,11.58,11.58,0,0,0,.67-3Zm-28.65,19c0,1.92.78,3,2.24,3a4.93,4.93,0,0,0,2.86-1,58.77,58.77,0,0,1-.78-9.42C291.86,614.94,290.35,617.49,290.35,620.35Zm12.43-3.48a34,34,0,0,0,4.89-8,6.7,6.7,0,0,0-1.09-.06,13.4,13.4,0,0,0-4.11.58A63.92,63.92,0,0,0,302.78,616.87ZM313.65,623a8,8,0,0,0,4.94-7c0-2.34-1-3.8-3.33-5a40.85,40.85,0,0,1-9.1,13.57A20.25,20.25,0,0,0,313.65,623Z" transform="translate(-28.31 -33.01)"/><path d="M361.49,600.17a88.92,88.92,0,0,1,13.78-.78c.36,0,1.45,0,2.55.05l.15,8.79a47.09,47.09,0,0,0-6.81-.36,69.64,69.64,0,0,0-14.61,1.3l-.52-7.39c-2.5.26-3.12.32-4.73.42-.89,4.89-1.82,8.74-3.28,14.14-1.3,4.58-1.61,5.73-3.85,12.43-.83,2.5-.83,2.5-1.19,3.75L333.41,629c3.43-6.65,6.81-17,8.73-26.62h-.83c-1.66,0-2.75,0-5-.16h-.52a11,11,0,0,0-1.2,0l.16-8.47a54.36,54.36,0,0,0,7.9.52h1a49.93,49.93,0,0,0,.89-7.8v-.78l9.72.73a16.79,16.79,0,0,0-.68,3c-.05.31-.36,1.82-.83,4.47a57.68,57.68,0,0,0,8.53-1.35Zm1.82,14.3c-2,2.34-2.81,4.06-2.81,5.67,0,2.39,2.13,3.54,6.5,3.54a39,39,0,0,0,12.27-2l.63,9.1c-1,.1-1.51.16-2.76.31a63.21,63.21,0,0,1-10.14.83q-15.28,0-15.29-9.82c0-3,1.2-5.93,4.06-10.09Z" transform="translate(-28.31 -33.01)"/><path d="M402.15,586.76A69.4,69.4,0,0,0,400,597.88c3.38-6.08,7.59-9,13.16-9a12.3,12.3,0,0,1,9.41,4.73c2.91,3.64,4.31,8.37,4.31,14.46q0,12.79-7.95,19a31.46,31.46,0,0,1-11.86,5.41,51.73,51.73,0,0,1-6.13,1.19,31.06,31.06,0,0,0-4.16-8.89c14.92-.88,20.95-5.77,20.95-17,0-6.5-2.08-10.09-5.77-10.09-1.92,0-3.69.93-5.62,3a22.14,22.14,0,0,0-5.77,12.07,27.37,27.37,0,0,0-.21,4.26l-8.73.11a6.36,6.36,0,0,0,.05-.89v-1c-.1-2-.16-5.15-.16-6.6a150.45,150.45,0,0,1,1.2-19,24.89,24.89,0,0,0,.21-2.86v-.42Z" transform="translate(-28.31 -33.01)"/><path d="M460.39,619c-3,6.65-6.5,9.57-11.23,9.57-7,0-11.86-6.66-11.86-16.18a23.13,23.13,0,0,1,6-15.86c4.58-5,11.18-7.64,18.83-7.64,7,0,13.1,2.34,16.95,6.39,3.33,3.54,5.1,8.58,5.1,14.46,0,6.76-2.55,12.9-6.92,16.8-3.54,3.17-7.64,4.83-14.92,6A25.59,25.59,0,0,0,457.9,624c4.88-.37,8.11-1.2,10.92-2.65,4-2.13,6.24-6.5,6.24-12.07,0-4.42-1.56-7.95-4.58-10.24a8.7,8.7,0,0,0-4.37-1.82C465,606.15,463.2,612.86,460.39,619Zm-8.94-19a16.85,16.85,0,0,0-5.67,12.38c0,3.69,1.4,6.61,3.22,6.61,1.3,0,2.66-1.83,4.22-5.78a67.79,67.79,0,0,0,3.9-15.86A10.37,10.37,0,0,0,451.45,600Z" transform="translate(-28.31 -33.01)"/><path d="M502.88,609.12c-.73,11.18-3.12,18.46-8.38,25.43a35.11,35.11,0,0,0-6.76-6.09,27,27,0,0,0,4.42-8.27c2-5.93,2.76-12.84,2.76-26a51.88,51.88,0,0,0-.31-7.43,67.27,67.27,0,0,0,7.33.31h24.7c2.76,0,4.78-.1,6.61-.26a48.54,48.54,0,0,0-.21,5.36v11.64a48.4,48.4,0,0,0,.21,5.41c-1.77-.1-3.7-.15-6.3-.15h-7.59c1.25,4.78,3.07,7.8,6.34,10.6,3.07,2.61,5.72,4,12,6.14a30.46,30.46,0,0,0-4.58,8.32c-8.84-3.85-13.89-7.69-17.47-13.36a38.44,38.44,0,0,1-4.79-11.7Zm22.1-7.23v-7.28H503.14V598c0,1.82,0,1.82-.06,3.9Z" transform="translate(-28.31 -33.01)"/><path d="M555.5,587.59a29.34,29.34,0,0,0-1.51,5.15,94.49,94.49,0,0,0-2.49,20.17l4,1.35a47.46,47.46,0,0,0-2.18,15.86c0,.27,0,.94.15,2.09l-8.79.36c0-.94,0-.94-.41-4.11a101.35,101.35,0,0,1-1.15-15.75c0-7.34.47-11.91,2.08-21a32.32,32.32,0,0,0,.63-4.53v-.26Zm1.87,8.47a46.32,46.32,0,0,0,9.73.84c1.09,0,2,0,3.74-.06v-6.76a14.06,14.06,0,0,0-.26-2.91l9,0a60.48,60.48,0,0,0-.42,9.1,48.64,48.64,0,0,0,8.27-1.61l.31,8.27a13.26,13.26,0,0,0-1.92.31c-1.61.36-4,.67-6.56,1,.06,4.05.11,5.09.47,11.07A42,42,0,0,1,588.1,620a8.1,8.1,0,0,0,1,.62l-3.27,8.84a26.4,26.4,0,0,0-6.19-4.94v.42c0,4.42-4.53,7.38-11.18,7.38-7.65,0-12.17-3.64-12.17-9.67a9.17,9.17,0,0,1,4-7.65,13.8,13.8,0,0,1,8-2.13,15.18,15.18,0,0,1,3,.31c-.06-1.45-.06-1.71-.16-4.16-.05-1.77-.05-2.49-.1-4.31-1.2,0-1.93,0-3,0-1.56,0-4.57-.11-8.94-.26-.63,0-1,0-1.2,0h-.62Zm14,24.76a8.33,8.33,0,0,0-3.17-.63c-2.39,0-3.85.94-3.85,2.39s1.35,2.24,3.43,2.24c2.5,0,3.64-.94,3.64-3Z" transform="translate(-28.31 -33.01)"/><path d="M599.6,615.72c-.16,7.7-.52,10.92-1.82,16L592.16,629A48.33,48.33,0,0,0,594,615Zm-6.82-9.1a17.42,17.42,0,0,0,3.28.21c.47,0,.78,0,1.4-.05.94-1.15.94-1.15,1.72-2.19a49.25,49.25,0,0,0-6.66-7.85l3.54-6.45,1.46,1.67a34,34,0,0,0,3.38-7.18l6.7,2.5a15.05,15.05,0,0,0-1,1.82,83.3,83.3,0,0,1-4.68,7.85c.52.67.57.67,1.35,1.66a76.34,76.34,0,0,0,5-8.58l6.19,3.38c-.42.57-.78,1-1.87,2.71-2,3-5.77,8.06-7.85,10.5,2.13-.1,2.91-.16,4.47-.26-.42-1.25-.63-1.72-1.25-3.33l4.26-1.66A39.93,39.93,0,0,0,619.62,585l7.9,1.14c-.31.78-.31.78-1.14,3.43a23.64,23.64,0,0,1-.73,2.29h10.61a27.84,27.84,0,0,0,4.26-.21c-.26,2-.26,2-.31,10.14,0,6.56-.47,15.55-1,19.82-.73,6.24-1.82,9.25-3.9,10.71-1.45,1-4.06,1.46-8.27,1.46-1.14,0-2,0-3.9-.11a29.84,29.84,0,0,0-2-8.11,63.45,63.45,0,0,0,6.6.57c2.29,0,2.86-.62,3.43-3.74.73-3.85,1.09-11.65,1.09-22.83h-9.88a34.37,34.37,0,0,1-4.94,7.49,19.49,19.49,0,0,0-4.1-4.42,79.22,79.22,0,0,1,3.32,9.93l-5.4,2.13a18.62,18.62,0,0,0-.37-2c-1.35.11-2.29.21-2.81.21v15.71a33.12,33.12,0,0,0,.32,5.77h-7.75a32.65,32.65,0,0,0,.31-5.77V613.43c-1.77.11-3.17.16-4.16.21a17.46,17.46,0,0,0-3.48.36ZM614.52,615a110.17,110.17,0,0,1,1.92,14.15l-6.08.83c-.26-5.46-.62-9.67-1.14-13.94Zm7.8,5.88c-2-7-2.81-9.26-4.73-13.11l6.86-2.8a72.64,72.64,0,0,1,5.15,12.95Z" transform="translate(-28.31 -33.01)"/><path d="M668.55,617.8a5.5,5.5,0,0,0,1.45,3.33,8.13,8.13,0,0,0,6,2.24c4.06,0,6.61-2,6.61-5.2a4.52,4.52,0,0,0-2.81-4.48,15.19,15.19,0,0,0-4.84-.67c-2,0-4.36.1-6.39.31v-9a45.18,45.18,0,0,0,5.51.32c4.94,0,7.38-1.67,7.38-5,0-2.8-2-4.42-5.4-4.42-3.7,0-5.57,1.46-6.35,4.79l-11.23-1.61a15,15,0,0,1,3.48-6.61c3.18-3.43,8-5.2,14.3-5.2,5.67,0,10.35,1.56,13.32,4.42a10.1,10.1,0,0,1,2.91,7.39c0,5.51-3,8.94-9,10.34,3.18.47,4.89,1.2,6.71,2.76a10.23,10.23,0,0,1,3.43,7.7,11.53,11.53,0,0,1-2.08,6.91,13,13,0,0,1-4.88,3.9,28.06,28.06,0,0,1-10.82,2c-4.68,0-9.36-1.09-12.12-2.91a14.06,14.06,0,0,1-5.35-6.71,20.08,20.08,0,0,1-.89-2.76Z" transform="translate(-28.31 -33.01)"/><path d="M703.39,627.11a16.36,16.36,0,0,1-3.8-5.77,34.61,34.61,0,0,1-2-11.91c0-5.46,1.3-11.13,3.28-14.41,3.17-5.3,8.58-8.21,15.13-8.21a17.67,17.67,0,0,1,12.64,4.83,16.51,16.51,0,0,1,3.79,5.78,34.37,34.37,0,0,1,2,12c0,5.46-1.3,11.18-3.27,14.45C728,629,722.58,632,716,632A17.26,17.26,0,0,1,703.39,627.11Zm4.83-18.1c0,9.31,2.66,14.1,7.8,14.1s7.7-4.69,7.7-13.94c0-8.89-2.7-13.57-7.75-13.57C711.08,595.6,708.22,600.54,708.22,609Z" transform="translate(-28.31 -33.01)"/><path d="M787.73,612.13c0,4.37-2.13,5.62-9.57,5.62h-1.51a29.54,29.54,0,0,0-1.14-6.45c-.47,1.09-.68,1.61-1.4,3.07a36.22,36.22,0,0,0-6.24-5.31,23.81,23.81,0,0,0,1.56-2.91,18.9,18.9,0,0,0-3.07-.21h-1.15a26,26,0,0,0,6.4,8.12,35.2,35.2,0,0,0-3,6.91,17.93,17.93,0,0,1-3.58-5.25c.1,1.51.15,2.08.15,3.43V628a47.77,47.77,0,0,0,.26,6.3h-8.16a53.44,53.44,0,0,0,.31-6.25v-5.51c0-1.61,0-1.92.1-4.36a23,23,0,0,1-4.62,7.74,31.08,31.08,0,0,0-2.92-8.06,31.4,31.4,0,0,0,6.76-11.91h-2.23a20.6,20.6,0,0,0-3.38.27v-7.65a19.24,19.24,0,0,0,3.59.26h2.7V595c-1,.21-1.92.32-4.32.68a37.42,37.42,0,0,0-2.6-6.92c7.34-.93,13-2.44,15.71-4.21l4.78,6.4c-2.91,1.25-4.26,1.71-6,2.29v5.56h1.41a16.52,16.52,0,0,0,3.06-.21v7.07c1.51-3.74,2.4-7.8,3-14l6.66,1.93a61.74,61.74,0,0,1-3.59,17,25.93,25.93,0,0,0,2.86.26c1.35,0,1.61-.2,1.61-1.5V590.24a39.93,39.93,0,0,0-.26-4.89h8a44.29,44.29,0,0,0-.21,5Zm10.14.37c-.47.72-.73,1.19-1.66,2.86a36.87,36.87,0,0,1-11.44,12.79,42.06,42.06,0,0,1-13.31,6.29A26.79,26.79,0,0,0,767.4,627a39,39,0,0,0,11.13-4.21c5.3-3.07,8.52-6.24,10.87-10.76a19.66,19.66,0,0,0,1.35-3.18l3.17,1.67c-2.86-5.1-4.47-10.09-5.67-17.11l6-2.24c1.56,6.14,3.38,10.56,6.24,14.72a41.24,41.24,0,0,0-5.25,5.25Z" transform="translate(-28.31 -33.01)"/><path d="M824.86,586.5a22.13,22.13,0,0,0-1,4.16c-.26,1.24-.36,1.71-.62,2.91a40.48,40.48,0,0,0,7.22-1.25l.16,8.42c-1.25.11-1.25.11-3.85.42-1.4.16-4.26.42-5.56.52a107.16,107.16,0,0,1-5.67,15.08c-1.09,2.39-1.56,3.33-3.59,7.39-.67,1.3-.67,1.3-1,2l-8.47-4.63a70.58,70.58,0,0,0,9.62-19.65h-2.91c-1.2,0-1.2,0-2.4,0h-2v-8.32a42.77,42.77,0,0,0,7.59.52c.57,0,.83,0,1.87-.06a17.16,17.16,0,0,1,.47-2.18,35.17,35.17,0,0,0,.78-6.19Zm22.36,43.83a27.87,27.87,0,0,0-6.71-5.66,7.65,7.65,0,0,1-2.18,5.4c-2,2-5.67,3.23-9.83,3.23s-7.7-1.25-9.83-3.43a9.08,9.08,0,0,1-2.6-6.45c0-6,5-10.25,12.27-10.25a21.22,21.22,0,0,1,3.64.31c-.15-2-.2-3-.2-4.16,0-2.13.1-3.79.31-6.13l8.58.36a24,24,0,0,0-.57,5.88,46.52,46.52,0,0,0,.41,6,38.37,38.37,0,0,1,8,4.63c.16.1,1,.78,2.55,2Zm-18.62-9.77c-2.44,0-4,1-4,2.65s1.45,2.5,3.69,2.5c2.6,0,4-1.15,4-3.33a5.58,5.58,0,0,0-.1-1.15A9.06,9.06,0,0,0,828.6,620.56Zm19.14-14.62a74.13,74.13,0,0,0-16.17-7.48l4.31-7.18a86.59,86.59,0,0,1,15.66,7Z" transform="translate(-28.31 -33.01)"/><path d="M878.78,619c-3,6.65-6.5,9.57-11.23,9.57-7,0-11.86-6.66-11.86-16.18a23.13,23.13,0,0,1,6-15.86c4.58-5,11.18-7.64,18.83-7.64,7,0,13.1,2.34,17,6.39,3.33,3.54,5.1,8.58,5.1,14.46,0,6.76-2.55,12.9-6.92,16.8-3.53,3.17-7.64,4.83-14.92,6a25.59,25.59,0,0,0-4.42-8.53c4.88-.37,8.11-1.2,10.92-2.65,4-2.13,6.24-6.5,6.24-12.07,0-4.42-1.56-7.95-4.58-10.24a8.67,8.67,0,0,0-4.37-1.82C883.36,606.15,881.59,612.86,878.78,619Zm-8.94-19a16.85,16.85,0,0,0-5.67,12.38c0,3.69,1.4,6.61,3.22,6.61,1.3,0,2.66-1.83,4.22-5.78a67.79,67.79,0,0,0,3.9-15.86A10.37,10.37,0,0,0,869.84,600Z" transform="translate(-28.31 -33.01)"/><path d="M908.11,591.44c.88,0,1.56,0,2,0,1.35,0,3.22-.11,8.89-.47,7.49-.47,12.53-.73,22.41-1.09l5.36-.21,2.18-.1c1.77-.06,2.08-.11,2.34-.11a4.27,4.27,0,0,0,1.2-.21l.47,9.42a7.53,7.53,0,0,0-1.46-.11,24.45,24.45,0,0,0-11.91,3.64c-5.2,3.17-8.27,7.54-8.27,11.81,0,3,1.41,5,4.37,6.44,2.08,1,6.66,1.88,9.93,1.88.42,0,.78,0,1.56,0L946,632.21A12.39,12.39,0,0,0,944,632c-5.92-.52-9.83-1.41-13.15-2.92-6.14-2.86-9.31-7.64-9.31-14.24A17.79,17.79,0,0,1,926,603a21.49,21.49,0,0,1,5.09-4.42l-2.44.26c-1.14.11-3,.26-12.69,1a57.26,57.26,0,0,0-7.33,1ZM945,603.29a33.33,33.33,0,0,1,5,7.54l-5,2.29a32.37,32.37,0,0,0-5-7.7Zm7-3a35.52,35.52,0,0,1,5.09,7.33l-4.83,2.23a36.86,36.86,0,0,0-4.94-7.48Z" transform="translate(-28.31 -33.01)"/><path d="M812.86,715.93c0,1.09.83,1.3,4.88,1.3s5.15-.37,5.72-2,.78-4.32.84-9a32,32,0,0,0,7.64,2.66c-.68,9.41-1.66,12.58-4.42,14.14-1.72,1-5.1,1.41-11.08,1.41-8.78,0-11-1-11.49-5.2a85.91,85.91,0,0,1-7.9,4.94,28.26,28.26,0,0,0-5.26-7,62.84,62.84,0,0,0,13.11-7.54V693.3a48.88,48.88,0,0,0-.26-5.66h8.48c-.16,1.76-.26,3.38-.26,5.35v9.83a65.35,65.35,0,0,0,11.59-16.54,35.38,35.38,0,0,0,3-7.64l8.21,3.22c-.78,1.51-.78,1.51-2.34,4.58a93.8,93.8,0,0,1-4.89,8.89l6-2.81a115.2,115.2,0,0,1,7.43,20.34l-7.59,3.95a96.51,96.51,0,0,0-6.6-20.33,70.13,70.13,0,0,1-14.82,16.85Zm-9.62-22.83c-.94,9-2,14-4.11,19.76L792,709.42c2.13-5.25,3.28-10.24,4.06-18Zm5.92-17.27A84.88,84.88,0,0,1,824,682.54l-4.63,7.07c-3.59-2.6-8-4.83-15.08-7.59Z" transform="translate(-28.31 -33.01)"/><path d="M860.54,702.72c.47-.84.62-1,1.14-2.08h-7c-2.65,0-4.26.05-6,.2a52.62,52.62,0,0,0,.21-5.56v-3.12a55.84,55.84,0,0,0-.21-5.77c1.72.15,3.33.21,5.93.21h5.36v-2h-8.06c-2.45,0-4.37.1-6.3.26V677.6a61.43,61.43,0,0,0,7,.31h33.23a55.48,55.48,0,0,0,7-.31v7.23c-1.93-.16-3.8-.26-6.24-.26h-8.37v2h5.35c2.81,0,4.48-.06,6-.21a54.33,54.33,0,0,0-.2,5.72v3.07c0,2.86.05,4.31.15,5.66a54.45,54.45,0,0,0-5.87-.2H870.32c-.32.52-.52,1-.73,1.3s-.16.31-.42.78h17.21a44.22,44.22,0,0,0,6.24-.26v7.07a51.29,51.29,0,0,0-6.24-.31H883a21.86,21.86,0,0,1-3.64,5.66,126.32,126.32,0,0,1,12,4.16l-4.73,6.45A126.57,126.57,0,0,0,873,719.88c-6.08,3.17-13,4.63-24.08,5.15a27.4,27.4,0,0,0-3-7c1.77.05,2.86.05,3.54.05a50.65,50.65,0,0,0,13.36-1.4c-5.46-1.41-6.81-1.72-11.65-2.76,2.29-2.24,3.12-3.12,4.53-4.73h-4a52.3,52.3,0,0,0-6.29.31v-7.07a47.5,47.5,0,0,0,6.29.26Zm-4-10.87v3.59h3.38v-3.59Zm8.06,17.37c-.47.57-.68.78-1.36,1.5,6.19,1.36,6.19,1.36,8,1.88a13.07,13.07,0,0,0,2.81-3.38Zm2.7-22.62h3.43v-2H867.3Zm0,8.84h3.43v-3.59H867.3Zm10.82,0h3.53v-3.59h-3.53Z" transform="translate(-28.31 -33.01)"/><path d="M918.47,677.5a22.13,22.13,0,0,0-1,4.16c-.26,1.24-.36,1.71-.62,2.91a40.48,40.48,0,0,0,7.22-1.25l.16,8.42c-1.25.11-1.25.11-3.85.42-1.4.16-4.26.42-5.56.52a107.16,107.16,0,0,1-5.67,15.08c-1.09,2.39-1.56,3.33-3.59,7.39-.67,1.3-.67,1.3-1,2l-8.47-4.63a70.58,70.58,0,0,0,9.62-19.65h-2.91c-1.2,0-1.2,0-2.4,0h-2v-8.32A42.77,42.77,0,0,0,906,685c.57,0,.83,0,1.87-.06a17.16,17.16,0,0,1,.47-2.18,35.17,35.17,0,0,0,.78-6.19Zm22.36,43.83a27.87,27.87,0,0,0-6.71-5.66,7.7,7.7,0,0,1-2.18,5.4c-2,2-5.67,3.23-9.83,3.23s-7.7-1.25-9.83-3.43a9.08,9.08,0,0,1-2.6-6.45c0-6,5-10.25,12.27-10.25a21.22,21.22,0,0,1,3.64.31c-.15-2-.21-3-.21-4.16,0-2.13.11-3.79.32-6.13l8.58.36a24,24,0,0,0-.57,5.88,46.52,46.52,0,0,0,.41,6,38.37,38.37,0,0,1,8,4.63c.16.1,1,.78,2.55,2Zm-18.62-9.77c-2.44,0-4,1-4,2.65s1.45,2.5,3.69,2.5c2.6,0,4-1.15,4-3.33a5.58,5.58,0,0,0-.1-1.15A9.06,9.06,0,0,0,922.21,711.56Zm19.14-14.62a74.13,74.13,0,0,0-16.17-7.48l4.31-7.18a86.47,86.47,0,0,1,15.65,7Z" transform="translate(-28.31 -33.01)"/><path d="M950,684.36c0-2.6-.05-3.59-.21-5.62a32.37,32.37,0,0,0,4.37.21h8.79c2,0,3-.05,4.31-.15-.1,1.14-.1,2.13-.1,5.14v31c0,3.07,0,3.9.1,5.46H960v-2.6h-2.81v4.52h-7.54a45.91,45.91,0,0,0,.31-6.86Zm7.28,10.35h2.81v-8.79h-2.81Zm0,15.91h2.81v-9.1h-2.81ZM974,708.28c-2.55.05-3.79.1-5.67.26V701a57.81,57.81,0,0,0,6.14.21h10V698.3h-10c-2.13,0-4.52.1-6.14.26v-7.49a60,60,0,0,0,6.24.26h3.85v-3.12h-3c-1.09,0-2.5,0-4.11.1a14.77,14.77,0,0,0-2,.11v-7.6a44.09,44.09,0,0,0,5.83.32h3.22v-1a18.46,18.46,0,0,0-.26-3.64h8.17a22.15,22.15,0,0,0-.26,3.59v1h3.9a43.63,43.63,0,0,0,5.77-.32v7.6a51.26,51.26,0,0,0-5.67-.21h-4v3.12h5.09a56.65,56.65,0,0,0,6-.26v7.49a33.35,33.35,0,0,0-5.14-.26v2.86a34.15,34.15,0,0,0,4.88-.21v7.59a29.71,29.71,0,0,0-4.88-.26v10.3c0,4.78-2.34,6.34-9.42,6.34-.52,0-2.08,0-4,0a21.75,21.75,0,0,0-1.46-6.6L975,719.88a36.76,36.76,0,0,0-6.24-8.53Zm2,0a31.65,31.65,0,0,1,5.41,6.66l-3.33,2.6a40,40,0,0,0,4.47.26c1.46,0,1.87-.31,1.87-1.3v-8.22Z" transform="translate(-28.31 -33.01)"/><path d="M1009.88,718a53.31,53.31,0,0,0,.32,7h-8.38a53.52,53.52,0,0,0,.31-7V683.53c0-2.91,0-4.32-.2-6a47.65,47.65,0,0,0,5.25.21h10.92a43.29,43.29,0,0,0,5.3-.21c-.1,1.56-.15,2.75-.15,4.78v9.47c0,2.8,0,3.32.1,4.52-1.14-.05-2.7-.1-4.26-.1h-9.21Zm0-32.91h6.19v-1.82h-6.19Zm0,6.13h6.19V689.3h-6.19Zm26,24.7v1.3a6.75,6.75,0,0,0,.89.06c2.81,0,2.91-.06,2.91-1.2V696.27H1030c-1.41,0-3.17.05-4.27.1.11-1.4.11-1.87.11-4.57v-9.47c0-1.92,0-3.22-.16-4.78a46.4,46.4,0,0,0,5.31.21h11.33a46.94,46.94,0,0,0,5.25-.21c-.15,1.77-.2,3.12-.2,5.87v33.86c0,6.19-1.56,7.38-9.47,7.38-.67,0-.83,0-3.9-.1a38.18,38.18,0,0,0-.78-4.47H1020.7v2.18h-7.38c.15-1.61.2-3.48.2-5.51V702.87c0-1.82,0-3.17-.15-4.42,1.4.11,2.65.16,4.52.16h13.63c2,0,3.12-.05,4.52-.16-.1,1.2-.16,2.45-.16,4.42Zm-15.18-9.2h8v-2.08h-8Zm0,7.33h8v-2.13h-8Zm12.43-29h6.55v-1.82h-6.55Zm0,6.13h6.55V689.3h-6.55Z" transform="translate(-28.31 -33.01)"/><path d="M1067.5,678.59a29.34,29.34,0,0,0-1.51,5.15,94.49,94.49,0,0,0-2.49,20.17l4,1.35a47.46,47.46,0,0,0-2.18,15.86c0,.27,0,.94.15,2.09l-8.79.36c0-.94,0-.94-.41-4.11a101.35,101.35,0,0,1-1.15-15.75c0-7.34.47-11.91,2.08-21a32.32,32.32,0,0,0,.63-4.53v-.26Zm1.87,8.47a46.32,46.32,0,0,0,9.73.84c1.09,0,2,0,3.74-.06v-6.76a14.06,14.06,0,0,0-.26-2.91l9,0a60.48,60.48,0,0,0-.42,9.1,48.64,48.64,0,0,0,8.27-1.61l.31,8.27a13.26,13.26,0,0,0-1.92.31c-1.61.36-4,.67-6.56,1,.06,4.05.11,5.09.47,11.07a42.42,42.42,0,0,1,8.38,4.74,7.16,7.16,0,0,0,1,.62l-3.27,8.84a26.4,26.4,0,0,0-6.19-4.94v.42c0,4.42-4.53,7.38-11.18,7.38-7.65,0-12.17-3.64-12.17-9.67a9.17,9.17,0,0,1,4-7.65,13.8,13.8,0,0,1,8-2.13,15.18,15.18,0,0,1,3,.31c-.06-1.45-.06-1.71-.16-4.16,0-1.77,0-2.49-.1-4.31-1.2,0-1.93,0-3,0-1.56,0-4.57-.11-8.94-.26-.63,0-1,0-1.2,0h-.62Zm14,24.76a8.33,8.33,0,0,0-3.17-.63c-2.39,0-3.85.94-3.85,2.39s1.35,2.24,3.43,2.24c2.5,0,3.64-.94,3.64-3Z" transform="translate(-28.31 -33.01)"/><path class="cls-1" d="M1130,693.36c0,.26,0,.78-.15,1.66a13.56,13.56,0,0,1,8.42-2.5c4.63,0,8.42,1.46,11.18,4.27a14.08,14.08,0,0,1,3.9,10.4c0,10-6.55,15.91-17.58,15.91-6.55,0-11.7-2.23-14.71-6.39a16.5,16.5,0,0,1-2.6-5.83l10.45-1.61c.88,3.43,3.07,5,6.81,5,4.37,0,7.28-2.75,7.28-6.91s-2.81-6.87-7.17-6.87c-3.28,0-5.41,1.3-6.56,3.85l-9.67-.93c.21-1.57.37-2.81.52-4.27l1.41-16.22c.1-1.1.15-2.34.2-4.32,2.19.1,2.71.1,5.2.1h15.55a64.32,64.32,0,0,0,8.58-.36v9.1a84.21,84.21,0,0,0-8.47-.36h-12.07Z" transform="translate(-28.31 -33.01)"/><path d="M1185.17,700.43a24.2,24.2,0,0,0-3.53.21v-2.92a48.1,48.1,0,0,1-6.45,5.78,33.21,33.21,0,0,0-5.3-7.34,38.7,38.7,0,0,0,13.1-14.82,16.06,16.06,0,0,0,1.82-4.83l8.53,3.12a20,20,0,0,0-1.35,2.65,68.08,68.08,0,0,1-6.61,10.92H1205a50.65,50.65,0,0,1-6.71-11.44c-.31-.78-.68-1.51-1-2.24l7.75-3a22.11,22.11,0,0,0,2.13,4.78,36.51,36.51,0,0,0,13.42,13.89,41.36,41.36,0,0,0-5.25,7.95,46.8,46.8,0,0,1-4.42-3.58c-.06,10.45-.78,17.52-2.08,20.33-1.41,3-3.9,4-10.35,4l-3.7,0a28.07,28.07,0,0,0-2.23-8.32,43.66,43.66,0,0,0,5.51.47c2.71,0,3.33-.36,3.85-2.55.52-2,.88-7.18.88-13.05h-7.9a29,29,0,0,1-4.16,13.26,28.67,28.67,0,0,1-8.22,8.63,30.24,30.24,0,0,1-5.2,2.86,31.2,31.2,0,0,0-5.15-7.07c6.09-2.44,9.83-5.41,12.12-9.57a17,17,0,0,0,2.24-8.11Z" transform="translate(-28.31 -33.01)"/><line class="cls-3" x1="972.69" y1="430.99" x2="974.69" y2="430.99"/><path d="M372.37,113.09l.61.63-6.74,6.78,6.74,6.75-.61.62-6.74-6.68-6.72,6.68-.63-.62L365,120.5l-6.74-6.78.63-.63,6.72,6.75Zm-10.73,7.39A1.45,1.45,0,0,1,360.2,122a1.49,1.49,0,0,1-1.47-1.47,1.46,1.46,0,0,1,2.91,0Zm5.43,5.55a1.46,1.46,0,0,1-1.44,1.46,1.46,1.46,0,0,1-.13-2.92s0,0,.05,0h0l0,0A1.44,1.44,0,0,1,367.07,126Zm0-11a1.45,1.45,0,0,1-1.44,1.47,1.48,1.48,0,0,1-1.46-1.47,1.45,1.45,0,0,1,1.46-1.44A1.43,1.43,0,0,1,367.09,115Zm5.42,5.51a1.45,1.45,0,1,1-1.45-1.44A1.45,1.45,0,0,1,372.51,120.5Z" transform="translate(-28.31 -33.01)"/><path d="M377.85,112.37a12.79,12.79,0,0,0,2.28.13h2.41a20.52,20.52,0,0,0,2.36-.07,27.89,27.89,0,0,0-.14,3.06v10a20.91,20.91,0,0,0,.16,2.87h-4.15a20.72,20.72,0,0,0,.16-2.87v-9.69h-.76a21.21,21.21,0,0,0-2.32.13Z" transform="translate(-28.31 -33.01)"/><path d="M405.44,293.36l.61.63-6.75,6.78,6.75,6.74-.61.63-6.74-6.69L392,308.14l-.63-.63,6.75-6.74L391.34,294l.63-.63,6.73,6.75Zm-10.73,7.39a1.45,1.45,0,0,1-1.45,1.46,1.47,1.47,0,0,1-1.46-1.46,1.46,1.46,0,0,1,2.91,0Zm5.43,5.55a1.47,1.47,0,0,1-1.44,1.46,1.46,1.46,0,0,1-.14-2.92h.06l0,0,0,0A1.44,1.44,0,0,1,400.14,306.3Zm0-11a1.45,1.45,0,0,1-1.45,1.46,1.47,1.47,0,0,1-1.46-1.46,1.46,1.46,0,0,1,1.46-1.44A1.44,1.44,0,0,1,400.16,295.26Zm5.41,5.51a1.44,1.44,0,1,1-1.44-1.44A1.43,1.43,0,0,1,405.57,300.77Z" transform="translate(-28.31 -33.01)"/><path d="M411.94,308.58c-1.71,0-2.15,0-2.85.07a9.54,9.54,0,0,1,.4-2.24,9.8,9.8,0,0,1,2.73-4.25,26.71,26.71,0,0,1,3.39-2.53c1.63-1.1,2-1.6,2-2.47s-.82-1.52-2-1.52a2.15,2.15,0,0,0-2,.95,3.3,3.3,0,0,0-.47,1.6l-4-.42a6.14,6.14,0,0,1,1.38-3.38,6.33,6.33,0,0,1,5-2c2.56,0,4.52.86,5.47,2.39a4.11,4.11,0,0,1,.63,2.23,4.4,4.4,0,0,1-1.75,3.53,26.41,26.41,0,0,1-2.76,2,7.86,7.86,0,0,0-2.79,2.64h4.43a23.29,23.29,0,0,0,3-.13v3.59c-1.11-.09-1.9-.13-3.25-.13Z" transform="translate(-28.31 -33.01)"/><path d="M581.44,293.36l.61.63-6.75,6.78,6.75,6.74-.61.63-6.74-6.69L568,308.14l-.63-.63,6.75-6.74L567.34,294l.63-.63,6.73,6.75Zm-10.73,7.39a1.45,1.45,0,0,1-1.45,1.46,1.47,1.47,0,0,1-1.46-1.46,1.46,1.46,0,0,1,2.91,0Zm5.43,5.55a1.47,1.47,0,0,1-1.44,1.46,1.46,1.46,0,0,1-.14-2.92h.06l0,0,0,0A1.44,1.44,0,0,1,576.14,306.3Zm0-11a1.45,1.45,0,0,1-1.45,1.46,1.47,1.47,0,0,1-1.46-1.46,1.46,1.46,0,0,1,1.46-1.44A1.44,1.44,0,0,1,576.16,295.26Zm5.41,5.51a1.44,1.44,0,1,1-1.44-1.44A1.43,1.43,0,0,1,581.57,300.77Z" transform="translate(-28.31 -33.01)"/><path d="M588.89,303.75a2,2,0,0,0,.53,1.22,3,3,0,0,0,2.19.82c1.48,0,2.41-.75,2.41-1.9a1.66,1.66,0,0,0-1-1.64,5.48,5.48,0,0,0-1.76-.24,22.91,22.91,0,0,0-2.34.11v-3.27a15.86,15.86,0,0,0,2,.12c1.81,0,2.7-.61,2.7-1.83,0-1-.72-1.61-2-1.61a2,2,0,0,0-2.31,1.74l-4.11-.58a5.48,5.48,0,0,1,1.28-2.42,6.79,6.79,0,0,1,5.22-1.9,6.88,6.88,0,0,1,4.86,1.62,3.65,3.65,0,0,1,1.07,2.7c0,2-1.08,3.26-3.27,3.78a4.25,4.25,0,0,1,2.45,1,3.75,3.75,0,0,1,1.26,2.81,4.26,4.26,0,0,1-.76,2.53,4.9,4.9,0,0,1-1.79,1.43,10.38,10.38,0,0,1-3.95.74,8.58,8.58,0,0,1-4.43-1.07,5.08,5.08,0,0,1-1.95-2.45,6.8,6.8,0,0,1-.33-1Z" transform="translate(-28.31 -33.01)"/><path d="M841.43,423.13l.83.86L833,433.27l9.23,9.23-.83.86-9.23-9.16L823,443.36l-.85-.86,9.23-9.23L822.14,424l.85-.86,9.21,9.23Zm-14.69,10.11a2,2,0,0,1-2,2,2,2,0,0,1-2-2,2,2,0,0,1,4,0Zm7.43,7.59a2,2,0,0,1-2,2,2,2,0,0,1-.18-4,.07.07,0,0,1,.07,0l.06,0,.05-.05A2,2,0,0,1,834.17,440.83Zm0-15.1a2,2,0,0,1-2,2,2,2,0,1,1,0-4A2,2,0,0,1,834.2,425.73Zm7.41,7.54a2,2,0,1,1-2-2A2,2,0,0,1,841.61,433.27Z" transform="translate(-28.31 -33.01)"/><path d="M848.92,422.14a16.58,16.58,0,0,0,3.12.18h3.3a26.8,26.8,0,0,0,3.22-.1,40.39,40.39,0,0,0-.18,4.18V440a29.51,29.51,0,0,0,.21,3.93h-5.67a29.22,29.22,0,0,0,.21-3.93V426.77h-1a27.32,27.32,0,0,0-3.17.18Z" transform="translate(-28.31 -33.01)"/><path d="M894.26,426a24.12,24.12,0,0,0,2.55-.1,49,49,0,0,0-.16,5.14c-.1,7.7-.47,11.55-1.22,12.85-.65,1.14-1.61,1.43-4.65,1.43-.19,0-.47,0-.81,0a11.62,11.62,0,0,0-.44-2.88,19.36,19.36,0,0,1-2.08,3.4,14.27,14.27,0,0,0-1.38-1.61c-5.25.52-6,.57-11.15.91-.47,0-1,.08-1.72.16l-.57-3.64c.57.05.91.05,2.16.05,1.06,0,1.79,0,3.45-.05v-1h-2.49c-.91,0-1.69,0-2.52.08v-2.92a20.89,20.89,0,0,0,2.54.11h2.47v-.78h-2.08c-1.27,0-1.84,0-2.65.05a19.31,19.31,0,0,0,.11-2.47v-3.43a19.24,19.24,0,0,0-.11-2.42c.78.05,1.46.08,2.65.08h2.08v-.76h-2.88a22.14,22.14,0,0,0-2.53.11v-3.07a22.25,22.25,0,0,0,2.53.1h2.88v-.75c-2,.08-3.35.1-4.18.13a13.15,13.15,0,0,0-1.2-2.73c5.75-.05,10.25-.44,11.81-1.07l2,2.94a2.78,2.78,0,0,1-.37.05l-.39,0-.8.1c-.86.11-1.17.13-3.44.34v1h2.5a19,19,0,0,0,2.5-.1v.7A9.27,9.27,0,0,0,888,426h.34V423.6a10.86,10.86,0,0,0-.15-2.37h4.13c-.13.73-.13.73-.18,4.81Zm-17.39,5.15v.88h1.37v-.88Zm0,2.86V435h1.37v-.93Zm9.3,6.32c1.28-2.4,1.82-5.23,2.08-10.64a15.72,15.72,0,0,0-1.63.08V428.3a7.38,7.38,0,0,0-1.64-.08h-3.36V429h2.55a20.47,20.47,0,0,0,2.08-.05,15.2,15.2,0,0,0-.08,2.26v3.74c0,1,0,1.64.06,2.26-.65,0-.94,0-2.27,0h-2.34V438h2c1.33,0,1.82,0,2.52-.08Zm-4.55-8.3H883v-.88h-1.38Zm0,2.91H883v-.93h-1.38Zm0,6.58c1.88-.08,1.88-.08,4-.23.15-.26.2-.31.36-.57a6.9,6.9,0,0,0-1.25-.08h-3.07ZM892,429.73c-.2,5.25-.83,8.74-2.1,11.81a9,9,0,0,0,1.14.1c1.07,0,1.28-.31,1.54-2.29a88.62,88.62,0,0,0,.54-9.62Z" transform="translate(-28.31 -33.01)"/><path d="M902.42,425.34c-1.25,0-2.47.05-3.64.15v-3.9c1.17.11,2.24.16,3.59.16h16.8c1.27,0,2.42-.05,3.64-.16v3.9c-1.15-.1-2.37-.15-3.62-.15h-6.5v1.48h2.5a15.81,15.81,0,0,0,2.11-.1,13.5,13.5,0,0,0-.11,2v9.39a11.69,11.69,0,0,0,.08,2l-1.22-.08H905.52l-1.25.08a12.92,12.92,0,0,0,.08-2v-9.39a14.12,14.12,0,0,0-.11-2,15.81,15.81,0,0,0,2.11.1h2.5v-1.48ZM922.16,427c-.11,1-.16,2.24-.16,3.17v11.6c0,1.3,0,2.44.18,3.85H918.1v-1H903.41v1h-4a35.41,35.41,0,0,0,.18-3.77V430c0-1,0-2-.15-3.07h4a12.89,12.89,0,0,0-.1,2.13V441h14.92V429a13.88,13.88,0,0,0-.1-2Zm-14.54,3.25v1.56h1.49V430.2Zm0,4.78v1.8h1.49V435Zm6.35-3.22V430.2h-1.56v1.56Zm0,5V435h-1.56v1.8Z" transform="translate(-28.31 -33.01)"/><path d="M929.65,437c-1.25,0-2.08,0-3,.07a20.61,20.61,0,0,0,.13-2.75v-6a20.48,20.48,0,0,0-.13-2.91c.6.05,1.12.08,2,.1a17.23,17.23,0,0,0-2-3.09l3.79-1.25a20.11,20.11,0,0,1,2.32,3.46l-2.53.88h5.1a17.71,17.71,0,0,0-1.79-3.79l3.9-.86a21.38,21.38,0,0,1,1.89,3.77l-3.32.88h4.23a24.49,24.49,0,0,0,2.42-4.44l4.08,1.25a31,31,0,0,1-2.1,3.19,18,18,0,0,0,2.23-.1,20.45,20.45,0,0,0-.13,2.91v6a21.84,21.84,0,0,0,.13,2.78c-.85-.05-1.79-.07-3-.07h-5.27v1.09h7a23,23,0,0,0,3.07-.13v3.9a28.86,28.86,0,0,0-3.54-.16h-6.57v1a17.21,17.21,0,0,0,.15,2.84h-4.26a17.28,17.28,0,0,0,.15-2.84v-1h-6.39a28.71,28.71,0,0,0-3.49.16V438a25.15,25.15,0,0,0,3.1.13h6.78V437Zm5-8.27h-3.92v1.09h3.92Zm0,4h-3.92v1.11h3.92Zm8.17-2.89v-1.09h-4.21v1.09Zm0,4V432.7h-4.21v1.11Z" transform="translate(-28.31 -33.01)"/><path d="M961.13,425.81c-1.4,0-2.6.05-3.43.13v-2.11a31.62,31.62,0,0,1-1.64,4v14.66a24.65,24.65,0,0,0,.11,3h-4a26.3,26.3,0,0,0,.16-3v-6.79c0-.15,0-1,0-2.54-.28.44-.8,1.17-1.14,1.61a27.65,27.65,0,0,0-1.22-4.76,16.39,16.39,0,0,0,3.46-5.93,16.68,16.68,0,0,0,.91-3.48l3.38,1.35a.94.94,0,0,1,.28.05c.5.05,1.9.11,3.12.11H971.4A30.55,30.55,0,0,0,975,422v3.93c-.78-.08-2-.13-3.43-.13h-1.64v2.52h2a21.68,21.68,0,0,0,2.47-.13,20.75,20.75,0,0,0-.13,2.65V441.8a34.77,34.77,0,0,0,.16,3.64h-3.93v-1.15h-9.64v1.15H957c.08-.91.13-2,.13-3V430.85c0-1,0-1.79-.1-2.65a16.17,16.17,0,0,0,2.42.13h1.95v-2.52Zm-.47,6.05v8.87h1.28v-8.87Zm5.62-3.53v-2.52h-1.22v2.52Zm0,12.4v-8.87h-1.22v8.87Zm4.39,0v-8.87H969.4v8.87Z" transform="translate(-28.31 -33.01)"/><path d="M984.19,422.24a15.3,15.3,0,0,0-.75,2.58,47.22,47.22,0,0,0-1.25,10.09l2,.67a23.84,23.84,0,0,0-1.09,7.93c0,.13,0,.47.08,1l-4.39.18c0-.46,0-.46-.21-2.05a50.77,50.77,0,0,1-.58-7.88,52.28,52.28,0,0,1,1-10.5,16.42,16.42,0,0,0,.32-2.26v-.13Zm.94,4.24a23.21,23.21,0,0,0,4.86.42c.55,0,1,0,1.87,0v-3.38a7,7,0,0,0-.13-1.45l4.5,0a30.29,30.29,0,0,0-.21,4.55,23.3,23.3,0,0,0,4.14-.81l.15,4.14a6.77,6.77,0,0,0-1,.15c-.8.19-2,.34-3.27.5,0,2,0,2.55.23,5.54a20.83,20.83,0,0,1,4.19,2.36,3,3,0,0,0,.49.31l-1.64,4.42a13.55,13.55,0,0,0-3.09-2.47v.21c0,2.21-2.26,3.69-5.59,3.69-3.82,0-6.09-1.82-6.09-4.83a4.59,4.59,0,0,1,2-3.82,6.83,6.83,0,0,1,4-1.07,7.18,7.18,0,0,1,1.51.16c0-.73,0-.86-.08-2.08,0-.89,0-1.25,0-2.16-.6,0-1,0-1.48,0-.78,0-2.29-.05-4.47-.13l-.6,0h-.31Zm7,12.38a4.06,4.06,0,0,0-1.59-.31c-1.19,0-1.92.46-1.92,1.19s.68,1.12,1.72,1.12c1.24,0,1.82-.47,1.82-1.51Z" transform="translate(-28.31 -33.01)"/><path d="M1023,444.79a41.76,41.76,0,0,0-7.46-7.39,28.13,28.13,0,0,1-9.57,7.13,13.58,13.58,0,0,0-2.91-4.11,24.47,24.47,0,0,0,8.42-5.25,20.92,20.92,0,0,0,5.23-7.65l-6.76.11a29.68,29.68,0,0,0-4.13.26l-.13-4.63a19.16,19.16,0,0,0,2.73.18c.2,0,.7,0,1.45,0l8.89-.13a4.67,4.67,0,0,0,2.08-.28l2.29,2.34a4.12,4.12,0,0,0-.93,1.53,30.57,30.57,0,0,1-3.83,7,59.91,59.91,0,0,1,8.27,7.05Z" transform="translate(-28.31 -33.01)"/><path d="M1041.63,422c0,.05-.39.78-1.12,2.26l7-.08a2.87,2.87,0,0,0,1.59-.34l2.31,2.29a2.36,2.36,0,0,0-.59,1.12,33.65,33.65,0,0,1-4.84,10,24.91,24.91,0,0,1-6.32,5.87,30.14,30.14,0,0,1-4.47,2.39,14.69,14.69,0,0,0-3-3.9,21.16,21.16,0,0,0,8.81-5.33,28.39,28.39,0,0,0-4.83-3.22l2.73-3.28a33.77,33.77,0,0,1,4.78,3,18.37,18.37,0,0,0,2.24-4.76l-7.21.05a27.37,27.37,0,0,1-5.92,7,12.85,12.85,0,0,0-3.75-2.94,22.56,22.56,0,0,0,6.48-7.46,16.83,16.83,0,0,0,1.5-3.64Z" transform="translate(-28.31 -33.01)"/><path d="M1055.25,430.72a37.32,37.32,0,0,0,5.33.23H1073a43.15,43.15,0,0,0,5.33-.23v5a49.87,49.87,0,0,0-5.36-.16h-12.37c-2.91,0-3.77,0-5.36.16Z" transform="translate(-28.31 -33.01)"/><path d="M1094.46,439.3a14.37,14.37,0,0,0,3.15,3.62,20.49,20.49,0,0,0-2.86,2.57,24.34,24.34,0,0,1-3.23-4.37,15.59,15.59,0,0,1-3.22,4.52,16.05,16.05,0,0,0-2.19-2.23c0,1.09.06,1.4.13,2.13h-3.9a30.87,30.87,0,0,0,.16-3.43v-6.22c0-1,0-1.63,0-2.41a7.88,7.88,0,0,1-1.12,1.69,18,18,0,0,0-1.51-4.58A18.56,18.56,0,0,0,1083,425a19.61,19.61,0,0,0,1-4.06l3.2,1.3,0-.47a11.78,11.78,0,0,0,1.67.08h5.43c.68,0,.91,0,1.56-.05,0,.6-.08,1.09-.08,2.08V437.3c0,1,0,1.45.08,2.05h-.18a6.18,6.18,0,0,0-1-.05Zm-6,0a10.73,10.73,0,0,0-1.28.08c0-.34,0-1,.06-2.13V424a25.45,25.45,0,0,1-1.12,3.36v15.08a8.29,8.29,0,0,0,2.47-3.15Zm3.12,1.4,2.28-1.4h-4.67Zm-1-14.06h1.92v-1.51h-1.92Zm0,4.6h1.92v-1.53h-1.92Zm0,4.73h1.92v-1.66h-1.92Zm6,3a11.9,11.9,0,0,0,.11-1.85V424.82c0-.73,0-1.15-.08-1.85H1100a11.68,11.68,0,0,0-.1,1.85v12.3A15.41,15.41,0,0,0,1100,439Zm8-17.53a25,25,0,0,0-.13,2.86v17.45c0,2.76-.91,3.43-4.55,3.43l-1.46,0a12.91,12.91,0,0,0-.78-3.72,16.09,16.09,0,0,0,2.11.15c.91,0,1.09-.1,1.09-.7V424.25a23.89,23.89,0,0,0-.13-2.79Z" transform="translate(-28.31 -33.01)"/><path d="M1106.86,427.44h.23c.84,0,3.33-.2,5-.41a40.88,40.88,0,0,0,.6-5.15v-.44l4.71.44a12.14,12.14,0,0,0-.42,2.05c-.21,1.2-.39,2.19-.49,2.79.44,0,.75-.06,1.11-.06a5.76,5.76,0,0,1,3.7,1c1.32,1.07,1.84,2.66,1.84,5.59,0,4.06-.59,7.44-1.63,9.23a4.18,4.18,0,0,1-1.67,1.56,4.84,4.84,0,0,1-2,.37,15,15,0,0,1-4.13-.7,11.34,11.34,0,0,0,.08-1.51,12.3,12.3,0,0,0-.39-3.1,11.78,11.78,0,0,0,3.56.94c.55,0,.88-.34,1.17-1.17a23,23,0,0,0,.7-5.77,3.07,3.07,0,0,0-.49-2.11c-.29-.34-.65-.44-1.56-.44a9.69,9.69,0,0,0-1,.05,52.46,52.46,0,0,1-1.85,6.48,56.09,56.09,0,0,1-2.76,6.7l-.41.94-4.29-2.26c1.66-2.21,3.85-7.39,4.89-11.49a32.48,32.48,0,0,0-4.06.72Zm19.29-2.78a27.1,27.1,0,0,1,5.31,11.1l-4.27,2a23.69,23.69,0,0,0-4.86-11.36Z" transform="translate(-28.31 -33.01)"/><path d="M1141,427a57.74,57.74,0,0,0-1.11,6.32,12.91,12.91,0,0,1,7.43-2c4.63,0,7.7,2.42,7.7,6.11a6.57,6.57,0,0,1-2.94,5.51c-1.87,1.28-4.24,1.87-7.44,1.87a27.81,27.81,0,0,1-6.52-.77,17.9,17.9,0,0,0-.6-4.63,24.29,24.29,0,0,0,6.94,1.22c3.43,0,5.72-1.22,5.72-3.07,0-1.38-1.35-2.18-3.69-2.18a11.21,11.21,0,0,0-5.69,1.56,4.34,4.34,0,0,0-1.46,1.17l-4.32-.19a3.79,3.79,0,0,0,.08-.52c.13-1.24.68-5.4,1.2-9a15.69,15.69,0,0,0,.15-1.67Zm-.47-5.72a26.39,26.39,0,0,0,5.31,1.85c1.77.46,4,.93,5.23,1.11l-1.38,4.19a50.13,50.13,0,0,1-11.24-3.41Z" transform="translate(-28.31 -33.01)"/><path d="M1167.42,424.09a14.71,14.71,0,0,0,1-3.22l4.63.31-.83,2.05c-.11.26-.21.47-.4.86h5.88c1.59,0,2.32,0,3.28-.1a22.56,22.56,0,0,0-.13,3.14v15.26a20.32,20.32,0,0,0,.15,3.05h-4.23v-1.12H1165v1.12h-4.16a24.21,24.21,0,0,0,.15-3V427.13a23.52,23.52,0,0,0-.13-3.14c1,.07,1.69.1,3.28.1Zm-2.45,5.56h11.86v-1.92H1165Zm0,5.46h11.86v-1.87H1165Zm0,5.54h11.86v-1.92H1165Z" transform="translate(-28.31 -33.01)"/><path d="M1204.75,425a26.82,26.82,0,0,0,3.25-.13,26.73,26.73,0,0,0-.13,2.94v13.94c0,1.25.05,2.49.16,3.85h-4V444.5h-14.46v1.07h-4c.1-1.23.15-2.4.15-3.9v-14.1c0-1,0-1.87-.13-2.7a30.1,30.1,0,0,0,3.07.1h6v-1.22a23,23,0,0,0-.15-2.73h4.42a19.94,19.94,0,0,0-.16,2.78V425Zm-15.21,3.67v4.11h5.12v-4.11Zm0,7.67v4.52h5.12v-4.52Zm14.46-3.56v-4.11h-5.23v4.11Zm0,8.08v-4.52h-5.23v4.52Z" transform="translate(-28.31 -33.01)"/><path d="M1218.43,422.5a48.59,48.59,0,0,0-2,12.56l2,.68a25.87,25.87,0,0,0-1,7.28,7,7,0,0,0,.08,1.27l-4.48.21a10,10,0,0,0-.12-1.38,54.1,54.1,0,0,1-.68-8.21,55.85,55.85,0,0,1,1-10,21.45,21.45,0,0,0,.39-2.79Zm7.17,11.37c-1.19,1.53-1.74,2.65-1.74,3.58,0,1.2,1.17,1.85,3.38,1.85a19.15,19.15,0,0,0,6.48-1.07l.26,4.61c-.68.08-.68.08-2.21.31a31.66,31.66,0,0,1-4.5.34,10.51,10.51,0,0,1-5.38-1.1,4.81,4.81,0,0,1-2.4-4.13,8.26,8.26,0,0,1,1.25-4.06c.37-.59.52-.85,1.22-1.87Zm-5.09-9.39a21.71,21.71,0,0,0,4.63.39,33.8,33.8,0,0,0,7.74-.65l.19,4.45c-.24,0-.5,0-1.93.18-1.79.18-3.69.28-5.48.28a44.76,44.76,0,0,1-4.48-.2c-.2,0-.39,0-.75-.06Z" transform="translate(-28.31 -33.01)"/><path d="M1236.71,425.1a11.15,11.15,0,0,0,2.1.13h5.8c1.06,0,1.53,0,2.11-.07v3.45a14,14,0,0,0-2.06-.07h-5.85a15.13,15.13,0,0,0-2.1.1Zm10.21,6.5a9.6,9.6,0,0,0,1.64.11,21.69,21.69,0,0,0-2.31-1.82v2.42a10.16,10.16,0,0,0-1.51-.06h-5.64a10.63,10.63,0,0,0-1.56.06v-2.94a13.18,13.18,0,0,0,1.56.05h5.64a10.38,10.38,0,0,0,1.43-.05,4.41,4.41,0,0,0,1.4-1.69,10.94,10.94,0,0,0,.71-4.55,9.54,9.54,0,0,0-.11-1.54,16.22,16.22,0,0,0,2.06.11h4.83a17.9,17.9,0,0,0,2.16-.11c0,.55-.08,1.1-.08,1.93v3.64c0,.26.11.31.52.31.68,0,.7-.05.76-2.89a13.34,13.34,0,0,0,3,1.17c-.23,4.5-.68,5.13-3.61,5.13-2.21,0-2.94-.08-3.49-.37s-.65-.62-.65-1.56v-3.66h-1.77c-.1,3-.78,4.7-2.39,6.42h7a11.86,11.86,0,0,0,1.72-.08l1.82,1.77a11,11,0,0,0-.52,1.22,20.58,20.58,0,0,1-3.1,5.38,17.53,17.53,0,0,0,5,1.59,22,22,0,0,0-1.71,3.9,22.65,22.65,0,0,1-6.35-2.68,21,21,0,0,1-5.46,2.68,14.41,14.41,0,0,0-1.61-2.81v.49a11.5,11.5,0,0,0,.08,1.9h-3.56v-.7H1241v1.07h-3.72c.08-.89.13-1.75.13-2.58V438.7a15.13,15.13,0,0,0-.1-1.95c.62.05,1.07.08,1.92.08h5.52a7.57,7.57,0,0,0,1.58-.08,15.16,15.16,0,0,0,0,1.72v3.27a15.87,15.87,0,0,0,4-1.56,32.24,32.24,0,0,1-2.86-3.48l2.84-1.43h-1.17a17.6,17.6,0,0,0-2.14.1Zm-9.43-10.19a18.1,18.1,0,0,0,2.36.11h4a18.37,18.37,0,0,0,2.37-.11v3c-.78-.05-1.25-.07-2.37-.07h-4c-1,0-1.66,0-2.36.07Zm0,11.65a12.47,12.47,0,0,0,1.56.05h5.64a11.25,11.25,0,0,0,1.51-.05V436a12.91,12.91,0,0,0-1.56-.05H1239a11.91,11.91,0,0,0-1.5.05Zm3.4,8.27h1.88v-1.69h-1.88Zm10-6.06a14.45,14.45,0,0,0,2.24,2.63,11,11,0,0,0,1.84-2.63Z" transform="translate(-28.31 -33.01)"/><path d="M1273.37,432.12h-4.61a24.54,24.54,0,0,0-2.73.11V430h-2.94a13.79,13.79,0,0,0,.13-2.29v-2.41a18.65,18.65,0,0,0-.1-2.06c1,.08,2,.11,3.12.11h6.34v-.52a8.42,8.42,0,0,0-.12-1.69h4.39a8.22,8.22,0,0,0-.13,1.66v.55h6.66c1.06,0,2.08,0,3.09-.11a17.76,17.76,0,0,0-.1,2.06v2.44a15.33,15.33,0,0,0,.13,2.26h-2.89v2.24a25,25,0,0,0-2.78-.11h-3.62v2.42h4.63a17,17,0,0,0,2.68-.13v3.75a23.44,23.44,0,0,0-2.68-.11h-4.63v3.15c1,.08,1.72.1,2.66.1,2.28,0,4.16-.08,7.28-.34a23.5,23.5,0,0,0-.89,4c-2.73.07-3.77.1-5.22.1-4.16,0-6.69-.29-8.4-1a9.3,9.3,0,0,1-3.93-2.91,20,20,0,0,1-3.17,4.5,14,14,0,0,0-3.12-3.05,14.7,14.7,0,0,0,4.26-6.83,17.28,17.28,0,0,0,.63-2.6l4,.72c-.16.65-.26,1.07-.31,1.28-.16.62-.39,1.4-.73,2.42a6.77,6.77,0,0,0,1.32,1.63,6.51,6.51,0,0,0,1.83,1.15Zm9.17-5.2h-15.47v1.67c.58,0,.94,0,1.69,0h12.07c.75,0,1.12,0,1.71,0Z" transform="translate(-28.31 -33.01)"/><path d="M1292.66,425.68c-1.25,0-2.34.05-3.64.15v-4a35.22,35.22,0,0,0,3.59.16h16.61c1.33,0,2.44,0,3.64-.16v4c-1-.08-1.59-.1-2.68-.13v15.94c0,3.09-.88,3.69-5.38,3.69-.78,0-1.33,0-2.5-.05a11.8,11.8,0,0,0-1-4,35.64,35.64,0,0,0,3.7.24c1,0,1.19-.16,1.19-.86v-15Zm11.13,11.05a21.72,21.72,0,0,0,.1,2.26c-.68-.05-1.82-.11-2.42-.11h-6.14v1.93h-4a20.89,20.89,0,0,0,.16-2.58V430a19.22,19.22,0,0,0-.13-2.52,19.45,19.45,0,0,0,2.42.11h7.62a22.53,22.53,0,0,0,2.52-.11,17.38,17.38,0,0,0-.1,2.26Zm-8.48-1.41h4.6v-4.13h-4.6Z" transform="translate(-28.31 -33.01)"/><path d="M1324.17,429.52h.55c-.29-.78-.34-.91-.5-1.32-1.92.31-4.89.62-7.64.83a14.49,14.49,0,0,0-1.72.18l-.36-3.95c.44,0,1,.05,1.35.05h.49a16.47,16.47,0,0,0,1.8-4.52l4.21.57a5.07,5.07,0,0,0-.49.94c-.32.65-.81,1.58-1.54,2.86,1-.08,1.48-.11,2.45-.21-.21-.42-.37-.7-.86-1.64l2.94-1.38a30.64,30.64,0,0,1,2.62,4.55v-3.14a16.58,16.58,0,0,0-.1-2.19h4.08a12.9,12.9,0,0,0-.1,2v.65a13.92,13.92,0,0,0,2.47-1,10.65,10.65,0,0,0,2.44-1.5l2.68,3.35c-.47.18-.65.26-1.09.47a37.72,37.72,0,0,1-6.5,2.39v1c0,.55.18.63,1.45.63s1.85-.08,2.11-.34.21-.76.23-2.21a13.38,13.38,0,0,0,3.67.93c-.21,2.84-.44,3.7-1.17,4.32s-2,.78-5.44.78a11.93,11.93,0,0,1-3.35-.29,1.74,1.74,0,0,1-1.38-1.95V428l-2.6,1.53c.78,0,1.07,0,1.61-.07a22.7,22.7,0,0,0-.1,2.47v10.29a3.24,3.24,0,0,1-.52,2.13c-.55.66-1.53,1-3.12,1-.34,0-.86,0-1.48,0a13.41,13.41,0,0,0-.76-3.61,8.12,8.12,0,0,0,1.46.15c.42,0,.65-.1.65-.31v-1.17h-3.07v2.13a28.17,28.17,0,0,0,.13,3.07h-4.11a21.49,21.49,0,0,0,.16-3.07V431.84c0-.89,0-1.59-.08-2.37a15.8,15.8,0,0,0,1.66,0Zm-4.66,4.16h3.1v-1h-3.1Zm0,3.85h3.1v-1h-3.1Zm11.84-1.9a15.74,15.74,0,0,0,5-2.34l2.76,3.23a40.56,40.56,0,0,1-7.77,2.75V441c0,.55.36.71,1.74.71,1.22,0,1.74-.11,2-.42a7.6,7.6,0,0,0,.23-2.63,13.39,13.39,0,0,0,3.72,1.07c-.18,3-.42,3.87-1.22,4.6s-2,.94-5.41.94c-2.31,0-3.35-.16-4-.55a1.84,1.84,0,0,1-.86-1.82v-7.33a17.51,17.51,0,0,0-.1-2.29h4.08a13.43,13.43,0,0,0-.1,2.06Z" transform="translate(-28.31 -33.01)"/><path d="M841.43,468.63l.83.86L833,478.77l9.23,9.23-.83.86-9.23-9.16L823,488.86l-.85-.86,9.23-9.23-9.23-9.28.85-.86,9.21,9.23Zm-14.69,10.11a2,2,0,0,1-2,2,2,2,0,0,1-2-2,2,2,0,0,1,4,0Zm7.43,7.59a2,2,0,0,1-2,2,2,2,0,0,1-.18-4,.07.07,0,0,1,.07,0l.06,0,.05-.05A2,2,0,0,1,834.17,486.33Zm0-15.1a2,2,0,0,1-2,2,2,2,0,1,1,0-4A2,2,0,0,1,834.2,471.23Zm7.41,7.54a2,2,0,1,1-2-2A2,2,0,0,1,841.61,478.77Z" transform="translate(-28.31 -33.01)"/><path d="M850.32,489.46c-2.34,0-2.94,0-3.9.1a12.29,12.29,0,0,1,.55-3.07,13.28,13.28,0,0,1,3.74-5.82,36.38,36.38,0,0,1,4.63-3.46c2.23-1.51,2.78-2.19,2.78-3.38s-1.12-2.08-2.78-2.08a3,3,0,0,0-2.71,1.3,4.65,4.65,0,0,0-.65,2.18l-5.46-.57a8.48,8.48,0,0,1,1.9-4.63c1.48-1.74,3.85-2.68,6.89-2.68,3.51,0,6.19,1.17,7.49,3.28a5.61,5.61,0,0,1,.86,3,6,6,0,0,1-2.39,4.84,36.71,36.71,0,0,1-3.77,2.78c-2.27,1.56-3.23,2.47-3.83,3.61h6.06a33,33,0,0,0,4.16-.18v4.92c-1.51-.13-2.6-.18-4.44-.18Z" transform="translate(-28.31 -33.01)"/><path d="M890.31,489.46a21.16,21.16,0,0,0-.63-2.81l-.7-2.21h-7.41l-.7,2.21a14.71,14.71,0,0,0-.65,2.81h-6.09a25.68,25.68,0,0,0,1.25-3.18L881,470.63a15.44,15.44,0,0,0,.83-2.81h6.79a20.15,20.15,0,0,0,.88,2.81l5.64,15.65c.5,1.38.91,2.45,1.25,3.18Zm-5.07-17.19-2.42,7.8h4.89Z" transform="translate(-28.31 -33.01)"/><path d="M898,494.16a33.44,33.44,0,0,0,.21-3.8V477.68a31.27,31.27,0,0,0-.21-4.09h5.12v.89c0,.15,0,.36,0,.49a7.7,7.7,0,0,1,5.33-1.84,7.57,7.57,0,0,1,5.51,2,8.26,8.26,0,0,1,2.08,6.06,8.63,8.63,0,0,1-2.26,6.29,7.5,7.5,0,0,1-5.36,2,9.5,9.5,0,0,1-3.51-.67,6.29,6.29,0,0,1-1.79-1.2c0,.23,0,.57,0,.94v1.79a26.52,26.52,0,0,0,.21,3.77Zm11.8-9.54a4.64,4.64,0,0,0,1.15-3.38c0-2.65-1.4-4.19-3.85-4.19a4.29,4.29,0,0,0,.16,8.56A3.57,3.57,0,0,0,909.75,484.62Z" transform="translate(-28.31 -33.01)"/><path d="M918.05,494.16a33.44,33.44,0,0,0,.21-3.8V477.68a33.12,33.12,0,0,0-.21-4.09h5.12v.89c0,.15,0,.36,0,.49a7.72,7.72,0,0,1,5.33-1.84,7.61,7.61,0,0,1,5.52,2,8.26,8.26,0,0,1,2.08,6.06,8.59,8.59,0,0,1-2.27,6.29,7.46,7.46,0,0,1-5.35,2,9.5,9.5,0,0,1-3.51-.67,6.33,6.33,0,0,1-1.8-1.2c0,.23,0,.57,0,.94v1.79a26.52,26.52,0,0,0,.21,3.77Zm11.8-9.54a4.64,4.64,0,0,0,1.15-3.38c0-2.65-1.41-4.19-3.85-4.19a4.29,4.29,0,0,0,.15,8.56A3.59,3.59,0,0,0,929.85,484.62Z" transform="translate(-28.31 -33.01)"/><path d="M943.58,467.82a25.94,25.94,0,0,0-.21,3.93v13.78a30.48,30.48,0,0,0,.21,3.93h-5.43a27.48,27.48,0,0,0,.2-3.93V471.75a26,26,0,0,0-.2-3.93Z" transform="translate(-28.31 -33.01)"/><path d="M950.42,483A3.27,3.27,0,0,0,954,486.2a3.78,3.78,0,0,0,2.63-1,2.55,2.55,0,0,0,.78-1.32l4.52,1.27a7.46,7.46,0,0,1-1.71,2.68,8.47,8.47,0,0,1-6.14,2.21,8.13,8.13,0,0,1-6-2.21,8.87,8.87,0,0,1-2.37-6.35c0-5.14,3.31-8.55,8.27-8.55a7.47,7.47,0,0,1,7.8,6.08,19.13,19.13,0,0,1,.39,3.41,4.13,4.13,0,0,0,0,.52Zm6.76-3.59a3,3,0,0,0-3.28-2.55,3.14,3.14,0,0,0-3.4,2.55Z" transform="translate(-28.31 -33.01)"/><path d="M977.69,488.26a24.59,24.59,0,0,0,.11,2.75h-4.16a20.54,20.54,0,0,0,.15-2.86v-5.27a17.88,17.88,0,0,1-2.31,1.63,14.73,14.73,0,0,0-1.67-3.9,15.57,15.57,0,0,0,4.06-3,11.35,11.35,0,0,0,2.7-3.61h-3.66a17.2,17.2,0,0,0-2.26.1v-3.85a13.12,13.12,0,0,0,2,.11h1.17v-1.93a11.47,11.47,0,0,0-.16-2h4.14a10.63,10.63,0,0,0-.13,2v1.9h.7a9.57,9.57,0,0,0,1.51-.08l1.69,1.79a8.63,8.63,0,0,0-.6,1.22,21.54,21.54,0,0,1-2.34,4.24,12.63,12.63,0,0,0,4.16,3.12,18.28,18.28,0,0,0-1.95,3.72,11.88,11.88,0,0,1-3.15-2.68Zm11.47-1.82h2.08a28.51,28.51,0,0,0,3.17-.13v4.08c-1.09-.1-2.13-.16-3.15-.16h-8.45c-1,0-2,.06-3,.16v-4.08a29,29,0,0,0,3.12.13h2.16v-9.52H983.7c-.89,0-1.72.05-2.55.13v-4a16.34,16.34,0,0,0,2.55.13h1.35v-3.51a22.75,22.75,0,0,0-.18-3.07h4.44a21.47,21.47,0,0,0-.15,3.07v3.51h2.05a16.38,16.38,0,0,0,2.58-.13v4c-.86-.08-1.67-.13-2.58-.13h-2.05Z" transform="translate(-28.31 -33.01)"/><path d="M1018.17,489.46a19.82,19.82,0,0,0-.62-2.81l-.7-2.21h-7.41l-.7,2.21a14.71,14.71,0,0,0-.65,2.81H1002a25.68,25.68,0,0,0,1.25-3.18l5.62-15.65a16.3,16.3,0,0,0,.83-2.81h6.78a22.06,22.06,0,0,0,.89,2.81l5.64,15.65c.49,1.38.91,2.45,1.25,3.18Zm-5.07-17.19-2.41,7.8h4.88Z" transform="translate(-28.31 -33.01)"/><path d="M1025.82,494.16a33.44,33.44,0,0,0,.21-3.8V477.68a33.12,33.12,0,0,0-.21-4.09h5.12v.89c0,.15,0,.36,0,.49a7.72,7.72,0,0,1,5.33-1.84,7.61,7.61,0,0,1,5.52,2,8.31,8.31,0,0,1,2.08,6.06,8.59,8.59,0,0,1-2.27,6.29,7.46,7.46,0,0,1-5.35,2,9.5,9.5,0,0,1-3.51-.67,6.33,6.33,0,0,1-1.8-1.2c0,.23,0,.57,0,.94v1.79a26.52,26.52,0,0,0,.21,3.77Zm11.8-9.54a4.64,4.64,0,0,0,1.15-3.38c0-2.65-1.41-4.19-3.85-4.19a4.29,4.29,0,0,0,.15,8.56A3.59,3.59,0,0,0,1037.62,484.62Z" transform="translate(-28.31 -33.01)"/><path d="M1045.92,494.16a36.09,36.09,0,0,0,.2-3.8V477.68a33.28,33.28,0,0,0-.2-4.09H1051v.89c0,.15,0,.36,0,.49a7.7,7.7,0,0,1,5.33-1.84,7.57,7.57,0,0,1,5.51,2,8.26,8.26,0,0,1,2.08,6.06,8.63,8.63,0,0,1-2.26,6.29,7.46,7.46,0,0,1-5.35,2,9.46,9.46,0,0,1-3.51-.67,6.33,6.33,0,0,1-1.8-1.2c0,.23,0,.57,0,.94v1.79a26.52,26.52,0,0,0,.21,3.77Zm11.8-9.54a4.64,4.64,0,0,0,1.14-3.38c0-2.65-1.4-4.19-3.84-4.19a4.29,4.29,0,0,0,.15,8.56A3.61,3.61,0,0,0,1057.72,484.62Z" transform="translate(-28.31 -33.01)"/><path d="M1091.44,481.84a22.06,22.06,0,0,0-1.82,2.93,21.14,21.14,0,0,1-5.48-5.48,14,14,0,0,1-5.39,6.29,12.87,12.87,0,0,0-1.87-2.86v5a25,25,0,0,0,.13,3.3h-4.31a26,26,0,0,0,.18-3.43V472.42a23.58,23.58,0,0,0-.11-2.67c1.07.07,1.8.1,3.44.1h5.87V469a13.78,13.78,0,0,0-.16-2.47h4.4a19,19,0,0,0-.16,2.42c0,.29,0,.39,0,.91h6.11c1.77,0,2.42,0,3.33-.1a18.55,18.55,0,0,0-.13,2.73v15.15c0,1.59-.6,2.5-1.88,2.87a12.79,12.79,0,0,1-3.51.31l-2.1,0a11.6,11.6,0,0,0-1.2-4c1.38.13,2.65.23,3.33.23,1.17,0,1.35-.1,1.35-.75Zm-14.56-.21c2.81-1.9,4.16-4.14,4.84-8.09h-4.84Zm8.89-8.09a11.28,11.28,0,0,1-.2,1.38,16.35,16.35,0,0,0,5.87,5.85v-7.23Z" transform="translate(-28.31 -33.01)"/><path d="M1097.94,470.73a11.08,11.08,0,0,0,2.11.13h5.07c1.06,0,1.45,0,2.1-.07v3.45a14.39,14.39,0,0,0-2-.07h-5.12a16,16,0,0,0-2.11.1Zm9.07,18.33a12.87,12.87,0,0,0,.08,1.59h-3.46V490h-1.4V491h-3.69c.08-.8.13-1.71.13-2.52v-4.18a14.26,14.26,0,0,0-.11-1.93,18.28,18.28,0,0,0,2,.05h5a14.14,14.14,0,0,0,1.59-.07,12.25,12.25,0,0,0-.06,1.71v2.65a12.25,12.25,0,0,0,4.06-3.87H1110a21.92,21.92,0,0,0-2.52.1v-3.66a18.81,18.81,0,0,0,2.73.13h2.73v-1h-2.76a18.35,18.35,0,0,0-2.31.11,22.42,22.42,0,0,0,.1-2.42v-6.63a20.85,20.85,0,0,0-.1-2.39c.65.05,1.32.08,2.47.08h9.2c1,0,1.64,0,2.16-.08a19.38,19.38,0,0,0-.1,2.49V476a21.22,21.22,0,0,0,.1,2.52,22.75,22.75,0,0,0-2.55-.11h-2.68v1h3.15a19,19,0,0,0,2.73-.13V483a22.28,22.28,0,0,0-2.52-.1h-1.67a13.08,13.08,0,0,0,4.58,3.74,18.28,18.28,0,0,0-1.92,3.8,21.3,21.3,0,0,1-2.55-2.21,11.55,11.55,0,0,1-1.82-2.31c0,.83,0,.83,0,1.53v1.17a16.1,16.1,0,0,0,.16,2.42h-3.88a15.06,15.06,0,0,0,.13-2.37v-1.14a15,15,0,0,1,0-1.56,14.6,14.6,0,0,1-4.18,4.5,15.62,15.62,0,0,0-1.75-2.63Zm-8.26-22a17.05,17.05,0,0,0,2.31.11h3.56a17.51,17.51,0,0,0,2.32-.11v3.07c-.68-.05-1.28-.08-2.32-.08h-3.56c-1,0-1.66,0-2.31.08Zm0,8a12.89,12.89,0,0,0,1.53.05h5.15a10.31,10.31,0,0,0,1.45-.05v2.94a9.56,9.56,0,0,0-1.45-.06h-5.15a10.75,10.75,0,0,0-1.53.06Zm0,3.69a12.89,12.89,0,0,0,1.53.05h5.12a10.82,10.82,0,0,0,1.48-.05v2.94c-.38,0-.75-.05-1.55-.05h-5.1a12.15,12.15,0,0,0-1.48.05Zm3.38,8.16h1.53v-1.58h-1.53Zm9.23-16.61v1.27H1113v-1.27Zm0,3.95v1.28H1113v-1.28Zm5-2.68h1.71v-1.27h-1.71Zm0,4h1.74v-1.28h-1.74Z" transform="translate(-28.31 -33.01)"/><path d="M1132.5,476.64c-1,0-1.8,0-2.68.1v-1.25a28.7,28.7,0,0,1-4.24,2.08,19.5,19.5,0,0,0-1.95-3.82,21.73,21.73,0,0,0,7-3.54,12.68,12.68,0,0,0,3.3-3.4h4.45a13.63,13.63,0,0,0,3.36,3.33,20.06,20.06,0,0,0,7,3.43,20.23,20.23,0,0,0-1.79,4.08,28.17,28.17,0,0,1-4.5-2.24v1.33a25.5,25.5,0,0,0-2.7-.1h-1.62v1.69H1144a27.21,27.21,0,0,0,3.07-.13V482a23.92,23.92,0,0,0-3.12-.15h-2l3.35,1.17a29,29,0,0,1-2,3.69h1.35a25.61,25.61,0,0,0,3.25-.16v3.91a31.62,31.62,0,0,0-3.35-.16H1128a33.08,33.08,0,0,0-3.53.16v-3.91a31.3,31.3,0,0,0,3.51.16h.8A14.68,14.68,0,0,0,1127,483l3.36-1.12h-1.93a27.7,27.7,0,0,0-3.12.15V478.2a24.55,24.55,0,0,0,3.15.13h5.62v-1.69Zm1.56,5.25h-3.28a22,22,0,0,1,1.87,3.85l-3.25,1h4.66Zm5.14-8.66a16.72,16.72,0,0,1-3-2.94,15.77,15.77,0,0,1-3,2.94Zm3.46,13.52-3.17-1.07a14.09,14.09,0,0,0,1.92-3.79h-3.33v4.86Z" transform="translate(-28.31 -33.01)"/><path d="M1160.39,471.49c-2.26.15-4.34.23-7.72.28a14.9,14.9,0,0,0-1.25-3.61h1.75a81.65,81.65,0,0,0,12.81-.91,18,18,0,0,0,3.59-.88l2.78,3.69a75.8,75.8,0,0,1-7.82,1.12v2.39h4.52a31.47,31.47,0,0,0,3.72-.16v3.95c-1-.07-2.11-.13-3.67-.13h-4.57v2.24h5.87a30.17,30.17,0,0,0,3.64-.16v4a30.74,30.74,0,0,0-3.64-.16h-5.87v4.16c0,1.43-.37,2.26-1.12,2.71a8.22,8.22,0,0,1-3.15.59h-.39l-.62,0c-.68,0-.81,0-2.89-.13a10.27,10.27,0,0,0-1.09-3.85,41.57,41.57,0,0,0,4.16.29c.73,0,1-.19,1-.84v-2.91h-6.52a31,31,0,0,0-3.62.16v-4a30.13,30.13,0,0,0,3.62.16h6.52v-2.24h-5.07c-1.4,0-2.62.06-3.72.13v-3.95a31.24,31.24,0,0,0,3.72.16h5.07Z" transform="translate(-28.31 -33.01)"/><path d="M1200.64,474.24c-.52-.05-.67-.05-1.4-.07a22.32,22.32,0,0,1-2.42,10,12.39,12.39,0,0,0,4.13,3.22,17.79,17.79,0,0,0-2.1,3.87,17.24,17.24,0,0,1-4.4-3.82,17.91,17.91,0,0,1-5.09,3.88,13.62,13.62,0,0,0-1.56-2.5l-1,1.64a20.45,20.45,0,0,0-2.75-1.82,12.75,12.75,0,0,1-6.14,2.68A10.53,10.53,0,0,0,1176,488a11.22,11.22,0,0,0,4.47-1.09,39.43,39.43,0,0,0-3.72-1.43,26.77,26.77,0,0,0,1.67-2.52,13,13,0,0,0-2.29.13v-3.59a13,13,0,0,0,2.21.13h1.69c.21-.49.26-.68.49-1.27l3.85.52a5.77,5.77,0,0,0-.36.75h3.48a13.11,13.11,0,0,0,1.43-.05,9.68,9.68,0,0,0-1.32-1.9,8.08,8.08,0,0,0-.42.88,7.25,7.25,0,0,1-2.32-2.36c0,.31.06.75.06.88v.47a6.91,6.91,0,0,0,0,.81h-3.8a1.21,1.21,0,0,1,0-.29l0-.44v-.42c0-.18,0-.54,0-1a13.15,13.15,0,0,1-3.64,3.28,10.1,10.1,0,0,0-2.06-3,11.52,11.52,0,0,0,3.62-2.32h-.76a18.42,18.42,0,0,0-2.29.11V471a15.94,15.94,0,0,0,2.16.11,13.22,13.22,0,0,0-2-3l3-1.35a17.67,17.67,0,0,1,2,2.7v-1.07a8.74,8.74,0,0,0-.13-1.71h3.9a6.9,6.9,0,0,0-.11,1.69v1.48a14.15,14.15,0,0,0,1.69-3.2l3.2,1.35a31.05,31.05,0,0,1-1.69,3.1c.76,0,1,0,1.33-.05v3a24.4,24.4,0,0,0,1.9-7.56l3.95.75a2.66,2.66,0,0,0-.16.6s0,.21-.1.47a2.47,2.47,0,0,0-.16.62c-.18.75-.23.94-.44,1.69h3.69a14.22,14.22,0,0,0,2.47-.13ZM1181.3,470l-2.39,1.15h2.39Zm1,13c-.23.39-.31.52-.57.93.75.26,1,.34,1.59.58a5.7,5.7,0,0,0,.7-1.51Zm4.92-11.83-2.27-1v1Zm2.31,11.93c-.5,0-.88-.08-1.74-.1a11,11,0,0,1-1.22,2.86,18,18,0,0,1,2.31,1.22,14.13,14.13,0,0,0,3.38-2.81,17.55,17.55,0,0,1-1.72-4.81c-.33.44-.44.55-1,1.2Zm-2.78-8.84a7.13,7.13,0,0,0,2,1.33c.26-.47.41-.73.67-1.28-.34,0-.72-.05-1.48-.05Zm6.55,0c-.13.33-.18.44-.34.78a18.93,18.93,0,0,0,1.51,5.46,19.11,19.11,0,0,0,1-6.24Z" transform="translate(-28.31 -33.01)"/><path d="M1212.65,483.16c-.28.78-.41,1.2-.7,2.16a11.87,11.87,0,0,1-2-2.55c.07,1.12.07,1.2.07,2v3.74a16.54,16.54,0,0,0,.13,2.53h-4.08a17.61,17.61,0,0,0,.16-2.63V486.1c0-.94,0-1.51,0-2.13a14.71,14.71,0,0,1-2.71,4.26,17,17,0,0,0-1.68-3.92,15.82,15.82,0,0,0,3.87-5.7h-1a15.24,15.24,0,0,0-2.44.13v-3.82a13.7,13.7,0,0,0,2.41.13h1.46v-6.16a17.84,17.84,0,0,0-.1-2.32h4a16.25,16.25,0,0,0-.11,2.29v3.77a28.45,28.45,0,0,0,1.33-4.83l2.7,1.3a29.56,29.56,0,0,1-2,5.64l-2-1.2v1.51h1.23a9.73,9.73,0,0,0,2-.13v1.92l2.08-2.28a27.73,27.73,0,0,1,4.42,3.69l-2.39,2.94a28.21,28.21,0,0,0-4.11-3.7v1.25a12.23,12.23,0,0,0-2.13-.13h-.86a13.37,13.37,0,0,0,3,3c-.27.57-.34.76-.53,1.17a17.79,17.79,0,0,0,2.37-.31l5-1v-9.26l-2,2.5a27.2,27.2,0,0,0-4.44-3.85l2.47-2.73a26.81,26.81,0,0,1,4,3.17v-1.37a20.94,20.94,0,0,0-.16-3.28h4.29a21.22,21.22,0,0,0-.15,3.28v10.73a17.49,17.49,0,0,0,2.1-.57l.26,4.06c-.59.08-1.27.18-2.36.41v3.25a21.89,21.89,0,0,0,.15,3.31h-4.29a21.91,21.91,0,0,0,.16-3.33v-2.42l-4.65,1a23.09,23.09,0,0,0-2.53.6Zm-7.9-15.39a37.45,37.45,0,0,1,1.46,5.56l-2.68,1.36a26.12,26.12,0,0,0-1.41-5.54Z" transform="translate(-28.31 -33.01)"/><path d="M1237.35,467.64a16.64,16.64,0,0,0,3.12.18h3.31a26.8,26.8,0,0,0,3.22-.1,40.39,40.39,0,0,0-.18,4.18v13.63a29.51,29.51,0,0,0,.21,3.93h-5.67a31,31,0,0,0,.21-3.93V472.27h-1a27.61,27.61,0,0,0-3.18.18Z" transform="translate(-28.31 -33.01)"/><path d="M1260.86,475.13c0,.13,0,.39-.08.83a6.78,6.78,0,0,1,4.21-1.25,7.57,7.57,0,0,1,5.59,2.13,7.05,7.05,0,0,1,2,5.2c0,5-3.28,8-8.79,8-3.27,0-5.85-1.12-7.36-3.2a8.32,8.32,0,0,1-1.3-2.91l5.23-.81a3.1,3.1,0,0,0,3.41,2.53,3.36,3.36,0,0,0,3.64-3.46,3.29,3.29,0,0,0-3.59-3.43,3.24,3.24,0,0,0-3.28,1.92l-4.83-.47c.1-.78.18-1.4.26-2.13l.7-8.11c.05-.55.08-1.17.1-2.16,1.09.05,1.35.05,2.6.05h7.78a32.26,32.26,0,0,0,4.29-.18v4.55a42.28,42.28,0,0,0-4.24-.18h-6Z" transform="translate(-28.31 -33.01)"/><path d="M1276.25,478.07a7.49,7.49,0,0,1,0-9.18,5.68,5.68,0,0,1,4-1.48,5.56,5.56,0,0,1,4,1.48,7.52,7.52,0,0,1,0,9.2,6.2,6.2,0,0,1-8.06,0Zm18.25-10.92,1.38,1-17,22-1.36-1Zm-16.2,6.31c0,2.19.68,3.33,2,3.33s2-1.12,2-3.33-.68-3.25-2-3.25S1278.3,471.33,1278.3,473.46Zm10.82,14.93a7.49,7.49,0,0,1,0-9.18,5.7,5.7,0,0,1,4.06-1.48c3.54,0,5.59,2.23,5.59,6.06a6.33,6.33,0,0,1-1.58,4.63,6.22,6.22,0,0,1-8.09,0Zm2.05-4.66c0,2.24.68,3.38,2,3.38s2-1.11,2-3.38c0-2.1-.68-3.19-2-3.19S1291.17,481.63,1291.17,483.73Z" transform="translate(-28.31 -33.01)"/><path d="M841.43,514.13l.83.86L833,524.27l9.23,9.23-.83.86-9.23-9.16L823,534.36l-.85-.86,9.23-9.23L822.14,515l.85-.86,9.21,9.23Zm-14.69,10.11a2,2,0,0,1-2,2,2,2,0,0,1-2-2,2,2,0,0,1,4,0Zm7.43,7.59a2,2,0,0,1-2,2,2,2,0,0,1-.18-4,.07.07,0,0,1,.07,0l.06,0,.05,0A2,2,0,0,1,834.17,531.83Zm0-15.1a2,2,0,0,1-2,2,2,2,0,1,1,0-4A2,2,0,0,1,834.2,516.73Zm7.41,7.54a2,2,0,1,1-2-2A2,2,0,0,1,841.61,524.27Z" transform="translate(-28.31 -33.01)"/><path d="M851.62,528.35a2.74,2.74,0,0,0,.73,1.66,4,4,0,0,0,3,1.12c2,0,3.3-1,3.3-2.6a2.25,2.25,0,0,0-1.4-2.23,7.46,7.46,0,0,0-2.42-.34c-1,0-2.19,0-3.2.15v-4.47a21.6,21.6,0,0,0,2.76.16c2.47,0,3.69-.83,3.69-2.5,0-1.4-1-2.21-2.71-2.21s-2.78.73-3.17,2.39l-5.61-.8a7.45,7.45,0,0,1,1.74-3.3c1.58-1.72,4-2.6,7.15-2.6a9.45,9.45,0,0,1,6.65,2.21,5,5,0,0,1,1.46,3.69c0,2.75-1.48,4.47-4.47,5.17a5.9,5.9,0,0,1,3.35,1.38,5.14,5.14,0,0,1,1.72,3.85,5.86,5.86,0,0,1-1,3.46,6.53,6.53,0,0,1-2.45,2,14.05,14.05,0,0,1-5.4,1,11.7,11.7,0,0,1-6.06-1.46,7,7,0,0,1-2.68-3.35,8.73,8.73,0,0,1-.44-1.38Z" transform="translate(-28.31 -33.01)"/><path d="M885,514.86a21.33,21.33,0,0,0-.16-2.81h4.35a19.07,19.07,0,0,0-.16,2.81v6.29h4.6l-3-1.74a26.48,26.48,0,0,0,3.56-6.43l3.83,1.75a50.29,50.29,0,0,1-3.77,6.42h1.35a16.15,16.15,0,0,0,2.1-.11,21.54,21.54,0,0,0-.1,2.34v10a24.1,24.1,0,0,0,.16,3.27h-4.16v-1.17H879.33a25.77,25.77,0,0,0-3.22.16v-3.9a23.39,23.39,0,0,0,3,.13h14.54V530H879.75c-1.33,0-2,0-2.68.08v-3.64a20,20,0,0,0,2.63.11h14v-1.72H879.26c-1.25,0-2.06,0-2.94.1v-4a23.79,23.79,0,0,0,2.94.16h.65a31.1,31.1,0,0,0-3.88-6.24l3.46-1.93a36.44,36.44,0,0,1,4.08,6.4l-3.35,1.77H885Z" transform="translate(-28.31 -33.01)"/><path d="M908.33,533.76a25,25,0,0,0,.1,2.75h-4.16a20.54,20.54,0,0,0,.15-2.86v-5.27a17.88,17.88,0,0,1-2.31,1.63,15.06,15.06,0,0,0-1.66-3.9,15.69,15.69,0,0,0,4-3,11.54,11.54,0,0,0,2.71-3.61h-3.67a17.29,17.29,0,0,0-2.26.1v-3.85a13.2,13.2,0,0,0,2,.11h1.17V514a11.47,11.47,0,0,0-.16-2h4.14a11.54,11.54,0,0,0-.13,2v1.9h.7a9.39,9.39,0,0,0,1.51-.08l1.69,1.79a8.63,8.63,0,0,0-.6,1.22,20.56,20.56,0,0,1-2.34,4.24,12.73,12.73,0,0,0,4.16,3.12,18.28,18.28,0,0,0-1.95,3.72,12,12,0,0,1-3.14-2.68Zm11.46-1.82h2.08a28.28,28.28,0,0,0,3.17-.13v4.08c-1.09-.1-2.13-.16-3.14-.16h-8.45c-1,0-2.06.06-3,.16v-4.08a28.91,28.91,0,0,0,3.12.13h2.15v-9.52h-1.35c-.88,0-1.71.05-2.55.13v-4a16.41,16.41,0,0,0,2.55.13h1.35v-3.51a22.75,22.75,0,0,0-.18-3.07H920a21.32,21.32,0,0,0-.16,3.07v3.51h2.06a16.32,16.32,0,0,0,2.57-.13v4c-.86-.08-1.66-.13-2.57-.13h-2.06Z" transform="translate(-28.31 -33.01)"/><path d="M937.21,517c-2.26.15-4.34.23-7.72.28a14.9,14.9,0,0,0-1.25-3.61H930a81.79,81.79,0,0,0,12.82-.91,18.13,18.13,0,0,0,3.59-.88l2.78,3.69a75.8,75.8,0,0,1-7.82,1.12v2.39h4.52a31.47,31.47,0,0,0,3.72-.16v4c-1-.07-2.11-.13-3.67-.13h-4.57V525h5.87a30.17,30.17,0,0,0,3.64-.16v4a30.85,30.85,0,0,0-3.64-.16h-5.87v4.16c0,1.43-.37,2.26-1.12,2.71a8.22,8.22,0,0,1-3.15.59h-.39l-.62,0c-.68,0-.81,0-2.89-.13a10.46,10.46,0,0,0-1.09-3.85,41.38,41.38,0,0,0,4.16.29c.73,0,1-.19,1-.84v-2.91h-6.53a31,31,0,0,0-3.61.16v-4a30.05,30.05,0,0,0,3.61.16h6.53v-2.24h-5.07c-1.4,0-2.63.06-3.72.13v-4a31.13,31.13,0,0,0,3.72.16h5.07Z" transform="translate(-28.31 -33.01)"/><path d="M977.46,519.74c-.52,0-.68,0-1.4-.07a22.32,22.32,0,0,1-2.42,10,12.29,12.29,0,0,0,4.13,3.22,17.79,17.79,0,0,0-2.1,3.87,17.24,17.24,0,0,1-4.4-3.82,17.91,17.91,0,0,1-5.09,3.88,13.62,13.62,0,0,0-1.56-2.5l-1,1.64a19.93,19.93,0,0,0-2.76-1.82,12.71,12.71,0,0,1-6.13,2.68,10.53,10.53,0,0,0-1.87-3.36,11.27,11.27,0,0,0,4.47-1.09c-1.33-.57-1.95-.83-3.72-1.43a24.55,24.55,0,0,0,1.66-2.52,13,13,0,0,0-2.28.13V525a13,13,0,0,0,2.21.13h1.69c.21-.49.26-.68.49-1.27l3.85.52a7.47,7.47,0,0,0-.37.75h3.49a13.2,13.2,0,0,0,1.43-.05,9.71,9.71,0,0,0-1.33-1.9c-.18.34-.23.47-.41.88a7.25,7.25,0,0,1-2.32-2.36c0,.31,0,.75,0,.88V523a6.84,6.84,0,0,0,.06.81H958a1.21,1.21,0,0,1,0-.29l0-.44v-.42c0-.18,0-.54.06-1a13.18,13.18,0,0,1-3.65,3.28,9.89,9.89,0,0,0-2.05-3,11.52,11.52,0,0,0,3.62-2.32h-.76a18.32,18.32,0,0,0-2.29.11v-3.31a15.84,15.84,0,0,0,2.16.11,13.22,13.22,0,0,0-2-3l3-1.35a17.67,17.67,0,0,1,2,2.7v-1.07a9.61,9.61,0,0,0-.13-1.71h3.89a7.58,7.58,0,0,0-.1,1.69v1.48a14.15,14.15,0,0,0,1.69-3.2l3.2,1.35a33.23,33.23,0,0,1-1.69,3.1c.75,0,1,0,1.33-.05v3A24.65,24.65,0,0,0,968.2,512l4,.75a2.66,2.66,0,0,0-.16.6s0,.21-.1.47a2.09,2.09,0,0,0-.16.62c-.18.75-.23.94-.44,1.69H975a14.29,14.29,0,0,0,2.47-.13Zm-19.34-4.29-2.4,1.15h2.4Zm1,13c-.23.39-.31.52-.57.93.75.26,1,.34,1.58.58a5.14,5.14,0,0,0,.7-1.51ZM964,516.6l-2.26-1v1Zm2.32,11.93c-.5,0-.89-.08-1.74-.1a10.68,10.68,0,0,1-1.23,2.86,17.41,17.41,0,0,1,2.32,1.22,14.33,14.33,0,0,0,3.38-2.81,17.55,17.55,0,0,1-1.72-4.81c-.34.44-.44.55-1,1.2Zm-2.78-8.84a7,7,0,0,0,1.95,1.33c.26-.47.41-.73.67-1.28-.34,0-.73,0-1.48,0Zm6.55,0c-.13.33-.18.44-.34.78a18.93,18.93,0,0,0,1.51,5.46,19.65,19.65,0,0,0,1-6.24Z" transform="translate(-28.31 -33.01)"/><path d="M989.47,528.66c-.28.78-.41,1.2-.7,2.16a11.9,11.9,0,0,1-2-2.55,19.86,19.86,0,0,1,.08,2V534a16.54,16.54,0,0,0,.13,2.53h-4.08a19.06,19.06,0,0,0,.16-2.63V531.6c0-.94,0-1.51,0-2.13a14.93,14.93,0,0,1-2.71,4.26,16.64,16.64,0,0,0-1.69-3.92,15.84,15.84,0,0,0,3.88-5.7h-1a15.46,15.46,0,0,0-2.45.13v-3.82a13.84,13.84,0,0,0,2.42.13h1.46v-6.16a19.84,19.84,0,0,0-.1-2.32h4a16.25,16.25,0,0,0-.11,2.29v3.77a28.45,28.45,0,0,0,1.33-4.83l2.7,1.3a28.85,28.85,0,0,1-2,5.64l-2-1.2v1.51h1.22a9.78,9.78,0,0,0,2-.13v1.92l2.08-2.28a27.73,27.73,0,0,1,4.42,3.69l-2.39,2.94a28.73,28.73,0,0,0-4.11-3.7v1.25a12.3,12.3,0,0,0-2.13-.13h-.86a13.51,13.51,0,0,0,3,3c-.26.57-.34.76-.52,1.17A17.79,17.79,0,0,0,992,528l5-1v-9.26l-2,2.5a26.88,26.88,0,0,0-4.45-3.85l2.47-2.73a26.46,26.46,0,0,1,4,3.17v-1.37a20.94,20.94,0,0,0-.16-3.28h4.29a21.22,21.22,0,0,0-.15,3.28v10.73a17.49,17.49,0,0,0,2.1-.57l.26,4.06c-.6.08-1.27.18-2.36.41v3.25a21.89,21.89,0,0,0,.15,3.31h-4.29a21.91,21.91,0,0,0,.16-3.33v-2.42l-4.66,1a23.33,23.33,0,0,0-2.52.6Zm-7.9-15.39a36.15,36.15,0,0,1,1.45,5.56l-2.68,1.36a25.56,25.56,0,0,0-1.4-5.54Z" transform="translate(-28.31 -33.01)"/><path d="M1015.58,535c-2.34,0-2.94,0-3.91.1a12.86,12.86,0,0,1,4.29-8.89,36.38,36.38,0,0,1,4.63-3.46c2.24-1.51,2.79-2.19,2.79-3.38s-1.12-2.08-2.79-2.08a2.93,2.93,0,0,0-2.7,1.3,4.65,4.65,0,0,0-.65,2.18l-5.46-.57a8.48,8.48,0,0,1,1.9-4.63c1.48-1.74,3.85-2.68,6.89-2.68,3.51,0,6.19,1.17,7.49,3.28a5.6,5.6,0,0,1,.85,3,6,6,0,0,1-2.39,4.84,36.71,36.71,0,0,1-3.77,2.78c-2.26,1.56-3.22,2.47-3.82,3.61H1025a33.07,33.07,0,0,0,4.16-.18v4.92c-1.51-.13-2.6-.18-4.45-.18Z" transform="translate(-28.31 -33.01)"/><path d="M1037.67,520.63c0,.13,0,.39-.07.83a6.78,6.78,0,0,1,4.21-1.25,7.57,7.57,0,0,1,5.59,2.13,7.05,7.05,0,0,1,1.95,5.2c0,5-3.28,8-8.79,8-3.27,0-5.85-1.12-7.36-3.2a8.14,8.14,0,0,1-1.3-2.91l5.23-.81a3.1,3.1,0,0,0,3.41,2.53,3.35,3.35,0,0,0,3.63-3.46,3.29,3.29,0,0,0-3.58-3.43,3.24,3.24,0,0,0-3.28,1.92l-4.84-.47c.11-.78.19-1.4.26-2.13l.71-8.11c0-.55.07-1.17.1-2.16,1.09.05,1.35.05,2.6.05h7.78a32.26,32.26,0,0,0,4.29-.18v4.55a42.28,42.28,0,0,0-4.24-.18h-6Z" transform="translate(-28.31 -33.01)"/><path d="M1053.07,523.57a7.49,7.49,0,0,1,0-9.18,5.66,5.66,0,0,1,4-1.48,5.56,5.56,0,0,1,4,1.48,7.52,7.52,0,0,1,0,9.2,6.2,6.2,0,0,1-8.06,0Zm18.25-10.92,1.38,1-17,22-1.35-1Zm-16.2,6.31c0,2.19.68,3.33,2,3.33s2-1.12,2-3.33-.68-3.25-2-3.25S1055.12,516.83,1055.12,519Zm10.82,14.93a7.49,7.49,0,0,1,0-9.18,5.68,5.68,0,0,1,4.06-1.48c3.53,0,5.59,2.23,5.59,6.06a6.33,6.33,0,0,1-1.59,4.63,6.21,6.21,0,0,1-8.08,0Zm2-4.66c0,2.24.68,3.38,2,3.38s2-1.11,2-3.38c0-2.1-.68-3.19-2-3.19S1068,527.13,1068,529.23Z" transform="translate(-28.31 -33.01)"/><line class="cls-4" x1="907.69" y1="339.99" x2="1190.69" y2="339.99"/><line class="cls-4" x1="907.19" y1="351.49" x2="1190.19" y2="351.49"/><line class="cls-4" x1="1078.86" y1="702.01" x2="1196.97" y2="702.01"/><line class="cls-4" x1="1078.19" y1="713.49" x2="1197.19" y2="713.49"/></svg>