<svg xmlns="http://www.w3.org/2000/svg" xmlns:xlink="http://www.w3.org/1999/xlink" width="900" height="900" viewBox="0 0 900 900">
  <defs>
    <style>
      .cls-1 {
        clip-path: url(#clip-Wista-logoicon);
      }

      .cls-2 {
        fill: none;
      }

      .cls-3 {
        fill: #ee6b4c;
      }

      .cls-4, .cls-6, .cls-7 {
        fill: #fff;
      }

      .cls-4, .cls-6 {
        stroke: #fff;
      }

      .cls-4, .cls-5 {
        stroke-linejoin: round;
      }

      .cls-4 {
        stroke-width: 15px;
      }

      .cls-5 {
        fill: #7e4cef;
        stroke: #7e4cef;
        stroke-width: 30px;
      }

      .cls-6 {
        stroke-width: 8px;
      }
    </style>
    <clipPath id="clip-Wista-logoicon">
      <rect width="900" height="900"/>
    </clipPath>
  </defs>
  <g id="Wista-logoicon" class="cls-1">
    <rect class="cls-7" width="900" height="900"/>
    <g id="グループ_5" data-name="グループ 5" transform="translate(-759 -549)">
      <rect id="長方形_5" data-name="長方形 5" class="cls-2" width="900" height="900" transform="translate(759 549)"/>
      <rect id="長方形_6" data-name="長方形 6" class="cls-3" width="580" height="580" rx="100" transform="translate(919 708)"/>
      <path id="合体_3" data-name="合体 3" class="cls-4" d="M0,280.435,112.175,140.218H729.13L841.3,280.435ZM112.175,140.218,0,0H841.3L729.13,140.218Z" transform="translate(788.348 858.782)"/>
      <path id="合体_5" data-name="合体 5" class="cls-4" d="M0,280.435,112.175,140.218H729.13L841.3,280.435ZM112.175,140.218,0,0H841.3L729.13,140.218Z" transform="translate(1349.218 578.347) rotate(90)"/>
      <path id="合体_1" data-name="合体 1" class="cls-5" d="M0,202.646,89.947,101.323h494.7L674.6,202.646ZM89.947,101.323,0,0H674.6L584.65,101.323Z" transform="translate(873.992 896.301)"/>
      <path id="合体_2" data-name="合体 2" class="cls-5" d="M0,202.646,89.947,101.323h494.7L674.6,202.646ZM89.947,101.323,0,0H674.6L584.65,101.323Z" transform="translate(1310.823 661.5) rotate(90)"/>
      <path id="star" class="cls-6" d="M287.543,106.271q0,3.8-4.5,8.291l-62.724,61.175,14.864,86.4a25.679,25.679,0,0,1,.176,3.459,10.191,10.191,0,0,1-1.813,6.134,6.107,6.107,0,0,1-5.28,2.508,13.95,13.95,0,0,1-6.909-2.077l-77.589-40.783L66.183,272.159a14.663,14.663,0,0,1-6.909,2.077,6.274,6.274,0,0,1-5.439-2.508,10.23,10.23,0,0,1-1.821-6.134,28.243,28.243,0,0,1,.343-3.459l14.864-86.4L4.321,114.57Q0,109.905,0,106.271q0-6.39,9.681-7.947l86.75-12.612L135.305,7.085Q138.588,0,143.771,0t8.467,7.085L191.12,85.712l86.75,12.612q9.681,1.558,9.681,7.947Z" transform="translate(1067.515 845.018)"/>
    </g>
  </g>
</svg>
