<svg id="レイヤー_1" data-name="レイヤー 1" xmlns="http://www.w3.org/2000/svg" viewBox="0 0 256 256"><defs><style>.cls-1{fill:#fff;}</style></defs><g id="Logo"><path id="white_background" data-name="white background" class="cls-1" d="M229.76,79.34c.15,2.23.15,4.46.15,6.71,0,68.52-52.82,147.55-149.41,147.55v0A150,150,0,0,1,0,210.31a106.42,106.42,0,0,0,77.72-21.49,52.5,52.5,0,0,1-49.06-36,52.91,52.91,0,0,0,23.71-.9,52,52,0,0,1-42.13-50.83v-.66a52.57,52.57,0,0,0,23.84,6.49A51.53,51.53,0,0,1,17.82,37.67,149.72,149.72,0,0,0,126.05,91.85a51.48,51.48,0,0,1,15.2-49.55,53,53,0,0,1,74.29,2.25A106.11,106.11,0,0,0,248.89,32a52.18,52.18,0,0,1-23.08,28.68A105.3,105.3,0,0,0,256,52.48,106,106,0,0,1,229.76,79.34Z"/></g></svg>