<svg id="レイヤー_1" data-name="レイヤー 1" xmlns="http://www.w3.org/2000/svg" viewBox="0 0 555.33 716.66"><defs><style>.cls-1{fill:#010101;}.cls-2{fill:#fff;}.cls-3{fill:#ee6b4c;}</style></defs><path class="cls-1" d="M808,168a17.44,17.44,0,1,0-17.43-17.44A17.43,17.43,0,0,0,808,168Z" transform="translate(-752.39 -38.56)"/><path class="cls-1" d="M846.43,175.86a13,13,0,1,0-13-13A13,13,0,0,0,846.43,175.86Z" transform="translate(-752.39 -38.56)"/><path class="cls-1" d="M846.58,178.85A19,19,0,0,0,835,182.48a18,18,0,0,1,1.25,3.66l.12.55V215h12.25a15,15,0,0,0,15-15v-9.8C862.71,186,857.33,178.85,846.58,178.85Z" transform="translate(-752.39 -38.56)"/><path class="cls-1" d="M769.57,149.87a13,13,0,1,0,13,13A13,13,0,0,0,769.57,149.87Z" transform="translate(-752.39 -38.56)"/><path class="cls-1" d="M752.39,190.21V200a15,15,0,0,0,15,15h12.25V186.69l.12-.55a18,18,0,0,1,1.25-3.66,19,19,0,0,0-11.59-3.63C758.67,178.85,753.29,186,752.39,190.21Z" transform="translate(-752.39 -38.56)"/><path class="cls-1" d="M808,172c-14.43,0-21.64,9.62-22.85,15.23v25.08a8.18,8.18,0,0,0,8.18,8.18h29.34a8.17,8.17,0,0,0,8.17-8.18V187.27C829.64,181.66,822.43,172,808,172Z" transform="translate(-752.39 -38.56)"/><circle class="cls-2" cx="95.13" cy="185.41" r="24.32"/><circle cx="95.88" cy="185.41" r="21.33"/><path class="cls-2" d="M850.33,234.83h-3.86V225.5h-9.33v-3.87h9.33V212.3h3.86v9.33h9.34v3.87h-9.34Z" transform="translate(-752.39 -38.56)"/><path d="M763.93,407.43a5.65,5.65,0,0,1,1.55-1.88l0-.06,0,.05a4.17,4.17,0,0,1,2.33-1.07l35.69-4.73c3.22-.43,6.92,2.37,8.25,6.22l26.61,77.1a7.52,7.52,0,0,1,.25,4.41c-.11,3.68-2.88,6.52-5.6,6.88l-1.4.19-7.84,1-21.29,2.82c-3.68.49-7.27,1.51-10.43-1.18-3.5-3-5-7.89-7.17-14.38-8-24.35-13.6-41.56-21.94-65.71a12.36,12.36,0,0,1-.94-4.27h0A10.07,10.07,0,0,1,763.93,407.43Zm48.64,77.16a4.18,4.18,0,0,0,4,2.85c1.55-.2,2.28-1.79,1.63-3.56a4.14,4.14,0,0,0-4-2.84C812.68,481.23,811.93,482.83,812.57,484.59Zm-19.94-7.8,36-4.76L806.8,409l-35.94,4.76Z" transform="translate(-752.39 -38.56)"/><path d="M852.6,399.85l2.7-3.54a57.56,57.56,0,0,1,11.9,24.09,67,67,0,0,1,.56,28.26l-3.82-1.16a60.89,60.89,0,0,0-.51-25.71A52.61,52.61,0,0,0,852.6,399.85Z" transform="translate(-752.39 -38.56)"/><path d="M853,425.61a49.67,49.67,0,0,1,.41,20.82l-3.82-1.16a43.4,43.4,0,0,0-.37-18.27,37.27,37.27,0,0,0-7.69-15.59l2.7-3.55A42.5,42.5,0,0,1,853,425.61Z" transform="translate(-752.39 -38.56)"/><path d="M835,432.21a22.08,22.08,0,0,0-4.58-9.24l2.71-3.54a27.42,27.42,0,0,1,5.64,11.39,31.76,31.76,0,0,1,.25,13.36L835.22,443A25.69,25.69,0,0,0,835,432.21Z" transform="translate(-752.39 -38.56)"/><path class="cls-3" d="M786.39,92.1h14.54V54.93h-12.6V44.82c7.35-1.48,12.14-3.32,16.92-6.26h12V92.1h12.33v13.25H786.39Z" transform="translate(-752.39 -38.56)"/><path class="cls-3" d="M782.82,354c16.56-15.46,28.61-26.87,28.61-36.25,0-6.35-3.41-9.66-8.93-9.66-4.69,0-8.27,3.31-11.59,6.63L782,305.86c6.72-7.08,13-10.58,22.72-10.58,13.25,0,22.45,8.47,22.45,21.53,0,11.13-10.4,23-20.7,33.67a97,97,0,0,1,11.22-.92h12.61v13.8H782.82Z" transform="translate(-752.39 -38.56)"/><path class="cls-3" d="M922.47,61.4c-2.78,4.58-8,11.39-12.87,14.93l-6.81-5.45c4-2.56,7.8-6.7,9-9H884.85a65.88,65.88,0,0,0-6.92.43v-9.1a48.28,48.28,0,0,0,6.92.6h28.3a37.26,37.26,0,0,0,6.54-.55l5.23,4.85C924.27,58.94,923,60.52,922.47,61.4ZM887.36,98.69l-7.69-6.27a21.2,21.2,0,0,0,6.22-3.33c6.05-4.58,7.41-9.21,7.41-18.1a31.68,31.68,0,0,0-.43-5.45h9.59C902.46,78.35,902.74,90.13,887.36,98.69Z" transform="translate(-752.39 -38.56)"/><path class="cls-3" d="M956.05,55.94c0,1.53-.11,3.06-.22,4.47h8.72a27.23,27.23,0,0,0,4.53-.43l5.62,2.72a24.28,24.28,0,0,0-.39,3c-.22,6.27-.92,21.16-3.21,26.88-1.2,3-3.49,4.69-7.64,4.69-3.38,0-6.65-.27-9.21-.49l-1-8.83a42.85,42.85,0,0,0,7.42.81,2.68,2.68,0,0,0,3-2c1.31-3,2.07-12.49,2.07-18.43H955.07c-2,13.79-6.93,22.46-17,29.71l-7.69-6.21a34.62,34.62,0,0,0,8.07-6c4.74-4.91,7-10.58,8-17.45h-6.16c-1.69,0-5.18.05-7.68.27V60c2.5.27,5.61.43,7.68.43h6.82c0-1.36,0-2.83,0-4.3a46.88,46.88,0,0,0-.43-5.29h9.7C956.27,52.13,956.1,54.64,956.05,55.94Z" transform="translate(-752.39 -38.56)"/><path class="cls-3" d="M1012.91,55.56v3.65h8a14.82,14.82,0,0,0,5-.65l5.72,3.49a46.18,46.18,0,0,0-1.2,4.91,50.73,50.73,0,0,1-5,14.94c-4.47,8.55-13.08,14.44-22.62,16.9l-6.87-8a48,48,0,0,0,8.88-2.51,26.34,26.34,0,0,0,11-8.34c2.61-3.66,3.87-8,4.63-13H995.3v7a37.59,37.59,0,0,0,.22,4.47h-9.11c.16-1.58.27-3.49.27-5.18V63.9a38.61,38.61,0,0,0-.27-5,50,50,0,0,0,5.83.27h11.4V55.56a29.52,29.52,0,0,0-.49-5.56h10.19A41.27,41.27,0,0,0,1012.91,55.56Z" transform="translate(-752.39 -38.56)"/><path class="cls-3" d="M1061.59,82.28c9.81-5.67,17.17-14.12,20.82-21.81l5.13,9.32c-4.36,7.74-12.1,15.32-21.21,20.66a58,58,0,0,1-19.52,7.2l-5.61-8.72A56.31,56.31,0,0,0,1061.59,82.28Zm1.85-17.83-6.76,6.92A114.18,114.18,0,0,0,1043,59.43l6.27-6.7A109.73,109.73,0,0,1,1063.44,64.45Z" transform="translate(-752.39 -38.56)"/><path class="cls-3" d="M1106.61,58.45a37.86,37.86,0,0,0-.65-7.09h10.3a67.15,67.15,0,0,0-.54,7.09v7.47a181.83,181.83,0,0,1,22.52,8.23l-3.77,9.22a168.11,168.11,0,0,0-18.75-7.8v14c0,1.47.33,5.78.6,8.23H1106a61.31,61.31,0,0,0,.65-8.23Z" transform="translate(-752.39 -38.56)"/><path class="cls-3" d="M1170.83,55.89a124.84,124.84,0,0,0,14.67-1.53l-.06,7.64c-5.07.65-11.77,1.14-17.55,1.36a40.81,40.81,0,0,1-2.13,3.87,26.33,26.33,0,0,1,5.4-.55c3.22,0,5.83,1.31,7.25,3.82,2.18-1,4-1.74,5.89-2.62,2.4-1,4.63-2.07,7-3.21l3.21,7.63c-1.9.54-5.34,1.8-7.41,2.62s-4.74,1.85-7.63,3.1c0,3,.16,6.66.22,9.11h-7.86c.11-1.42.22-3.44.28-5.51-3.44,2-4.91,3.82-4.91,6s1.69,3.22,6.82,3.22a82.56,82.56,0,0,0,15.86-1.69l-.27,8.5a133.45,133.45,0,0,1-15.76,1c-8.94,0-15.37-2.34-15.37-9.59s6.48-11.67,12.54-14.83a4,4,0,0,0-3-1.15c-2.78,0-6.16,1.8-8,3.66a61.5,61.5,0,0,0-5.07,6.16l-7-5.29c5.12-4.58,9-9,11.67-14.07-2.24,0-6.22-.11-9.11-.38V55.51a72.85,72.85,0,0,0,9.82.65h2.12a34.55,34.55,0,0,0,.93-5.94l8.72.71C1171.81,52.13,1171.43,53.82,1170.83,55.89Z" transform="translate(-752.39 -38.56)"/><path class="cls-3" d="M1242.79,87.46h-4.14l1.36.27c-1,2-1.85,3.71-2.61,5.07h12.7v6.43h-46.89V92.8h12.27a25.77,25.77,0,0,0-2.13-4.74l2.4-.6h-5.56V72.74a57.59,57.59,0,0,1-5.56,3.16,29.84,29.84,0,0,0-4.74-5.73,36.76,36.76,0,0,0,8.17-4.85,39.77,39.77,0,0,0-5-3.92L1207.3,57a33.74,33.74,0,0,1,5.56,3.82,33.45,33.45,0,0,0,3.22-4.14h-9.76V50.38H1220l1.31-.32,5.18,2.61a40.14,40.14,0,0,1-5.46,10h11.67a56.3,56.3,0,0,1-6.6-11.94l6.82-2.07a32.58,32.58,0,0,0,2.4,4.8,50.52,50.52,0,0,0,4.52-4.48l6,4.2c-2.29,1.86-4.75,3.71-7,5.18.6.71,1.2,1.37,1.85,2a49.94,49.94,0,0,0,5.35-5.07l5.77,4c-2,1.75-4.3,3.55-6.37,5a32.68,32.68,0,0,0,7.74,4.14,29.19,29.19,0,0,0-5.29,6.6,40,40,0,0,1-5-2.78Zm-26.28-19.79a45,45,0,0,1-4.63,3.87h29.77a40.64,40.64,0,0,1-5-4.2v1.85h-20.18Zm1.37,10.08v3.49h16.73V77.75Zm11.83,14.78a40.1,40.1,0,0,0,2.23-5.07h-10.52a19.21,19.21,0,0,1,2.07,4.79l-2,.55H1231Z" transform="translate(-752.39 -38.56)"/><path class="cls-3" d="M1298.18,81.84a23.41,23.41,0,0,0,9.54,9.32,30.06,30.06,0,0,0-5.07,6.49,25.21,25.21,0,0,1-7.63-8.72v4c0,3.11-.39,5-2.29,6.05s-4.15,1.2-7.15,1.2a26.16,26.16,0,0,0-1.79-6.76c1.2.06,2.72.06,3.21.06s.71-.17.71-.71V90.24c-2.89,2.18-6,4.47-8.89,6.32l-2.34-4.09.27,3c-6.65,1.36-13.85,2.78-19.41,3.87l-1.47-7.14c2.13-.27,4.74-.71,7.53-1.15V78.19h-6.87V71.54h6.87v-3H1259v-2.4l-.27.28a22.38,22.38,0,0,0-4.69-5.18,33.19,33.19,0,0,0,9-12.87h6.32c3.16,2.62,7.2,6.38,9.16,9.21l-3.65,4.42h.54v6.54h-5.28v3h6.27v6.65h-6.27v9.1a60.23,60.23,0,0,0,1.58-8l5.56,1.31c-1,3-1.86,6.16-2.56,8.29l-4.58-1.2V90l6-1,0,.71c2.67-1.48,6.22-3.66,9.71-5.84l1.74,4.31V72.68H1277V66h18.1V64.34h-14.34V58.4h14.34V56.49h-15.6V50.06h22.9V66h3.82v6.65H1295v2.07a34.15,34.15,0,0,0,1.74,4.47,43.77,43.77,0,0,0,4.25-5.94l6.16,3.76c-2.29,2.4-4.58,4.86-6.43,6.49Zm-36.58-2.13a64.75,64.75,0,0,1,1.8,9l-5.18,1.42a54.35,54.35,0,0,0-1.53-9.16Zm10.85-17.66a50.16,50.16,0,0,0-5.18-6.27,50.13,50.13,0,0,1-4.37,6.27Zm9.43,22.3a26.82,26.82,0,0,0-5.07-7l5.12-3.33a26,26,0,0,1,5.45,6.71Z" transform="translate(-752.39 -38.56)"/><path class="cls-3" d="M960.74,318.81c-2.78,4.58-8,11.4-12.87,14.94l-6.81-5.45c4-2.56,7.79-6.7,9-9H923.12a65.88,65.88,0,0,0-6.92.43v-9.1a48.28,48.28,0,0,0,6.92.6h28.3a37.43,37.43,0,0,0,6.54-.55l5.23,4.85C962.54,316.36,961.28,317.94,960.74,318.81Zm-35.11,37.3-7.69-6.27a21.45,21.45,0,0,0,6.22-3.33c6.05-4.58,7.41-9.21,7.41-18.1a30.73,30.73,0,0,0-.44-5.45h9.6C940.73,335.77,941,347.55,925.63,356.11Z" transform="translate(-752.39 -38.56)"/><path class="cls-3" d="M1011.6,305.24a6.76,6.76,0,0,1,.16,13.52c-.27.82-.49,1.64-.65,2.29-1.31,5.12-3.55,13.41-8.23,19.74a44.81,44.81,0,0,1-22.19,15.32l-7.2-7.91c11-2.45,17.12-7.25,21.43-12.59a30.76,30.76,0,0,0,6-14.07h-24c-2.67,0-5.67.16-7.08.27v-9.32c1.69.22,5.28.49,7.08.49H1001a28,28,0,0,0,3.92-.27,3.17,3.17,0,0,1,0-.71A6.79,6.79,0,0,1,1011.6,305.24Zm0,9.65a2.89,2.89,0,1,0-2.89-2.89A2.91,2.91,0,0,0,1011.6,314.89Z" transform="translate(-752.39 -38.56)"/><path class="cls-3" d="M1038.58,314.4v18.54c0,1.36.11,3.65.22,5.07h-9.6c.06-1.09.27-3.44.27-5.13V314.4a42.92,42.92,0,0,0-.21-4.31h9.54C1038.69,311.45,1038.58,312.44,1038.58,314.4Zm25.24,1.09v11.88c0,11-2.56,16.41-6.7,20.78-3.66,3.81-9.38,6.59-13.36,7.85l-6.93-7.31c5.67-1.25,9.93-3.27,13.2-6.65,3.65-3.87,4.42-7.74,4.42-15.27V315.49a42.73,42.73,0,0,0-.39-5.89h10C1063.93,311.24,1063.82,313.09,1063.82,315.49Z" transform="translate(-752.39 -38.56)"/><path class="cls-3" d="M1098.71,314.34c-.33,1.48-.66,3-1,4.42,1.47-.11,2.72-.16,3.7-.16,6.28,0,10.42,2.94,10.42,11.12,0,6.38-.71,15.32-3.06,20.12-1.85,3.92-5.07,5.28-9.48,5.28a32.8,32.8,0,0,1-6.65-.76l-1.42-8.67a35.19,35.19,0,0,0,6.65,1.15,3.69,3.69,0,0,0,3.71-2.07c1.36-2.73,2-9.11,2-14.18,0-4-1.64-4.47-5-4.47-.65,0-1.53.05-2.62.16-2.18,8.51-6.27,21.7-10.9,29.17l-8.62-3.43c5.18-7,8.73-17.34,10.75-24.81-1.42.22-2.62.38-3.38.49-1.75.27-4.91.71-6.71,1l-.76-8.89c2.12.16,4.19,0,6.37,0,1.59-.05,3.82-.22,6.27-.38a54.72,54.72,0,0,0,1-11.4l9.81,1C1099.47,310.75,1099,312.82,1098.71,314.34ZM1128,334.57l-8.45,3.87c-1.31-6.32-5-16.3-8.89-21.32l8-3.32C1122,318.71,1126.46,329.28,1128,334.57Z" transform="translate(-752.39 -38.56)"/><path class="cls-3" d="M1145.92,330.81a27.49,27.49,0,0,1,15.1-4.42c10.25,0,15.81,6.38,15.81,13.09,0,10.08-7.47,18.32-31.46,16.24l-2.56-8.66c15.92,2.34,24.7-1.09,24.7-7.75,0-3.1-3-5.39-7.31-5.39-5.56,0-10.9,2.07-14.12,5.94a13.72,13.72,0,0,0-2.23,3.38l-7.58-1.85a198.29,198.29,0,0,0,2.72-23.18l8.89,1.2A84.45,84.45,0,0,0,1145.92,330.81Zm22.95-18.65-2,8.13c-5.73-.77-18.05-3.38-22.36-4.47l2.08-7.91C1152.08,309.6,1164.13,311.62,1168.87,312.16Z" transform="translate(-752.39 -38.56)"/><path class="cls-3" d="M1194.43,332.55c-2.12-1.9-6.76-4.41-10.3-5.88l4.09-6a43.78,43.78,0,0,1,10.63,5.29Zm8.4,7.42c-2.89,5.72-6.16,11.61-9.49,17.06l-6.7-5.34a155.23,155.23,0,0,0,10.36-17Zm-4.69-22c-2.07-2-6.6-4.58-10.09-6.1l4.31-5.84c3.44,1.26,8.13,3.55,10.42,5.51Zm38.06,30.37v7.52h-35.12v-7.52h13.58v-8.07H1205v-7.52h9.65V325.3H1203.1v-7.52h14.23a68.22,68.22,0,0,0-9.48-5.89l5.23-6.16c4.36,2,10.25,5.29,13.14,8l-3.38,4.09h12.21v7.52H1223v7.42H1233v7.52H1223v8.07Z" transform="translate(-752.39 -38.56)"/><path class="cls-3" d="M1282.37,321.87a59.21,59.21,0,0,1-11.23,19.19,52.26,52.26,0,0,0,20.11,8.67,39,39,0,0,0-5.72,8c-8.61-2.24-15.54-5.67-21.15-10.31a62.85,62.85,0,0,1-20.83,10.47,46.33,46.33,0,0,0-5-7.74c7.8-2,14.4-4.8,19.79-8.72a67.4,67.4,0,0,1-10.9-19.52h-7.69v-7.74h20.94v-8.29h8.18v8.29h21.2v7.74Zm-26.06,0a45.19,45.19,0,0,0,8.56,13.63,44,44,0,0,0,8.12-13.63Z" transform="translate(-752.39 -38.56)"/><path class="cls-3" d="M781.87,613.17l7.54-10.3c4.14,3.86,8.92,6.62,14.26,6.62,6.35,0,10.49-2.57,10.49-7.36,0-5.61-3.13-8.92-17.48-8.92V581.62c11.68,0,15.36-3.5,15.36-8.46,0-4.51-2.76-7-7.82-7-4.6,0-8.1,2.12-12.23,5.8l-8.28-10c6.34-5.24,13.15-8.55,21.25-8.55,14.16,0,23.46,6.71,23.46,18.49,0,6.71-3.78,11.68-10.95,14.72v.46c7.54,2.2,13.15,7.63,13.15,16.19,0,12.51-11.68,19.5-25.29,19.5C794.47,622.74,786.83,619,781.87,613.17Z" transform="translate(-752.39 -38.56)"/><path d="M826.54,663h-33l-1.68,1.68-23.18,23.19L767,689.58v50.17a15.49,15.49,0,0,0,15.46,15.47h44.08A15.49,15.49,0,0,0,842,739.75V678.51A15.49,15.49,0,0,0,826.54,663Zm9.73,76.71a9.73,9.73,0,0,1-9.73,9.74H782.46a9.74,9.74,0,0,1-9.73-9.74V692H787.8a8.11,8.11,0,0,0,8.11-8.11V668.77h30.63a9.73,9.73,0,0,1,9.73,9.74v61.24Z" transform="translate(-752.39 -38.56)"/><path d="M799.5,704.3a.43.43,0,0,0-.41,0,.39.39,0,0,0-.2.35v20.44a.38.38,0,0,0,.2.34.4.4,0,0,0,.41,0l17.11-10.22a.39.39,0,0,0,.19-.34.41.41,0,0,0-.19-.35Z" transform="translate(-752.39 -38.56)"/><path class="cls-3" d="M957.13,574s0,2.45,0,3.38c-.44,22.08-.82,30.25-2.57,32.82a6.61,6.61,0,0,1-4.63,3.16,32.66,32.66,0,0,1-6.87.32,19.67,19.67,0,0,0-2.29-7.52,49.4,49.4,0,0,0,5.13.22,2,2,0,0,0,1.85-1c1-1.42,1.47-7.8,1.74-24.15h-3.32C945.35,596,942.9,607,934,614.22a23.17,23.17,0,0,0-3.49-4.31c-8.29.82-16.79,1.58-23.17,2.13l-.87-6.55c3-.16,6.65-.38,10.68-.65v-2.35H908V597h9.16v-1.42h-8.94V578.23h8.94v-1.36H906.86v-5.62h10.25V570c-2.94.16-5.88.27-8.66.32a23.41,23.41,0,0,0-1.7-5.56,164.42,164.42,0,0,0,23.61-2.62l3.33,5.84c-2.84.6-6.05,1-9.43,1.42v1.9h9.86v5.62h-9.86v1.36h9.16v17.34h-9.16V597h9.48v5.5c3.44-5.45,4.53-12.43,4.91-21.2h-4.31V574h4.47V563h7.58c0,3.87,0,7.58,0,11.07Zm-42.74,10.63h2.72V583h-2.72Zm2.72,6.1v-1.63h-2.72v1.63Zm7.15-7.74v1.64h2.67V583Zm2.67,6.11h-2.67v1.63h2.67Zm-2.67,15.21,8.66-.66c.28-.38.55-.76.82-1.2h-9.48Z" transform="translate(-752.39 -38.56)"/><path class="cls-3" d="M1011.75,565v7.36h-21v3.43h9.16v25.08H974V575.83h8.72V572.4H962.14V565Zm-9.43,9.92H1010v38.76h-7.69v-3.1h-30.8v3.1h-7.69V575h7.69v28.19h30.8Zm-21.91,10.42h2.94v-3.17h-2.94Zm0,9.15h2.94v-3.21h-2.94Zm12.7-12.32h-3v3.17h3Zm0,9.11h-3v3.21h3Z" transform="translate(-752.39 -38.56)"/><path class="cls-3" d="M1040.26,569.4a124.84,124.84,0,0,0,14.67-1.53l-.06,7.64c-5.07.65-11.77,1.14-17.55,1.36a40.81,40.81,0,0,1-2.13,3.87,26.37,26.37,0,0,1,5.4-.54c3.21,0,5.83,1.3,7.25,3.81,2.18-1,4-1.74,5.89-2.62,2.4-1,4.63-2.07,7-3.21l3.21,7.63c-1.91.55-5.34,1.8-7.41,2.62s-4.75,1.85-7.63,3.11c0,3,.16,6.65.21,9.1h-7.85c.11-1.42.22-3.43.28-5.51-3.44,2-4.91,3.82-4.91,6s1.69,3.22,6.81,3.22a82.58,82.58,0,0,0,15.87-1.69l-.27,8.5a133.45,133.45,0,0,1-15.76,1c-8.94,0-15.37-2.34-15.37-9.59s6.48-11.67,12.53-14.83a4,4,0,0,0-3-1.15c-2.78,0-6.16,1.8-8,3.66a61.5,61.5,0,0,0-5.07,6.16l-7-5.29c5.12-4.58,9-9.05,11.67-14.07-2.24,0-6.22-.11-9.11-.38V569a71.21,71.21,0,0,0,9.81.65h2.13a34.4,34.4,0,0,0,.93-5.94l8.72.71C1041.24,565.64,1040.86,567.33,1040.26,569.4Z" transform="translate(-752.39 -38.56)"/><path class="cls-3" d="M1113.58,590.34a32,32,0,0,1-9.43,12.21,88.31,88.31,0,0,0,17,2.83,35.3,35.3,0,0,0-4.85,7.47,67,67,0,0,1-20.44-5.29A73,73,0,0,1,1075,613a26.11,26.11,0,0,0-4.64-7.09,79.31,79.31,0,0,0,17.4-3.11,36.87,36.87,0,0,1-7.25-7.09l2.56-1h-2.73v-7.25h26.44l1.37-.28,4.25,2.51v-5.34h-33.26v5.56h-7.41V577.52h7.36a40.47,40.47,0,0,0-2-4.69l4.41-1.19c-2.56.11-5.12.16-7.58.21a24.74,24.74,0,0,0-1.74-6.7c14.61-.38,30.86-1.64,41.27-3.6l5.29,6.43c-6,1.09-13,2-20.12,2.57a23.28,23.28,0,0,1,2.07,6.16l-3.38.81h8a57.65,57.65,0,0,0,2.67-7.52l8.5,1.85c-1.09,2-2.23,3.93-3.27,5.67h6.87V589.9h-7.36Zm-18.26-19.52c-3.65.27-7.31.49-10.9.65a24.48,24.48,0,0,1,2.4,5.4l-2.29.65h8.72a35.67,35.67,0,0,0-1.75-5.83Zm-6.21,23.88a28,28,0,0,0,6.7,4.63,23.67,23.67,0,0,0,5.67-4.63Z" transform="translate(-752.39 -38.56)"/><path class="cls-3" d="M1137.79,570.65c-1.15,5-3.11,16.2-2,21.7.71-1.31,1.63-3.6,2.45-5.18l4,2.62a122.69,122.69,0,0,0-3.82,14,14.41,14.41,0,0,0-.38,2.78c0,.6,0,1.63.11,2.51l-7.42.71a59.06,59.06,0,0,1-3.27-17.89,148.35,148.35,0,0,1,1.64-21.81,45.41,45.41,0,0,0,.38-5.28l9.76.92C1138.71,567.22,1138.06,569.46,1137.79,570.65Zm28-1.9c-.06,1.09-.06,3.54-.06,6.27,3-.22,5.67-.49,7.75-.82l-.06,8.56c-2.07.16-4.74.32-7.69.49v2.51c0,13-1.52,20.39-12,27.36l-7.63-6a22,22,0,0,0,7-4.91c3.21-3.92,4.47-8.07,4.47-16.52v-2.12c-1.91,0-3.82,0-5.67,0-2.24,0-5.29-.16-8.18-.27V575a55.44,55.44,0,0,0,8,.54c1.85,0,3.81,0,5.78-.11,0-2.72-.11-5.23-.22-6.7a29.34,29.34,0,0,0-.66-4h9.55A34.14,34.14,0,0,0,1165.81,568.75Z" transform="translate(-752.39 -38.56)"/><path class="cls-3" d="M1229.75,569.67c-1,12.11-3.38,21.65-7.3,29.12a29.06,29.06,0,0,0,9.16,8.17,29.87,29.87,0,0,0-5.45,6.55,35.12,35.12,0,0,1-8.56-7.53,37.31,37.31,0,0,1-8.84,7.64,33,33,0,0,0-4.09-5.46v5.62H1197v-8.07c-6,1-12.16,2-17.06,2.78l-1.48-7.9c1.48-.17,3.11-.33,4.86-.55V572.13h-3.49v-7.31h28v3.82h15.32l1.36-.22Zm-38.87,2.46v4H1197v-4Zm0,15.37H1197v-4.31h-6.16Zm6.16,10.8v-3.77h-6.16v4.58Zm7.63,8.23a28.51,28.51,0,0,0,8.24-7.74c-3.16-5.95-5.35-12.92-7-20.83l7.58-1.47a66.76,66.76,0,0,0,4,13.68,67.56,67.56,0,0,0,3.65-13.79h-14.88v-4.25h-1.59Z" transform="translate(-752.39 -38.56)"/><path class="cls-3" d="M1250.57,573.49c2.84-3.44,7.09-6.82,12.76-6.82,7.8,0,14.07,7.53,14.07,19.85,0,15.59-9.38,23.28-24.37,26.06l-5-7.69c12.27-1.91,20.39-5.45,20.39-18.37,0-8.29-2.78-12.1-6.65-12.1-6.21,0-11.5,9.54-11.5,16.73a46,46,0,0,0,.32,5.24l-8.12.54a63.81,63.81,0,0,1-.71-9.32,132.3,132.3,0,0,1,1.42-17.39,61.56,61.56,0,0,0,.44-6.27l9,.38A81.78,81.78,0,0,0,1250.57,573.49Z" transform="translate(-752.39 -38.56)"/><path d="M952.87,153.89c-1.63,2.69-4.67,6.69-7.55,8.77l-4-3.2a17.44,17.44,0,0,0,5.28-5.28H930.79a38.68,38.68,0,0,0-4.07.26v-5.35a26.9,26.9,0,0,0,4.07.36H947.4a22.43,22.43,0,0,0,3.84-.32l3.07,2.84C953.92,152.45,953.19,153.38,952.87,153.89Zm-20.61,21.89-4.51-3.68a12.5,12.5,0,0,0,3.65-1.95c3.55-2.69,4.35-5.41,4.35-10.62a18.41,18.41,0,0,0-.26-3.2h5.63C941.12,163.84,941.28,170.76,932.26,175.78Z" transform="translate(-752.39 -38.56)"/><path d="M982.72,145.93a4,4,0,0,1,.1,7.93c-.16.48-.29,1-.39,1.35-.76,3-2.07,7.87-4.83,11.58a26.22,26.22,0,0,1-13,9l-4.22-4.64c6.43-1.44,10-4.26,12.57-7.39a17.91,17.91,0,0,0,3.52-8.26H962.37c-1.57,0-3.33.1-4.16.16v-5.47c1,.13,3.11.29,4.16.29h14.11a16.45,16.45,0,0,0,2.31-.16,1.4,1.4,0,0,1,0-.42A4,4,0,0,1,982.72,145.93Zm0,5.66a1.7,1.7,0,1,0-1.69-1.7A1.71,1.71,0,0,0,982.72,151.59Z" transform="translate(-752.39 -38.56)"/><path d="M998.56,151.3v10.88c0,.8.07,2.14.13,3h-5.63c0-.64.16-2,.16-3V151.3a23.68,23.68,0,0,0-.13-2.53h5.6C998.63,149.57,998.56,150.15,998.56,151.3Zm14.82.64v7c0,6.43-1.5,9.63-3.94,12.19a20,20,0,0,1-7.84,4.61l-4.06-4.29a14.59,14.59,0,0,0,7.74-3.91c2.15-2.27,2.6-4.54,2.6-9v-6.63a24.77,24.77,0,0,0-.23-3.45h5.86C1013.44,149.45,1013.38,150.53,1013.38,151.94Z" transform="translate(-752.39 -38.56)"/><path d="M1034.66,150.66a74,74,0,0,0,8.61-.89l0,4.48c-3,.38-6.92.67-10.31.8a22.26,22.26,0,0,1-1.25,2.27,15.8,15.8,0,0,1,3.17-.32,4.63,4.63,0,0,1,4.26,2.24c1.28-.61,2.33-1,3.45-1.54,1.41-.61,2.72-1.21,4.1-1.89l1.89,4.48c-1.12.32-3.14,1.06-4.35,1.54s-2.79,1.09-4.48,1.82c0,1.76.09,3.91.12,5.35h-4.6c.06-.84.12-2,.16-3.24-2,1.19-2.88,2.24-2.88,3.52s1,1.89,4,1.89a48.12,48.12,0,0,0,9.31-1l-.16,5a77.76,77.76,0,0,1-9.25.58c-5.25,0-9-1.38-9-5.63s3.8-6.85,7.36-8.71a2.37,2.37,0,0,0-1.76-.67,7.59,7.59,0,0,0-4.71,2.14,35.45,35.45,0,0,0-3,3.62l-4.13-3.1a30.28,30.28,0,0,0,6.85-8.26c-1.32,0-3.65-.06-5.35-.22v-4.48a43.09,43.09,0,0,0,5.76.38h1.25a19.5,19.5,0,0,0,.54-3.49l5.12.42A28.09,28.09,0,0,1,1034.66,150.66Z" transform="translate(-752.39 -38.56)"/><path d="M1079,151.46l-1.89.8L1080,154a17.48,17.48,0,0,0-1.25,2.63,37.31,37.31,0,0,1-4.57,8.76c1.37,1,2.62,1.92,3.52,2.63l-3.71,4.41c-.84-.77-2-1.76-3.3-2.81a30,30,0,0,1-11,7.26l-4.51-3.9a26.86,26.86,0,0,0,11.33-6.56c-1.92-1.41-3.81-2.72-5.25-3.65l3.46-3.55c1.47.86,3.32,2,5.18,3.23a21.63,21.63,0,0,0,3-6.08h-8.22a40,40,0,0,1-8.42,8.19l-4.19-3.23A30.27,30.27,0,0,0,1062.21,151a16.41,16.41,0,0,0,1.7-3.8l5.6,1.72c-.71,1-1.44,2.24-1.92,3.08h5.31a13.39,13.39,0,0,0,2.56-.26,30.64,30.64,0,0,0-2-3.46l3-1.21C1077.32,148.26,1078.43,150.34,1079,151.46Zm4-1.57-3,1.28a34.61,34.61,0,0,0-2.53-4.41l3-1.22A49.13,49.13,0,0,1,1083,149.89Z" transform="translate(-752.39 -38.56)"/><path d="M1102,150.47v2.14h4.67a8.78,8.78,0,0,0,2.91-.38l3.36,2.05a24.28,24.28,0,0,0-.7,2.88,30,30,0,0,1-2.92,8.76c-2.62,5-7.68,8.48-13.28,9.92l-4-4.67a28,28,0,0,0,5.22-1.47,15.43,15.43,0,0,0,6.46-4.9,17.16,17.16,0,0,0,2.72-7.61h-14.75v4.1a22,22,0,0,0,.13,2.62h-5.35a30,30,0,0,0,.16-3v-5.5a22.55,22.55,0,0,0-.16-2.92,29.33,29.33,0,0,0,3.43.16h6.69v-2.14a17.5,17.5,0,0,0-.29-3.26h6A23.69,23.69,0,0,0,1102,150.47Z" transform="translate(-752.39 -38.56)"/><path d="M1130.53,166.15a30.91,30.91,0,0,0,12.22-12.8l3,5.47A34.68,34.68,0,0,1,1133.32,171a34.23,34.23,0,0,1-11.46,4.22l-3.3-5.12A32.94,32.94,0,0,0,1130.53,166.15Zm1.09-10.46-4,4.06a66,66,0,0,0-8-7l3.68-3.93A63.94,63.94,0,0,1,1131.62,155.69Z" transform="translate(-752.39 -38.56)"/><path d="M1154.69,150.57h17.86c.86,0,2.08,0,3.36,0-.07,1.06-.07,2.37-.07,3.46V169.6c0,1.38.07,4.77.07,4.77h-5.38l.07-1.69h-14.28v1.69H1151s.1-3.07.1-4.83V154c0-1,0-2.5-.07-3.49C1152.32,150.53,1153.76,150.57,1154.69,150.57Zm1.6,17.15h14.34V155.53h-14.34Z" transform="translate(-752.39 -38.56)"/><path d="M1187.62,158.5h17c1.44,0,3-.16,3.94-.22v6.11c-.84,0-2.63-.19-3.94-.19h-17c-1.82,0-4.22.09-5.54.19v-6.11C1183.36,158.37,1186.05,158.5,1187.62,158.5Z" transform="translate(-752.39 -38.56)"/><path d="M1220,152.65a22,22,0,0,0-.38-4.16h6.05a37.36,37.36,0,0,0-.32,4.16V157a105.86,105.86,0,0,1,13.21,4.83l-2.2,5.41a100.28,100.28,0,0,0-11-4.58v8.23c0,.86.19,3.39.35,4.83h-6.08a36.62,36.62,0,0,0,.38-4.83Zm16.52,1.6-3.3,1.44a25.74,25.74,0,0,0-2.82-5l3.2-1.35A50.15,50.15,0,0,1,1236.52,154.25Zm4.48-2-3.21,1.57a28,28,0,0,0-3-4.8l3.17-1.47A40.38,40.38,0,0,1,1241,152.26Z" transform="translate(-752.39 -38.56)"/><path d="M1255.3,152.87c-.16,3.36-.38,10.27-.38,13.79,0,3.07,1.76,4,3.93,4,5,0,8.32-2.91,10.66-6.49l3.52,4.32a17,17,0,0,1-14.21,7.48c-5.6,0-9.09-2.52-9.09-8.12,0-4,.29-12.61.29-15a23.63,23.63,0,0,0-.48-4.93l6.24.07C1255.56,149.51,1255.36,151.46,1255.3,152.87Z" transform="translate(-752.39 -38.56)"/><path d="M1280.68,151.05c3-.26,7.84-.64,13.69-1.16,3.2-.25,7-.48,9.31-.57l0,5a40.33,40.33,0,0,0-6.14.38,8.9,8.9,0,0,0-6.43,8.32c0,4.71,4.42,6.56,9.95,6.88l-1.82,5.38c-7.14-.55-13.25-4.42-13.25-11.23a13.1,13.1,0,0,1,4.06-9.35,122,122,0,0,0-12.22,1.8l-.48-5.28C1278.66,151.17,1280.07,151.11,1280.68,151.05Z" transform="translate(-752.39 -38.56)"/><path d="M1000.87,209.89c-1.63,2.69-4.67,6.69-7.55,8.77l-4-3.2a17.44,17.44,0,0,0,5.28-5.28H978.79a38.68,38.68,0,0,0-4.07.26v-5.35a26.9,26.9,0,0,0,4.07.36H995.4a22.43,22.43,0,0,0,3.84-.32l3.07,2.84C1001.92,208.45,1001.19,209.38,1000.87,209.89Zm-20.61,21.89-4.51-3.68a12.5,12.5,0,0,0,3.65-1.95c3.55-2.69,4.35-5.41,4.35-10.62a18.41,18.41,0,0,0-.26-3.2h5.63C989.12,219.84,989.28,226.76,980.26,231.78Z" transform="translate(-752.39 -38.56)"/><path d="M1020.58,206.69c0,.9-.06,1.8-.13,2.63h5.12a15.94,15.94,0,0,0,2.66-.26l3.29,1.6a15.85,15.85,0,0,0-.22,1.76c-.13,3.68-.55,12.42-1.89,15.78-.7,1.76-2.05,2.75-4.48,2.75-2,0-3.9-.16-5.41-.29l-.6-5.18a25.76,25.76,0,0,0,4.35.48,1.58,1.58,0,0,0,1.76-1.19c.76-1.76,1.21-7.32,1.21-10.81H1020c-1.15,8.09-4.06,13.18-10,17.44l-4.51-3.65a20.23,20.23,0,0,0,4.73-3.55A17.48,17.48,0,0,0,1015,214h-3.62c-1,0-3,0-4.51.16v-5.06c1.47.16,3.3.26,4.51.26h4c0-.8,0-1.67,0-2.53a25.86,25.86,0,0,0-.25-3.1h5.69C1020.71,204.45,1020.61,205.93,1020.58,206.69Z" transform="translate(-752.39 -38.56)"/><path d="M1054,206.47v2.14h4.67a8.78,8.78,0,0,0,2.91-.38l3.36,2.05a24.28,24.28,0,0,0-.7,2.88,30,30,0,0,1-2.92,8.76c-2.62,5-7.68,8.48-13.28,9.92l-4-4.67a28,28,0,0,0,5.22-1.47,15.43,15.43,0,0,0,6.46-4.9,17.16,17.16,0,0,0,2.72-7.61h-14.75v4.1a22,22,0,0,0,.13,2.62h-5.35a30,30,0,0,0,.16-3v-5.5a22.55,22.55,0,0,0-.16-2.92,29.33,29.33,0,0,0,3.43.16h6.69v-2.14a17.5,17.5,0,0,0-.29-3.26h6A23.69,23.69,0,0,0,1054,206.47Z" transform="translate(-752.39 -38.56)"/><path d="M1082.53,222.15a30.91,30.91,0,0,0,12.22-12.8l3,5.47A34.68,34.68,0,0,1,1085.32,227a34.23,34.23,0,0,1-11.46,4.22l-3.3-5.12A32.94,32.94,0,0,0,1082.53,222.15Zm1.09-10.46-4,4.06a66,66,0,0,0-8-7l3.68-3.93A63.94,63.94,0,0,1,1083.62,211.69Z" transform="translate(-752.39 -38.56)"/><path d="M1109,208.17a22,22,0,0,0-.38-4.16h6.05a37.36,37.36,0,0,0-.32,4.16v4.38a106.46,106.46,0,0,1,13.21,4.83l-2.2,5.41a100.28,100.28,0,0,0-11-4.58v8.23c0,.86.19,3.39.35,4.83h-6.08a36.62,36.62,0,0,0,.38-4.83Z" transform="translate(-752.39 -38.56)"/><path d="M1146.66,206.66a74,74,0,0,0,8.61-.89l0,4.48c-3,.38-6.92.67-10.31.8a22.26,22.26,0,0,1-1.25,2.27,15.8,15.8,0,0,1,3.17-.32,4.63,4.63,0,0,1,4.26,2.24c1.28-.61,2.33-1,3.45-1.54,1.41-.61,2.72-1.21,4.1-1.89l1.89,4.48c-1.12.32-3.14,1.06-4.35,1.54s-2.79,1.09-4.48,1.82c0,1.76.09,3.91.12,5.35h-4.6c.06-.84.12-2,.16-3.24-2,1.19-2.88,2.24-2.88,3.52s1,1.89,4,1.89a48.12,48.12,0,0,0,9.31-1l-.16,5a77.76,77.76,0,0,1-9.25.58c-5.25,0-9-1.38-9-5.63s3.8-6.85,7.36-8.71a2.37,2.37,0,0,0-1.76-.67,7.59,7.59,0,0,0-4.71,2.14,35.45,35.45,0,0,0-3,3.62l-4.13-3.1a30.28,30.28,0,0,0,6.85-8.26c-1.32,0-3.65-.06-5.35-.22v-4.48a43.09,43.09,0,0,0,5.76.38h1.25a19.5,19.5,0,0,0,.54-3.49l5.12.42A28.09,28.09,0,0,1,1146.66,206.66Z" transform="translate(-752.39 -38.56)"/><path d="M1188.9,225.19h-2.43l.8.16c-.58,1.15-1.09,2.17-1.54,3h7.46v3.78h-27.52v-3.78h7.2a15.69,15.69,0,0,0-1.25-2.78l1.41-.35h-3.27v-8.64a33.83,33.83,0,0,1-3.26,1.86,17.37,17.37,0,0,0-2.78-3.36,22.18,22.18,0,0,0,4.8-2.85,23.32,23.32,0,0,0-3-2.31l2.5-2.56a20.42,20.42,0,0,1,3.26,2.24,17.86,17.86,0,0,0,1.89-2.43h-5.73v-3.71h8l.77-.19,3,1.53a23.54,23.54,0,0,1-3.2,5.86H1183a32.45,32.45,0,0,1-3.87-7l4-1.21a18.87,18.87,0,0,0,1.4,2.81,27.65,27.65,0,0,0,2.66-2.62l3.49,2.46c-1.35,1.09-2.79,2.18-4.1,3,.35.42.71.8,1.09,1.19a27.46,27.46,0,0,0,3.13-3l3.4,2.37c-1.19,1-2.53,2.08-3.75,2.94a19.1,19.1,0,0,0,4.55,2.43,17.06,17.06,0,0,0-3.11,3.88,24,24,0,0,1-2.94-1.64Zm-15.42-11.62a26.7,26.7,0,0,1-2.72,2.28h17.47a22.88,22.88,0,0,1-2.91-2.47v1.09h-11.84Zm.8,5.92v2h9.82v-2Zm6.94,8.67a22.52,22.52,0,0,0,1.31-3h-6.17a11.56,11.56,0,0,1,1.21,2.81l-1.15.32H1182Z" transform="translate(-752.39 -38.56)"/><path d="M1221.41,221.89a13.73,13.73,0,0,0,5.6,5.47,17.54,17.54,0,0,0-3,3.81,14.65,14.65,0,0,1-4.48-5.12v2.37c0,1.82-.23,2.91-1.35,3.55a8.17,8.17,0,0,1-4.19.71,15.29,15.29,0,0,0-1.06-4c.71,0,1.6,0,1.89,0s.42-.1.42-.42v-1.5c-1.7,1.28-3.55,2.62-5.22,3.71l-1.37-2.4.16,1.76c-3.91.8-8.13,1.63-11.39,2.27l-.87-4.19c1.25-.16,2.78-.41,4.42-.67v-7.55h-4v-3.9h4v-1.73h-2.6v-1.41l-.15.16a13.15,13.15,0,0,0-2.76-3,19.44,19.44,0,0,0,5.31-7.55h3.72a32.59,32.59,0,0,1,5.37,5.41l-2.14,2.59h.32v3.84H1205v1.73h3.68v3.9H1205v5.34a33.26,33.26,0,0,0,.93-4.67l3.27.77c-.58,1.76-1.09,3.61-1.51,4.86l-2.69-.7v1.31l3.56-.61,0,.42c1.57-.87,3.65-2.15,5.69-3.43l1,2.53v-9H1209v-3.91h10.62v-1h-8.42v-3.49h8.42V207h-9.15v-3.77h13.44v9.37h2.24v3.91h-6.59v1.21a19.92,19.92,0,0,0,1,2.63,26.08,26.08,0,0,0,2.5-3.49l3.61,2.21c-1.34,1.4-2.69,2.84-3.77,3.8Zm-21.47-1.24a36.41,36.41,0,0,1,1.06,5.27l-3,.84a32.12,32.12,0,0,0-.9-5.38Zm6.37-10.37a28.36,28.36,0,0,0-3-3.68,31.22,31.22,0,0,1-2.56,3.68Zm5.53,13.08a15.67,15.67,0,0,0-3-4.12l3-2a15.63,15.63,0,0,1,3.2,3.93Z" transform="translate(-752.39 -38.56)"/><path d="M1240.07,226.76a3.27,3.27,0,0,1,6.53,0,3.27,3.27,0,0,1-6.53,0Zm.32-15.75-.19-5.31h6.27l-.19,5.31-1,10.11h-4Z" transform="translate(-752.39 -38.56)"/><path d="M986.75,405.27l-.1,1.63a40.87,40.87,0,0,0,5.54-1.09l.09,4.8a57.29,57.29,0,0,1-5.76.93c0,.67,0,1.34,0,2v1.25a27,27,0,0,1,5.63-.68c5.06,0,9.25,2.6,9.25,7.33,0,3.75-1.73,6.82-7.2,8.19a36.4,36.4,0,0,1-4.35.58l-1.76-5a24.56,24.56,0,0,0,4-.23c2.46-.41,4.25-1.6,4.25-3.55s-1.6-3-4.25-3a23.51,23.51,0,0,0-5.47.7c.06,2.4.12,4.64.12,5.63,0,4.52-1.6,5.64-3.9,5.64-3.46,0-8-2.82-8-6.5,0-2.88,3.2-5.89,7.23-7.65,0-.83,0-1.66,0-2.49v-1.83c-.51,0-1,0-1.38,0a43.45,43.45,0,0,1-4.67-.16l-.09-4.68a36.65,36.65,0,0,0,4.6.23c.48,0,1,0,1.54,0v-2c0-.67-.13-2.53-.22-3.13h5.31C987,402.77,986.81,404.44,986.75,405.27Zm-5.48,19.81c.48,0,.93-.13.93-1.25,0-.61,0-1.7-.06-3-1.6.9-2.56,1.95-2.56,2.85S980.67,425.08,981.27,425.08ZM1003.93,410l-2.31,3.94a60.25,60.25,0,0,0-8-4.58l2.08-3.77A78.84,78.84,0,0,1,1003.93,410Z" transform="translate(-752.39 -38.56)"/><path d="M1016.7,422.64a36.15,36.15,0,0,0-2.15-3v11.8H1010V421.36a23.94,23.94,0,0,1-3,2.34,20.78,20.78,0,0,0-2.08-4.48,21.43,21.43,0,0,0,7.8-8.13h-6.62v-4.16H1010v-5.85h4.54v5.85h.58l.77-.16,2.56,1.67a32.31,32.31,0,0,1-3.11,6.43c1.41,1.21,3.59,3.29,4.2,3.9Zm15.39,4.8c.38,0,.48-.67.58-4.19a11.87,11.87,0,0,0,3.83,1.76c-.35,4.8-1.34,6.27-3.93,6.27h-1.86c-3.2,0-3.9-1.31-3.9-5v-9.47h-1.09c-.32,6.49-1.34,11.68-7,14.88a13,13,0,0,0-2.91-3.78c4.61-2.4,5.22-6.17,5.41-11.1h-2.56V402.93h16v13.86h-3.36v9.41c0,1.12.06,1.24.35,1.24ZM1023,412.66h7v-5.6h-7Z" transform="translate(-752.39 -38.56)"/><path d="M1045.18,409.59c0,2.11,0,4.19.19,6.33.38,4.2,1,7.14,2.88,7.14,1.47,0,2.59-4,3.07-6.18l3.91,4.8c-2.24,5.67-4.29,7.65-7.08,7.65-3.8,0-6.94-3.23-7.84-12-.31-3-.35-6.72-.35-8.73a18.63,18.63,0,0,0-.29-3.46l6,.07A29.33,29.33,0,0,0,1045.18,409.59Zm22,13.21-5.15,2c-.45-4.83-2-13.25-5.76-17.35l5-1.6C1064.41,409.52,1066.94,418.2,1067.22,422.8Z" transform="translate(-752.39 -38.56)"/><path d="M1073,412.5c.8-.32,1.56-.64,2.36-1-.38-.77-.76-1.54-1.18-2.27a31.39,31.39,0,0,0-2.08-3.07l5-2c.29.64,1,2.11,1.35,2.72.45.83.86,1.73,1.31,2.66,1.66-.74,3.3-1.41,4.86-1.95a49.08,49.08,0,0,0-4.16-3.91l3.59-2.46a57.67,57.67,0,0,1,4.61,4.13l-2.47,1.76a16.27,16.27,0,0,1,4.32-.68c5.22,0,8.39,3.3,8.39,7.14,0,4.93-3.49,7.78-8.33,7.78a16.36,16.36,0,0,1-5-.9l.13-4.86a12.39,12.39,0,0,0,4.35,1.08c1.79,0,3.71-1,3.71-3.26,0-1.47-1.37-2.56-3.36-2.56-2.3,0-5.6,1.22-8.83,2.69.26.57.48,1.12.71,1.63,1.37,3.2,4.09,10.53,5.15,14.17l-5.35,1.35a98.29,98.29,0,0,0-4.25-13.38l-.67-1.6c-2.18,1.12-4.1,2.15-5.41,2.76l-2.24-4.9A27.49,27.49,0,0,0,1073,412.5Z" transform="translate(-752.39 -38.56)"/><path d="M1109.56,422c0,1.82,1.63,3.17,6,3.17a48.87,48.87,0,0,0,11.39-1.25l0,5.47a52.14,52.14,0,0,1-11.23,1.09c-7.81,0-11.43-2.66-11.43-7.26a23.25,23.25,0,0,1,.61-4.71l5.12.45A13.41,13.41,0,0,0,1109.56,422Zm18.78-15.74-3,1.28c-.1-.16-.16-.32-.26-.51v3.13c-2.27.19-6.5.39-9.6.39-3.42,0-6.24-.16-8.9-.36V405a85.17,85.17,0,0,0,8.87.39c2.78,0,6.11-.16,8.61-.36-.39-.7-.8-1.4-1.19-2l3-1.22C1126.65,403,1127.77,405.11,1128.34,406.23Zm4-1.57-3,1.28a34.54,34.54,0,0,0-2.52-4.41l3-1.22A45.32,45.32,0,0,1,1132.31,404.66Z" transform="translate(-752.39 -38.56)"/><path d="M1137.34,414.84c-.55.41-1.06.76-1.6,1.12a28.87,28.87,0,0,0-2.43-3.52,18,18,0,0,0,6.68-6.24h-5.6v-3.46h11.88V401h4.67v1.7h12v3.46h-22.82l3.68,1.24a26.84,26.84,0,0,1-2.14,3.14v9.95h-4.32Zm24,7.42a47.81,47.81,0,0,1-5.24,3.1,26,26,0,0,0,8,2.31,15.74,15.74,0,0,0-2.68,3.8,21.77,21.77,0,0,1-11-5.18l.19,3.23c-4.42.68-9.12,1.31-12.64,1.79l-.54-3.64c1-.1,2.27-.26,3.58-.42v-1.5c-1.73.51-3.46.89-5.18,1.25a17,17,0,0,0-2.37-3.33,49.51,49.51,0,0,0,11.77-3.33,20.36,20.36,0,0,0-2.27-1.47,15.43,15.43,0,0,0,3.75-2.37h-3.68v-2.82h7.9v-.89h-5.6v-5.73H1161v5.73h-5.76v.89h7.84v2.82h-3.33a27.92,27.92,0,0,1,3.2,2.08l-3,1.92a34,34,0,0,0-4.35-3l1.63-1h-2v3.84h-4.13l.7.35-.73.58a10.3,10.3,0,0,0,1.82,2.05,39.36,39.36,0,0,0,5.22-3.43Zm-16,4.45c1.57-.23,3.17-.42,4.73-.64a18.79,18.79,0,0,1-2.4-2.82,23.45,23.45,0,0,1-2.33,1Zm2.72-10.21,2.27.7a13.91,13.91,0,0,1-1.86,1.8l2.34,1.18V416.5Zm1.5-6.14h6.91v-.9h-6.91Z" transform="translate(-752.39 -38.56)"/><path d="M1185.85,424.31c2.24,1.76,5.6,2.62,10.4,2.88a17.66,17.66,0,0,0-2.79,4.32c-6.46-.74-10.14-2.66-12.7-6.53-1.76,3.07-5.34,5.18-13,6.43a13.26,13.26,0,0,0-2.34-4.19c5.18-.64,8.06-1.57,9.76-2.91H1166v-4h11.27c.09-.45.16-.93.22-1.41h-11.29v-4.13h12v-1.06H1169v-3.87h9.24v-1.05h-10.65v-4.07h5a15.89,15.89,0,0,0-1.31-2.14l4.16-1.6a12.1,12.1,0,0,1,2.14,3.49l-.6.25h7.07l-.71-.19a21,21,0,0,0,1.86-3.58l5,1.18c-.64,1-1.28,1.86-1.82,2.59h5.38v4.07H1183v1.05h9.6v3.87H1183v1.06h12.06v4.13h-12.6c-.07.48-.13,1-.19,1.41h13.18v4Z" transform="translate(-752.39 -38.56)"/><path d="M1211.07,406.48c1.5-.28,2.84-.6,3.93-.92l.13,4.44a42.33,42.33,0,0,1-5.44,1.09,58.79,58.79,0,0,1-6.78,13.79l-4.67-2.36a51.93,51.93,0,0,0,6.33-10.95c-.35,0-.67,0-1,0-1.35,0-2.66,0-4.13-.12l-.35-4.48c1.47.16,3.39.22,4.44.22.84,0,1.67,0,2.5-.1a25,25,0,0,0,.8-5.21l5.31.51C1211.9,403.41,1211.51,404.88,1211.07,406.48Zm8.54,10.44c0,.76.1,2,.16,3.36a20.62,20.62,0,0,1,6.62,4.16l-2.56,4.15a34.84,34.84,0,0,0-3.87-3.26c-.09,3.07-1.76,5.38-6.49,5.38-4.23,0-7.52-2-7.52-5.7,0-3.2,2.52-5.95,7.45-5.95a13.5,13.5,0,0,1,1.7.1c-.13-2.28-.26-4.93-.35-6.72h4.86C1219.51,413.81,1219.58,415.35,1219.61,416.92Zm-6.85,9.34c1.92,0,2.5-1.12,2.5-2.91v-.16a11.84,11.84,0,0,0-2.18-.23c-1.57,0-2.56.64-2.56,1.57S1211.42,426.26,1212.76,426.26ZM1216.7,410l2.49-3.84a63.48,63.48,0,0,1,8.16,4.39l-2.75,4.09A46.6,46.6,0,0,0,1216.7,410Z" transform="translate(-752.39 -38.56)"/><path d="M1242.55,411.57c2-1.18,4-2.21,5.35-3a23.46,23.46,0,0,0,3.33-2.18l2.43,4.58c-1.16.67-2.31,1.28-3.59,1.92a67.86,67.86,0,0,0-7.42,4c-2.46,1.64-4.26,3.33-4.26,5.44s2,3.11,6.15,3.11a55.48,55.48,0,0,0,10.56-1.22l-.07,5.57a58.12,58.12,0,0,1-10.36.83c-6.6,0-11.68-1.79-11.68-7.71,0-3.65,2.27-6.27,5.21-8.51-1.47-2.72-3-6-4.38-9.35l4.86-2A66.37,66.37,0,0,0,1242.55,411.57Zm13.89-4.7-3,1.28a44.16,44.16,0,0,0-2.46-4.45l3-1.21A49.69,49.69,0,0,1,1256.44,406.87Zm4-1.57-3,1.28a34.61,34.61,0,0,0-2.53-4.41l3-1.22A47.74,47.74,0,0,1,1260.41,405.3Z" transform="translate(-752.39 -38.56)"/><path d="M959.79,482.39c0,2.33-.48,3.58-2,4.32s-3.52.8-6.36.8a16.1,16.1,0,0,0-1.51-4.58c1.67.1,3.81.1,4.42.1s.8-.2.8-.74V478l-3.39,2.63a45.87,45.87,0,0,0-5.06-5.86,16.28,16.28,0,0,1-6.34,6.69,18.86,18.86,0,0,0-2.75-3v9.09H933V462.29h11V457h4.8v5.25h11Zm-22.15-4.77c5.09-2.78,6.11-7.1,6.27-10.78h-6.27Zm11.07-10.78a29.37,29.37,0,0,1-.38,3.29,86.85,86.85,0,0,1,6.85,6.88V466.84Z" transform="translate(-752.39 -38.56)"/><path d="M980.71,468a25.7,25.7,0,0,0,12.93,8.45,23.72,23.72,0,0,0-2.88,4.25c-1-.41-2-.9-3.07-1.44v8.19H983v-.8h-9.21v.8h-4.51v-7.93c-1,.51-2.05,1-3.07,1.44a20.49,20.49,0,0,0-2.6-3.94,27.81,27.81,0,0,0,12.35-9Zm-11.77-1.06H964.4v-7.55h11.42V457h4.8v2.34h11.65v7.55h-4.16A24.17,24.17,0,0,1,991,469.3l-3.56,3a43.11,43.11,0,0,0-7.61-6l3.29-2.69c1.32.77,2.92,1.79,4.39,2.81v-2.91H968.94Zm7.77-1.69a24.1,24.1,0,0,1-8.12,7.42,27.85,27.85,0,0,0-3.17-3.71,16.2,16.2,0,0,0,6.81-5.22ZM983,482.58v-2.3h-9.21v2.3Zm-.09-6.37a22.77,22.77,0,0,1-4.35-4,26.69,26.69,0,0,1-4.16,4Z" transform="translate(-752.39 -38.56)"/><path d="M1009.64,461.43a74,74,0,0,0,8.61-.9l0,4.48c-3,.39-6.91.67-10.31.8a24.44,24.44,0,0,1-1.24,2.27,15.69,15.69,0,0,1,3.16-.32,4.63,4.63,0,0,1,4.26,2.24c1.28-.6,2.34-1,3.46-1.53,1.4-.61,2.72-1.22,4.09-1.89l1.89,4.48c-1.12.32-3.14,1.06-4.35,1.54s-2.79,1.08-4.48,1.82c0,1.76.09,3.9.13,5.34h-4.61c.06-.83.13-2,.16-3.23-2,1.19-2.88,2.24-2.88,3.52s1,1.89,4,1.89a48,48,0,0,0,9.31-1l-.16,5a77.88,77.88,0,0,1-9.25.57c-5.25,0-9-1.37-9-5.63s3.81-6.84,7.36-8.7a2.36,2.36,0,0,0-1.76-.67,7.57,7.57,0,0,0-4.71,2.14,35.68,35.68,0,0,0-3,3.62l-4.13-3.11a30.25,30.25,0,0,0,6.85-8.25c-1.31,0-3.65-.07-5.35-.23v-4.47a43.31,43.31,0,0,0,5.76.38h1.25a20.49,20.49,0,0,0,.55-3.49l5.12.42C1010.22,459.22,1010,460.21,1009.64,461.43Z" transform="translate(-752.39 -38.56)"/><path d="M1032.81,472.63a23.1,23.1,0,0,0-5.79-3.33l2.5-3.52a24,24,0,0,1,6,3Zm4.42,4.22c-1.6,3.43-3.4,6.94-5.22,10.18l-4.06-2.91a94.25,94.25,0,0,0,5.72-10.18ZM1034.67,464a23,23,0,0,0-5.7-3.43l2.5-3.42a23.86,23.86,0,0,1,5.88,3Zm15.61,11.58a14.73,14.73,0,0,0,7.59,7.84,17.89,17.89,0,0,0-3.27,4.1c-3.87-2-6.43-5.35-8.22-9.6a16.19,16.19,0,0,1-7.68,9.66,19.54,19.54,0,0,0-3.91-3.29,13.92,13.92,0,0,0,7.27-8.71h-5.47v-4.35h6.17c.07-1,.1-1.92.1-2.88V466.2h-4.8v-4.36h4.8V457h4.64v4.8h7.71v9.38h2.27v4.35Zm-2.78-7.2c0,.93,0,1.89-.07,2.85h3.24v-5h-3.17Z" transform="translate(-752.39 -38.56)"/><path d="M1080.36,462.77a6,6,0,0,0-.16.71c4.93,1.28,8.22,5.4,8.22,11.07,0,7-5,10.91-11.55,12l-3-4.51c7.23-.6,9.47-4.25,9.47-7.71a6.42,6.42,0,0,0-4.35-6.49,39.9,39.9,0,0,1-4.13,9.69c.54.61,1.09,1.22,1.63,1.73l-3.93,3.1c-.29-.35-.58-.64-.84-1-2.24,2.34-3.9,3.11-6.27,3.11-2.78,0-5.44-2.37-5.44-6.72a14.44,14.44,0,0,1,4.58-10.24l-.77-2.4a21.88,21.88,0,0,0-1.44-3.55l5.09-1.6c.19,1.18.45,2.24.7,3.2.16.54.32,1.12.48,1.69a18.83,18.83,0,0,1,6.72-1.76c.07-.38.13-.73.19-1.09a18.68,18.68,0,0,0,.26-3.39l5.38.51C1080.94,460.05,1080.59,461.88,1080.36,462.77Zm-14.3,16.64c.93,0,1.86-.7,2.88-1.85a35.1,35.1,0,0,1-2.59-5.38,9,9,0,0,0-1.76,5.15C1064.59,478.58,1065.1,479.41,1066.06,479.41Zm5.82-6.17a33,33,0,0,0,2.34-5.7,12.49,12.49,0,0,0-4.13,1.5A36.79,36.79,0,0,0,1071.88,473.24Z" transform="translate(-752.39 -38.56)"/><path d="M1095.66,461.81c3-.25,7.84-.64,13.69-1.15,3.2-.25,7-.48,9.32-.58l0,5a40.38,40.38,0,0,0-6.15.38,8.89,8.89,0,0,0-6.43,8.32c0,4.7,4.42,6.56,10,6.88l-1.82,5.38c-7.14-.55-13.25-4.42-13.25-11.24a13.06,13.06,0,0,1,4.07-9.34c-2.76.29-8.39.93-12.23,1.79l-.48-5.28C1093.64,461.94,1095.05,461.88,1095.66,461.81Z" transform="translate(-752.39 -38.56)"/><path d="M1152.84,464.15s0,1.44,0,2c-.26,13-.48,17.76-1.5,19.26a3.86,3.86,0,0,1-2.72,1.86,19.81,19.81,0,0,1-4,.19,11.34,11.34,0,0,0-1.34-4.41,28.84,28.84,0,0,0,3,.13,1.16,1.16,0,0,0,1.09-.58c.6-.83.86-4.58,1-14.18h-1.95c-.45,8.64-1.89,15.08-7.14,19.33a13.63,13.63,0,0,0-2-2.53c-4.86.48-9.85.93-13.59,1.25l-.52-3.84c1.76-.09,3.91-.22,6.27-.38v-1.38H1124v-3.23h5.37v-.83h-5.24V466.61h5.24v-.8h-6v-3.29h6v-.77c-1.72.09-3.45.16-5.08.19a13.89,13.89,0,0,0-1-3.26,97.31,97.31,0,0,0,13.85-1.54l1.95,3.42c-1.66.36-3.55.61-5.53.84v1.12h5.79v3.29h-5.79v.8h5.37v10.18h-5.37v.83h5.56v3.23c2-3.2,2.66-7.29,2.88-12.45h-2.52v-4.25h2.62v-6.5h4.45c0,2.27,0,4.45,0,6.5Zm-25.09,6.24h1.6v-1h-1.6Zm1.6,3.58v-1h-1.6v1Zm4.2-4.54v1h1.56v-1Zm1.56,3.58h-1.56v1h1.56Zm-1.56,8.93,5.08-.38c.16-.23.32-.45.48-.71h-5.56Z" transform="translate(-752.39 -38.56)"/><path d="M1184.91,458.87v4.32h-12.36v2h5.38v14.72h-15.2V465.2h5.12v-2h-12.06v-4.32Zm-5.54,5.82h4.51v22.75h-4.51v-1.82h-18.08v1.82h-4.51V464.69h4.51v16.55h18.08Zm-12.86,6.11h1.72V469h-1.72Zm0,5.38h1.72v-1.89h-1.72ZM1174,469h-1.76v1.85H1174Zm0,5.34h-1.76v1.89H1174Z" transform="translate(-752.39 -38.56)"/><path d="M1201.64,461.43a74,74,0,0,0,8.61-.9l0,4.48c-3,.39-6.91.67-10.31.8a24.44,24.44,0,0,1-1.24,2.27,15.69,15.69,0,0,1,3.16-.32,4.63,4.63,0,0,1,4.26,2.24c1.28-.6,2.34-1,3.46-1.53,1.4-.61,2.72-1.22,4.09-1.89l1.89,4.48c-1.12.32-3.14,1.06-4.35,1.54s-2.79,1.08-4.48,1.82c0,1.76.09,3.9.13,5.34h-4.61c.06-.83.13-2,.16-3.23-2,1.19-2.88,2.24-2.88,3.52s1,1.89,4,1.89a48,48,0,0,0,9.31-1l-.16,5a77.88,77.88,0,0,1-9.25.57c-5.25,0-9-1.37-9-5.63s3.81-6.84,7.36-8.7a2.36,2.36,0,0,0-1.76-.67,7.57,7.57,0,0,0-4.71,2.14,35.68,35.68,0,0,0-3,3.62l-4.13-3.11a30.25,30.25,0,0,0,6.85-8.25c-1.31,0-3.65-.07-5.35-.23v-4.47a43.31,43.31,0,0,0,5.76.38h1.25a20.49,20.49,0,0,0,.55-3.49l5.12.42C1202.22,459.22,1202,460.21,1201.64,461.43Z" transform="translate(-752.39 -38.56)"/><path d="M1225,472.72a25.4,25.4,0,0,0-6-3.45l2.4-3.52a25.6,25.6,0,0,1,6.24,3.1Zm4.92,4.36c-1.69,3.36-3.61,6.81-5.57,10l-3.93-3.13a89.93,89.93,0,0,0,6.08-10Zm-2.75-12.93a24.63,24.63,0,0,0-5.92-3.59l2.53-3.42a23.65,23.65,0,0,1,6.11,3.23ZM1249.54,482v4.42h-20.6V482h8v-4.73h-5.67v-4.42h5.67v-4.35h-6.79v-4.42h8.35a39.19,39.19,0,0,0-5.56-3.45L1236,457a33.74,33.74,0,0,1,7.71,4.67l-2,2.4h7.16v4.42h-7.1v4.35h5.92v4.42h-5.92V482Z" transform="translate(-752.39 -38.56)"/><path d="M1276.65,466.45a34.84,34.84,0,0,1-6.59,11.27,30.67,30.67,0,0,0,11.81,5.08,22.75,22.75,0,0,0-3.36,4.67,31.5,31.5,0,0,1-12.42-6,36.84,36.84,0,0,1-12.22,6.14,27.87,27.87,0,0,0-2.95-4.54,33.38,33.38,0,0,0,11.62-5.12,39.27,39.27,0,0,1-6.4-11.46h-4.51v-4.54h12.28V457h4.8v4.87h12.45v4.54Zm-15.3,0a26.48,26.48,0,0,0,5,8,25.92,25.92,0,0,0,4.77-8Z" transform="translate(-752.39 -38.56)"/><path d="M1293.29,481.3a3.38,3.38,0,1,1,3.36,3.55A3.36,3.36,0,0,1,1293.29,481.3ZM1294,465l-.2-5.09h5.73l-.19,5.09-.83,10.81h-3.68Z" transform="translate(-752.39 -38.56)"/><path d="M992.65,660.88a49.78,49.78,0,0,1-4.83,8.45,85.38,85.38,0,0,1,8.7,8.93l-4.45,3.87a63.4,63.4,0,0,0-7.64-8.77,43,43,0,0,1-11.75,8.74l-4-4.19a35.86,35.86,0,0,0,13.09-9,23.45,23.45,0,0,0,4.48-7.24h-10c-1.44,0-3.2.2-4.1.26v-5.5a37.94,37.94,0,0,0,4.1.25H987a13.36,13.36,0,0,0,3.84-.48l3.17,2.34A17,17,0,0,0,992.65,660.88Z" transform="translate(-752.39 -38.56)"/><path d="M1015.53,658h5.31a12.3,12.3,0,0,0,3.17-.41l3.9,2.43a16.91,16.91,0,0,0-1.24,2.62,37.62,37.62,0,0,1-4.58,8.77c1.37,1,2.62,1.92,3.52,2.63l-3.71,4.41c-.83-.77-2-1.76-3.3-2.81a30,30,0,0,1-11,7.26l-4.51-3.9a26.73,26.73,0,0,0,11.33-6.56c-1.92-1.41-3.81-2.72-5.25-3.65l3.46-3.55c1.47.86,3.33,2,5.18,3.23a21.36,21.36,0,0,0,3-6.08h-8.22a40,40,0,0,1-8.42,8.19l-4.19-3.23A30.27,30.27,0,0,0,1010.15,657a16.41,16.41,0,0,0,1.7-3.8l5.6,1.72C1016.75,655.92,1016,657.17,1015.53,658Z" transform="translate(-752.39 -38.56)"/><path d="M1039,665.27h17c1.43,0,3-.16,3.93-.23v6.12c-.83,0-2.62-.2-3.93-.2h-17c-1.82,0-4.22.1-5.53.2V665C1034.7,665.14,1037.39,665.27,1039,665.27Z" transform="translate(-752.39 -38.56)"/><path d="M1077.19,658c-.19.86-.38,1.76-.57,2.59.86-.07,1.6-.1,2.17-.1,3.68,0,6.12,1.73,6.12,6.53,0,3.74-.42,9-1.8,11.81-1.08,2.3-3,3.1-5.56,3.1a19.19,19.19,0,0,1-3.91-.45l-.83-5.08a21.55,21.55,0,0,0,3.9.67,2.18,2.18,0,0,0,2.18-1.22c.8-1.6,1.18-5.34,1.18-8.32,0-2.33-1-2.62-2.94-2.62-.38,0-.9,0-1.54.09-1.28,5-3.68,12.74-6.4,17.12l-5-2c3-4.1,5.12-10.18,6.3-14.56l-2,.29c-1,.16-2.88.41-3.94.6l-.44-5.21c1.24.09,2.46,0,3.74,0,.93,0,2.24-.13,3.68-.23a32.46,32.46,0,0,0,.61-6.68l5.76.6C1077.64,655.92,1077.39,657.14,1077.19,658Zm17.22,11.87-5,2.27c-.77-3.71-2.91-9.57-5.22-12.51l4.68-1.95A58.38,58.38,0,0,1,1094.41,669.91Z" transform="translate(-752.39 -38.56)"/><path d="M1104.91,667.7a16.12,16.12,0,0,1,8.86-2.59c6,0,9.28,3.74,9.28,7.68,0,5.92-4.38,10.75-18.46,9.53l-1.51-5.08c9.35,1.37,14.5-.64,14.5-4.55,0-1.82-1.73-3.17-4.29-3.17A10.76,10.76,0,0,0,1105,673a8.08,8.08,0,0,0-1.31,2l-4.45-1.09a115.55,115.55,0,0,0,1.6-13.6l5.22.7A49.14,49.14,0,0,0,1104.91,667.7Zm13.47-10.94-1.15,4.76c-3.36-.44-10.6-2-13.12-2.62l1.21-4.64A101.47,101.47,0,0,0,1118.38,656.76Z" transform="translate(-752.39 -38.56)"/><path d="M1142.51,656.28a13.25,13.25,0,0,0-.26,1.34,48.84,48.84,0,0,0,10.62-1.41l0,4.45a90.13,90.13,0,0,1-11.27,1.12l-.19,2.3a23.16,23.16,0,0,1,4.45-.44h.19c.13-.68.22-1.38.26-1.83l4.7,1.12c-.13.32-.35.9-.55,1.47,3.59,1.32,6.08,4.16,6.08,8,0,4.51-2.46,9.12-10.55,10.34l-2.56-4.07c6.4-.7,8.32-3.9,8.32-6.49a4.2,4.2,0,0,0-2.63-3.87,23.75,23.75,0,0,1-6.49,9.31c.22.77.44,1.53.7,2.27l-4.45,1.31c-.13-.32-.22-.7-.35-1.09a11.77,11.77,0,0,1-4.7,1.09c-2.47,0-4.61-1.47-4.61-5,0-4.13,3.26-8.45,7.77-10.63.07-1.21.16-2.43.29-3.61h-.51c-1.86,0-4.35-.16-6-.23l-.13-4.41a53.42,53.42,0,0,0,6.24.45h.77c.06-.45.13-.87.16-1.28a15.47,15.47,0,0,0,.09-2.15l5,.13C1142.76,655.16,1142.63,655.73,1142.51,656.28Zm-7.43,20.19a5.52,5.52,0,0,0,2.53-.77,47.64,47.64,0,0,1-.61-5.54c-2,1.54-3.2,3.56-3.2,4.93C1133.8,676,1134.12,676.47,1135.08,676.47Zm6.53-4a17.06,17.06,0,0,0,3.23-4.93,15.86,15.86,0,0,0-3.52.58A42.45,42.45,0,0,0,1141.61,672.5Z" transform="translate(-752.39 -38.56)"/><path d="M1173.07,658.48c1.5-.28,2.84-.6,3.93-.92l.13,4.44a42.33,42.33,0,0,1-5.44,1.09,58.79,58.79,0,0,1-6.78,13.79l-4.67-2.36a51.93,51.93,0,0,0,6.33-10.95c-.35,0-.67,0-1,0-1.35,0-2.66,0-4.13-.12l-.35-4.48c1.47.16,3.39.22,4.44.22.84,0,1.67,0,2.5-.1a25,25,0,0,0,.8-5.21l5.31.51C1173.9,655.41,1173.51,656.88,1173.07,658.48Zm8.54,10.44c0,.76.1,2,.16,3.36a20.62,20.62,0,0,1,6.62,4.16l-2.56,4.15a34.84,34.84,0,0,0-3.87-3.26c-.09,3.07-1.76,5.38-6.49,5.38-4.23,0-7.52-2-7.52-5.7,0-3.2,2.52-6,7.45-6a13.5,13.5,0,0,1,1.7.1c-.13-2.28-.26-4.93-.35-6.72h4.86C1181.51,665.81,1181.58,667.35,1181.61,668.92Zm-6.85,9.34c1.92,0,2.5-1.12,2.5-2.91v-.16a11.84,11.84,0,0,0-2.18-.23c-1.57,0-2.56.64-2.56,1.57S1173.42,678.26,1174.76,678.26ZM1178.7,662l2.49-3.84a63.48,63.48,0,0,1,8.16,4.39l-2.75,4.09A46.6,46.6,0,0,0,1178.7,662Z" transform="translate(-752.39 -38.56)"/><path d="M1205.64,657.94a3.22,3.22,0,0,1-.13.54c1.64-.25,3.27-.57,4.9-1v4.84a46.6,46.6,0,0,1-6,1c-.32,1.38-.64,2.75-1,4a104.62,104.62,0,0,1-5.12,14.91L1193,680.5c1.89-3.17,4.42-10,5.63-14.43.2-.74.42-1.51.58-2.27-.58,0-1.12,0-1.63,0-1.63,0-2.88-.07-4-.13l-.13-4.83a33.75,33.75,0,0,0,4.13.25c.86,0,1.7,0,2.59-.06.07-.48.13-.89.16-1.28a18,18,0,0,0,.1-3.58l5.92.44C1206.12,655.64,1205.8,657.21,1205.64,657.94Zm3.91,17.09c0,1.34,1,2.17,3.8,2.17a40.44,40.44,0,0,0,6.85-.67l-.19,4.93a53.63,53.63,0,0,1-6.69.45c-5.6,0-8.57-2-8.57-5.28a23.59,23.59,0,0,1,.6-4.58l4.61.45A11.71,11.71,0,0,0,1209.55,675ZM1214,664c1.79,0,3.71.09,5.66.28l-.09,4.64a47.59,47.59,0,0,0-5.57-.41,48.91,48.91,0,0,0-6.33.35v-4.51C1209.48,664.12,1211.88,664,1214,664Z" transform="translate(-752.39 -38.56)"/><path d="M1226.44,667.73c1.38-1.41,3.71-4.51,5.76-6.85,2.43-2.75,4.74-2.91,7.2-.57s4.93,5.57,6.72,7.55c2.11,2.3,4.61,4.9,7.74,7.71l-4,4.67a97.09,97.09,0,0,1-6.78-7.42c-1.92-2.34-4.29-5.38-5.79-7.1-1-1.09-1.6-1-2.43.09-1.16,1.47-3.2,4.45-4.45,6.18-.77,1.15-1.5,2.4-2.11,3.33l-4.74-4.87A24.37,24.37,0,0,0,1226.44,667.73Z" transform="translate(-752.39 -38.56)"/><path d="M968.19,722v2.37h2.91v4.26h-2.91v5.79c0,2.21-.39,3.46-1.83,4.16s-3.33.8-5.73.8a17.27,17.27,0,0,0-1.37-4.61c1.37.06,3.13.06,3.65.06s.67-.09.67-.51v-5.69h-5.41a27.09,27.09,0,0,1,3.17,4.09l-3.65,2.4a28.22,28.22,0,0,0-3.49-4.92l2.5-1.57h-3.33V727l-2.49.77v11.64h-4.26V729c-1.6.48-3.14.93-4.51,1.32L941,725.91c1.57-.32,3.49-.8,5.6-1.35v-5.31H945a27.89,27.89,0,0,1-1.09,3.71,28.57,28.57,0,0,0-3.23-2.11,40.35,40.35,0,0,0,1.63-10.17l3.84.64c-.1,1.15-.23,2.33-.39,3.52h.9V709h4.26v5.8h2.3v2.88h6.72v-2h-5.38v-4.19h5.38V709h4.61v2.53h5.6v4.19h-5.6v2h7V722Zm-4.61,0h-11v-2.75h-1.72v4.16l2.52-.67.26,1.63h9.92Z" transform="translate(-752.39 -38.56)"/><path d="M988.67,724.28s0,1.12-.07,1.63c-.29,7.58-.61,10.75-1.5,11.87a3.67,3.67,0,0,1-2.59,1.41,22.66,22.66,0,0,1-3.84.16,9.64,9.64,0,0,0-1.22-4,26.3,26.3,0,0,0,2.88.13,1.2,1.2,0,0,0,1.06-.42c.41-.51.67-2.37.86-6.75h-2.53c-.8,4.25-2.33,8.22-5.72,11.13a12.36,12.36,0,0,0-3.11-3.42c4.19-3.46,4.74-8.83,5-13.92h-3V710.55h13.5V722.1h-5.92c0,.74-.09,1.44-.16,2.18ZM979,718h4.83v-3.39H979Zm15.78,13.28h-4.51V713h4.51Zm7.49-21.56V734c0,2.59-.48,3.84-2,4.61s-3.8.89-6.75.89a18.76,18.76,0,0,0-1.6-4.83c2,.1,4.13.1,4.83.1s.87-.19.87-.8V709.72Z" transform="translate(-752.39 -38.56)"/><path d="M1018.71,714.48a40.39,40.39,0,0,0,3.94-.92l.13,4.44a42.69,42.69,0,0,1-5.44,1.09,58.82,58.82,0,0,1-6.79,13.79l-4.67-2.36a51.56,51.56,0,0,0,6.34-10.95c-.35,0-.67,0-1,0-1.35,0-2.66,0-4.13-.12l-.36-4.48c1.48.16,3.4.22,4.45.22.84,0,1.67,0,2.5-.1a25.65,25.65,0,0,0,.8-5.21l5.31.51C1019.55,711.41,1019.16,712.88,1018.71,714.48Zm8.55,10.44c0,.76.09,2,.16,3.36a20.62,20.62,0,0,1,6.62,4.16l-2.56,4.15a34.84,34.84,0,0,0-3.87-3.26c-.1,3.07-1.76,5.38-6.5,5.38-4.22,0-7.52-2-7.52-5.7,0-3.2,2.53-6,7.46-6a13.5,13.5,0,0,1,1.7.1c-.13-2.28-.26-4.93-.36-6.72h4.87C1027.16,721.81,1027.23,723.35,1027.26,724.92Zm-6.85,9.34c1.92,0,2.5-1.12,2.5-2.91v-.16a11.84,11.84,0,0,0-2.18-.23c-1.57,0-2.56.64-2.56,1.57S1019.07,734.26,1020.41,734.26Zm3.94-16.29,2.49-3.84a63.48,63.48,0,0,1,8.16,4.39l-2.75,4.09A46.6,46.6,0,0,0,1024.35,718Z" transform="translate(-752.39 -38.56)"/><path d="M1066.84,716.15s0,1.44,0,2c-.26,13-.48,17.76-1.5,19.26a3.86,3.86,0,0,1-2.72,1.86,19.81,19.81,0,0,1-4,.19,11.34,11.34,0,0,0-1.34-4.41,28.84,28.84,0,0,0,3,.13,1.16,1.16,0,0,0,1.09-.58c.6-.83.86-4.58,1-14.18h-1.95c-.45,8.64-1.89,15.08-7.14,19.33a13.63,13.63,0,0,0-2-2.53c-4.86.48-9.85.93-13.59,1.25l-.52-3.84c1.76-.09,3.91-.22,6.27-.38v-1.38H1038v-3.23h5.37v-.83h-5.24V718.61h5.24v-.8h-6v-3.29h6v-.77c-1.72.09-3.45.16-5.08.19a13.89,13.89,0,0,0-1-3.26,97.31,97.31,0,0,0,13.85-1.54l1.95,3.42c-1.66.36-3.55.61-5.53.84v1.12h5.79v3.29h-5.79v.8h5.37v10.18h-5.37v.83h5.56v3.23c2-3.2,2.66-7.29,2.88-12.45h-2.52v-4.25h2.62v-6.5h4.45c0,2.27,0,4.45,0,6.5Zm-25.09,6.24h1.6v-1h-1.6Zm1.6,3.58v-1h-1.6v1Zm4.2-4.54v1h1.56v-1Zm1.56,3.58h-1.56v1h1.56Zm-1.56,8.93,5.08-.38c.16-.23.32-.45.48-.71h-5.56Z" transform="translate(-752.39 -38.56)"/><path d="M1098.91,710.87v4.32h-12.36v2h5.38v14.72h-15.2V717.2h5.12v-2h-12.06v-4.32Zm-5.54,5.82h4.51v22.75h-4.51v-1.82h-18.08v1.82h-4.51V716.69h4.51v16.55h18.08Zm-12.86,6.11h1.72V721h-1.72Zm0,5.38h1.72v-1.89h-1.72ZM1088,721h-1.76v1.85H1088Zm0,5.34h-1.76v1.89H1088Z" transform="translate(-752.39 -38.56)"/><path d="M1114.75,714.32c-.2.87-.39,1.76-.58,2.6.86-.07,1.6-.1,2.18-.1,3.68,0,6.11,1.73,6.11,6.53,0,3.74-.42,9-1.79,11.81-1.09,2.3-3,3.1-5.57,3.1a19.27,19.27,0,0,1-3.91-.45l-.83-5.09a21,21,0,0,0,3.91.68,2.16,2.16,0,0,0,2.17-1.22c.8-1.6,1.19-5.34,1.19-8.32,0-2.34-1-2.62-3-2.62q-.57,0-1.53.09c-1.28,5-3.68,12.74-6.4,17.12l-5.06-2c3-4.1,5.12-10.18,6.31-14.56l-2,.28c-1,.16-2.88.42-3.93.61l-.45-5.21c1.25.09,2.46,0,3.74,0,.93,0,2.24-.13,3.68-.23a32.49,32.49,0,0,0,.61-6.69l5.76.61C1115.19,712.21,1114.94,713.43,1114.75,714.32Zm13.08-.06-1,.45A56.36,56.36,0,0,1,1132,726.2l-5,2.27c-.77-3.71-2.91-9.38-5.21-12.32l2.72-1.15a30.73,30.73,0,0,0-2.18-3.91l3-1.21A49.69,49.69,0,0,1,1127.83,714.26Zm4-1.57-3,1.28a35.78,35.78,0,0,0-2.52-4.41l3-1.22A43.49,43.49,0,0,1,1131.8,712.69Z" transform="translate(-752.39 -38.56)"/><path d="M1161.88,723.44v16h-4.57v-.86H1146v.86h-4.36v-16h7.62v-2.65H1141c-.07,5.63-.71,13.66-4,18.65a18.51,18.51,0,0,0-4.16-2.4c3.2-4.8,3.42-12.06,3.42-17.12v-9.47h25.12v10.34h-7.65v2.65Zm-20.92-8.8v2h15.71v-2Zm5,12.87v1.57h3.26v-1.57Zm0,7h3.26v-1.76H1146Zm7.77-7v1.57h3.59v-1.57Zm3.59,7v-1.76h-3.59v1.76Z" transform="translate(-752.39 -38.56)"/><path d="M1181,720c-.1-.29-.19-.55-.29-.8-.19-.61-.38-1.12-.51-1.57a78.79,78.79,0,0,1-10.66-.32l-.25-4.42a70.46,70.46,0,0,0,9.66.51c-.29-.92-.61-1.88-1-2.91l5.18-.54c.13,1.12.32,2.14.52,3.13a33.5,33.5,0,0,0,6.14-1.34l.61,4.42a40.94,40.94,0,0,1-5.67,1.12c.1.38.23.73.36,1.12s.28.76.44,1.21a40,40,0,0,0,6-1.28l.76,4.58c-1.44.35-3,.64-4.7.89.42.8.86,1.57,1.28,2.21a10.42,10.42,0,0,0,1.57,1.83l-2.27,3.48c-1.8-.32-5.54-.76-7.94-1l.38-3.68,3.59.29c-.51-.9-1-1.76-1.38-2.63a123.14,123.14,0,0,1-13.82-.06l-.26-4.54A92.88,92.88,0,0,0,1181,720Zm-6.75,10.91c0,2.21,2.17,3,6,3a44.6,44.6,0,0,0,8.26-.7l-.29,4.93a57.11,57.11,0,0,1-8,.6c-6.46,0-10.69-1.92-10.78-6.71a11.13,11.13,0,0,1,1.47-5.48l4.8.9A5.86,5.86,0,0,0,1174.27,730.87Z" transform="translate(-752.39 -38.56)"/><path d="M1215.64,712.6c0,.25,0,.57,0,.92a69.58,69.58,0,0,0,7.78-.83l0,4.42c-1.92.29-4.73.54-7.8.67,0,.93,0,1.82,0,2.66,3.3-.16,5.86-.45,8.32-.74l0,4.54c-2.81.29-5.15.48-8.19.58.06,1,.13,2.11.19,3.2a24.28,24.28,0,0,1,8.77,4.77l-2.78,4.32a24.27,24.27,0,0,0-5.73-4.16v.64c0,3-2.43,5-6.66,5-5.4,0-8.19-2.14-8.19-5.69s3.07-5.86,8.16-5.86c.54,0,1.06,0,1.57.07,0-.74-.07-1.51-.1-2.24h-1.57c-1.69,0-5.37-.16-7.39-.42l-.06-4.54a56,56,0,0,0,7.52.6h1.44c0-.86,0-1.76,0-2.62h-1a73.14,73.14,0,0,1-7.68-.58L1202,713a61.08,61.08,0,0,0,7.74.7h1.09V712.6a12.22,12.22,0,0,0-.22-2.34h5.25A23.19,23.19,0,0,0,1215.64,712.6Zm-7,21.66c1.64,0,2.53-.45,2.53-2.08,0-.22,0-.54,0-.93a14.4,14.4,0,0,0-2.4-.19c-1.79,0-2.81.7-2.81,1.6C1205.92,733.71,1207,734.26,1208.63,734.26Z" transform="translate(-752.39 -38.56)"/><path d="M1249.43,713.52v.36c3,0,7.27-.07,8.93,0l-.06,4.58c-1.89-.1-4.9-.16-8.93-.19,0,1.53,0,3.17,0,4.51a8.27,8.27,0,0,1,1.25,4.58c0,4.09-2.66,9.66-10.66,11.84l-4.12-4.13c2.78-.58,5.44-1.35,7.32-2.82a3.63,3.63,0,0,1-.57,0,5.93,5.93,0,0,1-5.66-6.14c0-3.87,3.1-6.24,6.81-6.24a6.87,6.87,0,0,1,.8,0c0-.54,0-1.09,0-1.63-4.8.06-9.54.26-13.44.45l-.13-4.64c3.71,0,9.38-.1,13.5-.16a1.55,1.55,0,0,1,0-.35c-.13-1.54-.25-2.72-.35-3.2h5.6C1249.59,711,1249.47,713,1249.43,713.52ZM1243.64,728c1,0,2.11-.74,1.76-3.17a2.05,2.05,0,0,0-1.76-.87,2,2,0,0,0-2.05,2.08A2,2,0,0,0,1243.64,728Z" transform="translate(-752.39 -38.56)"/><path d="M1271.29,733.3a3.38,3.38,0,1,1,3.36,3.55A3.36,3.36,0,0,1,1271.29,733.3ZM1272,717l-.2-5.09h5.73l-.19,5.09-.83,10.81h-3.68Z" transform="translate(-752.39 -38.56)"/></svg>